<svg xmlns="http://www.w3.org/2000/svg" width="13" height="18.629" viewBox="0 0 13 18.629"><defs><style>.a{fill:#a7a8bc;}</style></defs><path class="a" d="M29.307,34.965a.464.464,0,0,0,0,.657,2.325,2.325,0,0,0,3.283,0,.464.464,0,1,0-.657-.657,1.4,1.4,0,0,1-1.97,0A.464.464,0,0,0,29.307,34.965Z" transform="translate(-24.449 -19.587)"/><path class="a" d="M27.732,29.009a.232.232,0,0,1,.328,0,.464.464,0,0,0,.657-.657,1.19,1.19,0,0,0-1.642,0,.464.464,0,0,0,.657.657Z" transform="translate(-23.253 -15.942)"/><path class="a" d="M35.732,29.009a.232.232,0,0,1,.328,0,.464.464,0,0,0,.657-.657,1.19,1.19,0,0,0-1.642,0,.464.464,0,0,0,.657.657Z" transform="translate(-27.539 -15.942)"/><path class="a" d="M28.286,19.634a4.634,4.634,0,0,0,1.857-3.705,1.857,1.857,0,1,0,0-3.714V10.839l.292-4.083a2.318,2.318,0,0,0-1.22-4.291,2.288,2.288,0,0,0-1.538.587,2.778,2.778,0,0,0-4.353,0,2.288,2.288,0,0,0-1.538-.587,2.318,2.318,0,0,0-1.22,4.291L20.726,9a.465.465,0,0,0,.929-.066l-.178-2.5a.464.464,0,0,0-.268-.388A1.389,1.389,0,1,1,22.98,4.083a.469.469,0,0,0,.427.228.464.464,0,0,0,.4-.275,1.852,1.852,0,0,1,3.389,0,.464.464,0,0,0,.825.046,1.389,1.389,0,1,1,1.776,1.965.464.464,0,0,0-.268.388l-.28,3.922H27.419l.4-3.192A.464.464,0,0,0,26.9,7.05l-.414,3.308H24.517L24.1,7.05a.464.464,0,0,0-.921.115l.4,3.192h-2.26a.464.464,0,0,0-.464.464v1.393a1.857,1.857,0,0,0,0,3.714,4.634,4.634,0,0,0,1.857,3.705,5.64,5.64,0,0,0,2.785,1A5.65,5.65,0,0,0,28.286,19.634Zm2.786-5.563a.929.929,0,0,1-.929.929V13.143A.929.929,0,0,1,31.071,14.071Zm-9.286-2.786h7.429v.929H21.786Zm-1.857,2.786a.929.929,0,0,1,.929-.929V15A.929.929,0,0,1,19.929,14.071Zm1.857,1.857V13.143h7.429v2.786a3.714,3.714,0,0,1-7.429,0Z" transform="translate(-19 -2)"/></svg>