<svg xmlns="http://www.w3.org/2000/svg" width="24.673" height="25" viewBox="0 0 24.673 25"><defs><style>.a{fill:#fff;}</style></defs><path class="a" d="M27.777,17.533a2.668,2.668,0,0,0-.105-.431,2.742,2.742,0,0,0-3.041-1.776.794.794,0,0,1-.908-.661l-.659-4.218a9.2,9.2,0,0,0-6.592-7.473A3.547,3.547,0,0,0,9.461,4.053a8.875,8.875,0,0,0-4.02,8.887l.706,4.489a.8.8,0,0,1-.661.908A2.743,2.743,0,0,0,3.137,20.96a2.669,2.669,0,0,0,2.641,2.7h.028a2.737,2.737,0,0,0,.415-.032l2.738-.431A3.529,3.529,0,0,0,15.5,22.166l10.057-1.583A2.669,2.669,0,0,0,27.777,17.533ZM12.709,1.892a1.869,1.869,0,0,1,.28-.022,1.788,1.788,0,0,1,1.481.8h-.043a8.479,8.479,0,0,0-.995.028,9.036,9.036,0,0,0-1.036.16c-.074.015-.147.036-.22.054-.28.066-.555.143-.825.235-.027.008-.054.012-.081.022A1.779,1.779,0,0,1,12.709,1.892ZM12.033,23.22a1.755,1.755,0,0,1-1.047-.345l2.491-.391A1.779,1.779,0,0,1,12.033,23.22ZM25.9,18.41a.89.89,0,0,1-.623.416L14.562,20.511l-5.207.819-3.407.534a.879.879,0,0,1-.719-.2.889.889,0,0,1-.312-.689.965.965,0,0,1,.847-.877A2.58,2.58,0,0,0,7.9,17.153L7.2,12.664a7.135,7.135,0,0,1,3.6-7.345l.045-.018A7.117,7.117,0,0,1,13.6,4.47a6.424,6.424,0,0,1,.879-.017l.146.007a7,7,0,0,1,.9.114h.028a7.393,7.393,0,0,1,5.75,6.147l.664,4.218a2.574,2.574,0,0,0,2.941,2.143.965.965,0,0,1,1.075.573A.889.889,0,0,1,25.9,18.41Z" transform="translate(-3.137 0.001)"/></svg>