<svg xmlns="http://www.w3.org/2000/svg" width="18" height="18" viewBox="0 0 18 18"><defs><style>.a{fill:#a7a8bc;}</style></defs><g transform="translate(3.375 3.375)"><path class="a" d="M103.313,96h-6.75a.563.563,0,0,0,0,1.125h6.75a.563.563,0,1,0,0-1.125Z" transform="translate(-96 -96)"/></g><g transform="translate(3.375 5.625)"><path class="a" d="M101.063,160h-4.5a.563.563,0,0,0,0,1.125h4.5a.563.563,0,1,0,0-1.125Z" transform="translate(-96 -160)"/></g><path class="a" d="M12.375,0H2.25A2.252,2.252,0,0,0,0,2.25V13.5a.562.562,0,0,0,.324.51.571.571,0,0,0,.239.053.562.562,0,0,0,.36-.13L4.141,11.25h8.234A2.252,2.252,0,0,0,14.625,9V2.25A2.252,2.252,0,0,0,12.375,0ZM13.5,9a1.126,1.126,0,0,1-1.125,1.125H3.938a.562.562,0,0,0-.36.13L1.125,12.3V2.25A1.126,1.126,0,0,1,2.25,1.125H12.375A1.126,1.126,0,0,1,13.5,2.25Z"/><g transform="translate(4.5 4.5)"><path class="a" d="M139.25,128a.563.563,0,1,0,0,1.125,1.126,1.126,0,0,1,1.125,1.125v9.516l-1.9-1.519a.567.567,0,0,0-.351-.123H130.25A1.126,1.126,0,0,1,129.125,137v-.562a.563.563,0,0,0-1.125,0V137a2.252,2.252,0,0,0,2.25,2.25h7.677l2.658,2.127a.563.563,0,0,0,.915-.44V130.25A2.252,2.252,0,0,0,139.25,128Z" transform="translate(-128 -128)"/></g></svg>