<svg xmlns="http://www.w3.org/2000/svg" width="87.71" height="67.553" viewBox="0 0 87.71 67.553"><defs><style>.a{fill:#545353;}.b{fill:#898483;}.c{fill:#7a7675;}.d{fill:#a29a97;}.e{fill:#686767;}.f{fill:#e0aa70;}.g{fill:#d49d64;}.h{fill:#f0f0f0;}.i{fill:#e72318;}.j{fill:#f76f3e;}.k{fill:#a7a7a8;}.l{fill:#26a65b;}.m{fill:#000400;}.n{fill:#c4d29a;}.o{fill:#d5e5a8;}.p{fill:#2f8e22;}.q{fill:#2ea341;}.r{fill:#f7423e;}.s{fill:#f5c33c;}.t{fill:#e5b112;}.u{fill:#f3a600;}.v{fill:#ef7a2b;}</style></defs><g transform="translate(0 0.003)"><path class="a" d="M52.56,34.37V44.44l9.01.56V33.8Z"/><path class="b" d="M87.71,39.26a4.48,4.48,0,0,0-4-4.47,13.1,13.1,0,0,0-1.89,0l-20.21.86V39.6h26.1Z"/><path class="c" d="M61.57,39.55v3.66l20.21.86a13.1,13.1,0,0,0,1.89,0,4.49,4.49,0,0,0,4-4.47H61.57Z"/><path class="d" d="M56.3,39.4A28.15,28.15,0,1,1,28.15,11.25,28.15,28.15,0,0,1,56.3,39.4Z"/><circle class="a" cx="26.79" cy="26.79" r="26.79" transform="translate(1.36 12.61)"/><path class="e" d="M48.53,39.4a20.37,20.37,0,1,1-5.959-14.427A20.38,20.38,0,0,1,48.53,39.4Z"/><path class="e" d="M52.56,36.39c0,.71-.27,1.28-.61,1.28s-.61-.57-.61-1.28.27-1.29.61-1.29S52.56,35.68,52.56,36.39Z"/><path class="e" d="M52.56,42.42c0,.71-.27,1.28-.61,1.28s-.61-.57-.61-1.28.27-1.29.61-1.29S52.56,41.71,52.56,42.42Z"/><path class="f" d="M46.7,37.39l8.46-7a5.62,5.62,0,0,0,1.13-1.32c2.63-4.36,5.87-8.71,10.36-11.29L86.79,6.12a.92.92,0,0,0,.37-1.28L84.38.4A.93.93,0,0,0,83.06.18L63.48,13.4c-4.18,2.84-9.39,3.85-14.35,4.35a5.77,5.77,0,0,0-1.64.43l-10,4.58a2.78,2.78,0,0,0-1.3,3.91l6.38,10.18a2.5,2.5,0,0,0,1.49,1.09,3,3,0,0,0,2.64-.55Z"/><path class="g" d="M46.7,37.39l8.46-7a5.62,5.62,0,0,0,1.13-1.32c2.63-4.36,5.87-8.71,10.36-11.29L86.79,6.12a.92.92,0,0,0,.37-1.28l-2-3.15L58.24,18.58c-7.36,4.61-11.8,13.29-14.14,19.36A3,3,0,0,0,46.7,37.39Z"/><path class="h" d="M35,24.84a5.43,5.43,0,1,0,5.42,5.43A5.43,5.43,0,0,0,35,24.84Zm.37,9.93a4.5,4.5,0,1,1,4.34-4.5,4.42,4.42,0,0,1-4.39,4.5Z"/><path class="h" d="M40.24,30.27a4.46,4.46,0,1,0,4.45,4.46,4.46,4.46,0,0,0-4.45-4.46Zm.3,8.14a3.69,3.69,0,1,1,3.56-3.68A3.62,3.62,0,0,1,40.54,38.41Z"/><path class="i" d="M18.46,31.64a5.14,5.14,0,1,1-7.28-.13,5.14,5.14,0,0,1,7.28.13Z"/><path class="j" d="M19.12,32.33c1.61,1.66,1.25,4.61-.79,6.58s-5,2.23-6.61.57-1.25-4.61.79-6.59S17.52,30.66,19.12,32.33Z"/><path class="i" d="M18.5,33.1c1.32,1.36,1,3.82-.72,5.48s-4.18,1.9-5.5.53-1-3.82.72-5.48S17.18,31.73,18.5,33.1Z"/><path class="j" d="M12.48,36.75c.25,0,.52.48.52.48s-.41.31-.67.26a.39.39,0,1,1,.15-.74Z"/><path class="j" d="M12.42,35.61c.25,0,.53.47.53.47s-.4.31-.65.27a.38.38,0,1,1,.12-.74Z"/><path class="j" d="M13.18,34.62a1.24,1.24,0,0,1,.1.7s-.51,0-.67-.21a.43.43,0,0,1,0-.6.44.44,0,0,1,.57.11Z"/><path class="j" d="M14,33.62c.16.21.07.71.07.71s-.5,0-.66-.25a.38.38,0,1,1,.59-.46Z"/><path class="j" d="M15,33.09a1.26,1.26,0,0,1-.12.7s-.48-.17-.58-.41a.42.42,0,0,1,.17-.57A.43.43,0,0,1,15,33.09Z"/><path class="j" d="M16.43,32.89a1.427,1.427,0,0,1-.31.63s-.41-.31-.43-.57a.38.38,0,1,1,.74-.06Z"/><path class="j" d="M18.39,35.47c-.25-.06-.49-.5-.49-.5s.42-.29.67-.23a.38.38,0,1,1-.18.73Z"/><path class="j" d="M18.4,36.61c-.25,0-.51-.49-.51-.49s.42-.29.67-.24a.38.38,0,1,1-.16.73Z"/><path class="j" d="M17.6,37.57c-.15-.2-.07-.7-.07-.7s.51,0,.67.24a.44.44,0,0,1,0,.6A.45.45,0,0,1,17.6,37.57Z"/><path class="j" d="M16.71,38.53c-.15-.21,0-.71,0-.71s.5.07.65.28a.43.43,0,0,1,0,.6.42.42,0,0,1-.65-.17Z"/><path class="j" d="M15.77,39c-.09-.24.15-.69.15-.69s.47.19.56.44a.42.42,0,0,1-.19.56.43.43,0,0,1-.52-.31Z"/><path class="j" d="M14.28,39.17c0-.26.34-.62.34-.62s.39.32.41.58a.38.38,0,1,1-.75,0Z"/><path class="j" d="M18.8,32.8a3.73,3.73,0,0,1,1,1.93,1.2,1.2,0,0,0-.93-.7c-.67-.08-1.16.44-1.56.88-.56.62-1.14,1.21-1.73,1.78-.94.91-2.09,2-1.58,3.51a3.43,3.43,0,0,1-1.95-1.08,2.7,2.7,0,0,1-.61-.86c-.11-.25-.15-1-.36-1.15a2.07,2.07,0,0,0,1.62.6,2,2,0,0,0,.85-.54c1.27-1.14,3-2.17,3-4.06a1.62,1.62,0,0,0-.12-.76.8.8,0,0,0-.59-.45c.47.05.91-.24,1.38-.1a3.91,3.91,0,0,1,1.35.79Z"/><path class="k" d="M13.41,37.36a10.8,10.8,0,0,1,3.34-6.89,5.14,5.14,0,0,0-5.69,8.32,4.27,4.27,0,0,0,.38.36l.28.33a3.64,3.64,0,0,0,1.93,1,10,10,0,0,1-.24-3.12Z"/><path class="i" d="M26.4,28.67a5.14,5.14,0,1,1-7.27-.12,5.14,5.14,0,0,1,7.27.12Z"/><path class="j" d="M27.06,29.36c1.61,1.66,1.25,4.61-.79,6.58s-5,2.22-6.6.56-1.25-4.6.79-6.57S25.46,27.7,27.06,29.36Z"/><path class="i" d="M26.44,30.13c1.32,1.37,1,3.82-.71,5.48s-4.18,1.89-5.5.52-1-3.81.72-5.47S25.12,28.77,26.44,30.13Z"/><path class="j" d="M20.43,33.78c.25,0,.52.48.52.48s-.41.3-.66.26a.39.39,0,1,1,.14-.74Z"/><path class="j" d="M20.37,32.64c.25,0,.53.47.53.47s-.4.31-.65.27a.38.38,0,1,1,.12-.74Z"/><path class="j" d="M21.13,31.65a1.27,1.27,0,0,1,.1.71s-.51,0-.67-.22a.43.43,0,0,1,0-.6A.44.44,0,0,1,21.13,31.65Z"/><path class="j" d="M22,30.66c.16.2.07.7.07.7s-.5,0-.66-.25a.38.38,0,1,1,.59-.45Z"/><path class="j" d="M22.89,30.13c.1.23-.11.69-.11.69s-.48-.17-.58-.4a.44.44,0,0,1,.17-.58.42.42,0,0,1,.52.29Z"/><path class="j" d="M24.38,29.92a1.353,1.353,0,0,1-.32.63s-.4-.3-.43-.56a.44.44,0,0,1,.33-.5.42.42,0,0,1,.42.43Z"/><path class="j" d="M26.33,32.51c-.24-.07-.49-.51-.49-.51s.42-.28.67-.22a.42.42,0,0,1,.36.47.43.43,0,0,1-.54.26Z"/><path class="j" d="M26.35,33.64c-.26,0-.52-.49-.52-.49s.42-.29.67-.24a.43.43,0,0,1,.38.46.42.42,0,0,1-.53.27Z"/><path class="j" d="M25.55,34.6c-.16-.2-.08-.7-.08-.7s.51,0,.67.24a.379.379,0,1,1-.59.46Z"/><path class="j" d="M24.65,35.56c-.15-.21,0-.71,0-.71s.51.07.65.28a.4.4,0,1,1-.65.43Z"/><path class="j" d="M23.72,36.05c-.09-.24.14-.69.14-.69s.47.19.56.43a.383.383,0,1,1-.7.26Z"/><path class="j" d="M22.23,36.19c0-.25.34-.61.34-.61s.39.32.4.58a.42.42,0,0,1-.35.48.43.43,0,0,1-.39-.45Z"/><path class="j" d="M26.75,29.84a3.71,3.71,0,0,1,1,1.93,1.22,1.22,0,0,0-.93-.71c-.67-.08-1.15.44-1.56.89-.55.61-1.13,1.2-1.72,1.77-.95.91-2.09,2-1.58,3.51A3.49,3.49,0,0,1,20,36.15a2.91,2.91,0,0,1-.61-.87c-.1-.24-.15-1-.35-1.14a2,2,0,0,0,1.61.6,2,2,0,0,0,.85-.54c1.26-1.14,2.94-2.17,3-4.06a1.59,1.59,0,0,0-.13-.75.78.78,0,0,0-.58-.45c.46,0,.91-.24,1.38-.11a4.15,4.15,0,0,1,1.34.8,1.51,1.51,0,0,1,.24.21Z"/><path class="k" d="M21.36,34.39a10.74,10.74,0,0,1,3.33-6.88A5.13,5.13,0,0,0,19,35.81c.12.13.25.25.38.37s.18.22.28.32a3.57,3.57,0,0,0,1.93,1,9.69,9.69,0,0,1-.23-3.11Z"/><path class="l" d="M31.6,39.65c-7.19-4.48-10.78.36-10.54.32C21.06,40,24,42.54,31.6,39.65Z"/><path class="m" d="M25.79,24.64a2.39,2.39,0,1,0,1.7.7,2.4,2.4,0,0,0-1.7-.7Zm0,3.86a1.46,1.46,0,1,1,1.047-.442,1.47,1.47,0,0,1-1.047.442Z"/><path class="m" d="M32.66,34.6a2.51,2.51,0,1,0,1.781.732A2.52,2.52,0,0,0,32.66,34.6Zm0,4a.643.643,0,1,1,0,.05Z"/><path class="n" d="M13.21,28.15a2.05,2.05,0,0,0,2.65-.21,17.35,17.35,0,0,1,6.07-3.35c-.15-.4-.29-.81-.43-1.21a14.31,14.31,0,0,0-8.29,4.77Z"/><path class="o" d="M13.79,25.35c-1,.78-1.3,2.12-.61,2.77h0a14.31,14.31,0,0,1,8.29-4.77c-.18-.52-.34-1.05-.5-1.58a20.66,20.66,0,0,0-7.18,3.58Z"/><path class="p" d="M22.08,23.27l-.58.11c.14.4.28.81.43,1.21.53-.17,1.06-.31,1.59-.44,10.9-1.16,14.05,5.64,14.05,5.64a2.86,2.86,0,0,0,.8-.67A14.3,14.3,0,0,0,25.52,23.8,15,15,0,0,1,39,28.93c.1-.1.87-.44,1-.53a35.51,35.51,0,0,0-6.51-4.65l-1-.41C29.06,22.15,25.54,22.74,22.08,23.27Z"/><path class="q" d="M40.38,28l.64-.65A20.47,20.47,0,0,0,21,21.8c.16.53.32,1.06.5,1.58l.58-.11c3.46-.53,7-1.12,10.37.07l1,.41a15.13,15.13,0,0,0-3.39-1.34C30.37,22.47,36.55,23.71,40.38,28Z"/><path class="r" d="M21.58,52.56a6,6,0,0,1,.91-4.1,4.38,4.38,0,0,1,2.43-1.62,3.24,3.24,0,0,1,1.5.06A3.31,3.31,0,0,0,27,47c-.06-.17-.19-.4-.28-.59A4.19,4.19,0,0,1,26.14,45a1.62,1.62,0,0,1,0-.44A4,4,0,0,1,30,41.22a3.31,3.31,0,0,1,3.35,2.5A2.3,2.3,0,0,1,33,45.23l-.07.16a2.871,2.871,0,0,0,.3-.14l.49-.21a4,4,0,0,1,3.35.12,5.11,5.11,0,0,1,2.07,2.49,5.63,5.63,0,0,1,.08,4.63,4.761,4.761,0,0,1-.39.64,4.62,4.62,0,0,1-3.61,1.79,3.2,3.2,0,0,1-.8-.11,2.55,2.55,0,0,0,.06.53,3.491,3.491,0,0,0,.07.43,2.3,2.3,0,0,1-.17,1.26,5.45,5.45,0,0,1-4.94,2.71,3.06,3.06,0,0,1-2.79-2.27,1.94,1.94,0,0,1-.07-.33,2.19,2.19,0,0,1,.21-1.14,1.2,1.2,0,0,0,.12-.37q0-.1,0-.21h0a2.3,2.3,0,0,1-.66.66,2.84,2.84,0,0,1-3.46-.51,4.74,4.74,0,0,1-1.21-2.8Zm7-5.6a1.37,1.37,0,0,1-1.16,1.53,2.92,2.92,0,0,1-1.32-.05,2.14,2.14,0,0,0-.8-.08,2.76,2.76,0,0,0-1.54,1,4.42,4.42,0,0,0-.62,3,3.26,3.26,0,0,0,.78,1.91,1.28,1.28,0,0,0,1.56.26l.2-.26A1.77,1.77,0,0,1,27,53.4a1.43,1.43,0,0,1,1.46,1.39,4.5,4.5,0,0,1,0,.73,2.66,2.66,0,0,1-.24.87c-.1.24-.12.31-.09.42A1.47,1.47,0,0,0,29.6,58,3.87,3.87,0,0,0,33,56.14a.77.77,0,0,0,0-.4.8.8,0,0,0-.05-.34c-.05-.11,0-.28-.07-.41a2.13,2.13,0,0,1,.13-1.1,1.34,1.34,0,0,1,1.74-.82,2.53,2.53,0,0,0,.48.07A3,3,0,0,0,37.6,52a2.06,2.06,0,0,0,.24-.39,4.11,4.11,0,0,0-.11-3.32,3.63,3.63,0,0,0-1.41-1.75,2.93,2.93,0,0,0-2.38.15,2.21,2.21,0,0,1-1.76.29,1.35,1.35,0,0,1-.77-.82,1.37,1.37,0,0,1-.08-.35h0a2.23,2.23,0,0,1,.28-1.22,1.5,1.5,0,0,0,.18-.53A1.75,1.75,0,0,0,30,42.79a2.44,2.44,0,0,0-2.31,2h0a3.1,3.1,0,0,0,.38.88A3.93,3.93,0,0,1,28.58,47Z"/><path class="i" d="M22.62,52.3a5.34,5.34,0,0,1,.81-3.62,3.75,3.75,0,0,1,2.14-1.43,2.93,2.93,0,0,1,1.33,0,3.589,3.589,0,0,0,.49.07c-.06-.15-.17-.36-.25-.52a4,4,0,0,1-.49-1.26,1.7,1.7,0,0,1,0-.39A3.55,3.55,0,0,1,30,42.28a2.93,2.93,0,0,1,3,2.21,2.11,2.11,0,0,1-.26,1.33.219.219,0,0,1-.06.15l.26-.12a2.09,2.09,0,0,1,.44-.19,3.45,3.45,0,0,1,2.95.1A4.53,4.53,0,0,1,38.17,48a5,5,0,0,1,.06,4.09,3.64,3.64,0,0,1-.34.56,4,4,0,0,1-3.19,1.58,3.16,3.16,0,0,1-.7-.13,2.82,2.82,0,0,0,.06.47l.06.37A2,2,0,0,1,34,56.06a4.82,4.82,0,0,1-4.36,2.39,2.68,2.68,0,0,1-2.47-2,1.5,1.5,0,0,1-.06-.29,1.94,1.94,0,0,1,.19-1,1.34,1.34,0,0,0,.1-.33q0-.09,0-.18h0a1.91,1.91,0,0,1-.58.59,2.52,2.52,0,0,1-3.06-.45,4.34,4.34,0,0,1-1.14-2.49Zm6.19-4.95a1.22,1.22,0,0,1-1,1.36,2.51,2.51,0,0,1-1.16-.06,2,2,0,0,0-.71-.06,2.47,2.47,0,0,0-1.36.9A4,4,0,0,0,24,52.14a2.89,2.89,0,0,0,.69,1.68,1.11,1.11,0,0,0,1.38.23,1.77,1.77,0,0,0,.18-.22,1.55,1.55,0,0,1,1.2-.79,1.27,1.27,0,0,1,1.29,1.23,3.41,3.41,0,0,1,0,.64,2.39,2.39,0,0,1-.2.77c-.09.22-.11.28-.08.37a1.3,1.3,0,0,0,1.25,1,3.44,3.44,0,0,0,3-1.61.72.72,0,0,0,0-.35,2.681,2.681,0,0,0,0-.3v-.37a1.82,1.82,0,0,1,.11-1,1.17,1.17,0,0,1,1.54-.72,1.93,1.93,0,0,0,.42.06,2.69,2.69,0,0,0,2.08-1,2.389,2.389,0,0,0,.21-.34,3.59,3.59,0,0,0-.1-2.93A3.18,3.18,0,0,0,35.65,47a2.1,2.1,0,0,0-1.83,0l-.28.12a1.92,1.92,0,0,1-1.55.26,1.2,1.2,0,0,1-.68-.72,1.77,1.77,0,0,1-.08-.31h0a1.93,1.93,0,0,1,.26-1.08,1.25,1.25,0,0,0,.15-.47,1.53,1.53,0,0,0-1.57-1.1,2.16,2.16,0,0,0-2,1.73h0a3,3,0,0,0,.33.77,3.57,3.57,0,0,1,.41,1.15Z"/><path class="s" d="M37.88,54a5.2,5.2,0,0,1-3.42-1.2,3.74,3.74,0,0,1-1.15-2.24,3,3,0,0,1,.2-1.29,2.11,2.11,0,0,0,.13-.47,5.62,5.62,0,0,0-.53.19,3.73,3.73,0,0,1-1.28.33,1.58,1.58,0,0,1-.38,0A3.49,3.49,0,0,1,29,45.7a2.86,2.86,0,0,1,2.48-2.63,2,2,0,0,1,1.27.4l.13.08a2.829,2.829,0,0,0-.09-.27,4.45,4.45,0,0,1-.13-.45A3.38,3.38,0,0,1,33.1,40a4.34,4.34,0,0,1,2.35-1.53,4.82,4.82,0,0,1,4,.4,3.2,3.2,0,0,1,.51.4,3.93,3.93,0,0,1,1.17,3.27,2.79,2.79,0,0,1-.17.68h.83a2,2,0,0,1,1.07.27A4.71,4.71,0,0,1,44.66,48a2.63,2.63,0,0,1-2.23,2.16,1.43,1.43,0,0,1-.29,0,1.85,1.85,0,0,1-1-.3.9.9,0,0,0-.3-.13h-.18a2.16,2.16,0,0,1,.5.64,2.45,2.45,0,0,1-.79,2.92,4.18,4.18,0,0,1-2.49.71Zm-4.1-6.58A1.19,1.19,0,0,1,35,48.62a2.45,2.45,0,0,1-.18,1.12,1.72,1.72,0,0,0-.14.68,2.37,2.37,0,0,0,.72,1.43,3.91,3.91,0,0,0,2.5.83,2.83,2.83,0,0,0,1.72-.48A1.09,1.09,0,0,0,40,50.89l-.2-.2a1.5,1.5,0,0,1-.62-1.26,1.23,1.23,0,0,1,1.33-1.11,3.91,3.91,0,0,1,.63.07,2.34,2.34,0,0,1,.72.29c.2.11.26.14.35.12a1.29,1.29,0,0,0,1.14-1.1,3.38,3.38,0,0,0-1.22-3.09.61.61,0,0,0-.35-.07h-.65a1.87,1.87,0,0,1-.93-.22,1.16,1.16,0,0,1-.53-1.58,1.76,1.76,0,0,0,.11-.41,2.61,2.61,0,0,0-.78-2.1,2.341,2.341,0,0,0-.31-.24,3.55,3.55,0,0,0-2.86-.25,3.19,3.19,0,0,0-1.64,1,2,2,0,0,0-.2,1.77.457.457,0,0,0,.08.29,1.87,1.87,0,0,1,.07,1.54,1.13,1.13,0,0,1-.78.57,1,1,0,0,1-.3,0h0a1.89,1.89,0,0,1-1-.37,1.23,1.23,0,0,0-.44-.2,1.51,1.51,0,0,0-1.25,1.39A2.14,2.14,0,0,0,31.8,48h0a3,3,0,0,0,.79-.23,3.34,3.34,0,0,1,1.19-.31Z"/><path class="t" d="M37.76,53.11a4.59,4.59,0,0,1-3-1,3.24,3.24,0,0,1-1-2,2.54,2.54,0,0,1,.17-1.13,2.23,2.23,0,0,0,.12-.41,3.38,3.38,0,0,0-.48.16,3.2,3.2,0,0,1-1.12.29,1.86,1.86,0,0,1-.34,0,3.06,3.06,0,0,1-2.16-3.19,2.54,2.54,0,0,1,2.19-2.33,1.85,1.85,0,0,1,1.12.36l.12.07-.08-.24a2.827,2.827,0,0,1-.12-.39,3,3,0,0,1,.39-2.53,3.92,3.92,0,0,1,2.07-1.35,4.29,4.29,0,0,1,3.51.36,3,3,0,0,1,.45.35,3.48,3.48,0,0,1,1,2.89,2.73,2.73,0,0,1-.15.6h.73a1.8,1.8,0,0,1,1,.24,4.17,4.17,0,0,1,1.61,4,2.36,2.36,0,0,1-2,1.92h-.26a1.64,1.64,0,0,1-.84-.26,1,1,0,0,0-.27-.12h-.16a1.89,1.89,0,0,1,.44.56,2.18,2.18,0,0,1-.7,2.59,3.71,3.71,0,0,1-2.24.56Zm-3.62-5.8a1,1,0,0,1,1.06,1,2.11,2.11,0,0,1-.16,1,1.72,1.72,0,0,0-.13.61,2.18,2.18,0,0,0,.64,1.26,3.42,3.42,0,0,0,2.21.74,2.52,2.52,0,0,0,1.52-.43,1,1,0,0,0,.33-1.16l-.17-.17a1.35,1.35,0,0,1-.55-1.11,1.08,1.08,0,0,1,1.18-1,3,3,0,0,1,.55.06,2,2,0,0,1,.64.25c.18.1.23.12.31.11a1.14,1.14,0,0,0,1-1,3,3,0,0,0-1.08-2.74.53.53,0,0,0-.3-.05h-.58a1.54,1.54,0,0,1-.82-.2,1,1,0,0,1-.47-1.39,2.12,2.12,0,0,0,.1-.36,2.29,2.29,0,0,0-.67-1.88,2.61,2.61,0,0,0-.27-.22A3.14,3.14,0,0,0,36,40.49a2.74,2.74,0,0,0-1.45.91,1.84,1.84,0,0,0-.23,1.6.373.373,0,0,0,.08.25,1.68,1.68,0,0,1,.06,1.36,1,1,0,0,1-.69.51H33.5a1.76,1.76,0,0,1-.9-.32.94.94,0,0,0-.39-.18,1.33,1.33,0,0,0-1.1,1.23,1.87,1.87,0,0,0,1.28,1.93h0a2.47,2.47,0,0,0,.69-.21A3,3,0,0,1,34.14,47.31Z"/><path class="u" d="M22.11,50.37a3.17,3.17,0,1,1-3.17-3.17A3.17,3.17,0,0,1,22.11,50.37Z"/><path class="v" d="M21,50.37a2.06,2.06,0,1,1-2.06-2.06A2.06,2.06,0,0,1,21,50.37Z"/><path class="u" d="M21.07,43.7a3.17,3.17,0,1,1-.932-2.245A3.18,3.18,0,0,1,21.07,43.7Z"/><path class="v" d="M20,43.7a2.06,2.06,0,1,1-2.06-2.05A2.06,2.06,0,0,1,20,43.7Z"/></g></svg>