<svg xmlns="http://www.w3.org/2000/svg" width="20.5" height="20.211" viewBox="0 0 20.5 20.211"><defs><style>.a{fill:#a7a8bc;}</style></defs><g transform="translate(0 0)"><path class="a" d="M233.106,5.152a2.512,2.512,0,0,0-.722-1.79,2.6,2.6,0,0,0-1.79-.751,2.483,2.483,0,0,0-1.761.722l3.551,3.58A2.368,2.368,0,0,0,233.106,5.152Z" transform="translate(-216.187 -2.612)"/><rect class="a" width="5.022" height="11.637" transform="translate(11.838 1.559) rotate(45)"/><path class="a" d="M43.126,200.621l-.808,3.667,3.667-.808Z" transform="translate(-39.979 -189.678)"/><path class="a" d="M19.922,347.429H.577a.577.577,0,1,0,0,1.155H19.922a.577.577,0,1,0,0-1.155Z" transform="translate(0 -328.373)"/></g></svg>