<svg xmlns="http://www.w3.org/2000/svg" width="18.25" height="15.999" viewBox="0 0 18.25 15.999"><defs><style>.a{fill:#a7a8bc;stroke:#a7a8bc;stroke-width:0.25px;}</style></defs><g transform="translate(0.125 0.125)"><path class="a" d="M16.929,70.537H5.367a.357.357,0,0,0,0,.714H16.929a.357.357,0,0,1,.357.357V83.046a.357.357,0,0,1-.357.357H10.677a.357.357,0,0,0-.28.136l-1.44,1.825L7.429,83.531a.357.357,0,0,0-.274-.128H1.071a.357.357,0,0,1-.357-.357V71.608a.357.357,0,0,1,.357-.357H2.43a.357.357,0,0,0,0-.714H1.071A1.072,1.072,0,0,0,0,71.608V83.046a1.072,1.072,0,0,0,1.071,1.071H6.988l1.7,2.042a.359.359,0,0,0,.554-.007l1.606-2.034h6.079A1.072,1.072,0,0,0,18,83.046V71.608a1.072,1.072,0,0,0-1.071-1.071Z" transform="translate(0 -70.537)"/><path class="a" d="M54.9,159.308a.357.357,0,0,0,.065.338l.7.839-.069,1.088c-.054.852,1.225-.053,1.5-.047s1.555.89,1.5.047l-.069-1.088.7-.839a.362.362,0,0,0-.186-.574l-1.056-.27-.583-.921a.362.362,0,0,0-.6,0l-.583.921-1.056.27A.357.357,0,0,0,54.9,159.308Zm1.621.151c.264-.068.438-.509.571-.719.131.206.309.652.571.719l.647.166-.426.515a.357.357,0,0,0-.081.25l.042.667-.621-.246a.357.357,0,0,0-.263,0l-.621.246.042-.667a.357.357,0,0,0-.081-.25l-.426-.515Z" transform="translate(-52.928 -152.714)"/><path class="a" d="M193.592,159.307a.357.357,0,0,0-.251-.236l-1.056-.27-.583-.921a.362.362,0,0,0-.6,0l-.583.921-1.056.27a.357.357,0,0,0-.186.574l.7.839-.069,1.088c-.054.852,1.225-.053,1.5-.047s1.555.89,1.5.047l-.069-1.088.7-.839A.357.357,0,0,0,193.592,159.307Zm-1.4.831a.357.357,0,0,0-.081.25l.042.667a1.179,1.179,0,0,0-1.505,0l.042-.667a.357.357,0,0,0-.081-.25l-.426-.514.647-.166c.264-.068.438-.509.571-.719.131.206.309.652.571.719l.647.166Z" transform="translate(-182.436 -152.713)"/><path class="a" d="M327.975,159.307a.357.357,0,0,0-.251-.236l-1.056-.27-.583-.921a.362.362,0,0,0-.6,0l-.583.921-1.056.27a.362.362,0,0,0-.186.574l.7.839-.069,1.088c-.054.852,1.224-.053,1.5-.047s1.555.89,1.5.047l-.069-1.088.7-.839A.357.357,0,0,0,327.975,159.307Zm-1.4.831a.357.357,0,0,0-.081.25l.042.667-.621-.246a.357.357,0,0,0-.263,0l-.621.246.042-.667a.357.357,0,0,0-.081-.25l-.426-.514.647-.166c.264-.068.438-.509.571-.719.131.206.309.652.571.719l.647.166Z" transform="translate(-312.024 -152.713)"/><path class="a" d="M99.585,74.195a.357.357,0,1,0-.135-.425A.359.359,0,0,0,99.585,74.195Z" transform="translate(-95.877 -73.541)"/></g></svg>