<svg xmlns="http://www.w3.org/2000/svg" width="20.235" height="20.235" viewBox="0 0 20.235 20.235"><path d="M10.118,0A10.118,10.118,0,1,0,20.235,10.118,10.129,10.129,0,0,0,10.118,0Zm0,18.4A8.278,8.278,0,1,1,18.4,10.118,8.287,8.287,0,0,1,10.118,18.4Z"/><path d="M146.228,70a1.226,1.226,0,1,0,1.226,1.227A1.228,1.228,0,0,0,146.228,70Z" transform="translate(-136.111 -65.708)"/><path d="M150.92,140a.92.92,0,0,0-.92.92v5.519a.92.92,0,1,0,1.84,0V140.92A.92.92,0,0,0,150.92,140Z" transform="translate(-140.802 -131.415)"/></svg>