<svg xmlns="http://www.w3.org/2000/svg" width="56" height="61.553" viewBox="0 0 56 61.553"><defs><style>.a{fill:#383838;}.b{fill:#fff1de;}.c{fill:#b5b5b5;}.d{fill:#fff;}.e{fill:#e2e2e2;}.f{fill:#ffdfac;}.g{fill:#68032c;}.h{fill:#f4f4f4;}.i{fill:#dd666c;}.j{fill:#edab7a;}.k{fill:#ffe9ca;}.l{fill:#c1c1c1;}.m{fill:#c6c6c6;}</style></defs><circle class="a" cx="25.416" cy="25.416" r="25.416" transform="translate(2.583 5.357)"/><path class="a" d="M28,25.43a28,28,0,1,0,28,28A28.032,28.032,0,0,0,28,25.43Zm0,54.686A26.686,26.686,0,1,1,54.686,53.429,26.716,26.716,0,0,1,28,80.116Z" transform="translate(0 -22.657)"/><path class="b" d="M82.474,12.65c-1.588-1.736-4.161-2.2-5.686-2.315a6.729,6.729,0,0,0-.465-4.011,6.524,6.524,0,0,0-4.09-3.259,10.36,10.36,0,0,0-3.163-.545,6.471,6.471,0,0,0-4.785,1.952A11.245,11.245,0,0,0,55.629,0a11.373,11.373,0,0,0-2.089.2,10.484,10.484,0,0,0-7.1,4.241,9.494,9.494,0,0,0-1.553,4.418,13.139,13.139,0,0,0-5.66,1.248l-.527.109.043.168a7.117,7.117,0,0,0-1.157.872A6.58,6.58,0,0,0,35.53,16.3a6.939,6.939,0,0,0,2.111,5.323,9.538,9.538,0,0,0,6.07,2.19,13.74,13.74,0,0,0,.71,4.952,4.63,4.63,0,0,0-1,2.019q-.317-.031-.673-.032a3.114,3.114,0,0,0-2.634,1.412,5.291,5.291,0,0,0-.562,4.522,15.606,15.606,0,0,0,2.188,3.731,4.423,4.423,0,0,0,.446,3.255,2.856,2.856,0,0,0,1.408,1.091,13.45,13.45,0,0,0-.456,3.474c0,3.015,1.806,6.369,4.832,8.971a17.8,17.8,0,0,0,11.588,4.345c9.285-.007,16.016-8.226,16.016-13.766a8.914,8.914,0,0,0-.557-3.133,2.911,2.911,0,0,0,1.149-.987,4.418,4.418,0,0,0,.446-3.255A15.82,15.82,0,0,0,78.8,36.681a5.29,5.29,0,0,0-.562-4.522A3.114,3.114,0,0,0,75.6,30.747a5.91,5.91,0,0,0-1.252.121.974.974,0,0,0-.047-.218l-.171-.5a4.144,4.144,0,0,0-.691-1.173,17.582,17.582,0,0,0,1-5.494c2.238-.086,8.6-.827,9.287-6.377A5.346,5.346,0,0,0,82.474,12.65Z" transform="translate(-31.655)"/><path class="c" d="M162.77,315.547a2.49,2.49,0,0,0,.383,1.322,3.017,3.017,0,0,0,1.7.515,3.175,3.175,0,0,0,.6-.059,1.428,1.428,0,0,1-1.148-1.352,1.467,1.467,0,0,1,1.527-1.4,1.59,1.59,0,0,1,1.136.463.764.764,0,0,0-.088-.008.565.565,0,1,0,0,1.124.634.634,0,0,0,.481-.218v.075a2.374,2.374,0,0,0,.336-1.213,2.434,2.434,0,0,0-.69-1.68,3.19,3.19,0,0,0-1.273-.268A2.851,2.851,0,0,0,162.77,315.547Z" transform="translate(-145.019 -278.733)"/><path class="d" d="M159.476,307.446a3.532,3.532,0,0,1,.711.077,3.031,3.031,0,0,0-1.592-.444,2.726,2.726,0,0,0-2.845,2.581,2.431,2.431,0,0,0,.654,1.642,2.727,2.727,0,0,1-.153-.9A3.1,3.1,0,0,1,159.476,307.446Z" transform="translate(-138.765 -273.592)"/><path class="d" d="M297.276,310.406a2.726,2.726,0,0,1-.154.9,2.424,2.424,0,0,0,.654-1.642,2.725,2.725,0,0,0-2.844-2.581,3.028,3.028,0,0,0-1.592.444,3.53,3.53,0,0,1,.711-.077A3.1,3.1,0,0,1,297.276,310.406Z" transform="translate(-261.35 -273.592)"/><path class="c" d="M283.8,312.88a3.208,3.208,0,0,0-1.273.268,2.434,2.434,0,0,0-.69,1.681,2.384,2.384,0,0,0,.335,1.213v-.075a.633.633,0,0,0,.48.218.565.565,0,1,0,0-1.124.8.8,0,0,0-.088.008,1.594,1.594,0,0,1,1.136-.464,1.465,1.465,0,0,1,1.527,1.4,1.422,1.422,0,0,1-1.148,1.352,3.174,3.174,0,0,0,.6.059,3.013,3.013,0,0,0,1.7-.515,2.491,2.491,0,0,0,.389-1.325A2.844,2.844,0,0,0,283.8,312.88Z" transform="translate(-251.104 -278.759)"/><path class="e" d="M121.588,259.759a28.747,28.747,0,0,1,2.91.928c.934.334,1.9.678,2.762.889a1.948,1.948,0,0,0,.449.053c1.544,0,2.748-1.831,2.8-1.911h0a2.072,2.072,0,0,1-.992.213,3.5,3.5,0,0,1-1.181-.218,22.048,22.048,0,0,0-6.176-1.464,3.3,3.3,0,0,0-1.309.218A4,4,0,0,0,118.6,260.6h0a5.338,5.338,0,0,1,2.508-.893A2.073,2.073,0,0,1,121.588,259.759Z" transform="translate(-105.666 -230.087)"/><path class="e" d="M280.26,258.468a3.289,3.289,0,0,0-1.309-.218,22.04,22.04,0,0,0-6.175,1.464,3.506,3.506,0,0,1-1.181.218,2.1,2.1,0,0,1-1-.218h0c.051.079,1.257,1.911,2.8,1.911a1.936,1.936,0,0,0,.448-.053,28.847,28.847,0,0,0,2.761-.889,28.84,28.84,0,0,1,2.911-.928A2.073,2.073,0,0,1,280,259.7a5.261,5.261,0,0,1,2.508.893A4.037,4.037,0,0,0,280.26,258.468Z" transform="translate(-241.09 -230.087)"/><path class="f" d="M375.186,294.068a2.547,2.547,0,0,1,.385.027,2.221,2.221,0,0,1,.431.122,1.136,1.136,0,0,1,.218.1,1.833,1.833,0,0,1,.218.13l.205.16.182.192a1.916,1.916,0,0,1,.157.218,1.142,1.142,0,0,1,.127.236,2.28,2.28,0,0,1,.16.5,2.592,2.592,0,0,1,.024.5c0,.081-.01.159-.015.237a1.6,1.6,0,0,1-.044.218l-.045.207c-.017.065-.044.128-.063.186-.044.119-.076.23-.119.327l-.117.238c-.064.13-.1.205-.1.205l.08-.218c.025-.068.056-.15.092-.244s.053-.208.085-.327c.013-.06.032-.122.042-.188s.015-.133.023-.2.019-.141.021-.218-.005-.147-.008-.224a2.425,2.425,0,0,0-.068-.454,2.037,2.037,0,0,0-.185-.426.893.893,0,0,0-.129-.19,1.481,1.481,0,0,0-.149-.17c-.057-.048-.109-.1-.167-.145l-.183-.109a1.333,1.333,0,0,0-.188-.088.787.787,0,0,0-.186-.064,1.717,1.717,0,0,0-.351-.063,2.231,2.231,0,0,0-.293.009c-.082.019-.14.019-.207.04l-.02.007a10.571,10.571,0,0,1,.155,1.8,10.267,10.267,0,0,1-1.723,5.677,6.951,6.951,0,0,1,.763.8h.1a.655.655,0,0,0,.16-.011.955.955,0,0,0,.188-.045.882.882,0,0,0,.189-.1.845.845,0,0,0,.171-.166,1.027,1.027,0,0,0,.138-.218,2.666,2.666,0,0,0,.218-1.013,3.154,3.154,0,0,0,0-.354.731.731,0,0,1,0-.135s.009.048.026.133.038.205.058.353a2.829,2.829,0,0,1-.049,1.111,1.375,1.375,0,0,1-.124.3,1.149,1.149,0,0,1-.193.264,1.179,1.179,0,0,1-.507.31.055.055,0,0,0-.036.009,8.445,8.445,0,0,1,.487.778,1.571,1.571,0,0,0,1.285-.75c.673-.95.188-2.726.183-2.746l-.038-.134.088-.109a15.887,15.887,0,0,0,2.262-3.737,4.1,4.1,0,0,0-.427-3.5,2.051,2.051,0,0,0-1.718-.935c-1.676,0-2.011.6-2.072.779a11.059,11.059,0,0,1,.316,1.137C374.972,294.084,375.079,294.078,375.186,294.068Zm1.469,2.85c0,.115-.015.229-.024.345a2.189,2.189,0,0,1-.059.339,3.157,3.157,0,0,1-.084.327,3.592,3.592,0,0,1-.218.545,3.131,3.131,0,0,1-.2.363c-.052.085-.085.132-.085.132s.017-.056.05-.149.078-.227.13-.387c.027-.08.048-.169.075-.261s.049-.191.073-.292.041-.207.064-.314.033-.218.05-.327a2.566,2.566,0,0,0,.031-.327c0-.109.012-.218.009-.318a3.056,3.056,0,0,0-.051-.561,1.742,1.742,0,0,0-.057-.218.752.752,0,0,0-.074-.154.5.5,0,0,0-.1-.117l.035.02a.271.271,0,0,1,.093.071.8.8,0,0,1,.109.148,1.365,1.365,0,0,1,.1.218,1.829,1.829,0,0,1,.074.273,2.288,2.288,0,0,1,.041.312A2.617,2.617,0,0,1,376.655,296.917Z" transform="translate(-332.706 -260.317)"/><path class="f" d="M84.138,304.106c.1-.27.2-.517.3-.736a1.168,1.168,0,0,1-.17-.041,1.336,1.336,0,0,1-.257-.109,1.238,1.238,0,0,1-.249-.2,1.188,1.188,0,0,1-.194-.264,1.369,1.369,0,0,1-.123-.3,2.829,2.829,0,0,1-.049-1.111c.02-.148.039-.269.058-.353s.026-.133.026-.133v.49a2.667,2.667,0,0,0,.218,1.013,1.031,1.031,0,0,0,.14.218.819.819,0,0,0,.171.166.873.873,0,0,0,.188.1.992.992,0,0,0,.188.045.655.655,0,0,0,.16.011.988.988,0,0,0,.125,0c.134-.264.252-.467.327-.6-.383-.472-1.352-1.978-1.352-5.126a11.71,11.71,0,0,1,.274-2.529l-.1-.036c-.068-.022-.127-.022-.207-.04a2.236,2.236,0,0,0-.293-.009,1.745,1.745,0,0,0-.352.063.8.8,0,0,0-.185.064,1.329,1.329,0,0,0-.188.088l-.183.109-.167.145a1.619,1.619,0,0,0-.151.17.891.891,0,0,0-.128.19,1.979,1.979,0,0,0-.185.426,2.426,2.426,0,0,0-.068.454,2.155,2.155,0,0,1-.008.224,1.145,1.145,0,0,0,.021.218c.007.074.015.137.022.2a1.628,1.628,0,0,0,.044.188c.032.119.052.231.085.327l.092.244.08.218-.1-.205-.117-.238c-.043-.092-.075-.2-.119-.327-.021-.059-.046-.121-.064-.186s-.028-.136-.044-.207-.034-.144-.044-.218-.011-.156-.016-.237a2.6,2.6,0,0,1,.025-.5,2.275,2.275,0,0,1,.16-.5,1.139,1.139,0,0,1,.127-.236,1.912,1.912,0,0,1,.156-.218l.183-.192.2-.157a1.9,1.9,0,0,1,.218-.13,1.113,1.113,0,0,1,.218-.1,2.208,2.208,0,0,1,.43-.122,2.575,2.575,0,0,1,.385-.027,3.073,3.073,0,0,1,.312.034l.084.02a11.92,11.92,0,0,1,.377-1.182c-.082-.2-.453-.758-2.064-.758a2.054,2.054,0,0,0-1.718.935,4.07,4.07,0,0,0-.427,3.5,15.887,15.887,0,0,0,2.262,3.737l.088.109-.037.134c0,.017-.489,1.8.182,2.746A1.52,1.52,0,0,0,84.138,304.106Zm-1.374-5.243a3.3,3.3,0,0,1-.2-.363,3.589,3.589,0,0,1-.212-.545,3.171,3.171,0,0,1-.084-.327c-.026-.109-.039-.226-.059-.339a2.026,2.026,0,0,1-.024-.345,2.616,2.616,0,0,1,.008-.335,2.479,2.479,0,0,1,.041-.312,1.831,1.831,0,0,1,.075-.273,1.192,1.192,0,0,1,.1-.218.753.753,0,0,1,.109-.148.271.271,0,0,1,.093-.071l.035-.02a.484.484,0,0,0-.1.117.811.811,0,0,0-.074.154,1.973,1.973,0,0,0-.056.218,2.87,2.87,0,0,0-.051.561c0,.1,0,.21.009.318s.02.218.029.327a2.832,2.832,0,0,0,.05.327c.023.109.037.218.065.314s.045.2.073.292.047.181.075.261c.05.16.092.3.129.387a1.08,1.08,0,0,1,.05.149s-.033-.044-.086-.13Z" transform="translate(-71.269 -260.344)"/><path class="f" d="M186.192,349.156a4.172,4.172,0,0,1,.965-.114,6.4,6.4,0,0,1,1.963.389,6.561,6.561,0,0,0,4.761,0,6.351,6.351,0,0,1,1.963-.389,4.19,4.19,0,0,1,.966.114,5.891,5.891,0,0,1,.841.266,1.84,1.84,0,0,0,.132-2.164c-.728-1.456-2.651-.888-2.671-.881l-.258.08v-.272a3.288,3.288,0,0,0-.915-2.117A4.3,4.3,0,0,0,190.79,343a4.112,4.112,0,0,0-3.072,1.067,3.392,3.392,0,0,0-.9,2.239l.008.252-.248-.05A2.008,2.008,0,0,0,184.4,347.6a2.043,2.043,0,0,0,.157,2.2,6.107,6.107,0,0,1,1.633-.642Zm5.177-5.654a3.632,3.632,0,0,1,.472.022,2.867,2.867,0,0,1,.313.055,2.461,2.461,0,0,1,.344.095,2.97,2.97,0,0,1,.7.339,2.585,2.585,0,0,1,.313.251,1.658,1.658,0,0,1,.26.289c.038.05.077.1.109.148l.083.157c.026.051.052.1.077.148a1.02,1.02,0,0,1,.05.147,2.347,2.347,0,0,1,.073.26c.011.08.02.149.026.206.014.109.017.177.017.177s-.027-.06-.068-.165c-.02-.052-.043-.116-.07-.188s-.08-.145-.12-.228a1.465,1.465,0,0,0-.157-.255l-.092-.133-.109-.126c-.038-.041-.074-.087-.117-.129l-.134-.118a2.219,2.219,0,0,0-.289-.218c-.1-.07-.208-.13-.313-.19a2.6,2.6,0,0,0-.327-.153c-.109-.044-.206-.091-.315-.13s-.2-.064-.289-.1c-.183-.05-.337-.1-.447-.119l-.173-.038A1.618,1.618,0,0,1,191.369,343.5Z" transform="translate(-164.072 -305.595)"/><path class="g" d="M222.63,429.154a2.562,2.562,0,0,1,.665.482,3.378,3.378,0,0,0,2.527.981,3.336,3.336,0,0,0,2.526-.981,3.184,3.184,0,0,1,.616-.454,5.57,5.57,0,0,0-6.334-.028Z" transform="translate(-198.351 -381.486)"/><path class="e" d="M150.9,402.109a3.748,3.748,0,0,0-.872-.109,6.015,6.015,0,0,0-1.839.371,6.944,6.944,0,0,1-5,0,6.029,6.029,0,0,0-1.84-.371,3.755,3.755,0,0,0-.872.109,6.39,6.39,0,0,0-1.9.817,4.3,4.3,0,0,1-2.647.77,4.885,4.885,0,0,1-3.2-1.606c.064,1.053.356,3.349,1.659,4.677a3.406,3.406,0,0,0,2.529,1.02,6.867,6.867,0,0,0,4.58-1.709,6.2,6.2,0,0,1,8.368,0,6.852,6.852,0,0,0,4.58,1.709,3.411,3.411,0,0,0,2.531-1.021c1.309-1.33,1.593-3.625,1.657-4.676a4.879,4.879,0,0,1-3.2,1.606,4.3,4.3,0,0,1-2.648-.77A6.525,6.525,0,0,0,150.9,402.109Z" transform="translate(-118.264 -358.161)"/><path class="f" d="M141.83,249.876a1.561,1.561,0,0,0-.36.039,28.178,28.178,0,0,0-2.854.912,29.26,29.26,0,0,1-2.815.9,2.416,2.416,0,0,1-.574.069c-1.829,0-3.19-2.065-3.246-2.153l-.419-.646a.353.353,0,0,1,.479-.5l.66.4a1.7,1.7,0,0,0,.722.137,2.974,2.974,0,0,0,1-.189,32.172,32.172,0,0,1,4.149-1.23c-.082-.026-.162-.053-.245-.079a29.347,29.347,0,0,0-7.762-.922c-.872,0-1.721.029-2.521.089a24.012,24.012,0,0,0-5.716,1.074,35.136,35.136,0,0,1,3.435,1.067,2.974,2.974,0,0,0,1,.189,1.657,1.657,0,0,0,.73-.143l.639-.368a.353.353,0,0,1,.473.5l-.4.619c-.057.088-1.418,2.154-3.247,2.154a2.424,2.424,0,0,1-.575-.069c-.893-.218-1.87-.566-2.815-.9a28.163,28.163,0,0,0-2.854-.912,1.553,1.553,0,0,0-.36-.039c-.046,0-.092.007-.138.01a4.72,4.72,0,0,0-.545.5,11.353,11.353,0,0,0-1.844,6.17,7.867,7.867,0,0,0,1.151,4.683l.109-.13a9.179,9.179,0,0,1,.8-.818,9.422,9.422,0,0,1,.882-.707c.251-.177.429-.278.429-.278s-.158.129-.375.342a9.1,9.1,0,0,0-.742.826,8.627,8.627,0,0,0-.629.9c-.056.087-.1.165-.138.233l.015.014-.129.186h0a11.7,11.7,0,0,0-1.682,6.146c0,5.525,6.826,12.2,15.3,12.2A15.47,15.47,0,0,0,141.5,275.7c2.606-2.494,4.226-5.633,4.226-8.191a7.422,7.422,0,0,0-2.58-5.761c-.01-.007-.014-.016-.022-.024h0l-.1-.1c-.065-.061-.158-.154-.268-.25a9.987,9.987,0,0,0-.855-.7,7.958,7.958,0,0,0-.941-.592,4.052,4.052,0,0,0-.461-.213,4.2,4.2,0,0,1,.485.144,8.105,8.105,0,0,1,1.046.436,10.189,10.189,0,0,1,.993.57c.077.048.141.091.2.129a9.706,9.706,0,0,0,1.616-5.358,10.288,10.288,0,0,0-1.689-5.605A3.481,3.481,0,0,0,141.83,249.876Zm-1.91,5.936a3.071,3.071,0,0,1-.09.672,2.158,2.158,0,0,1-.242.611,2.809,2.809,0,0,0,.169-.626,3.764,3.764,0,0,0,.048-.654,3.472,3.472,0,0,0-.082-.747,2.1,2.1,0,0,0-.109-.363,2.221,2.221,0,0,0-.158-.333,3.24,3.24,0,0,0-.376-.538,3.311,3.311,0,0,0-.466-.453,1.6,1.6,0,0,1,.154.1,2.774,2.774,0,0,1,.366.305,2.969,2.969,0,0,1,.218.238,2.157,2.157,0,0,1,.207.293,2.311,2.311,0,0,1,.172.345,2.153,2.153,0,0,1,.122.381A3.6,3.6,0,0,1,139.921,255.812Zm-8.07-5.536c.082.1.209.227.36.381a6.553,6.553,0,0,0,.545.491c.1.087.218.164.327.25a2.254,2.254,0,0,0,.353.229,3.174,3.174,0,0,0,.368.2c.062.028.124.059.184.091l.188.072.182.069.179.051a2.23,2.23,0,0,0,.334.081l.288.055.227.02c.126.012.2.022.2.022s-.071.013-.2.029l-.232.028c-.089.005-.191,0-.3,0a1.688,1.688,0,0,1-.359-.038l-.2-.034c-.065-.015-.131-.039-.2-.059l-.2-.064-.2-.087a3.33,3.33,0,0,1-.4-.206c-.132-.073-.246-.169-.369-.251a2.638,2.638,0,0,1-.327-.28,4.364,4.364,0,0,1-.5-.567,3.375,3.375,0,0,1-.376-.631s.039.053.123.149ZM133.2,257.2c.037.074.075.149.115.225s.091.146.134.218a1.685,1.685,0,0,0,.15.218,1.858,1.858,0,0,0,.167.2l.181.191c.065.058.135.109.2.166a3.651,3.651,0,0,0,.421.284c.153.063.289.153.436.2a3.442,3.442,0,0,0,.412.128c.132.026.252.055.359.081l.284.034.248.033-.25.005h-.289c-.109-.011-.237-.024-.374-.044a3.468,3.468,0,0,1-.905-.279c-.077-.04-.153-.088-.231-.133a1.261,1.261,0,0,1-.227-.154c-.071-.058-.146-.109-.218-.176l-.2-.2a2.106,2.106,0,0,1-.176-.218,1.77,1.77,0,0,1-.156-.229,3.312,3.312,0,0,1-.246-.478,3.369,3.369,0,0,1-.159-.474,3.743,3.743,0,0,1-.094-.436,4.184,4.184,0,0,1-.052-.663l.012-.25.027.249.043.281c.026.109.046.23.08.36a3.873,3.873,0,0,0,.123.415,4.785,4.785,0,0,0,.18.447Zm-8.288-4.934.227-.02.288-.055a2.193,2.193,0,0,0,.327-.081l.18-.051.181-.069.188-.072c.061-.032.122-.062.184-.091a3.188,3.188,0,0,0,.369-.2c.124-.065.236-.154.352-.229a3.232,3.232,0,0,0,.327-.25c.206-.169.389-.339.545-.491a5.013,5.013,0,0,0,.36-.381l.132-.152a3.374,3.374,0,0,1-.376.631,4.3,4.3,0,0,1-.5.567c-.1.1-.212.189-.327.28a2.776,2.776,0,0,1-.369.251,3.42,3.42,0,0,1-.4.206l-.2.087-.205.064c-.068.02-.132.044-.2.059l-.2.034a1.68,1.68,0,0,1-.358.038c-.109,0-.218.008-.3,0l-.231-.028c-.128-.016-.2-.029-.2-.029l.2-.02Zm1.658,3.432a4.16,4.16,0,0,1-.051.663,3.978,3.978,0,0,1-.094.436,3.515,3.515,0,0,1-.159.474,3.425,3.425,0,0,1-.246.478,1.776,1.776,0,0,1-.157.229,1.974,1.974,0,0,1-.176.218l-.2.2c-.071.061-.145.118-.218.176a1.291,1.291,0,0,1-.226.154c-.078.045-.154.093-.231.133a3.349,3.349,0,0,1-.47.179,3.427,3.427,0,0,1-.436.1c-.136.02-.263.033-.373.044h-.289l-.251-.005.249-.033.282-.034c.109-.026.228-.055.359-.081a3.448,3.448,0,0,0,.412-.128c.146-.045.284-.134.436-.2a3.561,3.561,0,0,0,.421-.284c.067-.056.135-.109.2-.166l.181-.191a1.865,1.865,0,0,0,.168-.2,1.686,1.686,0,0,0,.15-.218c.044-.075.094-.146.134-.218l.115-.225c.064-.153.135-.3.181-.446a3.859,3.859,0,0,0,.122-.416c.035-.13.053-.252.08-.36a2.827,2.827,0,0,0,.044-.281c.016-.158.026-.249.026-.249Zm-7.166-.662a2.241,2.241,0,0,1,.121-.381,2.314,2.314,0,0,1,.173-.345,2.158,2.158,0,0,1,.207-.293,2.826,2.826,0,0,1,.581-.545,1.7,1.7,0,0,1,.153-.1,3.273,3.273,0,0,0-.465.453,3.177,3.177,0,0,0-.377.538,2.216,2.216,0,0,0-.157.333,2.1,2.1,0,0,0-.109.363,3.546,3.546,0,0,0-.083.747,3.865,3.865,0,0,0,.049.654,2.81,2.81,0,0,0,.169.626,2.159,2.159,0,0,1-.242-.611,3.071,3.071,0,0,1-.091-.672,3.529,3.529,0,0,1,.069-.771Zm-.449,2.111a1.823,1.823,0,0,0-.272-.15,2.226,2.226,0,0,0-.227-.08l-.208-.028.212.012a1.964,1.964,0,0,1,.237.061,1.9,1.9,0,0,1,.29.132c.2.109.427.267.666.425.121.077.244.159.374.232s.265.142.4.209c.075.031.148.063.218.094a2.883,2.883,0,0,1-1.134-2.26,2.983,2.983,0,0,1,1.908-2.713h-.359a5.871,5.871,0,0,0-.616.049,4.907,4.907,0,0,0-.531.1,3.236,3.236,0,0,0-.365.121l-.136.053.129-.07a3.115,3.115,0,0,1,.353-.164,4.724,4.724,0,0,1,.527-.168c.2-.05.409-.092.623-.124a8.817,8.817,0,0,1,1.19-.084c.27,0,.469.011.528.015a2.991,2.991,0,1,1-.005,5.961h-.015a3.466,3.466,0,0,1-.535-.046c-.072-.01-.149-.023-.233-.034a3.114,3.114,0,0,1-.378-.073,3.858,3.858,0,0,1-.412-.109,3.523,3.523,0,0,1-.426-.163c-.145-.056-.281-.136-.422-.207a2.874,2.874,0,0,1-.394-.251c-.124-.091-.245-.178-.361-.266C119.348,257.442,119.141,257.272,118.953,257.147Zm19.142,18.22a2.331,2.331,0,0,0-.5.162,3.969,3.969,0,0,0-.691.423c-.252.188-.521.423-.817.68s-.613.545-.972.83a8.906,8.906,0,0,1-1.192.824,6.365,6.365,0,0,1-1.449.611,6.242,6.242,0,0,1-.795.167,6.357,6.357,0,0,1-.811.067,6.462,6.462,0,0,1-1.618-.179,6.157,6.157,0,0,1-1.465-.569,11.222,11.222,0,0,1-2.181-1.642c-.293-.262-.558-.5-.806-.7a3.816,3.816,0,0,0-.679-.436,2.206,2.206,0,0,0-.5-.169l-.188-.026h.189a2.049,2.049,0,0,1,.533.1,3.515,3.515,0,0,1,.757.373c.275.173.57.388.883.629s.654.5,1.012.751a9.173,9.173,0,0,0,1.184.709,6.258,6.258,0,0,0,1.37.484,5.9,5.9,0,0,0,1.486.147,5.99,5.99,0,0,0,.754-.052,5.667,5.667,0,0,0,.732-.145,6.666,6.666,0,0,0,1.356-.529,16.18,16.18,0,0,0,2.2-1.478,9.849,9.849,0,0,1,.9-.612,3.519,3.519,0,0,1,.763-.353,2.072,2.072,0,0,1,.532-.093h.19Zm-9.989-2.617a5.533,5.533,0,0,1,1.2-.461,6.581,6.581,0,0,1,.712-.143c.245-.027.5-.055.747-.06h.377c.119,0,.238.005.364.017a6.722,6.722,0,0,1,.722.09,6.139,6.139,0,0,1,.654.158,4.658,4.658,0,0,1,.57.208,4.13,4.13,0,0,1,.457.232,3.209,3.209,0,0,1,.327.218,1.852,1.852,0,0,1,.253.229,2.926,2.926,0,0,0-.305-.137c-.1-.039-.218-.08-.358-.126s-.3-.085-.47-.129-.363-.075-.564-.109-.413-.055-.633-.081l-.336-.026c-.109,0-.227-.008-.341-.015s-.238,0-.357-.008a2.931,2.931,0,0,0-.352.007c-.234,0-.469.017-.7.038-.115.015-.229.027-.342.038l-.327.051c-.218.043-.426.081-.624.13s-.383.1-.554.155a7.291,7.291,0,0,0-1.119.447,2.315,2.315,0,0,1,.248-.233,4.26,4.26,0,0,1,.749-.489Zm-.7-3.481a2.105,2.105,0,0,0,.236.159,3.822,3.822,0,0,0,.672.308,5.485,5.485,0,0,0,1.009.248c.188.029.383.051.582.063s.406.017.6.021a5.7,5.7,0,0,0,.611-.024c.2-.019.395-.032.582-.063a6.408,6.408,0,0,0,1.014-.233,4.25,4.25,0,0,0,.685-.284,2.445,2.445,0,0,0,.244-.144,1.538,1.538,0,0,1-.218.188,3.471,3.471,0,0,1-.654.382,4.7,4.7,0,0,1-1.028.327,5.023,5.023,0,0,1-.6.088c-.21.022-.417.027-.624.033a4.884,4.884,0,0,1-.63-.029,5.037,5.037,0,0,1-.6-.089,4.409,4.409,0,0,1-1.026-.337,3.291,3.291,0,0,1-.643-.407,1.416,1.416,0,0,1-.207-.2Zm15.952-6.291.349-.479.012.592c0,.148.051,3.643-1.788,5.519a3.794,3.794,0,0,1-2.816,1.141,7.191,7.191,0,0,1-4.819-1.787l-.242-.178a1.5,1.5,0,0,0-.776.483,3.809,3.809,0,0,1-2.744,1.11v.007h-.278v-.007a3.809,3.809,0,0,1-2.744-1.11,1.474,1.474,0,0,0-.866-.484l-.243.179a7.187,7.187,0,0,1-4.819,1.787,3.8,3.8,0,0,1-2.815-1.141c-1.84-1.876-1.792-5.371-1.79-5.519l.012-.592.349.479a4.876,4.876,0,0,0,3.272,1.884,3.908,3.908,0,0,0,2.429-.715l.033-.019a2.438,2.438,0,0,1-.168-2.576,2.385,2.385,0,0,1,2.381-1.332,3.75,3.75,0,0,1,1.005-2.3,4.484,4.484,0,0,1,3.358-1.188,4.641,4.641,0,0,1,3.426,1.188,3.639,3.639,0,0,1,1.007,2.155,2.551,2.551,0,0,1,2.9,1.142,2.261,2.261,0,0,1-.116,2.508c.292.141.545.289.792.43a3.912,3.912,0,0,0,2.429.715,4.9,4.9,0,0,0,3.268-1.891Zm-2.555-6.064a2.213,2.213,0,0,0-.226.08,1.821,1.821,0,0,0-.272.15c-.191.125-.4.3-.625.474-.115.088-.233.18-.36.266s-.261.169-.395.251a4.565,4.565,0,0,1-.421.207,3.518,3.518,0,0,1-.426.162,3.841,3.841,0,0,1-.412.109,3.108,3.108,0,0,1-.378.073c-.084.011-.161.024-.234.034a3.455,3.455,0,0,1-.535.046H136.5a2.991,2.991,0,1,1-.007-5.961c.059,0,.257-.016.529-.015a8.812,8.812,0,0,1,1.19.084,6.275,6.275,0,0,1,.623.124,4.794,4.794,0,0,1,.527.168,3.079,3.079,0,0,1,.352.164l.13.07-.136-.053a3.229,3.229,0,0,0-.365-.121,4.907,4.907,0,0,0-.531-.1,5.859,5.859,0,0,0-.617-.049h-.358a2.983,2.983,0,0,1,1.908,2.713,2.881,2.881,0,0,1-1.135,2.26l.218-.094c.134-.068.272-.132.4-.209s.253-.155.374-.232c.239-.158.461-.313.666-.425a1.617,1.617,0,0,1,.527-.193l.212-.012Z" transform="translate(-102.922 -219.725)"/><path class="h" d="M139.5,185.584c.005.135.023.486.062.981.28-.21.587-.417.9-.635l.386-.245c-.045-.436-.073-.788-.089-1.015A13.877,13.877,0,0,0,139.5,185.584Z" transform="translate(-124.287 -164.531)"/><path class="h" d="M355.425,198.92c.288-1.376.484-2.8.553-3.321-.2-.192-.4-.412-.618-.648l-.287-.312a34.768,34.768,0,0,1-.613,4.111l.109.044c.285.125.555.249.81.366C355.391,199.083,355.408,199,355.425,198.92Z" transform="translate(-315.805 -173.414)"/><path class="h" d="M122.449,197.954c-.033-.372-.055-.687-.068-.924a11.729,11.729,0,0,0-1.474,1.567c-.012.1-.032.308-.047.6l.012-.009c.291-.231.706-.564,1.213-.954C122.2,198.142,122.322,198.049,122.449,197.954Z" transform="translate(-107.68 -175.543)"/><path class="h" d="M122.5,215.223a3.093,3.093,0,0,1,.763-.207,25.721,25.721,0,0,1-.908-4.756l-.132.109c-.487.407-.888.755-1.169,1l-.352.3a12.485,12.485,0,0,0,.7,4.191A5.477,5.477,0,0,1,122.5,215.223Z" transform="translate(-107.537 -187.33)"/><path class="h" d="M352.9,236.127c-.274-.145-.565-.3-.872-.456l-.023-.011c-.076.369-.152.719-.218,1.035l.084.036c.287.133.556.257.806.379C352.74,236.847,352.817,236.52,352.9,236.127Z" transform="translate(-313.426 -209.96)"/><path class="h" d="M141.517,197.779c-.316.238-.625.461-.905.691-.056.044-.109.086-.161.13a26.087,26.087,0,0,0,.954,5.116c.072,0,.141-.008.218-.008a9.647,9.647,0,0,1,1.5.137,26,26,0,0,1-1.394-6.216C141.665,197.676,141.589,197.727,141.517,197.779Z" transform="translate(-125.133 -176.078)"/><path class="h" d="M349.83,251.527a4.33,4.33,0,0,1,.666.082c-.192-.1-.4-.207-.611-.318Z" transform="translate(-311.68 -223.886)"/><path class="h" d="M164.076,161.89a2.976,2.976,0,0,1-1.453.164,17.924,17.924,0,0,0-5.12.128,11.223,11.223,0,0,0-4.113,1.559c.013.186.039.545.086,1.021.137-.084.276-.168.42-.246.181-.109.371-.207.564-.3s.381-.2.582-.274.394-.171.6-.242l.6-.205a11.025,11.025,0,0,1,1.2-.286,10.72,10.72,0,0,1,1.144-.155c.365-.038.712-.034,1.031-.05s.612.013.872.017.484.035.67.046l.581.049-.583-.026c-.185,0-.41-.029-.668-.02s-.545,0-.867.016-.661.038-1.021.089a11.175,11.175,0,0,0-1.123.2,10.759,10.759,0,0,0-1.17.327l-.583.224c-.194.077-.382.173-.574.26s-.373.191-.557.29-.365.2-.539.313-.365.229-.545.349a25.121,25.121,0,0,0,1.454,6.444l.1.021a23.469,23.469,0,0,1,6.675-1.387c.814-.06,1.675-.09,2.561-.09a29.873,29.873,0,0,1,7.913.943c.4.118.787.257,1.161.408.3-.04.6-.067.884-.076l.109-.468-.2-.095c-.224-.109-.461-.2-.7-.3s-.494-.193-.752-.286-.523-.19-.8-.266-.552-.171-.838-.241l-.872-.206c-.293-.071-.594-.109-.894-.169a9.079,9.079,0,0,0-.908-.139l-.914-.109c-.3-.026-.61-.043-.912-.063-.6-.055-1.2-.05-1.78-.06s-1.136.022-1.666.033-1.032.056-1.493.093-.888.06-1.261.109l-.968.12-.845.109.84-.139.964-.159c.372-.068.8-.1,1.257-.164s.962-.123,1.494-.153,1.091-.1,1.675-.1,1.184-.041,1.8-.012c.306.01.615.013.925.027l.931.075a9.149,9.149,0,0,1,.929.109c.308.05.617.075.919.134l.9.176c.3.06.583.144.872.213s.563.155.832.241.538.164.788.263.5.18.736.278l.093.039c.072-.327.149-.684.226-1.061q-.525-.252-1.081-.48c-.278-.109-.559-.212-.84-.3s-.558-.177-.832-.242-.538-.131-.791-.184-.494-.093-.715-.135c-.446-.07-.819-.125-1.082-.154l-.412-.049.414.027c.264.013.64.048,1.091.094.225.029.47.053.726.095s.529.083.807.143.565.124.855.2.581.165.872.262c.36.121.713.256,1.057.4a30.328,30.328,0,0,0,.611-4.418,11.172,11.172,0,0,0-5.691-2.824A9.818,9.818,0,0,0,164.076,161.89Z" transform="translate(-136.662 -143.759)"/><path class="h" d="M365.109,204.91c-.081.61-.27,1.924-.538,3.2-.021.1-.041.194-.061.287l.414.194,1.13.531a11.673,11.673,0,0,0,.327-3.66A2.141,2.141,0,0,1,365.109,204.91Z" transform="translate(-324.759 -182.564)"/><path class="h" d="M361.818,240.84q-.131.588-.228.976l.169.086c.341.171.631.327.872.458l.436.237c.089-.3.177-.613.261-.942L362.123,241Z" transform="translate(-322.157 -214.576)"/><path class="h" d="M84.947,20.515c-.023.045-.05.095-.081.155l-.154.229a2.09,2.09,0,0,1-.2.245,2.281,2.281,0,0,1-.239.244,2.77,2.77,0,0,1-.277.233c-.094.079-.2.14-.3.209a4.483,4.483,0,0,1-.638.327,5.13,5.13,0,0,1-.583.208,4.361,4.361,0,0,1-.585.133,4.354,4.354,0,0,0,.556-.21,5.146,5.146,0,0,0,.535-.28,4.416,4.416,0,0,0,.559-.395c.085-.079.178-.148.252-.232a2.407,2.407,0,0,0,.218-.244,1.855,1.855,0,0,0,.179-.244,1.635,1.635,0,0,0,.135-.228c.025-.051.047-.095.07-.14l.138-.371a6.038,6.038,0,0,0-.14-4.253,5.391,5.391,0,0,0-3.42-2.674c-5.021-1.619-6.994,1.216-7.339,1.807.031.08.074.189.124.327a10.606,10.606,0,0,1,.333,1.045,6.6,6.6,0,0,1,.2,1.076,2.864,2.864,0,0,1,.008.494,2.81,2.81,0,0,0-.091-.48,6.334,6.334,0,0,0-.363-1,10.011,10.011,0,0,0-.48-.93l-.007.014-.245-.436c-.034-.06-3.5-6.027-10.276-4.749-7.492,1.418-7.8,7.037-7.776,8.205h0l.264.044.358.089a3.417,3.417,0,0,1,.408.129l.218.076.218.1a4.507,4.507,0,0,1,.453.218c.153.075.3.166.446.256s.287.19.427.284.268.2.394.3c.248.2.471.4.654.583a6.3,6.3,0,0,1,.57.627,6.458,6.458,0,0,0-.626-.566c-.194-.16-.436-.334-.695-.508-.132-.085-.269-.17-.411-.253a4.934,4.934,0,0,0-.436-.233c-.148-.068-.3-.145-.451-.2a3.978,3.978,0,0,0-.448-.164l-.218-.071-.21-.05a3.411,3.411,0,0,0-.383-.081l-.321-.049-.18-.011h0l-.31-.023a14.177,14.177,0,0,0-3.943.372c.109,0,.218-.009.334-.008.251-.008.509,0,.772.016a7.841,7.841,0,0,1,.793.081c.264.044.527.086.783.143a5.767,5.767,0,0,1,.74.21c.234.086.46.17.67.26a5.278,5.278,0,0,1,.573.291,4.9,4.9,0,0,1,.459.288c.132.1.25.169.336.246l.279.23L56.281,21c-.091-.071-.218-.137-.349-.218s-.3-.165-.47-.256a5.851,5.851,0,0,0-.581-.25,6.718,6.718,0,0,0-.671-.218c-.234-.064-.484-.109-.734-.16a5.6,5.6,0,0,0-.77-.091c-.26-.016-.518-.024-.773-.028a6.475,6.475,0,0,0-.748.032c-.242.024-.475.045-.7.072s-.427.069-.618.1-.362.075-.516.109-.288.069-.4.1l-.227.059a6.174,6.174,0,0,0-1.3.914,5.561,5.561,0,0,0-1.7,4.235,5.861,5.861,0,0,0,1.754,4.5c2.095,1.943,5.441,1.916,6.1,1.891a13.391,13.391,0,0,1,7.923-4.8,18.519,18.519,0,0,1,5.275-.129,2.431,2.431,0,0,0,1.192-.134,10.379,10.379,0,0,1,5.964-.265,11.429,11.429,0,0,1,6.761,3.817c.582.639.987,1.091,1.612,1.178h0l.327.019a14.761,14.761,0,0,0,4.321-.515c2.859-.823,4.461-2.467,4.759-4.886a4.276,4.276,0,0,0-.974-3.568C89.03,20.642,85.693,20.519,84.947,20.515Zm-3.779-5.93a3.047,3.047,0,0,1,.423.1,3.173,3.173,0,0,1,.528.218l.282.169c.092.07.19.14.282.218a2.8,2.8,0,0,1,.511.588,2.932,2.932,0,0,1,.36.763,3.721,3.721,0,0,1,.109.422l.029.2.015.1.007.05v.494c0,.143-.025.285-.037.424a3.438,3.438,0,0,1-.218.8,3.189,3.189,0,0,1-.373.676c-.071.1-.148.19-.218.278a2.935,2.935,0,0,1-.232.233,2.281,2.281,0,0,1-.231.193l-.218.153a3.312,3.312,0,0,1-.382.21,2.108,2.108,0,0,1-.351.132,3.26,3.26,0,0,0,.3-.218c.091-.074.2-.169.311-.279a3.917,3.917,0,0,0,.7-.912,3.836,3.836,0,0,0,.267-.624,3.772,3.772,0,0,0,.152-.714c.007-.123.024-.246.024-.372l-.013-.376-.046-.383a3.255,3.255,0,0,0-.081-.353,3.136,3.136,0,0,0-.265-.654,3.215,3.215,0,0,0-.389-.545c-.072-.081-.153-.148-.224-.218l-.23-.191a4.844,4.844,0,0,0-.445-.29c-.141-.076-.266-.141-.373-.188a3.2,3.2,0,0,0-.344-.137A2.05,2.05,0,0,1,81.168,14.585ZM63.075,25.49c-.257.016-.515.016-.77.047l-.763.109a5.555,5.555,0,0,0-.757.123l-.747.16c-.25.05-.49.142-.733.21a6.664,6.664,0,0,0-.721.243l-.706.275L57.2,27c-.231.1-.436.252-.654.376a6.051,6.051,0,0,0-.627.421c-.1.074-.206.144-.3.218l-.29.242a6.817,6.817,0,0,0-.561.5c-.188.168-.348.362-.52.545a5.249,5.249,0,0,0-.47.587,5.561,5.561,0,0,0-.4.615l-.081.141-.134-.009-.381-.027a3.694,3.694,0,0,1-.38-.037l-.376-.063a3.6,3.6,0,0,1-.372-.085c-.122-.034-.248-.058-.368-.1l-.36-.122c-.121-.037-.233-.1-.35-.146s-.23-.1-.341-.158a6.493,6.493,0,0,1-.654-.381c-.1-.071-.2-.147-.305-.218s-.2-.157-.293-.236a5.337,5.337,0,0,1-1.008-1.1,5.889,5.889,0,0,0,.531.513,7.16,7.16,0,0,0,.582.446c.1.065.2.137.306.2s.209.124.316.182l.327.166c.109.052.218.1.327.147a3.583,3.583,0,0,0,.337.13,2.708,2.708,0,0,0,.341.109l.347.1c.109.034.234.049.351.075a3.537,3.537,0,0,0,.354.06l.356.04a3.279,3.279,0,0,0,.358.022l.218.009a5.821,5.821,0,0,1,.345-.557,7.608,7.608,0,0,1,.485-.634c.179-.2.348-.4.545-.581a7.186,7.186,0,0,1,.586-.538l.305-.254c.109-.081.218-.154.327-.231a7.006,7.006,0,0,1,.663-.436l.342-.2a2.9,2.9,0,0,1,.35-.185l.72-.327.744-.267a5.718,5.718,0,0,1,.758-.218c.256-.058.508-.137.763-.176l.778-.109a5.641,5.641,0,0,1,.78-.067l.781-.027c.26,0,.519.023.779.034s.517.035.774.052C63.591,25.459,63.332,25.478,63.075,25.49Zm3.572-13.283a9.365,9.365,0,0,0-1.654-.2,9.675,9.675,0,0,0-1.721.087,7.978,7.978,0,0,0-1.661.4,7.307,7.307,0,0,0-2.686,1.712,8.035,8.035,0,0,0-.892,1.081,7.181,7.181,0,0,0-.941,1.892,4.4,4.4,0,0,0-.183.791s0-.075.005-.218a4.083,4.083,0,0,1,.076-.6,6.761,6.761,0,0,1,.782-2.031,7.174,7.174,0,0,1,3.66-3.111,8.38,8.38,0,0,1,1.769-.447,10.232,10.232,0,0,1,1.812-.069,9.124,9.124,0,0,1,1.739.255,7.505,7.505,0,0,1,2.793,1.337,6.979,6.979,0,0,1,1.5,1.579,4.223,4.223,0,0,1,.406.712,5.336,5.336,0,0,0-.487-.654,7.422,7.422,0,0,0-1.589-1.393,8.118,8.118,0,0,0-1.236-.663,8.235,8.235,0,0,0-1.487-.466ZM81.4,28.479c-.161-.138-.361-.3-.594-.484s-.5-.378-.8-.582c-.149-.1-.306-.207-.474-.308s-.336-.212-.517-.312-.364-.208-.558-.305-.389-.2-.594-.3-.411-.192-.626-.278-.431-.177-.654-.254l-.327-.121c-.109-.039-.231-.072-.347-.109l-.35-.109-.087-.027-.08-.021-.173-.044a12.314,12.314,0,0,0-1.4-.285c-.467-.064-.929-.117-1.38-.136a16.388,16.388,0,0,0-2.467.068,14.838,14.838,0,0,0-2.392.43,6.224,6.224,0,0,1,.624-.258,11.4,11.4,0,0,1,1.723-.472,12.522,12.522,0,0,1,2.526-.234,11.787,11.787,0,0,1,1.434.1,12.922,12.922,0,0,1,1.462.277l.18.049.1.026.087.028.348.109c.231.069.463.154.7.245l.345.132.327.152c.218.1.436.2.638.312s.409.218.6.334.378.23.554.351.349.233.508.356.313.239.456.357a10.059,10.059,0,0,1,.755.673c.218.208.393.4.535.564a5.67,5.67,0,0,1,.42.529S81.72,28.758,81.4,28.479Zm8.911-2.693a2.914,2.914,0,0,1-.009.292c-.014.1-.028.2-.044.293a3.515,3.515,0,0,1-.141.59,3.39,3.39,0,0,1-.218.576l-.062.144a.8.8,0,0,1-.038.08l-.036.064c-.052.089-.089.172-.155.266a4.311,4.311,0,0,1-.394.52,4.483,4.483,0,0,1-.987.8,5.356,5.356,0,0,1-1.107.5,7.563,7.563,0,0,1-2.082.348,8.907,8.907,0,0,1-1.474-.065,5.523,5.523,0,0,1-.545-.093s.2,0,.554-.013a14.468,14.468,0,0,0,1.442-.133,9.37,9.37,0,0,0,1.95-.489,5.859,5.859,0,0,0,.995-.493,3.984,3.984,0,0,0,.862-.72,3.778,3.778,0,0,0,.341-.436c.052-.068.1-.168.152-.25l.037-.065.026-.055.058-.13a4.405,4.405,0,0,0,.369-1.035c.017-.087.034-.173.051-.258a2.566,2.566,0,0,0,.023-.257,1.986,1.986,0,0,0,.016-.253c0-.084-.009-.166-.013-.246a3.424,3.424,0,0,0-.065-.471c-.035-.15-.077-.294-.122-.436a4.139,4.139,0,0,0-.347-.716,4.393,4.393,0,0,0-.361-.509,3.353,3.353,0,0,0-.377-.4,2.733,2.733,0,0,1,.453.327,3.51,3.51,0,0,1,.45.466,3.619,3.619,0,0,1,.462.715c.064.143.128.3.184.458a3.326,3.326,0,0,1,.117.518c.012.091.023.183.035.277A2.935,2.935,0,0,1,90.307,25.786Z" transform="translate(-40.743 -9.101)"/><path class="d" d="M285.624,333.177a.626.626,0,1,1-.183-.443A.627.627,0,0,1,285.624,333.177Z" transform="translate(-253.359 -296.284)"/><path class="d" d="M195.314,333.177a.626.626,0,1,1-.183-.443A.627.627,0,0,1,195.314,333.177Z" transform="translate(-172.897 -296.284)"/><path class="i" d="M229.58,439.664a4.706,4.706,0,0,1,2.373-.444,5.075,5.075,0,0,1,2.508.51,3.181,3.181,0,0,1-2.508.981A2.686,2.686,0,0,1,229.58,439.664Z" transform="translate(-204.544 -391.322)"/><path class="j" d="M180.312,245.291a27.4,27.4,0,0,0-7.674.888l-1.418-.133a24.313,24.313,0,0,1,8.827-1.508c4.792.133,8.38.843,8.914,1.243l-1.286.322A34.714,34.714,0,0,0,180.312,245.291Z" transform="translate(-152.548 -217.863)"/><path class="j" d="M119.757,274.724a14.074,14.074,0,0,0-2.306,5.766,8.366,8.366,0,0,0,.845,5.148l-.621.755s-1.375-.931-1.375-4.969a11.147,11.147,0,0,1,2.173-6.652A1.362,1.362,0,0,1,119.757,274.724Z" transform="translate(-103.617 -244.633)"/><path class="j" d="M360.05,273.924a14.065,14.065,0,0,1,1.815,5.94,8.345,8.345,0,0,1-1.275,5.056l.556.8s1.448-.812,1.787-4.834a11.154,11.154,0,0,0-1.607-6.813A1.366,1.366,0,0,0,360.05,273.924Z" transform="translate(-320.785 -243.959)"/><path class="j" d="M344.48,368.2a5.991,5.991,0,0,1,2.993.642l-.266.776A14.375,14.375,0,0,0,344.48,368.2Z" transform="translate(-306.913 -328.046)"/><path class="j" d="M129.649,363a8.35,8.35,0,0,0-2.4,1.2l.588.51A15.568,15.568,0,0,1,129.649,363Z" transform="translate(-113.373 -323.414)"/><path class="j" d="M143.527,397.2a9.523,9.523,0,0,0-1.726-2.828,8.5,8.5,0,0,1,1.083,6c-.354,2.962-6.076,10.856-14.161,10.856a13.129,13.129,0,0,1-7.885-1.963c-3.16-1.763-6.652-5.445-7.088-8.472a16.9,16.9,0,0,1,.631-6.42l-.344.261a13.218,13.218,0,0,0-.854,2.267,11.061,11.061,0,0,0,.763,6.786c1.029,2.5,5.96,6.785,9.686,7.658a21.226,21.226,0,0,0,5.126.654v.109s10.445.4,14.792-11.311A12.563,12.563,0,0,0,143.527,397.2Z" transform="translate(-100.616 -351.363)"/><path class="j" d="M268,344a4.022,4.022,0,0,1,2.726,2.726v.2l-.866.109a10.443,10.443,0,0,0-.754-1.819A3.4,3.4,0,0,0,268,344Z" transform="translate(-238.774 -306.486)"/><path class="j" d="M304.62,372.11a2.818,2.818,0,0,1,1.485,3.836l-.155.023-1-.356a1.788,1.788,0,0,0,.621-1.418A3.789,3.789,0,0,0,304.62,372.11Z" transform="translate(-271.4 -331.53)"/><path class="j" d="M200.223,344.65c-.732.2-2.551,1.641-2.573,3.016l.953.133a6.242,6.242,0,0,1,.665-2A2.758,2.758,0,0,1,200.223,344.65Z" transform="translate(-176.096 -307.065)"/><path class="j" d="M177.433,375.16a2.87,2.87,0,0,0-1.264,3.948l.931-.354a2.168,2.168,0,0,1-.577-1.641A4.678,4.678,0,0,1,177.433,375.16Z" transform="translate(-156.655 -334.247)"/><path class="j" d="M271.774,319.28a9.411,9.411,0,0,0,.162,1.137,6.629,6.629,0,0,0,.322,1.091,4.479,4.479,0,0,0,.272.566,3.314,3.314,0,0,0,.363.522,2.935,2.935,0,0,0,.449.445,3.336,3.336,0,0,0,.51.352,4.167,4.167,0,0,0,.534.245,2.407,2.407,0,0,0,.262.089c.086.026.168.059.251.075.327.085.61.137.809.169s.317.052.317.052-.115.023-.318.053a3.163,3.163,0,0,1-.371.033,3.516,3.516,0,0,1-.487-.005,3.3,3.3,0,0,1-.576-.086,3.124,3.124,0,0,1-.628-.205,2.959,2.959,0,0,1-.315-.16l-.157-.09-.147-.109a3.383,3.383,0,0,1-.545-.51,3.635,3.635,0,0,1-.667-1.276,4.407,4.407,0,0,1-.18-1.219A3.894,3.894,0,0,1,271.774,319.28Z" transform="translate(-242.009 -284.461)"/><path class="j" d="M182.385,319.28a3.894,3.894,0,0,1,.141,1.169,4.4,4.4,0,0,1-.182,1.214,3.638,3.638,0,0,1-.668,1.276,3.331,3.331,0,0,1-.545.51l-.147.109-.157.091a2.95,2.95,0,0,1-.315.16,3.124,3.124,0,0,1-.628.205,3.3,3.3,0,0,1-.577.086,3.5,3.5,0,0,1-.486.005,3.143,3.143,0,0,1-.371-.033c-.2-.031-.318-.053-.318-.053s.117-.022.316-.052a8.243,8.243,0,0,0,.81-.169c.082-.016.164-.049.25-.075a2.333,2.333,0,0,0,.263-.089,4.156,4.156,0,0,0,.534-.245,3.39,3.39,0,0,0,.511-.345,2.986,2.986,0,0,0,.449-.445,3.379,3.379,0,0,0,.363-.522,4.8,4.8,0,0,0,.272-.566,6.627,6.627,0,0,0,.322-1.091A9.259,9.259,0,0,0,182.385,319.28Z" transform="translate(-158.704 -284.461)"/><path class="j" d="M155.19,392.617s-.7,5.156-1.9,5.889a4.8,4.8,0,0,1-2.628,1.064,7.4,7.4,0,0,1-4.514-1.6c-1.564-1.186-2.65-1.8-4.313-1.8a6.4,6.4,0,0,0-3.735,1.363c-.816.579-2.645,2.2-5.057,2.028a4,4,0,0,1-3.786-2.905,34.192,34.192,0,0,1-.788-4.113,19.14,19.14,0,0,0,.034,3.393c.2,1.131,1,4.125,4.191,4.225a8.166,8.166,0,0,0,5.478-1.663,6.271,6.271,0,0,0,3.66.909,7.554,7.554,0,0,0,3.708-.931,7.936,7.936,0,0,0,5.1,1.719,4.479,4.479,0,0,0,4.38-3.581A16.962,16.962,0,0,0,155.19,392.617Zm-13.174,6.465a5.707,5.707,0,0,1-3.638-1.619,5.826,5.826,0,0,1,3.416-1.109,5.721,5.721,0,0,1,3.5,1.2,4.506,4.506,0,0,1-3.285,1.529Z" transform="translate(-114.404 -349.741)"/><path class="j" d="M224.34,454.32a3.49,3.49,0,0,0,3.016,1.364,4.192,4.192,0,0,0,3.209-1.281,5.156,5.156,0,0,1-3.177.848A4.283,4.283,0,0,1,224.34,454.32Z" transform="translate(-199.875 -404.775)"/><path class="j" d="M217.58,479.8a5.644,5.644,0,0,1,4.035-1.99,6.39,6.39,0,0,1,4.419,1.791,16.588,16.588,0,0,0-4.264-.461A10.635,10.635,0,0,0,217.58,479.8Z" transform="translate(-193.852 -425.703)"/><path class="j" d="M203.108,509.932c-.888.554-2.93,4.387-7.211,4.387s-7.164-4.214-7.608-4.3a3.02,3.02,0,0,1,2.085,1.091,8.368,8.368,0,0,0,5.5,2.328c2.173,0,4.525-1.974,5.3-2.617a3.357,3.357,0,0,1,1.47-.838A1,1,0,0,1,203.108,509.932Z" transform="translate(-167.756 -454.315)"/><path class="j" d="M283.274,306.249a3.178,3.178,0,0,0,.377-2.329,2.823,2.823,0,0,0-.987-1.636,3.3,3.3,0,0,1,1.48.483c-.782-1.364-4.471-1.681-6-.516a2.947,2.947,0,0,0-1.014,3.809,3.178,3.178,0,0,0,3.41,1.735,5.86,5.86,0,0,0,3.49-1.564,2.072,2.072,0,0,1,1.02-.4A1.9,1.9,0,0,0,283.274,306.249Zm-.166-.566c-.218,1.109-2.04,2.129-3.682,1.774a2.819,2.819,0,0,1-2.152-3.549,3.145,3.145,0,0,1,4.591-1.485A2.833,2.833,0,0,1,283.108,305.683Z" transform="translate(-246.606 -268.652)"/><path class="j" d="M137.19,305.783a2.089,2.089,0,0,1,1.02.4,5.889,5.889,0,0,0,3.49,1.564,3.179,3.179,0,0,0,3.41-1.735A2.951,2.951,0,0,0,144.1,302.2c-1.53-1.165-5.224-.848-6.006.516a3.3,3.3,0,0,1,1.481-.483,2.823,2.823,0,0,0-.987,1.636,3.178,3.178,0,0,0,.377,2.329A1.925,1.925,0,0,0,137.19,305.783Zm3.182-3.4a3.146,3.146,0,0,1,4.591,1.485,2.82,2.82,0,0,1-2.152,3.549c-1.641.354-3.461-.665-3.679-1.774A2.836,2.836,0,0,1,140.372,302.379Z" transform="translate(-122.229 -268.608)"/><path class="j" d="M185.429,345.144a3.4,3.4,0,0,1,3.57-3.637c3.748,0,4.1,2.2,4.014,3.482,0,0,1.974-.665,2.726.244a1.835,1.835,0,0,1,.067,2.373l.311.2a1.9,1.9,0,0,0,.554-1.6c-.178-.908-.754-1.907-1.863-1.886a7.026,7.026,0,0,0-1.33.088S193.39,341,189.133,341s-4.125,3.549-4.125,3.549a2.315,2.315,0,0,0-2.617,2.24s.156,1.353.622,1.375l.311-.109a2.2,2.2,0,0,1-.4-1.574A1.82,1.82,0,0,1,185.429,345.144Z" transform="translate(-162.5 -303.813)"/><path class="j" d="M188.5,395.925a4.61,4.61,0,0,1,3.659-.715,9.471,9.471,0,0,0,3.46.683c1.061-.081,2.726-.8,3.908-.732a6.882,6.882,0,0,1,2.029.415s-.016.283-.067.316a5.477,5.477,0,0,0-1.88-.25,37.708,37.708,0,0,1-4.058.832c-1.264.034-2.912-.749-4.009-.915a6.812,6.812,0,0,0-2.928.714Z" transform="translate(-167.943 -351.969)"/><path class="k" d="M245.536,354.162a1.746,1.746,0,1,1-.793-1.9A1.491,1.491,0,0,1,245.536,354.162Z" transform="translate(-216.106 -313.569)"/><path class="j" d="M82.077,291.214c-.633-.366-2.761-.965-3.49.732s.3,3.792,1.165,4.791,1.064,1.3,1.064,1.3a3.462,3.462,0,0,0-.322,1.774,1.857,1.857,0,0,0,1.043,1.586,2.473,2.473,0,0,1-.366-3.182s-.022,2.218.865,2.163l.455-.755.377.588-1.009,1.974a1.887,1.887,0,0,1-1.83-1.208,6.54,6.54,0,0,1-.178-2.695s-2.306-2.229-2.528-4.689,1.4-3.881,2.882-3.837a3.578,3.578,0,0,1,2.329.908,12.945,12.945,0,0,0-.654,2.181,2.64,2.64,0,0,0-1.5-.067c-.856.2-1.091,1.987-.545,3.218a3.126,3.126,0,0,1-.5-2.537,1.937,1.937,0,0,1,1.9-1.323l.424.092Z" transform="translate(-68.873 -258.152)"/><path class="j" d="M109.246,297.68a11.841,11.841,0,0,0-.577,6.1c.643,3.083,1.442,3.771,1.442,3.771l.51-.688a8.953,8.953,0,0,1-1.353-5.016,11.778,11.778,0,0,1,.71-3.97Z" transform="translate(-96.652 -265.217)"/><path class="j" d="M375.585,291.214c.633-.366,2.982-1.143,3.713.554s-.453,4.01-1.286,5.035c-.234.288-.931,1.219-.931,1.219a8.05,8.05,0,0,1,.091,1.785,1.854,1.854,0,0,1-1.042,1.586,2.473,2.473,0,0,0,.365-3.182s.023,2.218-.865,2.163l-.455-.755-.376.588,1.009,1.974a1.887,1.887,0,0,0,1.83-1.208,6.529,6.529,0,0,0,.177-2.695s2.307-2.229,2.529-4.689-1.4-3.881-2.883-3.837a3.574,3.574,0,0,0-2.328.908,13.053,13.053,0,0,1,.654,2.181,2.641,2.641,0,0,1,1.5-.067c.857.2,1.091,1.987.545,3.218a3.125,3.125,0,0,0,.5-2.537,1.936,1.936,0,0,0-1.9-1.323l-.424.092Z" transform="translate(-333.927 -258.152)"/><path class="j" d="M373.1,297.68a11.96,11.96,0,0,1,.442,5.965c-.643,3.083-1.708,3.971-1.708,3.971l-.51-.688a8.17,8.17,0,0,0,1.754-5.079,11.928,11.928,0,0,0-.709-3.97Z" transform="translate(-330.826 -265.217)"/><path class="j" d="M262.52,267.58c.532,1.331,1.819,3.26,3.817,3.127s3.793-1.219,5.3-1.485a6.4,6.4,0,0,1,2.351-.067l-.2-.732s-1-.489-3.06.443a11.91,11.91,0,0,1-4.835,1.287,4.912,4.912,0,0,1-2.309-1.436C262.961,268.012,262.52,267.58,262.52,267.58Z" transform="translate(-233.891 -238.399)"/><path class="j" d="M142.188,267.58c-.532,1.331-1.819,3.26-3.817,3.127s-3.792-1.219-5.3-1.485a6.4,6.4,0,0,0-2.351-.067l.2-.732s1-.489,3.06.443a11.91,11.91,0,0,0,4.835,1.287,4.867,4.867,0,0,0,2.306-1.442C141.743,268,142.188,267.58,142.188,267.58Z" transform="translate(-116.465 -238.399)"/><path class="j" d="M264.15,278.92a3.449,3.449,0,0,0,1.5,1.963,3.86,3.86,0,0,0,2.328.2,5.426,5.426,0,0,1-2.112-.532A4.282,4.282,0,0,1,264.15,278.92Z" transform="translate(-235.344 -248.503)"/><path class="j" d="M203.737,278.92a3.454,3.454,0,0,1-1.5,1.963,3.864,3.864,0,0,1-2.329.2,5.428,5.428,0,0,0,2.113-.532A4.273,4.273,0,0,0,203.737,278.92Z" transform="translate(-178.109 -248.503)"/><path class="l" d="M267.942,258.4s.467.232,2.508-.525,4.967-1.636,6.3-1.139a6.272,6.272,0,0,1,1.788,1.134,4.079,4.079,0,0,0-2.661.05,7.567,7.567,0,0,1,2.5.382c.882.4,1.347.616,1.347.616a2.924,2.924,0,0,0-1.527-2.1,5.027,5.027,0,0,0-3.959-.649c-1.812.383-4.362,1.264-5.057,1.4a7.49,7.49,0,0,1-2.079-.149Z" transform="translate(-237.972 -228.097)"/><path class="l" d="M126.942,258.4s-.466.232-2.508-.525-4.967-1.636-6.3-1.139a6.208,6.208,0,0,0-1.782,1.134,4.079,4.079,0,0,1,2.661.05,7.558,7.558,0,0,0-2.494.382c-.881.4-1.348.616-1.348.616a2.924,2.924,0,0,1,1.527-2.1,5.027,5.027,0,0,1,3.959-.649c1.812.383,4.362,1.264,5.057,1.4a7.5,7.5,0,0,0,2.08-.149Z" transform="translate(-102.61 -228.097)"/><path class="l" d="M276.389,275.914a2.789,2.789,0,0,1-2.328-.183,5.641,5.641,0,0,1-1.231-1.081l-.449.266s1.248,1.527,2.362,1.563A2.148,2.148,0,0,0,276.389,275.914Z" transform="translate(-242.676 -244.698)"/><path class="l" d="M189.19,275.914a2.792,2.792,0,0,0,2.329-.183,5.594,5.594,0,0,0,1.23-1.081l.449.266s-1.248,1.527-2.362,1.563A2.148,2.148,0,0,1,189.19,275.914Z" transform="translate(-168.558 -244.698)"/><path class="l" d="M158.4,402.7s-.732,4.081-2.883,4.814a5.535,5.535,0,0,1-5.344-1.22,7.4,7.4,0,0,0-4.613-1.73,9.064,9.064,0,0,0-5.126,2.017,5.3,5.3,0,0,1-5.165,1c-2.106-.617-2.772-4.947-2.772-4.947s-.289,3.678,2.172,5.383,6.055-.6,6.742-1.219a7.206,7.206,0,0,1,4.194-1.616c1.7,0,3.147,1.106,4.611,2.148s4.683,1.559,5.855.78a5.408,5.408,0,0,0,2.285-3.349A4.669,4.669,0,0,0,158.4,402.7Z" transform="translate(-118.036 -358.731)"/><path class="l" d="M163.33,402.529a8.409,8.409,0,0,0,3.926-1,4.124,4.124,0,0,1,3.061.066,8.079,8.079,0,0,0,2.778.436,6.433,6.433,0,0,0,2.362-.436,3.837,3.837,0,0,1,3.6.084,5.45,5.45,0,0,0,3.26.84l-.327-.208a5.8,5.8,0,0,1-1.938-.763,4.562,4.562,0,0,0-3.759-.7,14.892,14.892,0,0,1-3.163.633c-1.166,0-3.66-.932-5.1-.8s-2.44,1.154-3.238,1.418S163.33,402.529,163.33,402.529Z" transform="translate(-145.518 -356.976)"/><path class="l" d="M272.41,401.56l.109-.024a3.216,3.216,0,0,1,.363-.052,3.575,3.575,0,0,1,1.252.125,6.621,6.621,0,0,1,1.543.677c.523.3,1.046.654,1.567,1.007.26.171.522.353.779.5a2.737,2.737,0,0,0,.8.284,4.029,4.029,0,0,0,1.561-.057,6.121,6.121,0,0,0,1.075-.345c.253-.109.39-.185.39-.185a4.289,4.289,0,0,1-.375.218,6.159,6.159,0,0,1-1.059.436,4.2,4.2,0,0,1-1.628.188,2.981,2.981,0,0,1-.923-.248c-.29-.14-.557-.3-.834-.449-.545-.309-1.091-.618-1.612-.865a5.965,5.965,0,0,0-1.442-.5,2.811,2.811,0,0,0-1.007-.024,2,2,0,0,0-.264.06l-.109.032Z" transform="translate(-242.703 -357.691)"/><path class="l" d="M152.9,402.334l-.109-.032a2.008,2.008,0,0,0-.264-.06,2.811,2.811,0,0,0-1.007.024,5.965,5.965,0,0,0-1.442.5c-.52.246-1.062.556-1.611.865-.278.153-.545.31-.834.449a2.987,2.987,0,0,1-.924.247,4.205,4.205,0,0,1-1.627-.185,6.162,6.162,0,0,1-1.059-.436,4.292,4.292,0,0,1-.375-.218s.137.077.39.185a6.118,6.118,0,0,0,1.075.345,4.034,4.034,0,0,0,1.561.057,2.737,2.737,0,0,0,.8-.284c.256-.15.519-.327.779-.5.521-.349,1.044-.706,1.567-1.007a6.639,6.639,0,0,1,1.543-.677,3.575,3.575,0,0,1,1.252-.125,3.278,3.278,0,0,1,.364.052l.109.024Z" transform="translate(-127.984 -357.691)"/><path class="l" d="M141.037,418.937l.349.24c.109.056.231.125.388.194a3.415,3.415,0,0,0,.561.173,1.9,1.9,0,0,0,.335.056l.179.022h.185a2.75,2.75,0,0,0,.389-.008,3.31,3.31,0,0,0,.407-.046,3.349,3.349,0,0,0,.418-.081,4.01,4.01,0,0,0,.423-.117,6.291,6.291,0,0,0,.836-.327,7.958,7.958,0,0,0,.794-.436c.124-.084.249-.165.368-.251l.348-.265a7.581,7.581,0,0,1,.687-.482,6.627,6.627,0,0,1,.654-.362,5.679,5.679,0,0,1,1.051-.387,2.8,2.8,0,0,1,.415-.081,2.87,2.87,0,0,0-.409.1,5.644,5.644,0,0,0-1.02.436,6.47,6.47,0,0,0-.629.392,7.251,7.251,0,0,0-.654.509c-.109.095-.218.19-.337.287s-.24.185-.363.277a7.934,7.934,0,0,1-.795.492,6.666,6.666,0,0,1-.854.388,4.131,4.131,0,0,1-.436.146,4.015,4.015,0,0,1-.436.109,3.568,3.568,0,0,1-.436.072,2.957,2.957,0,0,1-.423.032l-.206.007-.2-.013a2.467,2.467,0,0,1-.378-.043,3.87,3.87,0,0,1-.654-.164c-.19-.071-.359-.156-.491-.218l-.362-.218Z" transform="translate(-125.392 -371.329)"/><path class="l" d="M287.089,419.473l-.361.218c-.133.062-.3.147-.492.218a3.847,3.847,0,0,1-.654.164,2.466,2.466,0,0,1-.378.043l-.2.013-.205-.007a2.958,2.958,0,0,1-.424-.032,3.6,3.6,0,0,1-.436-.072,4.017,4.017,0,0,1-.436-.109,4.126,4.126,0,0,1-.436-.146,6.658,6.658,0,0,1-.854-.388,8.059,8.059,0,0,1-.795-.492c-.122-.092-.245-.182-.363-.277s-.227-.192-.337-.287a7.252,7.252,0,0,0-.649-.509,6.472,6.472,0,0,0-.629-.392,5.672,5.672,0,0,0-1.019-.436,2.9,2.9,0,0,0-.41-.1,2.8,2.8,0,0,1,.415.081,5.682,5.682,0,0,1,1.051.387,6.5,6.5,0,0,1,.654.362,7.421,7.421,0,0,1,.687.482l.348.265c.12.086.244.167.368.251a7.963,7.963,0,0,0,.794.436,6.245,6.245,0,0,0,.838.327,3.969,3.969,0,0,0,.422.117,3.386,3.386,0,0,0,.418.081,3.322,3.322,0,0,0,.407.046,2.75,2.75,0,0,0,.389.008h.186l.178-.022a1.882,1.882,0,0,0,.335-.056,3.41,3.41,0,0,0,.56-.173c.157-.069.279-.139.389-.194l.349-.24Z" transform="translate(-247.692 -371.418)"/><path class="l" d="M322.266,425.644s-.075.047-.208.127a5.29,5.29,0,0,1-.609.3,5.1,5.1,0,0,1-1.963.4h-.273l-.269-.026c-.178-.013-.348-.06-.515-.086-.162-.048-.327-.084-.467-.136s-.282-.1-.4-.157l-.327-.158c-.1-.049-.176-.1-.243-.141l-.209-.124.218.109c.07.032.153.076.253.116l.338.125c.123.044.264.075.408.117s.3.058.462.088c.162.01.327.039.5.036h.256l.257-.02a4.751,4.751,0,0,0,1.784-.545,5.031,5.031,0,0,0,.517-.315c.123-.093.2-.145.2-.145Z" transform="translate(-282.234 -378.839)"/><path class="l" d="M135.928,425.15l.2.145a4.868,4.868,0,0,0,.516.315,4.759,4.759,0,0,0,1.784.545l.257.02h.262c.171,0,.337-.026.5-.036.16-.031.317-.051.463-.088s.284-.073.408-.117l.337-.125c.1-.039.183-.084.253-.116l.218-.109-.216.126c-.068.038-.146.092-.242.141l-.327.158c-.121.057-.26.1-.4.157s-.3.088-.467.136c-.166.026-.337.073-.515.086l-.268.026h-.273a5.105,5.105,0,0,1-1.963-.4,5.373,5.373,0,0,1-.609-.3c-.133-.08-.208-.127-.208-.127Z" transform="translate(-120.839 -378.786)"/><path class="m" d="M89.708,125.642l-.532-.1a3.975,3.975,0,0,1-.466,3.06,3.55,3.55,0,0,0-2.2-3.559,6.562,6.562,0,0,1,1.43,2.529c.333,1.364-.831,2.86-1.8,3.759s-4.924,1.115-5.235,1.031-.816-.815-1.165-1.18a8.651,8.651,0,0,0-2.181-1.947,21.035,21.035,0,0,0-5.6-2.317c-2.526-.665-5.5.4-6.52.665a8.573,8.573,0,0,1-3.77.178,15.664,15.664,0,0,0-7.5,1.685,15.466,15.466,0,0,0-3.283,3.2,7.438,7.438,0,0,1-3.061-.755,6.445,6.445,0,0,1-2.588-2.532,4.928,4.928,0,0,0,1.527,2.821s-1.929-.577-2.794-3.708a9.772,9.772,0,0,1,0-3.459s-.809.232-.61,2.961,1.23,4.99,4.025,5.789a9.643,9.643,0,0,0,4.191.5s-.2.133-.133,2.263a7.975,7.975,0,0,0,1.065,3.693l.565-.532a12.091,12.091,0,0,1-.763-3.559l.631-.6a21.223,21.223,0,0,0,.832,3.96l.931-.133.8-.233a14.062,14.062,0,0,1-.965-4.823l.4-.266a16.933,16.933,0,0,0,1.265,5.289.841.841,0,0,0,.633-.089l.065.123.821-.012a35.9,35.9,0,0,1,8.07-1.33,24.315,24.315,0,0,1,6.107.444c1.061.3,3.117.845,3.117.845s1.242.088,2.34.056a3.5,3.5,0,0,1,2.1.865,8.813,8.813,0,0,0,.7-2.329,24.3,24.3,0,0,0,.4-3.858,19.59,19.59,0,0,0,4.958-.832C91.538,131.365,89.708,125.642,89.708,125.642Zm-10.36,11.1-.444-.109.422-2.972-.8-.643-.545,3.3-.266-.089.5-3.481-1.438-1.376c-.155,1.819-.665,4.5-.665,4.5a16.128,16.128,0,0,0-6.454-.577,17.945,17.945,0,0,1,6.276,1.519l-.067.436a26.592,26.592,0,0,0-7.787-1.233,26.3,26.3,0,0,0-7.515,1.1c8.912-1.2,14.064,1.132,14.064,1.132a32.615,32.615,0,0,0-8.748-1.064,25.888,25.888,0,0,0-8.654,1.508,23.646,23.646,0,0,1-1.226-5.966c3.629-2.462,8.519-1.832,8.519-1.832a11.1,11.1,0,0,0-8.683.965l-.2-1A12.416,12.416,0,0,1,59,129.634a18.541,18.541,0,0,1,5.489-.21A7.858,7.858,0,0,0,66.71,129a12.686,12.686,0,0,1,6.254.244,10.214,10.214,0,0,1,3.459,1.575l2.484,2.306.776.643a11.723,11.723,0,0,1-.333,2.973Z" transform="translate(-38.613 -111.377)"/><path class="m" d="M129.342,82.51a5.872,5.872,0,0,1,4.568,3.172,7.933,7.933,0,0,0-4.59-2.5Z" transform="translate(-115.217 -73.512)"/><path class="m" d="M300.783,51.377a7.026,7.026,0,0,0-.266-3.637l-.577.71A12.775,12.775,0,0,1,300.783,51.377Z" transform="translate(-267.231 -42.534)"/><path class="m" d="M377.47,104.519a4.453,4.453,0,0,0,3.826-1.447,9.225,9.225,0,0,1,4.741,1.231l.266-.067a8.386,8.386,0,0,0-3.272-1.63,5.592,5.592,0,0,0-2.711-.233A4.53,4.53,0,0,1,377.47,104.519Z" transform="translate(-336.306 -91.151)"/><path class="m" d="M367.66,50.18a3.828,3.828,0,0,1,2.317.763,3.576,3.576,0,0,1,.233,4.442c-1.1,1.33-1.929,1.231-1.929,1.231a3.9,3.9,0,0,0,1.963-3.293,3.06,3.06,0,0,0-1.8-2.912Z" transform="translate(-327.565 -44.708)"/><path class="m" d="M148.345,25.192a6.4,6.4,0,0,1,2.173-4.946c2.461-2.373,6.87-2.063,8.516-1.375s3.416,2.151,3.793,3.748a9.1,9.1,0,0,0-8.339-2.835A7.886,7.886,0,0,0,148.345,25.192Z" transform="translate(-132.159 -16.371)"/><path class="m" d="M81.93,89.832s4.347-.532,6.9,1.553a4.761,4.761,0,0,0-1.819-1.619,7.123,7.123,0,0,1,4.679,1.664,7.9,7.9,0,0,0-4.7-2.44A10.821,10.821,0,0,0,81.93,89.832Z" transform="translate(-72.995 -79.253)"/><path class="m" d="M238.32,130.075s.268-.127.757-.3a17.4,17.4,0,0,1,2.072-.578c.436-.087.914-.179,1.423-.234a14.669,14.669,0,0,1,1.61-.109,14.33,14.33,0,0,1,1.73.069,13.209,13.209,0,0,1,1.767.31l.436.116.429.142c.288.086.562.21.838.32s.534.254.8.382c.251.148.5.289.739.443a7.456,7.456,0,0,1,.676.484c.21.172.418.339.605.516l.537.526.457.532c.15.167.266.35.388.513a4.791,4.791,0,0,1,.327.479c.182.314.36.575.472.809.232.465.357.732.357.732s-.167-.245-.446-.678c-.133-.218-.336-.46-.545-.748-.1-.146-.236-.284-.364-.436a5.411,5.411,0,0,0-.417-.469c-.159-.151-.313-.315-.479-.482l-.545-.479c-.19-.16-.4-.3-.607-.463s-.436-.289-.664-.436-.475-.265-.718-.4c-.255-.109-.5-.242-.763-.348a7.635,7.635,0,0,0-.8-.3l-.411-.131-.419-.109a12.6,12.6,0,0,0-1.694-.315,15.733,15.733,0,0,0-1.672-.109c-.544,0-1.073,0-1.574.041s-.973.086-1.408.14c-.872.12-1.593.256-2.094.376l-.581.144Z" transform="translate(-212.33 -114.8)"/><path class="m" d="M119.755,135.8a20.556,20.556,0,0,0-2.1.132c-.313.036-.654.082-1.007.137s-.726.129-1.108.212-.77.191-1.163.3a12.14,12.14,0,0,0-1.166.411c-.191.079-.384.154-.568.244s-.371.177-.545.274a10.873,10.873,0,0,0-1.022.613c-.162.109-.308.229-.461.336s-.286.232-.424.345c-.264.238-.514.466-.724.7a4.335,4.335,0,0,0-.3.334c-.092.109-.182.212-.263.311-.148.207-.29.381-.394.533l-.327.485s.081-.2.232-.539c.08-.168.192-.366.318-.6a7.666,7.666,0,0,1,.5-.726,7.557,7.557,0,0,1,.686-.791c.135-.127.27-.264.417-.393s.3-.256.466-.377a9.009,9.009,0,0,1,1.05-.684c.186-.109.377-.205.573-.3s.394-.18.593-.264a12,12,0,0,1,2.436-.682c.4-.072.784-.116,1.152-.146s.714-.044,1.035-.047A10.485,10.485,0,0,1,119.755,135.8Z" transform="translate(-96.383 -120.838)"/><path class="a" d="M149.516,346.783c-.242-.141-.5-.289-.792-.43a2.26,2.26,0,0,0,.116-2.508,2.55,2.55,0,0,0-2.9-1.142,3.639,3.639,0,0,0-1.01-2.147,4.635,4.635,0,0,0-3.43-1.187,4.486,4.486,0,0,0-3.358,1.188,3.75,3.75,0,0,0-1,2.3,2.386,2.386,0,0,0-2.381,1.332,2.431,2.431,0,0,0,.168,2.576l-.033.019a3.912,3.912,0,0,1-2.429.715,4.9,4.9,0,0,1-3.272-1.884l-.349-.479-.012.592c0,.148-.05,3.643,1.79,5.519a3.793,3.793,0,0,0,2.815,1.141,7.187,7.187,0,0,0,4.819-1.787l.243-.179a1.481,1.481,0,0,1,.866.484,3.809,3.809,0,0,0,2.744,1.11v.007h.278v-.007a3.809,3.809,0,0,0,2.744-1.11,1.5,1.5,0,0,1,.776-.483l.242.178a7.191,7.191,0,0,0,4.819,1.787,3.8,3.8,0,0,0,2.816-1.141c1.84-1.876,1.791-5.371,1.788-5.519l-.012-.592-.349.479a4.876,4.876,0,0,1-3.272,1.884A3.933,3.933,0,0,1,149.516,346.783Zm-14.4-2.417a2.008,2.008,0,0,1,2.176-1.091l.248.05-.008-.252a3.392,3.392,0,0,1,.9-2.239,4.112,4.112,0,0,1,3.072-1.067,4.269,4.269,0,0,1,3.139,1.065,3.288,3.288,0,0,1,.915,2.117v.272l.258-.08c.02-.007,1.942-.575,2.671.881a1.834,1.834,0,0,1-.132,2.164,5.89,5.89,0,0,0-.841-.266,4.185,4.185,0,0,0-.966-.115,6.4,6.4,0,0,0-1.963.389,6.561,6.561,0,0,1-4.761,0,6.352,6.352,0,0,0-1.963-.389,4.172,4.172,0,0,0-.965.115,6.108,6.108,0,0,0-1.629.646A2.062,2.062,0,0,1,135.114,344.367Zm9.662,6.144a3.377,3.377,0,0,1-2.526.982,3.337,3.337,0,0,1-2.527-.982,2.563,2.563,0,0,0-.665-.482,5.57,5.57,0,0,1,6.334.028A3.184,3.184,0,0,0,144.776,350.511Zm10.382-4.219c-.063,1.051-.352,3.346-1.657,4.676a3.411,3.411,0,0,1-2.531,1.021,6.87,6.87,0,0,1-4.58-1.709,6.2,6.2,0,0,0-8.368,0,6.855,6.855,0,0,1-4.58,1.709,3.406,3.406,0,0,1-2.529-1.02c-1.3-1.328-1.6-3.624-1.662-4.677a4.885,4.885,0,0,0,3.2,1.606,4.3,4.3,0,0,0,2.647-.77,6.389,6.389,0,0,1,1.9-.817,3.755,3.755,0,0,1,.872-.109,6.029,6.029,0,0,1,1.84.371,6.944,6.944,0,0,0,5,0,6.015,6.015,0,0,1,1.839-.371,3.75,3.75,0,0,1,.872.109,6.389,6.389,0,0,1,1.9.817,4.3,4.3,0,0,0,2.648.77A4.875,4.875,0,0,0,155.158,346.292Z" transform="translate(-114.78 -302.361)"/><path class="a" d="M225.321,454.892a4.408,4.408,0,0,0,1.026.337,5.05,5.05,0,0,0,.6.089c.208.022.414.024.63.029a4.734,4.734,0,0,0,.624-.033,5.011,5.011,0,0,0,.6-.088,4.7,4.7,0,0,0,1.028-.327,3.47,3.47,0,0,0,.654-.382,1.545,1.545,0,0,0,.218-.188,2.451,2.451,0,0,1-.244.144,4.257,4.257,0,0,1-.685.284,6.405,6.405,0,0,1-1.014.233c-.188.032-.386.048-.582.063s-.4.021-.611.024a5,5,0,0,1-.6-.021c-.2-.021-.395-.034-.582-.063a5.485,5.485,0,0,1-1.009-.247,3.829,3.829,0,0,1-.672-.308,2.111,2.111,0,0,1-.236-.159,1.419,1.419,0,0,0,.205.2A3.291,3.291,0,0,0,225.321,454.892Z" transform="translate(-199.991 -404.739)"/><path class="a" d="M221.75,481.528a7.291,7.291,0,0,1,1.119-.447c.171-.053.358-.1.554-.155s.408-.087.624-.13l.327-.051c.109-.011.228-.023.342-.038.23-.021.465-.039.7-.038.122-.007.228-.01.352-.007s.245,0,.357.008.228.011.341.015l.336.026c.218.026.436.048.633.081s.389.071.564.109.327.085.47.129.26.087.358.126a2.916,2.916,0,0,1,.305.137,1.854,1.854,0,0,0-.253-.229,3.2,3.2,0,0,0-.327-.218,4.118,4.118,0,0,0-.457-.232,4.668,4.668,0,0,0-.57-.208,6.141,6.141,0,0,0-.654-.158,6.731,6.731,0,0,0-.722-.091c-.126-.012-.242-.011-.364-.017a3.619,3.619,0,0,0-.377,0c-.251.005-.5.033-.747.06a6.593,6.593,0,0,0-.711.139,5.533,5.533,0,0,0-1.2.461,4.263,4.263,0,0,0-.754.494A2.315,2.315,0,0,0,221.75,481.528Z" transform="translate(-197.567 -427.775)"/><path class="a" d="M202.314,510.1a3.519,3.519,0,0,0-.763.353,9.872,9.872,0,0,0-.9.612,16.6,16.6,0,0,1-2.2,1.478,6.668,6.668,0,0,1-1.356.529,5.663,5.663,0,0,1-.732.145,5.973,5.973,0,0,1-.754.052,5.9,5.9,0,0,1-1.486-.147,6.26,6.26,0,0,1-1.372-.484,9.159,9.159,0,0,1-1.184-.709c-.362-.255-.7-.513-1.012-.751s-.609-.456-.883-.629a3.514,3.514,0,0,0-.757-.373,2.043,2.043,0,0,0-.533-.1H188.2l.188.026a2.2,2.2,0,0,1,.5.169,3.814,3.814,0,0,1,.679.436c.248.2.513.436.806.7a10.963,10.963,0,0,0,2.181,1.642,6.156,6.156,0,0,0,1.466.569,6.464,6.464,0,0,0,1.618.179,6.346,6.346,0,0,0,.811-.067,6.252,6.252,0,0,0,.785-.159,6.366,6.366,0,0,0,1.449-.611,8.9,8.9,0,0,0,1.192-.822c.359-.284.677-.572.972-.83s.565-.493.817-.68a3.966,3.966,0,0,1,.691-.423,2.324,2.324,0,0,1,.5-.163l.186-.025h-.19A2.071,2.071,0,0,0,202.314,510.1Z" transform="translate(-167.676 -454.392)"/><path class="a" d="M80.579,149l-.781.027a5.645,5.645,0,0,0-.78.067l-.778.109c-.26.038-.511.118-.763.176a5.717,5.717,0,0,0-.758.218l-.748.276-.72.327a2.9,2.9,0,0,0-.35.185l-.342.2a7.012,7.012,0,0,0-.663.436c-.109.077-.218.151-.327.231l-.305.254a7.182,7.182,0,0,0-.586.538c-.2.18-.364.386-.545.581a7.608,7.608,0,0,0-.485.634,5.82,5.82,0,0,0-.345.557l-.218-.009a3.281,3.281,0,0,1-.358-.022l-.356-.04a3.539,3.539,0,0,1-.354-.06c-.117-.026-.237-.041-.351-.075l-.347-.1c-.117-.028-.227-.077-.341-.109a3.588,3.588,0,0,1-.337-.13c-.109-.05-.218-.095-.327-.147l-.327-.166c-.109-.058-.21-.121-.316-.182s-.2-.132-.306-.2a7.154,7.154,0,0,1-.582-.446,5.886,5.886,0,0,1-.531-.513,5.337,5.337,0,0,0,1.007,1.1c.1.079.191.162.293.236s.2.149.305.218a6.5,6.5,0,0,0,.654.381,3.787,3.787,0,0,0,.342.162c.117.048.229.109.35.146l.36.122c.12.041.245.065.368.1a3.6,3.6,0,0,0,.372.085l.376.063a3.687,3.687,0,0,0,.38.037l.381.027.134.009.081-.141a5.563,5.563,0,0,1,.4-.615c.145-.2.311-.393.47-.587a4.539,4.539,0,0,1,.52-.545,6.815,6.815,0,0,1,.561-.5l.29-.242c.1-.077.2-.147.3-.218a6.047,6.047,0,0,1,.627-.421c.218-.124.424-.273.654-.376l.676-.341.706-.279a6.665,6.665,0,0,1,.721-.243c.243-.069.483-.16.733-.21l.747-.16a5.557,5.557,0,0,1,.757-.123l.763-.109c.255-.031.513-.031.77-.047l.774-.05c-.257-.017-.516-.04-.774-.052S80.836,149,80.579,149Z" transform="translate(-59.025 -132.751)"/><path class="a" d="M394.854,127.487a3.322,3.322,0,0,0-.117-.518c-.057-.162-.12-.315-.184-.458a3.618,3.618,0,0,0-.462-.715,3.509,3.509,0,0,0-.449-.469,2.73,2.73,0,0,0-.453-.327,3.354,3.354,0,0,1,.377.4,4.394,4.394,0,0,1,.361.509,4.133,4.133,0,0,1,.347.716c.045.137.087.281.122.436a3.418,3.418,0,0,1,.065.471c0,.081.009.164.013.246a2.226,2.226,0,0,1-.016.253c-.005.085-.009.171-.023.257s-.034.171-.051.258a4.406,4.406,0,0,1-.369,1.035l-.058.13c-.009.017-.023.052-.026.055l-.037.065c-.051.082-.1.182-.152.25a3.78,3.78,0,0,1-.341.436,3.984,3.984,0,0,1-.862.72,5.861,5.861,0,0,1-.995.493,9.37,9.37,0,0,1-1.95.489,14.476,14.476,0,0,1-1.442.133c-.351.016-.554.013-.554.013a5.522,5.522,0,0,0,.545.093,8.907,8.907,0,0,0,1.474.065,7.563,7.563,0,0,0,2.079-.351,5.357,5.357,0,0,0,1.107-.5,4.482,4.482,0,0,0,.987-.8,4.305,4.305,0,0,0,.395-.523c.065-.094.1-.177.155-.266l.036-.064a.8.8,0,0,0,.038-.08l.062-.144a3.389,3.389,0,0,0,.218-.576,3.518,3.518,0,0,0,.141-.59c.015-.1.029-.2.044-.293s.011-.195.009-.292,0-.192-.005-.285S394.866,127.578,394.854,127.487Z" transform="translate(-345.331 -111.368)"/><path class="a" d="M367.941,50.285a4.851,4.851,0,0,1,.445.29l.228.191c.071.075.152.143.224.218a3.216,3.216,0,0,1,.389.545,3.136,3.136,0,0,1,.265.654,3.248,3.248,0,0,1,.081.353l.046.383.013.376c0,.125-.018.249-.024.372a3.771,3.771,0,0,1-.147.7,3.832,3.832,0,0,1-.267.624,4.757,4.757,0,0,1-.342.516c-.123.148-.242.282-.357.4a3.958,3.958,0,0,1-.311.279,3.26,3.26,0,0,1-.3.218,2.109,2.109,0,0,0,.351-.132,3.311,3.311,0,0,0,.382-.21l.218-.153c.075-.059.151-.125.231-.193a2.938,2.938,0,0,0,.232-.233,2.234,2.234,0,0,0,.218-.278,3.193,3.193,0,0,0,.373-.676,3.439,3.439,0,0,0,.218-.8c.012-.14.034-.281.037-.424v-.494l-.007-.05-.015-.1-.034-.189a3.724,3.724,0,0,0-.109-.422,2.933,2.933,0,0,0-.36-.763,2.806,2.806,0,0,0-.511-.588c-.093-.08-.191-.149-.282-.218l-.285-.168a3.171,3.171,0,0,0-.528-.218,3.047,3.047,0,0,0-.423-.1,2.05,2.05,0,0,0-.374-.034,3.2,3.2,0,0,1,.344.135C367.675,50.144,367.8,50.209,367.941,50.285Z" transform="translate(-327.173 -44.512)"/><path class="a" d="M160.709,23.738a7.422,7.422,0,0,1,1.589,1.395,5.335,5.335,0,0,1,.487.654,4.224,4.224,0,0,0-.406-.712,6.979,6.979,0,0,0-1.5-1.579,7.505,7.505,0,0,0-2.793-1.34,9.124,9.124,0,0,0-1.739-.254,10.233,10.233,0,0,0-1.812.073,8.379,8.379,0,0,0-1.769.447,7.174,7.174,0,0,0-3.66,3.111,6.761,6.761,0,0,0-.78,2.029,4.083,4.083,0,0,0-.076.6c0,.14-.005.218-.005.218a4.4,4.4,0,0,1,.183-.791,7.18,7.18,0,0,1,.941-1.892,8.034,8.034,0,0,1,.892-1.081,7.307,7.307,0,0,1,2.686-1.712,7.978,7.978,0,0,1,1.661-.4,9.675,9.675,0,0,1,1.721-.087,9.365,9.365,0,0,1,1.654.2,8.235,8.235,0,0,1,1.487.466A8.119,8.119,0,0,1,160.709,23.738Z" transform="translate(-132.083 -19.503)"/><path class="a" d="M80.81,15.665a6.336,6.336,0,0,0-.27-4.308A5.877,5.877,0,0,0,76.8,8.4c-4.817-1.551-7.1.835-7.8,1.8C68.1,8.875,64.54,4.4,58.4,5.557c-7.659,1.445-8.19,7.278-8.206,8.675a12.814,12.814,0,0,0-6.015,1.213h-.026v.008a6.815,6.815,0,0,0-1.42,1.008,6.019,6.019,0,0,0-1.869,4.616,6.377,6.377,0,0,0,1.924,4.893c2.111,1.963,5.28,2.061,6.295,2.039a13.19,13.19,0,0,0,.763,5.671,4.023,4.023,0,0,0-1.148,2.231.109.109,0,0,0,.147.121l.427-.16a4.109,4.109,0,0,0,.611-.289,6.224,6.224,0,0,1,.8-.389,10.039,10.039,0,0,0-.886,1.628,3.021,3.021,0,0,0-2.3-.706,2.557,2.557,0,0,0-2.154,1.161,4.661,4.661,0,0,0-.492,3.986,15.725,15.725,0,0,0,2.266,3.786,4.212,4.212,0,0,0,.3,3.062,2.092,2.092,0,0,0,1.674.974,12.823,12.823,0,0,0-.614,3.926c0,5.766,7.063,12.73,15.835,12.73,8.954,0,15.435-7.868,15.435-13.174a8.225,8.225,0,0,0-.763-3.5,2.134,2.134,0,0,0,1.46-.956,4.2,4.2,0,0,0,.3-3.062A15.67,15.67,0,0,0,83,41.26a4.661,4.661,0,0,0-.492-3.986,2.542,2.542,0,0,0-2.154-1.161,3.026,3.026,0,0,0-2.3.7,10.519,10.519,0,0,0-.5-1.057l.4.276a.356.356,0,0,0,.538-.408l-.171-.5a3.817,3.817,0,0,0-.8-1.23,16.352,16.352,0,0,0,1.044-6.2c1.586.013,8.632-.262,9.323-5.874a4.786,4.786,0,0,0-1.108-3.994C85.042,15.921,81.892,15.687,80.81,15.665ZM49.569,29.122l.352-.3c.281-.242.682-.59,1.169-1l.132-.109a25.721,25.721,0,0,0,.908,4.756,3.094,3.094,0,0,0-.763.207,5.477,5.477,0,0,0-1.1.638A12.532,12.532,0,0,1,49.569,29.122Zm.015-.687c.015-.291.035-.5.047-.6a11.728,11.728,0,0,1,1.474-1.57c.013.237.035.552.068.924-.127.095-.249.189-.364.279-.507.39-.921.723-1.213.954Zm25.263,3.118-.084-.036c.07-.316.145-.666.218-1.035l.023.011c.309.157.6.311.872.456-.086.394-.164.72-.228.981-.245-.12-.515-.244-.8-.377Zm.373.952a4.331,4.331,0,0,0-.666-.082l.056-.237C74.825,32.3,75.029,32.4,75.221,32.5Zm-.058-2.341-.109-.044a34.768,34.768,0,0,0,.613-4.111l.287.312c.218.236.414.456.618.648-.069.526-.265,1.944-.553,3.321-.017.083-.035.162-.051.241-.25-.12-.522-.241-.8-.366Zm-.606-.254c-.344-.14-.7-.275-1.057-.4-.289-.1-.581-.184-.872-.262s-.575-.146-.855-.2-.545-.1-.807-.143-.5-.065-.726-.095c-.45-.046-.827-.081-1.091-.094l-.414-.027.412.049c.263.028.636.084,1.082.154.218.043.463.08.715.135s.519.109.791.184.551.155.832.242.562.192.84.3c.371.148.731.312,1.081.48-.076.377-.154.735-.226,1.061l-.093-.039c-.234-.1-.484-.182-.736-.278s-.518-.179-.788-.263-.545-.174-.832-.241-.574-.153-.872-.213l-.9-.176c-.3-.059-.612-.088-.919-.134s-.617-.086-.929-.109l-.931-.075c-.31-.014-.618-.017-.925-.027-.613-.029-1.215,0-1.8.012s-1.143.069-1.675.1-1.032.1-1.494.153-.886.1-1.257.164l-.964.159-.84.138.845-.109.968-.12c.373-.052.8-.07,1.261-.109s.962-.084,1.493-.093,1.091-.055,1.666-.033,1.176.005,1.78.06c.3.021.607.037.912.063l.914.109c.305.031.607.083.908.139s.6.1.894.169l.872.206c.286.07.563.164.838.241s.54.172.8.266.514.179.752.286.479.194.7.3l.2.095L74,32.412c-.284.01-.58.036-.884.076-.374-.15-.763-.29-1.161-.408a29.872,29.872,0,0,0-7.913-.943c-.886,0-1.745.031-2.561.091a23.621,23.621,0,0,0-6.675,1.387l-.1-.021a25.166,25.166,0,0,1-1.45-6.437c.176-.12.354-.238.545-.349s.353-.218.539-.313.365-.207.557-.29.38-.182.574-.26l.583-.224a10.754,10.754,0,0,1,1.17-.327,11.174,11.174,0,0,1,1.123-.2c.36-.051.7-.06,1.021-.089s.609-.011.867-.016.483.015.668.02l.583.026-.581-.049c-.185-.011-.41-.045-.67-.046s-.552-.019-.872-.017a10.174,10.174,0,0,0-1.031.05,10.723,10.723,0,0,0-1.144.155,11.032,11.032,0,0,0-1.2.286l-.612.206c-.2.071-.4.161-.6.242s-.39.18-.582.274-.383.191-.564.3c-.144.079-.282.162-.42.246-.047-.474-.073-.834-.086-1.021A11.224,11.224,0,0,1,57.245,23.2a17.925,17.925,0,0,1,5.12-.128,2.976,2.976,0,0,0,1.453-.164,9.848,9.848,0,0,1,5.658-.245,11.172,11.172,0,0,1,5.691,2.824A30.389,30.389,0,0,1,74.556,29.909ZM54.4,32.55a9.649,9.649,0,0,0-1.511-.138,2.073,2.073,0,0,0-.218.008,26.087,26.087,0,0,1-.954-5.116c.055-.044.109-.086.161-.13.28-.23.589-.454.905-.691.072-.051.148-.1.218-.154A26.5,26.5,0,0,0,54.4,32.55Zm-1.822-6.368c-.314.218-.621.424-.9.635-.039-.5-.057-.847-.062-.981a13.878,13.878,0,0,1,1.26-.913c.016.227.045.576.089,1.015Zm-3.252,9.111h0a4.014,4.014,0,0,1,2.251-2.131,3.289,3.289,0,0,1,1.309-.218,22.048,22.048,0,0,1,6.176,1.463,3.5,3.5,0,0,0,1.181.218,2.066,2.066,0,0,0,.992-.213h0c-.051.08-1.255,1.911-2.8,1.911a1.946,1.946,0,0,1-.449-.053c-.866-.21-1.829-.555-2.762-.889a28.74,28.74,0,0,0-2.91-.928,2.072,2.072,0,0,0-.482-.053,5.329,5.329,0,0,0-2.5.893ZM47.836,47.8c-.671-.947-.188-2.726-.182-2.746l.037-.134-.088-.109a15.885,15.885,0,0,1-2.262-3.737,4.1,4.1,0,0,1,.427-3.5,2.051,2.051,0,0,1,1.718-.935c1.612,0,1.983.559,2.064.758a11.916,11.916,0,0,0-.373,1.187l-.084-.02a3.059,3.059,0,0,0-.312-.034,2.573,2.573,0,0,0-.385.027,2.211,2.211,0,0,0-.43.122,1.112,1.112,0,0,0-.218.1,1.906,1.906,0,0,0-.218.13l-.205.16-.183.192a1.918,1.918,0,0,0-.156.218,1.14,1.14,0,0,0-.127.236,2.276,2.276,0,0,0-.16.5,2.6,2.6,0,0,0-.025.5c0,.081.011.159.016.237a1.607,1.607,0,0,0,.044.218c.014.069.029.141.044.207a1.5,1.5,0,0,0,.064.186c.044.119.076.23.119.327l.117.238.1.205-.08-.218-.092-.244c-.033-.1-.053-.208-.085-.327-.013-.06-.033-.122-.044-.188s-.014-.133-.022-.2-.02-.141-.021-.218a1.906,1.906,0,0,1,.008-.224,2.427,2.427,0,0,1,.068-.454,1.979,1.979,0,0,1,.185-.426.89.89,0,0,1,.128-.19,1.611,1.611,0,0,1,.15-.17l.167-.145.183-.109a1.329,1.329,0,0,1,.188-.088.8.8,0,0,1,.185-.064,1.745,1.745,0,0,1,.352-.063,2.236,2.236,0,0,1,.293.009c.081.019.14.019.207.04l.1.036a11.71,11.71,0,0,0-.278,2.522c0,3.148.969,4.654,1.352,5.126-.081.131-.2.334-.327.6a.981.981,0,0,1-.125,0,.654.654,0,0,1-.16-.011.99.99,0,0,1-.188-.045.873.873,0,0,1-.188-.1.818.818,0,0,1-.171-.166,1.032,1.032,0,0,1-.14-.218,2.666,2.666,0,0,1-.218-1.013c0-.146-.007-.269,0-.354a.726.726,0,0,0,0-.135s-.01.048-.026.133-.038.205-.058.353a2.829,2.829,0,0,0,.049,1.111,1.369,1.369,0,0,0,.123.3,1.186,1.186,0,0,0,.194.264,1.239,1.239,0,0,0,.249.2,1.336,1.336,0,0,0,.257.109,1.168,1.168,0,0,0,.17.041c-.1.218-.2.466-.3.736a1.5,1.5,0,0,1-1.426-.738ZM80.353,36.646a2.054,2.054,0,0,1,1.718.935,4.07,4.07,0,0,1,.427,3.5,15.886,15.886,0,0,1-2.262,3.737l-.088.109.038.134c0,.017.49,1.8-.183,2.746a1.58,1.58,0,0,1-1.285.75,8.441,8.441,0,0,0-.487-.778.055.055,0,0,0,.036-.009,1.179,1.179,0,0,0,.507-.31,1.149,1.149,0,0,0,.193-.264,1.372,1.372,0,0,0,.124-.3,2.829,2.829,0,0,0,.049-1.111c-.02-.148-.04-.269-.058-.353s-.026-.133-.026-.133v.49a2.666,2.666,0,0,1-.218,1.013,1.027,1.027,0,0,1-.139.218.845.845,0,0,1-.171.166.884.884,0,0,1-.189.1.953.953,0,0,1-.188.045.654.654,0,0,1-.16.011h-.1a6.947,6.947,0,0,0-.763-.8,10.267,10.267,0,0,0,1.723-5.677,10.578,10.578,0,0,0-.155-1.8l.02-.007c.068-.022.125-.022.207-.04a2.235,2.235,0,0,1,.293-.009,1.72,1.72,0,0,1,.351.063.787.787,0,0,1,.186.064,1.33,1.33,0,0,1,.188.088l.183.109c.055.048.109.1.167.145a1.487,1.487,0,0,1,.149.17.9.9,0,0,1,.129.19,2.035,2.035,0,0,1,.185.426,2.425,2.425,0,0,1,.068.454c0,.076.005.15.008.224a1.868,1.868,0,0,1-.021.218c-.007.074-.015.137-.023.2a1.888,1.888,0,0,1-.043.188c-.032.119-.052.231-.085.327s-.067.177-.092.244l-.08.218s.036-.075.1-.205L80.7,41.9c.043-.092.075-.2.119-.327.02-.059.046-.121.063-.186l.045-.207c.014-.071.034-.144.044-.218s.01-.156.015-.237a2.594,2.594,0,0,0-.024-.5,2.276,2.276,0,0,0-.16-.5,1.14,1.14,0,0,0-.125-.238,1.927,1.927,0,0,0-.157-.218l-.182-.192-.206-.157a1.827,1.827,0,0,0-.218-.13,1.133,1.133,0,0,0-.218-.1,2.221,2.221,0,0,0-.431-.122,2.554,2.554,0,0,0-.385-.027c-.109.01-.218.016-.287.029a11.05,11.05,0,0,0-.316-1.137C78.342,37.25,78.676,36.646,80.353,36.646Zm-2.035,4.213A9.706,9.706,0,0,1,76.7,46.223c-.056-.038-.12-.081-.2-.129a10.185,10.185,0,0,0-.993-.57,8.105,8.105,0,0,0-1.046-.436,4.207,4.207,0,0,0-.494-.136,4.049,4.049,0,0,1,.461.213,7.96,7.96,0,0,1,.941.592,9.975,9.975,0,0,1,.855.7c.109.1.2.189.268.25l.1.1h0c.008.008.012.017.022.024a7.422,7.422,0,0,1,2.58,5.761c0,2.558-1.619,5.7-4.226,8.191A15.47,15.47,0,0,1,64.3,65.225c-8.477,0-15.3-6.673-15.3-12.2a11.7,11.7,0,0,1,1.682-6.146h0l.129-.186-.005-.036c.038-.069.083-.146.139-.233a8.63,8.63,0,0,1,.629-.9,9.1,9.1,0,0,1,.742-.826,4.857,4.857,0,0,1,.375-.342s-.178.1-.429.278a9.414,9.414,0,0,0-.882.707,9.175,9.175,0,0,0-.8.818c-.043.048-.077.089-.109.13a7.866,7.866,0,0,1-1.151-4.683,11.353,11.353,0,0,1,1.844-6.17,4.721,4.721,0,0,1,.545-.5c.047,0,.093-.01.138-.01a1.555,1.555,0,0,1,.36.039,28.638,28.638,0,0,1,2.851.916,29.261,29.261,0,0,0,2.815.9,2.423,2.423,0,0,0,.575.069c1.83,0,3.19-2.065,3.247-2.154l.4-.619a.353.353,0,0,0-.473-.5l-.639.368a1.657,1.657,0,0,1-.73.143,2.974,2.974,0,0,1-1-.189A35.132,35.132,0,0,0,55.81,32.84a24.011,24.011,0,0,1,5.715-1.074c.8-.06,1.649-.089,2.521-.089a29.348,29.348,0,0,1,7.762.922c.083.025.164.052.245.079a32,32,0,0,0-4.149,1.23,2.974,2.974,0,0,1-1,.189,1.7,1.7,0,0,1-.722-.137l-.661-.4a.353.353,0,0,0-.479.5l.419.646c.057.087,1.418,2.153,3.247,2.153a2.413,2.413,0,0,0,.574-.069c.893-.218,1.87-.566,2.815-.9a28.346,28.346,0,0,1,2.854-.912,1.562,1.562,0,0,1,.36-.039,3.481,3.481,0,0,1,1.316.321A10.288,10.288,0,0,1,78.318,40.859ZM77.825,35.3a5.3,5.3,0,0,0-2.508-.893,2.072,2.072,0,0,0-.482.053,28.78,28.78,0,0,0-2.911.928,28.838,28.838,0,0,1-2.761.889,1.938,1.938,0,0,1-.448.053c-1.543,0-2.749-1.832-2.8-1.911h0a2.1,2.1,0,0,0,1,.218,3.507,3.507,0,0,0,1.181-.218,22.039,22.039,0,0,1,6.175-1.463,3.293,3.293,0,0,1,1.309.218,3.991,3.991,0,0,1,2.251,2.122Zm-.509-2.489-.436-.237c-.241-.129-.531-.287-.872-.458l-.169-.086q.1-.389.228-.976l.306.165,1.205.654C77.492,32.19,77.408,32.508,77.315,32.809Zm.387-1.462-1.13-.531-.414-.194c.02-.093.04-.188.061-.287.267-1.277.457-2.591.538-3.2a2.141,2.141,0,0,0,1.276.553,11.75,11.75,0,0,1-.33,3.654Zm9.665-9.587c-.3,2.419-1.9,4.062-4.759,4.886a14.76,14.76,0,0,1-4.321.515l-.327-.019h0c-.625-.086-1.029-.539-1.612-1.178a11.44,11.44,0,0,0-6.761-3.817,10.4,10.4,0,0,0-5.964.265,2.431,2.431,0,0,1-1.192.134,18.519,18.519,0,0,0-5.275.129,13.356,13.356,0,0,0-7.923,4.8c-.654.025-4,.052-6.1-1.891a5.861,5.861,0,0,1-1.754-4.5,5.51,5.51,0,0,1,1.7-4.225,6.173,6.173,0,0,1,1.3-.914l.227-.059c.109-.028.248-.067.4-.1s.327-.073.516-.109.4-.074.618-.1.455-.059.7-.072.493-.026.748-.032a5.934,5.934,0,0,1,.773.028c.258.028.516.052.77.091a5.368,5.368,0,0,1,.734.16c.234.07.459.137.671.218s.406.164.581.25a4.106,4.106,0,0,1,.47.256c.133.089.258.152.349.218l.293.218-.279-.23c-.086-.077-.206-.153-.336-.246s-.289-.184-.459-.288a6.072,6.072,0,0,0-.573-.291,5.773,5.773,0,0,0-.67-.26c-.233-.075-.486-.145-.74-.21a6.392,6.392,0,0,0-.783-.143c-.265-.034-.53-.059-.793-.081a6.816,6.816,0,0,0-.772-.016c-.109,0-.225,0-.334.008a14.177,14.177,0,0,1,3.943-.372l.31.023h0l.18.011.321.049a3.411,3.411,0,0,1,.383.081l.21.05.218.071a3.978,3.978,0,0,1,.448.164c.153.057.3.13.451.2s.293.156.436.233.279.168.411.253c.262.174.5.348.695.508a6.459,6.459,0,0,1,.626.566,6.3,6.3,0,0,0-.57-.627,8.271,8.271,0,0,0-.654-.583c-.125-.1-.256-.2-.394-.3a4.609,4.609,0,0,0-.427-.284c-.15-.085-.293-.181-.446-.256a4.507,4.507,0,0,0-.453-.218l-.218-.1-.218-.076a3.416,3.416,0,0,0-.4-.136l-.358-.089-.264-.044h0c-.02-1.168.284-6.791,7.776-8.205,6.778-1.278,10.242,4.689,10.276,4.749l.245.436.007-.014a10.009,10.009,0,0,1,.48.93,6.335,6.335,0,0,1,.36,1,2.811,2.811,0,0,1,.091.48,2.867,2.867,0,0,0-.008-.494,6.6,6.6,0,0,0-.2-1.076,10.607,10.607,0,0,0-.333-1.049c-.05-.134-.094-.243-.124-.327.346-.587,2.318-3.422,7.341-1.8a5.408,5.408,0,0,1,3.42,2.674,6.038,6.038,0,0,1,.14,4.253l-.138.371c-.023.045-.045.088-.07.14a1.635,1.635,0,0,1-.135.228,1.853,1.853,0,0,1-.179.244,2.408,2.408,0,0,1-.218.244c-.074.084-.167.154-.252.232a4.418,4.418,0,0,1-.559.395,5.149,5.149,0,0,1-.535.28,4.355,4.355,0,0,1-.556.21,4.362,4.362,0,0,0,.585-.133,5.132,5.132,0,0,0,.583-.208,4.483,4.483,0,0,0,.638-.327c.1-.07.21-.131.3-.209a2.768,2.768,0,0,0,.277-.233,2.281,2.281,0,0,0,.239-.244,2.092,2.092,0,0,0,.2-.245l.154-.229c.031-.06.058-.109.081-.155.746,0,4.083.126,5.786,1.989a4.265,4.265,0,0,1,.972,3.567Z" transform="translate(-36.404 -4.782)"/><path class="a" d="M259.419,143.272a10.063,10.063,0,0,0-.755-.673c-.143-.118-.293-.239-.456-.357s-.327-.24-.508-.355-.361-.238-.554-.351-.391-.227-.6-.334-.418-.218-.638-.312l-.327-.152-.345-.132c-.232-.092-.465-.177-.7-.245l-.348-.109-.087-.028-.1-.026-.18-.049a12.918,12.918,0,0,0-1.462-.277,11.785,11.785,0,0,0-1.434-.1,12.522,12.522,0,0,0-2.526.234,11.4,11.4,0,0,0-1.723.472,6.222,6.222,0,0,0-.624.258,14.836,14.836,0,0,1,2.393-.432,16.384,16.384,0,0,1,2.467-.068c.45.02.913.072,1.38.136a12.317,12.317,0,0,1,1.4.285l.173.044.08.021.087.027.35.109c.116.036.234.069.347.109l.327.121q.327.116.654.254c.218.086.424.178.626.278s.4.194.594.3.381.2.558.305.352.207.517.312.327.205.474.308c.3.2.569.4.8.582s.436.346.594.484c.327.279.5.455.5.455a5.669,5.669,0,0,0-.42-.529C259.812,143.675,259.636,143.48,259.419,143.272Z" transform="translate(-219.226 -124.532)"/><path class="a" d="M100.543,325.9c-.028-.08-.048-.169-.075-.261s-.049-.191-.073-.292-.043-.207-.065-.314-.033-.218-.05-.327a2.369,2.369,0,0,1-.029-.327c0-.109-.012-.218-.009-.318a2.872,2.872,0,0,1,.051-.561,1.969,1.969,0,0,1,.056-.218.812.812,0,0,1,.074-.154.483.483,0,0,1,.1-.117l-.035.02a.271.271,0,0,0-.093.071.75.75,0,0,0-.109.148,1.19,1.19,0,0,0-.1.218,1.831,1.831,0,0,0-.075.273,2.477,2.477,0,0,0-.041.312,2.616,2.616,0,0,0-.008.335c0,.115.015.229.024.345a2.183,2.183,0,0,0,.059.339,3.178,3.178,0,0,0,.084.327,3.592,3.592,0,0,0,.212.545,3.307,3.307,0,0,0,.2.363c.053.085.085.132.085.132s-.016-.056-.05-.149S100.6,326.062,100.543,325.9Z" transform="translate(-89.148 -287.785)"/><path class="a" d="M397.551,323.73a1.836,1.836,0,0,0-.074-.273,1.357,1.357,0,0,0-.1-.218.8.8,0,0,0-.109-.148.27.27,0,0,0-.093-.071l-.035-.02a.5.5,0,0,1,.1.117.748.748,0,0,1,.074.154,1.742,1.742,0,0,1,.057.218,3.051,3.051,0,0,1,.051.561c0,.1,0,.21-.009.318s-.02.218-.031.327a2.823,2.823,0,0,1-.05.327c-.024.109-.036.218-.064.314s-.045.2-.073.292-.048.181-.075.261c-.051.16-.092.3-.13.387a.917.917,0,0,0-.05.149s.033-.047.085-.132a3.135,3.135,0,0,0,.2-.363,3.592,3.592,0,0,0,.218-.545,3.177,3.177,0,0,0,.084-.327c.026-.109.039-.226.059-.339a2.151,2.151,0,0,0,.024-.345,2.609,2.609,0,0,0-.009-.335A2.288,2.288,0,0,0,397.551,323.73Z" transform="translate(-353.652 -287.776)"/><path class="a" d="M285.51,307.434a1.892,1.892,0,0,0-.29.132c-.205.109-.427.267-.666.425-.121.077-.244.159-.374.232s-.265.142-.4.209l-.218.094a2.881,2.881,0,0,0,1.135-2.26,2.983,2.983,0,0,0-1.908-2.713h.358a5.866,5.866,0,0,1,.617.049,4.9,4.9,0,0,1,.531.1,3.227,3.227,0,0,1,.365.121l.136.053-.13-.07a3.072,3.072,0,0,0-.352-.164,4.791,4.791,0,0,0-.527-.168c-.2-.05-.409-.092-.623-.124a8.807,8.807,0,0,0-1.19-.084c-.272,0-.47.012-.529.015a2.991,2.991,0,1,0,.007,5.961h.014A3.449,3.449,0,0,0,282,309.2c.073-.01.15-.023.234-.034a3.1,3.1,0,0,0,.378-.073,3.837,3.837,0,0,0,.412-.109,3.5,3.5,0,0,0,.426-.162,4.544,4.544,0,0,0,.421-.207c.134-.082.27-.16.395-.251s.245-.178.36-.266c.228-.179.436-.349.625-.474a1.822,1.822,0,0,1,.272-.15,2.223,2.223,0,0,1,.226-.08l.209-.028-.212.012A1.913,1.913,0,0,0,285.51,307.434Zm-4.06-3.748a2.725,2.725,0,0,1,2.844,2.581,2.424,2.424,0,0,1-.654,1.642,2.726,2.726,0,0,0,.154-.9,3.1,3.1,0,0,0-3.227-2.96,3.531,3.531,0,0,0-.711.077A3.028,3.028,0,0,1,281.45,303.685Zm1.7,4.648a3.013,3.013,0,0,1-1.7.515,3.177,3.177,0,0,1-.6-.059A1.428,1.428,0,0,0,282,307.437a1.468,1.468,0,0,0-1.527-1.4,1.594,1.594,0,0,0-1.136.463.816.816,0,0,1,.088-.008.565.565,0,1,1,0,1.124.633.633,0,0,1-.48-.218v.075a2.385,2.385,0,0,1-.335-1.213,2.434,2.434,0,0,1,.69-1.681,3.209,3.209,0,0,1,1.273-.268,2.838,2.838,0,0,1,2.961,2.694A2.491,2.491,0,0,1,283.146,308.333Z" transform="translate(-247.87 -270.197)"/><path class="a" d="M328.275,309.522a2.158,2.158,0,0,0-.207-.293,2.971,2.971,0,0,0-.218-.238,2.774,2.774,0,0,0-.366-.305,1.621,1.621,0,0,0-.154-.1,3.314,3.314,0,0,1,.466.453,3.24,3.24,0,0,1,.376.538,2.221,2.221,0,0,1,.158.333,2.1,2.1,0,0,1,.109.363,3.474,3.474,0,0,1,.082.747,3.765,3.765,0,0,1-.048.654,2.81,2.81,0,0,1-.169.626,2.159,2.159,0,0,0,.242-.611,3.074,3.074,0,0,0,.09-.672,3.6,3.6,0,0,0-.068-.776,2.15,2.15,0,0,0-.122-.381A2.3,2.3,0,0,0,328.275,309.522Z" transform="translate(-291.633 -274.937)"/><path class="a" d="M142.208,308.323c.124.091.261.169.394.251a2.562,2.562,0,0,0,.422.207,3.517,3.517,0,0,0,.426.163,3.837,3.837,0,0,0,.412.109,3.114,3.114,0,0,0,.378.073c.084.011.161.024.233.034a3.463,3.463,0,0,0,.535.046h.015a2.991,2.991,0,1,0,.005-5.961c-.059,0-.257-.016-.528-.015a8.827,8.827,0,0,0-1.19.084,6.3,6.3,0,0,0-.623.124,4.722,4.722,0,0,0-.527.168,3.1,3.1,0,0,0-.353.164l-.129.07.136-.053a3.223,3.223,0,0,1,.365-.121,4.891,4.891,0,0,1,.531-.1,5.871,5.871,0,0,1,.616-.049h.359a2.983,2.983,0,0,0-1.908,2.713,2.883,2.883,0,0,0,1.134,2.26l-.218-.094c-.133-.068-.27-.132-.4-.209s-.253-.155-.374-.232c-.239-.158-.462-.313-.666-.425a1.891,1.891,0,0,0-.29-.132,1.964,1.964,0,0,0-.237-.061l-.212-.012.208.028a2.234,2.234,0,0,1,.227.08,1.826,1.826,0,0,1,.272.15c.19.125.4.3.624.474C141.964,308.146,142.082,308.237,142.208,308.323Zm5.661-2.093a2.374,2.374,0,0,1-.336,1.213v-.075a.633.633,0,0,1-.481.218.565.565,0,1,1,0-1.124.771.771,0,0,1,.088.008,1.59,1.59,0,0,0-1.136-.463,1.465,1.465,0,0,0-1.527,1.4,1.422,1.422,0,0,0,1.148,1.352,3.17,3.17,0,0,1-.6.059,3.017,3.017,0,0,1-1.7-.515,2.49,2.49,0,0,1-.383-1.322,2.84,2.84,0,0,1,2.961-2.694,3.19,3.19,0,0,1,1.273.268,2.434,2.434,0,0,1,.689,1.677Zm-5.037,1.642a2.431,2.431,0,0,1-.654-1.642,2.726,2.726,0,0,1,2.845-2.581,3.032,3.032,0,0,1,1.592.444,3.529,3.529,0,0,0-.711-.077,3.1,3.1,0,0,0-3.227,2.96,2.726,2.726,0,0,0,.156.9Z" transform="translate(-125.196 -270.161)"/><path class="a" d="M150.832,312.333a2.81,2.81,0,0,1-.169-.626,3.865,3.865,0,0,1-.049-.654,3.545,3.545,0,0,1,.083-.747,2.1,2.1,0,0,1,.109-.363,2.218,2.218,0,0,1,.157-.333,3.176,3.176,0,0,1,.377-.538,3.269,3.269,0,0,1,.465-.453,1.708,1.708,0,0,0-.153.1,2.825,2.825,0,0,0-.581.545,2.154,2.154,0,0,0-.207.293,2.312,2.312,0,0,0-.173.345,2.241,2.241,0,0,0-.121.381,3.53,3.53,0,0,0-.068.776,3.073,3.073,0,0,0,.091.672A2.158,2.158,0,0,0,150.832,312.333Z" transform="translate(-134.088 -274.964)"/><path class="a" d="M273.422,328.1l-.043-.281-.027-.249-.012.25a4.184,4.184,0,0,0,.052.663,3.753,3.753,0,0,0,.094.436,3.366,3.366,0,0,0,.159.474,3.306,3.306,0,0,0,.246.478,1.773,1.773,0,0,0,.156.229,2.11,2.11,0,0,0,.176.218l.2.2c.07.061.145.118.218.176a1.258,1.258,0,0,0,.227.154c.079.045.154.093.231.133a3.468,3.468,0,0,0,.905.279c.137.02.263.033.374.044h.289l.25-.005-.248-.033-.284-.034c-.109-.026-.227-.055-.359-.081a3.446,3.446,0,0,1-.412-.128c-.146-.045-.282-.134-.436-.2a3.651,3.651,0,0,1-.421-.284c-.065-.056-.135-.109-.2-.166l-.181-.191a1.854,1.854,0,0,1-.167-.2,1.686,1.686,0,0,1-.151-.218c-.044-.075-.094-.146-.134-.218s-.077-.15-.115-.225a4.8,4.8,0,0,1-.181-.446,3.879,3.879,0,0,1-.123-.415C273.468,328.33,273.448,328.208,273.422,328.1Z" transform="translate(-243.531 -291.847)"/><path class="a" d="M187.551,328.091c-.026.109-.045.23-.08.36a3.855,3.855,0,0,1-.122.416c-.046.147-.117.293-.181.446l-.115.225c-.04.075-.09.146-.134.218a1.681,1.681,0,0,1-.15.218,1.86,1.86,0,0,1-.168.2l-.181.191c-.065.058-.134.109-.2.166a3.554,3.554,0,0,1-.421.284c-.152.063-.289.153-.436.2a3.454,3.454,0,0,1-.412.128c-.131.026-.252.055-.359.081l-.282.034-.249.033.251.005h.288c.109-.011.237-.024.373-.044a3.432,3.432,0,0,0,.436-.1,3.348,3.348,0,0,0,.47-.179c.077-.04.153-.088.231-.133a1.288,1.288,0,0,0,.226-.154c.072-.058.146-.109.218-.176l.2-.2a1.97,1.97,0,0,0,.176-.218,1.776,1.776,0,0,0,.157-.229,3.427,3.427,0,0,0,.246-.478,3.517,3.517,0,0,0,.159-.474,3.982,3.982,0,0,0,.094-.436,4.161,4.161,0,0,0,.051-.663l-.012-.25s-.01.091-.026.249C187.582,327.888,187.567,327.983,187.551,328.091Z" transform="translate(-163.988 -291.838)"/><path class="a" d="M249.3,347.747c.089.032.189.058.289.1s.207.077.315.123.218.1.327.153a2.012,2.012,0,0,1,.313.19,2.22,2.22,0,0,1,.289.218l.134.118c.043.041.079.087.117.129l.109.127.092.133a1.462,1.462,0,0,1,.157.255c.04.083.088.157.12.228s.05.135.07.188c.04.109.068.165.068.165a1.3,1.3,0,0,0-.017-.177c-.007-.057-.015-.127-.026-.206a2.366,2.366,0,0,0-.073-.26c-.016-.047-.031-.1-.05-.147s-.051-.1-.077-.148l-.083-.157c-.034-.05-.073-.1-.109-.148a1.661,1.661,0,0,0-.26-.289,2.592,2.592,0,0,0-.313-.251,2.969,2.969,0,0,0-.7-.339,2.466,2.466,0,0,0-.344-.095,2.869,2.869,0,0,0-.313-.055,3.632,3.632,0,0,0-.472-.022,1.623,1.623,0,0,0-.179.013l.173.038C248.962,347.65,249.116,347.7,249.3,347.747Z" transform="translate(-221.561 -309.67)"/><path class="a" d="M200.237,281c.089.005.192,0,.3,0a1.682,1.682,0,0,0,.358-.038l.2-.034c.066-.015.131-.039.2-.059l.205-.064.2-.087a3.416,3.416,0,0,0,.4-.206c.131-.073.246-.169.369-.251a2.631,2.631,0,0,0,.327-.28,4.3,4.3,0,0,0,.5-.567,3.371,3.371,0,0,0,.376-.631l-.13.149c-.081.1-.208.227-.36.381a6.55,6.55,0,0,1-.545.491c-.1.087-.218.164-.327.25a2.29,2.29,0,0,1-.352.229,3.183,3.183,0,0,1-.369.2c-.062.028-.123.059-.184.091l-.188.072-.181.069-.18.051a2.192,2.192,0,0,1-.327.081l-.288.055-.227.02c-.127.012-.2.022-.2.022s.072.013.2.029Z" transform="translate(-178.02 -248.378)"/><path class="a" d="M264.883,279.941c.1.1.212.189.327.28a2.7,2.7,0,0,0,.369.251,3.322,3.322,0,0,0,.4.206l.2.087.2.064c.068.02.133.044.2.059l.2.034a1.688,1.688,0,0,0,.359.038c.109,0,.218.008.3,0l.232-.028c.128-.016.2-.029.2-.029s-.073-.01-.2-.022l-.227-.02-.288-.055a2.23,2.23,0,0,1-.334-.081l-.179-.051-.182-.069-.188-.072c-.06-.032-.122-.062-.184-.09a3.181,3.181,0,0,1-.368-.2c-.125-.065-.236-.154-.353-.229a3.817,3.817,0,0,1-.327-.25c-.2-.169-.388-.339-.545-.491a5.019,5.019,0,0,1-.36-.381c-.082-.1-.131-.152-.131-.152a3.378,3.378,0,0,0,.376.631A4.37,4.37,0,0,0,264.883,279.941Z" transform="translate(-235.21 -248.342)"/></svg>