<svg xmlns="http://www.w3.org/2000/svg" width="51.858" height="57" viewBox="0 0 51.858 57"><defs><style>.a{fill:#383838;}.b{fill:#fff1de;}.c{fill:#b5b5b5;}.d{fill:#fff;}.e{fill:#e2e2e2;}.f{fill:#ffdfac;}.g{fill:#68032c;}.h{fill:#f4f4f4;}.i{fill:#dd666c;}.j{fill:#edab7a;}.k{fill:#ffe9ca;}.l{fill:#c1c1c1;}.m{fill:#c6c6c6;}</style></defs><circle class="a" cx="23.536" cy="23.536" r="23.536" transform="translate(2.392 4.96)"/><path class="a" d="M25.928,25.43A25.929,25.929,0,1,0,51.858,51.358,25.958,25.958,0,0,0,25.928,25.43Zm0,50.641A24.712,24.712,0,1,1,50.641,51.358,24.739,24.739,0,0,1,25.928,76.071Z" transform="translate(0 -22.862)"/><path class="b" d="M79,11.714a8.089,8.089,0,0,0-5.265-2.144,6.231,6.231,0,0,0-.43-3.714,6.042,6.042,0,0,0-3.787-3.017,9.594,9.594,0,0,0-2.929-.5,5.992,5.992,0,0,0-4.431,1.808A10.413,10.413,0,0,0,54.142,0a10.532,10.532,0,0,0-1.935.185,9.708,9.708,0,0,0-6.573,3.927A8.792,8.792,0,0,0,44.2,8.2a12.167,12.167,0,0,0-5.241,1.155l-.488.1.039.156a6.59,6.59,0,0,0-1.071.808,6.093,6.093,0,0,0-1.9,4.672,6.426,6.426,0,0,0,1.955,4.929,8.832,8.832,0,0,0,5.621,2.028,12.723,12.723,0,0,0,.657,4.586,4.288,4.288,0,0,0-.927,1.869q-.294-.029-.623-.029a2.884,2.884,0,0,0-2.439,1.308,4.9,4.9,0,0,0-.52,4.188,14.452,14.452,0,0,0,2.026,3.455,4.1,4.1,0,0,0,.413,3.014,2.645,2.645,0,0,0,1.3,1.01,12.456,12.456,0,0,0-.422,3.217c0,2.792,1.672,5.9,4.475,8.307A16.486,16.486,0,0,0,57.78,57c8.6-.006,14.831-7.617,14.831-12.748a8.254,8.254,0,0,0-.516-2.9,2.7,2.7,0,0,0,1.064-.914,4.091,4.091,0,0,0,.413-3.014A14.65,14.65,0,0,0,75.6,33.968a4.9,4.9,0,0,0-.52-4.188,2.884,2.884,0,0,0-2.439-1.308,5.473,5.473,0,0,0-1.159.112.9.9,0,0,0-.043-.2l-.159-.464a3.837,3.837,0,0,0-.64-1.087,16.281,16.281,0,0,0,.925-5.088c2.072-.08,7.967-.765,8.6-5.906A4.95,4.95,0,0,0,79,11.714Z" transform="translate(-31.942)"/><path class="c" d="M162.77,315.347a2.305,2.305,0,0,0,.354,1.224,2.793,2.793,0,0,0,1.571.477,2.94,2.94,0,0,0,.554-.055,1.322,1.322,0,0,1-1.063-1.252,1.359,1.359,0,0,1,1.414-1.295,1.472,1.472,0,0,1,1.052.429.712.712,0,0,0-.082-.007.523.523,0,1,0,0,1.041.587.587,0,0,0,.445-.2v.07a2.2,2.2,0,0,0,.311-1.123,2.254,2.254,0,0,0-.639-1.556,2.954,2.954,0,0,0-1.179-.248A2.64,2.64,0,0,0,162.77,315.347Z" transform="translate(-146.332 -281.256)"/><path class="d" d="M159.2,307.419a3.269,3.269,0,0,1,.658.072,2.807,2.807,0,0,0-1.474-.411,2.524,2.524,0,0,0-2.635,2.39,2.251,2.251,0,0,0,.606,1.521,2.524,2.524,0,0,1-.141-.831A2.872,2.872,0,0,1,159.2,307.419Z" transform="translate(-140.021 -276.069)"/><path class="d" d="M296.985,310.16a2.525,2.525,0,0,1-.142.831,2.245,2.245,0,0,0,.606-1.521,2.523,2.523,0,0,0-2.634-2.39,2.8,2.8,0,0,0-1.474.411,3.269,3.269,0,0,1,.658-.072A2.875,2.875,0,0,1,296.985,310.16Z" transform="translate(-263.717 -276.069)"/><path class="c" d="M283.658,312.88a2.971,2.971,0,0,0-1.178.248,2.254,2.254,0,0,0-.639,1.556,2.207,2.207,0,0,0,.31,1.123v-.07a.586.586,0,0,0,.444.2.523.523,0,1,0,0-1.041.741.741,0,0,0-.082.007,1.476,1.476,0,0,1,1.052-.429,1.357,1.357,0,0,1,1.414,1.295,1.317,1.317,0,0,1-1.063,1.252,2.937,2.937,0,0,0,.554.055,2.79,2.79,0,0,0,1.57-.477,2.307,2.307,0,0,0,.361-1.227A2.633,2.633,0,0,0,283.658,312.88Z" transform="translate(-253.378 -281.283)"/><path class="e" d="M121.367,259.648a26.632,26.632,0,0,1,2.694.859c.864.309,1.756.628,2.558.823a1.8,1.8,0,0,0,.416.049c1.43,0,2.545-1.7,2.592-1.769h0a1.918,1.918,0,0,1-.919.2,3.243,3.243,0,0,1-1.094-.2,20.417,20.417,0,0,0-5.719-1.355,3.053,3.053,0,0,0-1.212.2,3.707,3.707,0,0,0-2.084,1.973h0a4.943,4.943,0,0,1,2.323-.827A1.918,1.918,0,0,1,121.367,259.648Z" transform="translate(-106.623 -232.17)"/><path class="e" d="M279.545,258.452a3.045,3.045,0,0,0-1.212-.2,20.409,20.409,0,0,0-5.718,1.355,3.248,3.248,0,0,1-1.094.2,1.948,1.948,0,0,1-.922-.2h0c.047.073,1.164,1.769,2.593,1.769a1.794,1.794,0,0,0,.415-.049,26.7,26.7,0,0,0,2.557-.823,26.716,26.716,0,0,1,2.7-.859,1.919,1.919,0,0,1,.446-.049,4.872,4.872,0,0,1,2.323.827A3.739,3.739,0,0,0,279.545,258.452Z" transform="translate(-243.273 -232.17)"/><path class="f" d="M375.056,293.928a2.362,2.362,0,0,1,.356.025,2.056,2.056,0,0,1,.4.113,1.051,1.051,0,0,1,.2.094,1.7,1.7,0,0,1,.2.12l.19.148.169.178a1.78,1.78,0,0,1,.145.2,1.056,1.056,0,0,1,.117.218,2.11,2.11,0,0,1,.148.465,2.4,2.4,0,0,1,.022.463c0,.075-.009.147-.014.219a1.483,1.483,0,0,1-.04.2l-.041.192c-.016.061-.04.118-.059.173-.04.11-.071.213-.11.3l-.108.22c-.06.12-.093.19-.093.19l.074-.2c.023-.063.052-.139.085-.226s.049-.193.079-.3c.012-.056.029-.113.039-.174s.014-.123.021-.188.017-.13.019-.2-.005-.136-.007-.207a2.245,2.245,0,0,0-.063-.42,1.884,1.884,0,0,0-.172-.395.828.828,0,0,0-.119-.176,1.379,1.379,0,0,0-.138-.158c-.053-.044-.1-.09-.155-.134l-.17-.1a1.233,1.233,0,0,0-.174-.082.73.73,0,0,0-.173-.06,1.592,1.592,0,0,0-.325-.059,2.075,2.075,0,0,0-.272.008c-.076.017-.129.017-.192.037l-.018.006a9.791,9.791,0,0,1,.143,1.664,9.508,9.508,0,0,1-1.6,5.257,6.435,6.435,0,0,1,.707.743h.094a.607.607,0,0,0,.148-.01.883.883,0,0,0,.174-.041.817.817,0,0,0,.175-.094.782.782,0,0,0,.159-.154.95.95,0,0,0,.128-.2,2.469,2.469,0,0,0,.2-.938,2.924,2.924,0,0,0,0-.328.671.671,0,0,1,0-.125s.008.044.024.123.035.19.054.327a2.62,2.62,0,0,1-.045,1.029,1.272,1.272,0,0,1-.115.278,1.064,1.064,0,0,1-.179.244,1.091,1.091,0,0,1-.47.287.051.051,0,0,0-.033.008,7.817,7.817,0,0,1,.451.72,1.455,1.455,0,0,0,1.19-.695,3.663,3.663,0,0,0,.17-2.543l-.035-.124.082-.1a14.71,14.71,0,0,0,2.094-3.461,3.8,3.8,0,0,0-.4-3.239,1.9,1.9,0,0,0-1.591-.865c-1.552,0-1.862.559-1.919.721a10.223,10.223,0,0,1,.293,1.053C374.858,293.943,374.957,293.937,375.056,293.928Zm1.36,2.639c0,.106-.014.212-.022.319a2.023,2.023,0,0,1-.055.314,2.935,2.935,0,0,1-.078.3,3.323,3.323,0,0,1-.2.5,2.9,2.9,0,0,1-.186.336c-.048.079-.079.122-.079.122s.016-.052.046-.138.073-.21.12-.358c.025-.074.044-.157.07-.241s.045-.177.068-.271.038-.192.06-.291.03-.2.046-.3a2.364,2.364,0,0,0,.028-.3c0-.1.011-.2.008-.295a2.829,2.829,0,0,0-.047-.519,1.616,1.616,0,0,0-.053-.2.694.694,0,0,0-.069-.142.46.46,0,0,0-.092-.108l.032.018a.25.25,0,0,1,.086.066.738.738,0,0,1,.1.137,1.261,1.261,0,0,1,.092.2,1.7,1.7,0,0,1,.069.252,2.115,2.115,0,0,1,.038.289A2.411,2.411,0,0,1,376.416,296.567Z" transform="translate(-335.719 -262.674)"/><path class="f" d="M83.831,303.226c.093-.25.188-.479.28-.682a1.083,1.083,0,0,1-.158-.038,1.238,1.238,0,0,1-.238-.1,1.147,1.147,0,0,1-.23-.182,1.1,1.1,0,0,1-.18-.244,1.268,1.268,0,0,1-.114-.278,2.62,2.62,0,0,1-.045-1.029c.018-.137.036-.249.054-.327s.024-.123.024-.123v.453a2.469,2.469,0,0,0,.2.938.956.956,0,0,0,.129.2.758.758,0,0,0,.159.154.809.809,0,0,0,.174.094.92.92,0,0,0,.174.041.607.607,0,0,0,.148.01.91.91,0,0,0,.116,0c.124-.244.233-.432.3-.553-.354-.437-1.252-1.832-1.252-4.746a10.844,10.844,0,0,1,.253-2.342l-.095-.033c-.063-.02-.117-.02-.192-.037a2.07,2.07,0,0,0-.272-.008,1.617,1.617,0,0,0-.326.059.739.739,0,0,0-.172.06,1.232,1.232,0,0,0-.174.082l-.17.1-.155.134a1.5,1.5,0,0,0-.139.158.824.824,0,0,0-.118.176,1.833,1.833,0,0,0-.172.395,2.247,2.247,0,0,0-.063.42,2,2,0,0,1-.007.207,1.06,1.06,0,0,0,.019.2c.006.069.014.127.02.188a1.507,1.507,0,0,0,.04.174c.029.11.048.214.079.3l.085.226.074.2-.093-.19-.108-.22c-.039-.085-.07-.188-.11-.3-.019-.055-.042-.112-.06-.173s-.026-.126-.04-.192-.031-.133-.04-.2-.01-.144-.015-.219a2.4,2.4,0,0,1,.023-.463,2.107,2.107,0,0,1,.148-.465,1.055,1.055,0,0,1,.117-.218,1.775,1.775,0,0,1,.144-.2l.17-.178.186-.145a1.76,1.76,0,0,1,.2-.12,1.031,1.031,0,0,1,.2-.094,2.048,2.048,0,0,1,.4-.113,2.382,2.382,0,0,1,.356-.025,2.839,2.839,0,0,1,.289.031l.078.018a11.038,11.038,0,0,1,.349-1.095c-.076-.184-.419-.7-1.912-.7a1.9,1.9,0,0,0-1.591.865,3.769,3.769,0,0,0-.4,3.239,14.711,14.711,0,0,0,2.094,3.461l.082.1-.034.124a3.7,3.7,0,0,0,.169,2.543A1.407,1.407,0,0,0,83.831,303.226Zm-1.272-4.855a3.058,3.058,0,0,1-.186-.336,3.322,3.322,0,0,1-.2-.5,2.935,2.935,0,0,1-.078-.3c-.024-.1-.036-.209-.055-.314a1.877,1.877,0,0,1-.022-.319,2.424,2.424,0,0,1,.007-.31,2.3,2.3,0,0,1,.038-.289,1.7,1.7,0,0,1,.07-.252,1.1,1.1,0,0,1,.092-.2.7.7,0,0,1,.1-.137.251.251,0,0,1,.086-.066l.032-.018a.448.448,0,0,0-.093.108.751.751,0,0,0-.069.142,1.828,1.828,0,0,0-.052.2,2.659,2.659,0,0,0-.047.519c0,.1,0,.195.008.295s.018.2.027.3a2.62,2.62,0,0,0,.046.3c.021.1.034.2.061.291s.041.186.068.271.043.168.07.241c.046.148.085.274.119.359a1,1,0,0,1,.046.138s-.03-.04-.08-.12Z" transform="translate(-71.915 -262.701)"/><path class="f" d="M186.041,348.7a3.863,3.863,0,0,1,.894-.106,5.929,5.929,0,0,1,1.818.361,6.076,6.076,0,0,0,4.409,0,5.881,5.881,0,0,1,1.818-.361,3.879,3.879,0,0,1,.895.106,5.451,5.451,0,0,1,.779.246,1.7,1.7,0,0,0,.122-2c-.675-1.348-2.455-.822-2.473-.816l-.239.074v-.251a3.045,3.045,0,0,0-.847-1.96A3.986,3.986,0,0,0,190.3,343a3.808,3.808,0,0,0-2.845.988,3.141,3.141,0,0,0-.833,2.073l.007.233-.229-.046a1.859,1.859,0,0,0-2.015,1.01,1.892,1.892,0,0,0,.145,2.038,5.655,5.655,0,0,1,1.512-.595Zm4.794-5.236a3.36,3.36,0,0,1,.437.02,2.655,2.655,0,0,1,.29.05,2.283,2.283,0,0,1,.318.088,2.751,2.751,0,0,1,.65.314,2.394,2.394,0,0,1,.29.232,1.536,1.536,0,0,1,.24.268c.035.046.072.091.1.137l.077.145c.024.047.048.093.072.137a.945.945,0,0,1,.046.136,2.179,2.179,0,0,1,.068.24c.01.074.018.138.024.191.013.1.016.164.016.164s-.025-.056-.063-.152c-.018-.048-.039-.107-.065-.174s-.074-.134-.111-.211a1.358,1.358,0,0,0-.145-.236l-.085-.123-.1-.117c-.035-.038-.069-.081-.108-.119l-.124-.109a2.057,2.057,0,0,0-.268-.2c-.093-.065-.193-.12-.29-.176a2.415,2.415,0,0,0-.3-.141c-.1-.04-.191-.084-.292-.12s-.185-.06-.268-.089c-.17-.046-.312-.09-.414-.11l-.161-.035A1.5,1.5,0,0,1,190.835,343.465Z" transform="translate(-165.557 -308.362)"/><path class="g" d="M222.63,429.082a2.372,2.372,0,0,1,.616.446,3.128,3.128,0,0,0,2.34.909,3.089,3.089,0,0,0,2.339-.909,2.947,2.947,0,0,1,.571-.42,5.158,5.158,0,0,0-5.865-.026Z" transform="translate(-200.147 -384.939)"/><path class="e" d="M149.559,402.1a3.471,3.471,0,0,0-.808-.1,5.571,5.571,0,0,0-1.7.343,6.43,6.43,0,0,1-4.63,0,5.583,5.583,0,0,0-1.7-.343,3.478,3.478,0,0,0-.808.1,5.917,5.917,0,0,0-1.756.756,3.977,3.977,0,0,1-2.451.713,4.524,4.524,0,0,1-2.96-1.488,7.184,7.184,0,0,0,1.536,4.331,3.155,3.155,0,0,0,2.342.944,6.359,6.359,0,0,0,4.241-1.582,5.743,5.743,0,0,1,7.749,0,6.346,6.346,0,0,0,4.241,1.582,3.158,3.158,0,0,0,2.344-.945,7.147,7.147,0,0,0,1.534-4.33,4.518,4.518,0,0,1-2.959,1.488,3.98,3.98,0,0,1-2.452-.713A6.043,6.043,0,0,0,149.559,402.1Z" transform="translate(-119.335 -361.403)"/><path class="f" d="M139.884,249.635a1.446,1.446,0,0,0-.333.036,26.09,26.09,0,0,0-2.643.844,27.1,27.1,0,0,1-2.606.837,2.236,2.236,0,0,1-.531.064c-1.694,0-2.954-1.913-3.006-1.993l-.388-.6a.327.327,0,0,1,.443-.459l.611.367a1.571,1.571,0,0,0,.669.127,2.754,2.754,0,0,0,.927-.175,29.793,29.793,0,0,1,3.843-1.139c-.076-.024-.15-.049-.227-.073a27.177,27.177,0,0,0-7.188-.853c-.808,0-1.594.027-2.335.083a22.236,22.236,0,0,0-5.293.995,32.535,32.535,0,0,1,3.181.988,2.754,2.754,0,0,0,.927.175,1.534,1.534,0,0,0,.676-.132l.592-.34a.327.327,0,0,1,.438.462l-.371.574c-.053.082-1.313,1.994-3.006,1.994a2.245,2.245,0,0,1-.532-.064c-.827-.2-1.732-.524-2.606-.837a26.074,26.074,0,0,0-2.643-.844,1.44,1.44,0,0,0-.333-.036c-.042,0-.085.006-.128.009a4.371,4.371,0,0,0-.5.464,10.513,10.513,0,0,0-1.708,5.714,7.285,7.285,0,0,0,1.065,4.336l.1-.12a8.5,8.5,0,0,1,.74-.757,8.721,8.721,0,0,1,.817-.654c.232-.164.4-.258.4-.258s-.146.119-.347.317a8.422,8.422,0,0,0-.687.764,7.99,7.99,0,0,0-.583.831c-.052.081-.093.152-.128.216l.014.013-.119.173h0a10.831,10.831,0,0,0-1.557,5.692c0,5.116,6.321,11.3,14.17,11.3a14.325,14.325,0,0,0,9.888-4.121c2.414-2.31,3.913-5.216,3.913-7.585a6.873,6.873,0,0,0-2.389-5.335c-.009-.006-.013-.015-.02-.022h0l-.094-.089c-.061-.057-.146-.142-.248-.231a9.243,9.243,0,0,0-.792-.645,7.373,7.373,0,0,0-.872-.548,3.753,3.753,0,0,0-.427-.2,3.889,3.889,0,0,1,.449.133,7.508,7.508,0,0,1,.968.4,9.432,9.432,0,0,1,.92.528c.072.044.13.084.183.119a8.988,8.988,0,0,0,1.5-4.962,9.527,9.527,0,0,0-1.564-5.191A3.224,3.224,0,0,0,139.884,249.635Zm-1.768,5.5a2.844,2.844,0,0,1-.084.622,2,2,0,0,1-.224.566,2.6,2.6,0,0,0,.157-.58,3.487,3.487,0,0,0,.044-.606,3.216,3.216,0,0,0-.076-.692,1.946,1.946,0,0,0-.1-.336,2.057,2.057,0,0,0-.146-.308,3,3,0,0,0-.348-.5,3.065,3.065,0,0,0-.431-.419,1.484,1.484,0,0,1,.142.089,2.564,2.564,0,0,1,.339.283,2.746,2.746,0,0,1,.2.22,2,2,0,0,1,.192.272,2.139,2.139,0,0,1,.16.319,1.993,1.993,0,0,1,.113.352A3.333,3.333,0,0,1,138.116,255.132Zm-7.473-5.126c.076.091.194.21.333.352a6.065,6.065,0,0,0,.5.454c.094.081.2.151.3.231a2.087,2.087,0,0,0,.327.212,2.943,2.943,0,0,0,.34.187c.058.026.115.055.171.084l.174.067.169.064.166.047a2.071,2.071,0,0,0,.309.075l.267.05.21.018c.117.011.185.02.185.02s-.066.012-.184.027l-.215.026c-.083.005-.177,0-.28,0a1.565,1.565,0,0,1-.332-.035l-.181-.031c-.061-.014-.121-.036-.184-.055l-.189-.06-.186-.081a3.082,3.082,0,0,1-.367-.191c-.122-.068-.228-.157-.341-.232a2.44,2.44,0,0,1-.3-.26,4.041,4.041,0,0,1-.465-.525,3.125,3.125,0,0,1-.348-.585s.036.049.114.138Zm1.248,6.411c.034.069.07.138.106.208s.084.135.124.2a1.555,1.555,0,0,0,.139.2,1.715,1.715,0,0,0,.155.188l.168.177c.061.054.125.1.186.154a3.38,3.38,0,0,0,.39.263c.141.059.268.141.4.183a3.189,3.189,0,0,0,.382.118c.122.024.233.051.332.075l.263.031.229.03-.231.005h-.268c-.1-.01-.219-.022-.346-.04a3.211,3.211,0,0,1-.838-.259c-.072-.037-.141-.082-.214-.123a1.167,1.167,0,0,1-.21-.142c-.066-.054-.135-.1-.2-.163l-.182-.186a1.949,1.949,0,0,1-.163-.2,1.636,1.636,0,0,1-.144-.212,3.065,3.065,0,0,1-.228-.442,3.118,3.118,0,0,1-.147-.439,3.465,3.465,0,0,1-.087-.4,3.874,3.874,0,0,1-.048-.614l.011-.231.025.23.039.261c.024.1.042.213.074.333a3.586,3.586,0,0,0,.114.385,4.432,4.432,0,0,0,.167.414Zm-7.675-4.569.21-.018.267-.05a2.031,2.031,0,0,0,.3-.075l.167-.047.168-.064.174-.067c.057-.029.113-.058.171-.084a2.957,2.957,0,0,0,.341-.187c.115-.061.218-.142.326-.212a2.994,2.994,0,0,0,.3-.231c.191-.157.361-.314.5-.454a4.641,4.641,0,0,0,.333-.352l.122-.14a3.125,3.125,0,0,1-.348.585,3.984,3.984,0,0,1-.466.525c-.093.089-.2.175-.3.26a2.571,2.571,0,0,1-.341.232,3.162,3.162,0,0,1-.367.191l-.186.081-.19.06c-.063.018-.122.04-.184.055l-.181.031a1.557,1.557,0,0,1-.331.035c-.1,0-.2.007-.281,0l-.214-.026c-.118-.015-.185-.027-.185-.027l.186-.018Zm1.535,3.178a3.852,3.852,0,0,1-.047.614,3.685,3.685,0,0,1-.087.4,3.254,3.254,0,0,1-.147.439,3.17,3.17,0,0,1-.228.442,1.645,1.645,0,0,1-.145.212,1.826,1.826,0,0,1-.163.2l-.181.186c-.066.057-.134.109-.2.163a1.2,1.2,0,0,1-.209.142c-.073.041-.142.086-.214.123a3.1,3.1,0,0,1-.435.166,3.173,3.173,0,0,1-.4.093c-.126.018-.243.03-.345.04h-.268l-.232-.005.23-.03.262-.031c.1-.024.211-.05.332-.075a3.2,3.2,0,0,0,.382-.118c.135-.041.263-.124.4-.183a3.292,3.292,0,0,0,.39-.263c.062-.051.125-.1.186-.153l.168-.177a1.726,1.726,0,0,0,.156-.188,1.558,1.558,0,0,0,.139-.2c.04-.07.087-.135.124-.2l.106-.208c.06-.141.125-.277.168-.413a3.576,3.576,0,0,0,.113-.385c.032-.12.049-.233.074-.333a2.618,2.618,0,0,0,.04-.261c.015-.146.024-.23.024-.23Zm-6.636-.613a2.076,2.076,0,0,1,.112-.352,2.143,2.143,0,0,1,.161-.319,2,2,0,0,1,.192-.272,2.616,2.616,0,0,1,.538-.5,1.579,1.579,0,0,1,.141-.089,3.03,3.03,0,0,0-.43.419,2.942,2.942,0,0,0-.349.5,2.052,2.052,0,0,0-.145.308,1.945,1.945,0,0,0-.1.336,3.284,3.284,0,0,0-.077.692,3.581,3.581,0,0,0,.045.606,2.6,2.6,0,0,0,.157.58,2,2,0,0,1-.224-.566,2.844,2.844,0,0,1-.084-.622,3.268,3.268,0,0,1,.064-.714Zm-.416,1.955a1.687,1.687,0,0,0-.251-.139,2.07,2.07,0,0,0-.21-.074l-.193-.026.2.011a1.819,1.819,0,0,1,.219.057,1.753,1.753,0,0,1,.269.122c.189.1.4.247.617.394.112.072.226.147.346.215s.245.131.369.194c.07.028.137.059.2.087a2.67,2.67,0,0,1-1.05-2.092,2.762,2.762,0,0,1,1.767-2.513h-.332a5.433,5.433,0,0,0-.571.045,4.544,4.544,0,0,0-.492.095,2.992,2.992,0,0,0-.338.112l-.126.049.119-.065a2.877,2.877,0,0,1,.327-.151,4.372,4.372,0,0,1,.488-.156c.182-.046.379-.085.577-.115a8.161,8.161,0,0,1,1.1-.078c.25,0,.434.01.489.014a2.77,2.77,0,1,1-.005,5.52H122.2a3.21,3.21,0,0,1-.5-.042c-.067-.009-.138-.021-.216-.031a2.884,2.884,0,0,1-.35-.068,3.566,3.566,0,0,1-.382-.1,3.258,3.258,0,0,1-.395-.15c-.134-.052-.261-.126-.391-.192a2.66,2.66,0,0,1-.365-.232c-.115-.084-.227-.165-.334-.246C119.065,256.642,118.873,256.484,118.7,256.368Zm17.726,16.872a2.157,2.157,0,0,0-.462.15,3.675,3.675,0,0,0-.64.392c-.233.174-.483.392-.756.63s-.568.5-.9.768a8.249,8.249,0,0,1-1.1.763,5.894,5.894,0,0,1-1.342.566,5.777,5.777,0,0,1-.736.155,5.887,5.887,0,0,1-.751.062,5.983,5.983,0,0,1-1.5-.166,5.7,5.7,0,0,1-1.356-.527,10.394,10.394,0,0,1-2.02-1.521c-.272-.242-.517-.465-.746-.645a3.534,3.534,0,0,0-.629-.4,2.041,2.041,0,0,0-.458-.157l-.174-.024h.175a1.9,1.9,0,0,1,.494.093,3.255,3.255,0,0,1,.7.345c.254.161.528.359.818.583s.606.46.937.7a8.49,8.49,0,0,0,1.1.656,5.8,5.8,0,0,0,1.268.448,5.464,5.464,0,0,0,1.376.136,5.542,5.542,0,0,0,.7-.048,5.249,5.249,0,0,0,.678-.134,6.174,6.174,0,0,0,1.255-.49,14.982,14.982,0,0,0,2.034-1.368,9.128,9.128,0,0,1,.83-.567,3.259,3.259,0,0,1,.707-.327,1.919,1.919,0,0,1,.493-.086h.176Zm-9.25-2.424a5.124,5.124,0,0,1,1.111-.427,6.09,6.09,0,0,1,.659-.132c.227-.025.459-.051.692-.056h.349c.11,0,.22.005.337.016a6.225,6.225,0,0,1,.669.084,5.686,5.686,0,0,1,.606.146,4.323,4.323,0,0,1,.528.193,3.825,3.825,0,0,1,.423.215,2.976,2.976,0,0,1,.3.2,1.715,1.715,0,0,1,.234.212,2.708,2.708,0,0,0-.283-.127c-.091-.036-.2-.074-.331-.117s-.276-.079-.435-.119-.336-.07-.522-.1-.383-.051-.586-.075l-.311-.024c-.1,0-.21-.007-.316-.014s-.22,0-.33-.007a2.718,2.718,0,0,0-.326.006c-.217,0-.434.016-.647.035-.106.014-.212.025-.317.035l-.3.047c-.2.039-.395.075-.578.12s-.354.094-.513.143a6.753,6.753,0,0,0-1.036.414,2.143,2.143,0,0,1,.229-.216,3.944,3.944,0,0,1,.694-.452Zm-.65-3.224a1.946,1.946,0,0,0,.218.147,3.541,3.541,0,0,0,.622.285,5.078,5.078,0,0,0,.934.229c.174.027.354.047.539.059s.376.016.558.019a5.28,5.28,0,0,0,.566-.022c.181-.017.366-.029.539-.059a5.937,5.937,0,0,0,.939-.216,3.937,3.937,0,0,0,.634-.263,2.263,2.263,0,0,0,.226-.133,1.429,1.429,0,0,1-.2.174,3.216,3.216,0,0,1-.606.353,4.353,4.353,0,0,1-.952.3,4.644,4.644,0,0,1-.558.082c-.195.02-.386.025-.578.03a4.522,4.522,0,0,1-.584-.027,4.671,4.671,0,0,1-.558-.083,4.082,4.082,0,0,1-.95-.312,3.047,3.047,0,0,1-.6-.377,1.312,1.312,0,0,1-.192-.188Zm14.772-5.826.323-.443.011.548c0,.137.047,3.374-1.656,5.111a3.514,3.514,0,0,1-2.607,1.056,6.659,6.659,0,0,1-4.463-1.655l-.224-.165a1.389,1.389,0,0,0-.719.447,3.527,3.527,0,0,1-2.541,1.028v.006h-.258v-.006a3.527,3.527,0,0,1-2.541-1.028,1.365,1.365,0,0,0-.8-.448l-.225.166a6.655,6.655,0,0,1-4.463,1.655,3.514,3.514,0,0,1-2.606-1.056c-1.7-1.737-1.659-4.974-1.657-5.111l.011-.548.323.443a4.515,4.515,0,0,0,3.03,1.745,3.618,3.618,0,0,0,2.249-.662l.03-.017a2.257,2.257,0,0,1-.156-2.385,2.209,2.209,0,0,1,2.2-1.233,3.473,3.473,0,0,1,.931-2.13,4.152,4.152,0,0,1,3.109-1.1,4.3,4.3,0,0,1,3.173,1.1,3.37,3.37,0,0,1,.932,2,2.363,2.363,0,0,1,2.688,1.057,2.094,2.094,0,0,1-.107,2.323c.271.13.5.268.733.4a3.623,3.623,0,0,0,2.249.662,4.535,4.535,0,0,0,3.027-1.751Zm-2.366-5.616a2.06,2.06,0,0,0-.209.074,1.69,1.69,0,0,0-.251.139c-.177.116-.368.274-.579.439-.106.082-.216.167-.333.246s-.241.157-.366.232a4.219,4.219,0,0,1-.39.192,3.254,3.254,0,0,1-.395.15,3.551,3.551,0,0,1-.382.1,2.879,2.879,0,0,1-.35.068c-.078.01-.149.022-.217.031a3.2,3.2,0,0,1-.5.042h-.013a2.77,2.77,0,1,1-.006-5.52c.055,0,.238-.015.49-.014a8.161,8.161,0,0,1,1.1.078,5.826,5.826,0,0,1,.577.115,4.442,4.442,0,0,1,.488.156,2.849,2.849,0,0,1,.326.151l.12.065-.126-.049a2.989,2.989,0,0,0-.338-.112,4.549,4.549,0,0,0-.492-.095,5.436,5.436,0,0,0-.572-.045h-.331a2.762,2.762,0,0,1,1.767,2.513A2.668,2.668,0,0,1,136.9,257.2l.2-.087c.124-.063.251-.122.37-.194s.234-.143.346-.215c.221-.146.427-.29.617-.394a1.5,1.5,0,0,1,.488-.179l.2-.011Z" transform="translate(-103.854 -221.715)"/><path class="h" d="M139.5,185.516c.005.125.021.45.058.909.26-.195.543-.386.834-.588l.357-.227c-.041-.4-.068-.73-.083-.94A12.854,12.854,0,0,0,139.5,185.516Z" transform="translate(-125.412 -166.021)"/><path class="h" d="M355.354,198.6c.267-1.274.448-2.588.512-3.075-.189-.178-.375-.382-.573-.6l-.266-.289a32.193,32.193,0,0,1-.568,3.807l.1.04c.264.116.514.23.75.339C355.322,198.754,355.338,198.68,355.354,198.6Z" transform="translate(-318.664 -174.984)"/><path class="h" d="M122.331,197.885c-.03-.344-.05-.636-.063-.855a10.861,10.861,0,0,0-1.365,1.451c-.011.093-.029.285-.043.554l.011-.008c.27-.214.653-.522,1.123-.884C122.1,198.06,122.214,197.973,122.331,197.885Z" transform="translate(-108.655 -177.133)"/><path class="h" d="M122.365,214.856a2.865,2.865,0,0,1,.707-.192,23.818,23.818,0,0,1-.841-4.4l-.122.1c-.451.377-.822.7-1.083.923l-.326.281a11.562,11.562,0,0,0,.647,3.881,5.071,5.071,0,0,1,1.018-.59Z" transform="translate(-108.511 -189.027)"/><path class="h" d="M352.821,236.092c-.253-.134-.523-.277-.808-.422l-.021-.01c-.071.341-.14.665-.2.958l.078.033c.266.123.515.238.746.351C352.67,236.759,352.741,236.457,352.821,236.092Z" transform="translate(-316.264 -211.861)"/><path class="h" d="M141.438,197.768c-.293.22-.579.427-.838.64-.051.04-.1.08-.149.12a24.157,24.157,0,0,0,.884,4.737c.067,0,.13-.007.2-.007a8.934,8.934,0,0,1,1.394.127,24.079,24.079,0,0,1-1.291-5.756C141.575,197.672,141.5,197.72,141.438,197.768Z" transform="translate(-126.266 -177.672)"/><path class="h" d="M349.83,251.509a4.011,4.011,0,0,1,.617.076c-.178-.095-.367-.192-.566-.295Z" transform="translate(-314.502 -225.913)"/><path class="h" d="M163.286,161.85a2.756,2.756,0,0,1-1.345.151,16.6,16.6,0,0,0-4.741.118,10.393,10.393,0,0,0-3.809,1.444c.012.173.036.5.08.945.127-.078.255-.156.389-.228.168-.1.343-.192.522-.278s.352-.182.539-.253.365-.159.551-.224l.559-.19a10.214,10.214,0,0,1,1.111-.265,9.93,9.93,0,0,1,1.059-.143c.338-.035.659-.031.954-.046s.567.012.808.016.448.032.62.042l.538.045-.54-.024c-.172,0-.38-.027-.619-.018s-.5,0-.8.015-.612.035-.945.083a10.346,10.346,0,0,0-1.04.183,9.962,9.962,0,0,0-1.084.3l-.54.207c-.18.072-.353.161-.531.24s-.345.177-.516.269-.338.186-.5.29-.338.212-.5.323a23.264,23.264,0,0,0,1.346,5.967l.094.019a21.733,21.733,0,0,1,6.181-1.285c.753-.056,1.551-.084,2.371-.084a27.663,27.663,0,0,1,7.328.874c.371.109.729.238,1.076.378.282-.037.556-.062.819-.071l.1-.433-.185-.088c-.207-.1-.427-.181-.65-.276s-.457-.179-.7-.265-.485-.176-.74-.246-.511-.159-.776-.223l-.808-.191c-.272-.066-.55-.1-.828-.157a8.412,8.412,0,0,0-.841-.128l-.846-.1c-.282-.024-.565-.039-.844-.059-.559-.05-1.111-.046-1.648-.056s-1.052.02-1.543.03-.955.052-1.383.086-.822.056-1.167.1l-.9.111-.783.1.778-.128.893-.147c.344-.063.738-.095,1.164-.151s.891-.114,1.384-.141,1.01-.092,1.551-.094,1.1-.038,1.664-.011c.284.009.57.012.856.025l.862.07a8.471,8.471,0,0,1,.86.1c.285.046.572.07.851.124l.833.163c.274.056.54.133.808.2s.521.143.771.223.5.151.73.243.465.167.682.258l.086.036c.067-.3.138-.633.209-.983q-.486-.233-1-.444c-.258-.1-.518-.2-.778-.281s-.517-.164-.771-.224-.5-.121-.732-.171-.457-.086-.662-.125c-.413-.065-.758-.116-1-.142l-.382-.045.384.025c.244.012.593.044,1.01.087.208.027.435.049.673.088s.49.077.747.132.523.115.792.183.538.152.808.242c.333.112.66.237.979.367a28.086,28.086,0,0,0,.566-4.091,10.345,10.345,0,0,0-5.271-2.616A9.091,9.091,0,0,0,163.286,161.85Z" transform="translate(-137.9 -145.061)"/><path class="h" d="M365.064,204.91c-.075.565-.25,1.781-.5,2.964-.019.092-.038.18-.057.266l.384.18,1.046.492a10.811,10.811,0,0,0,.3-3.389A1.982,1.982,0,0,1,365.064,204.91Z" transform="translate(-327.699 -184.217)"/><path class="h" d="M361.8,240.84q-.121.544-.211.9l.157.08c.316.159.585.3.808.424l.4.219c.083-.274.164-.568.241-.873l-1.116-.606Z" transform="translate(-325.074 -216.518)"/><path class="h" d="M82.046,19.754c-.021.041-.046.088-.075.143l-.142.212a1.935,1.935,0,0,1-.181.227,2.112,2.112,0,0,1-.221.226,2.564,2.564,0,0,1-.257.216c-.087.073-.187.129-.282.194a4.152,4.152,0,0,1-.591.3,4.751,4.751,0,0,1-.54.193,4.039,4.039,0,0,1-.541.123,4.032,4.032,0,0,0,.515-.195,4.766,4.766,0,0,0,.5-.26,4.089,4.089,0,0,0,.518-.366c.079-.073.165-.137.233-.215a2.23,2.23,0,0,0,.2-.226,1.717,1.717,0,0,0,.166-.226,1.515,1.515,0,0,0,.125-.211c.023-.047.043-.088.065-.129l.128-.343a5.591,5.591,0,0,0-.129-3.938,4.992,4.992,0,0,0-3.167-2.476c-4.649-1.5-6.476,1.126-6.8,1.673.028.074.069.175.115.3a9.823,9.823,0,0,1,.308.967,6.113,6.113,0,0,1,.181,1,2.652,2.652,0,0,1,.007.457,2.6,2.6,0,0,0-.084-.444,5.865,5.865,0,0,0-.336-.928,9.272,9.272,0,0,0-.444-.861l-.006.013-.227-.4c-.031-.056-3.24-5.582-9.516-4.4-6.938,1.313-7.219,6.517-7.2,7.6h0l.244.04.331.083a3.165,3.165,0,0,1,.378.119l.2.071.2.089a4.174,4.174,0,0,1,.419.2c.141.07.278.153.413.237s.266.176.4.263.248.185.365.277c.229.189.436.372.606.54a5.837,5.837,0,0,1,.528.581,5.98,5.98,0,0,0-.58-.524c-.18-.148-.4-.309-.643-.471-.122-.079-.249-.158-.381-.234a4.568,4.568,0,0,0-.4-.216c-.137-.063-.277-.134-.418-.187a3.684,3.684,0,0,0-.415-.151l-.2-.066-.195-.046a3.159,3.159,0,0,0-.354-.075l-.3-.045-.167-.01h0l-.287-.021a13.128,13.128,0,0,0-3.652.344c.1,0,.2-.008.309-.007.232-.007.472,0,.715.015a7.261,7.261,0,0,1,.734.075c.244.04.488.08.725.132a5.341,5.341,0,0,1,.686.195c.217.08.426.158.62.24a4.887,4.887,0,0,1,.53.27,4.541,4.541,0,0,1,.425.267c.122.091.231.157.311.228l.259.213-.272-.2c-.084-.066-.2-.127-.323-.2s-.275-.152-.435-.237a5.418,5.418,0,0,0-.538-.231,6.22,6.22,0,0,0-.621-.2c-.217-.06-.448-.1-.68-.148a5.187,5.187,0,0,0-.713-.084c-.24-.015-.48-.022-.716-.026a6,6,0,0,0-.693.029c-.224.022-.44.041-.645.067s-.4.064-.573.091-.335.07-.478.1-.267.064-.37.09l-.21.055a5.717,5.717,0,0,0-1.206.846,5.15,5.15,0,0,0-1.57,3.921,5.427,5.427,0,0,0,1.624,4.17c1.94,1.8,5.038,1.774,5.645,1.751a12.4,12.4,0,0,1,7.337-4.443,17.149,17.149,0,0,1,4.885-.119,2.251,2.251,0,0,0,1.1-.124,9.611,9.611,0,0,1,5.523-.245A10.584,10.584,0,0,1,78.108,28.8c.539.592.914,1.01,1.493,1.091h0l.3.017a13.669,13.669,0,0,0,4-.477c2.648-.762,4.131-2.284,4.407-4.524a3.96,3.96,0,0,0-.9-3.3C85.827,19.871,82.737,19.757,82.046,19.754Zm-3.5-5.492a2.822,2.822,0,0,1,.392.094,2.938,2.938,0,0,1,.489.2l.262.157c.085.065.176.129.262.2a2.6,2.6,0,0,1,.474.544,2.715,2.715,0,0,1,.333.707,3.442,3.442,0,0,1,.1.391l.027.185.014.092.006.046v.457c0,.132-.023.264-.034.393a3.183,3.183,0,0,1-.2.741,2.953,2.953,0,0,1-.345.626c-.066.092-.137.176-.2.258a2.718,2.718,0,0,1-.215.216,2.113,2.113,0,0,1-.214.179l-.2.141a3.066,3.066,0,0,1-.353.195,1.952,1.952,0,0,1-.325.122,3.019,3.019,0,0,0,.274-.2c.084-.069.181-.157.288-.259a3.627,3.627,0,0,0,.647-.844,3.552,3.552,0,0,0,.247-.578,3.493,3.493,0,0,0,.14-.661c.006-.114.022-.228.022-.344l-.012-.348-.042-.354a3.014,3.014,0,0,0-.075-.327,2.9,2.9,0,0,0-.245-.606,2.978,2.978,0,0,0-.361-.5c-.067-.075-.141-.137-.207-.2l-.213-.177a4.486,4.486,0,0,0-.412-.269c-.13-.071-.246-.13-.345-.174a2.961,2.961,0,0,0-.318-.127A1.9,1.9,0,0,1,78.547,14.262Zm-16.755,10.1c-.238.015-.477.015-.713.043l-.707.1a5.144,5.144,0,0,0-.7.114l-.692.148c-.231.046-.453.131-.679.195a6.171,6.171,0,0,0-.668.225l-.653.254-.626.316c-.214.1-.4.233-.606.348a5.6,5.6,0,0,0-.581.39c-.094.069-.191.133-.282.2l-.269.224a6.312,6.312,0,0,0-.519.467c-.174.156-.322.335-.482.5a4.861,4.861,0,0,0-.435.543,5.15,5.15,0,0,0-.374.57l-.075.13-.124-.008-.352-.025a3.421,3.421,0,0,1-.351-.034l-.348-.059a3.332,3.332,0,0,1-.344-.079c-.113-.031-.229-.054-.34-.092l-.333-.113c-.112-.034-.216-.091-.324-.135S50,28.5,49.9,28.445a6.013,6.013,0,0,1-.606-.352c-.1-.066-.189-.136-.283-.2s-.181-.145-.272-.218a4.942,4.942,0,0,1-.933-1.019,5.453,5.453,0,0,0,.492.475,6.628,6.628,0,0,0,.539.413c.095.061.186.127.284.183s.194.115.293.169l.3.154c.1.048.2.09.3.136a3.318,3.318,0,0,0,.312.12,2.507,2.507,0,0,0,.316.1l.321.09c.1.031.217.045.325.07a3.275,3.275,0,0,0,.328.056l.329.037a3.036,3.036,0,0,0,.331.02l.2.008a5.392,5.392,0,0,1,.319-.516,7.046,7.046,0,0,1,.449-.587c.166-.181.322-.372.5-.538a6.655,6.655,0,0,1,.542-.5l.283-.235c.1-.075.2-.142.3-.214a6.488,6.488,0,0,1,.614-.4l.317-.186a2.688,2.688,0,0,1,.324-.172l.667-.3.689-.247a5.3,5.3,0,0,1,.7-.2c.237-.054.471-.127.707-.163l.72-.1a5.224,5.224,0,0,1,.722-.062l.723-.025c.24,0,.481.021.721.031s.479.032.717.048C62.27,24.331,62.03,24.349,61.792,24.361ZM65.1,12.06a8.672,8.672,0,0,0-1.532-.182,8.96,8.96,0,0,0-1.594.081,7.388,7.388,0,0,0-1.538.374,6.766,6.766,0,0,0-2.487,1.585,7.441,7.441,0,0,0-.826,1,6.65,6.65,0,0,0-.872,1.752,4.073,4.073,0,0,0-.17.732s0-.07.005-.2a3.781,3.781,0,0,1,.071-.557,6.261,6.261,0,0,1,.724-1.88,6.643,6.643,0,0,1,3.389-2.881,7.76,7.76,0,0,1,1.638-.414,9.476,9.476,0,0,1,1.678-.064,8.45,8.45,0,0,1,1.611.236,6.95,6.95,0,0,1,2.586,1.238,6.463,6.463,0,0,1,1.385,1.462,3.91,3.91,0,0,1,.376.659,4.94,4.94,0,0,0-.451-.606,6.873,6.873,0,0,0-1.471-1.29,7.518,7.518,0,0,0-1.144-.614A7.625,7.625,0,0,0,65.1,12.06ZM78.758,27.128c-.149-.128-.334-.281-.55-.448s-.466-.35-.743-.539c-.138-.095-.284-.192-.439-.285s-.311-.2-.479-.289-.337-.193-.517-.283-.361-.188-.55-.275-.381-.178-.58-.258-.4-.164-.606-.235l-.3-.112c-.1-.036-.214-.067-.321-.1l-.324-.1-.081-.025-.074-.019-.161-.04a11.4,11.4,0,0,0-1.295-.264c-.432-.06-.86-.108-1.277-.126a15.176,15.176,0,0,0-2.284.063,13.74,13.74,0,0,0-2.215.4,5.765,5.765,0,0,1,.578-.239,10.553,10.553,0,0,1,1.6-.437,11.6,11.6,0,0,1,2.339-.217,10.916,10.916,0,0,1,1.328.089,11.966,11.966,0,0,1,1.354.257l.167.045.091.024.081.026.322.1c.214.064.429.142.644.227l.319.122.3.14c.2.091.4.186.591.289s.379.2.554.309.35.213.513.325.323.216.471.329.29.221.422.33a9.316,9.316,0,0,1,.7.623c.2.193.364.373.5.522a5.251,5.251,0,0,1,.389.49S79.058,27.386,78.758,27.128Zm8.252-2.493A2.7,2.7,0,0,1,87,24.9c-.013.09-.026.181-.04.272a3.255,3.255,0,0,1-.13.546,3.139,3.139,0,0,1-.2.533l-.058.133a.74.74,0,0,1-.035.074l-.033.06c-.048.083-.083.16-.143.246a3.991,3.991,0,0,1-.365.482,4.151,4.151,0,0,1-.914.741,4.96,4.96,0,0,1-1.025.46,7,7,0,0,1-1.928.322,8.248,8.248,0,0,1-1.365-.061,5.114,5.114,0,0,1-.5-.086s.188,0,.513-.012a13.4,13.4,0,0,0,1.335-.123,8.677,8.677,0,0,0,1.806-.452,5.425,5.425,0,0,0,.921-.456,3.689,3.689,0,0,0,.8-.667,3.5,3.5,0,0,0,.316-.4c.048-.063.093-.156.14-.231l.034-.061.024-.05.054-.12a4.08,4.08,0,0,0,.341-.958c.016-.081.031-.161.047-.239a2.373,2.373,0,0,0,.021-.238,1.838,1.838,0,0,0,.015-.234c0-.078-.008-.153-.012-.228a3.172,3.172,0,0,0-.061-.436c-.032-.139-.072-.273-.113-.4a3.832,3.832,0,0,0-.321-.663,4.067,4.067,0,0,0-.334-.472,3.1,3.1,0,0,0-.349-.373,2.53,2.53,0,0,1,.419.3,3.25,3.25,0,0,1,.417.431,3.351,3.351,0,0,1,.428.662c.06.132.118.274.171.424a3.079,3.079,0,0,1,.108.48c.011.084.021.17.032.257A2.717,2.717,0,0,1,87.009,24.634Z" transform="translate(-41.112 -9.183)"/><path class="d" d="M285.531,333.131a.58.58,0,1,1-.169-.411A.581.581,0,0,1,285.531,333.131Z" transform="translate(-255.652 -298.967)"/><path class="d" d="M195.221,333.131a.58.58,0,1,1-.169-.411A.581.581,0,0,1,195.221,333.131Z" transform="translate(-174.462 -298.967)"/><path class="i" d="M229.58,439.631a4.357,4.357,0,0,1,2.2-.411,4.7,4.7,0,0,1,2.323.473,2.946,2.946,0,0,1-2.323.909A2.488,2.488,0,0,1,229.58,439.631Z" transform="translate(-206.395 -394.865)"/><path class="j" d="M179.639,245.235a25.374,25.374,0,0,0-7.106.822l-1.313-.123a22.514,22.514,0,0,1,8.174-1.4c4.437.123,7.76.781,8.255,1.151l-1.191.3A32.145,32.145,0,0,0,179.639,245.235Z" transform="translate(-153.929 -219.835)"/><path class="j" d="M119.5,274.713a13.034,13.034,0,0,0-2.136,5.339,7.747,7.747,0,0,0,.783,4.768l-.575.7s-1.273-.862-1.273-4.6a10.322,10.322,0,0,1,2.013-6.16A1.261,1.261,0,0,1,119.5,274.713Z" transform="translate(-104.555 -246.848)"/><path class="j" d="M360.05,273.916a13.025,13.025,0,0,1,1.68,5.5,7.728,7.728,0,0,1-1.181,4.682l.515.744s1.341-.752,1.655-4.477a10.329,10.329,0,0,0-1.489-6.309A1.265,1.265,0,0,0,360.05,273.916Z" transform="translate(-323.69 -246.168)"/><path class="j" d="M344.48,368.2a5.548,5.548,0,0,1,2.772.595l-.246.719A13.312,13.312,0,0,0,344.48,368.2Z" transform="translate(-309.692 -331.016)"/><path class="j" d="M129.472,363a7.732,7.732,0,0,0-2.222,1.111l.544.473A14.416,14.416,0,0,1,129.472,363Z" transform="translate(-114.399 -326.342)"/><path class="j" d="M141.264,396.99a8.818,8.818,0,0,0-1.6-2.619,7.872,7.872,0,0,1,1,5.554c-.328,2.743-5.627,10.053-13.113,10.053a12.157,12.157,0,0,1-7.3-1.818c-2.927-1.633-6.16-5.042-6.564-7.846a15.65,15.65,0,0,1,.585-5.945l-.318.241a12.241,12.241,0,0,0-.791,2.1,10.243,10.243,0,0,0,.707,6.284c.953,2.311,5.519,6.283,8.97,7.091a19.657,19.657,0,0,0,4.746.606v.1s9.673.37,13.7-10.474A11.633,11.633,0,0,0,141.264,396.99Z" transform="translate(-101.527 -354.544)"/><path class="j" d="M268,344a3.725,3.725,0,0,1,2.525,2.525v.185l-.8.1a9.671,9.671,0,0,0-.7-1.684A3.145,3.145,0,0,0,268,344Z" transform="translate(-240.936 -309.261)"/><path class="j" d="M304.62,372.11A2.61,2.61,0,0,1,306,375.663l-.143.021-.924-.329a1.656,1.656,0,0,0,.575-1.313A3.508,3.508,0,0,0,304.62,372.11Z" transform="translate(-273.857 -334.532)"/><path class="j" d="M200.032,344.65c-.678.186-2.362,1.52-2.382,2.793l.883.123a5.78,5.78,0,0,1,.616-1.848A2.554,2.554,0,0,1,200.032,344.65Z" transform="translate(-177.69 -309.845)"/><path class="j" d="M177.314,375.16a2.658,2.658,0,0,0-1.17,3.656l.862-.328a2.008,2.008,0,0,1-.534-1.52A4.331,4.331,0,0,1,177.314,375.16Z" transform="translate(-158.073 -337.274)"/><path class="j" d="M271.764,319.28a8.719,8.719,0,0,0,.15,1.053,6.137,6.137,0,0,0,.3,1.01,4.146,4.146,0,0,0,.251.524,3.068,3.068,0,0,0,.336.484,2.72,2.72,0,0,0,.416.412,3.092,3.092,0,0,0,.473.326,3.852,3.852,0,0,0,.495.227,2.219,2.219,0,0,0,.242.083c.08.024.156.055.232.07.3.079.565.127.749.157s.294.048.294.048-.106.021-.295.049a2.934,2.934,0,0,1-.343.03,3.253,3.253,0,0,1-.451-.005,3.061,3.061,0,0,1-.533-.08,2.892,2.892,0,0,1-.582-.19,2.736,2.736,0,0,1-.292-.148l-.145-.084-.136-.1a3.132,3.132,0,0,1-.5-.473,3.367,3.367,0,0,1-.618-1.182,4.081,4.081,0,0,1-.167-1.129A3.606,3.606,0,0,1,271.764,319.28Z" transform="translate(-244.2 -287.037)"/><path class="j" d="M182.071,319.28a3.606,3.606,0,0,1,.13,1.083,4.076,4.076,0,0,1-.169,1.124,3.37,3.37,0,0,1-.619,1.182,3.083,3.083,0,0,1-.5.473l-.136.1-.145.084a2.736,2.736,0,0,1-.292.148,2.892,2.892,0,0,1-.582.19,3.057,3.057,0,0,1-.534.08,3.239,3.239,0,0,1-.45.005,2.914,2.914,0,0,1-.343-.03c-.189-.028-.295-.049-.295-.049s.108-.02.293-.048a7.633,7.633,0,0,0,.75-.157c.076-.015.151-.045.231-.07a2.159,2.159,0,0,0,.243-.083,3.848,3.848,0,0,0,.495-.227,3.14,3.14,0,0,0,.474-.319,2.767,2.767,0,0,0,.416-.412,3.13,3.13,0,0,0,.336-.484,4.444,4.444,0,0,0,.251-.524,6.138,6.138,0,0,0,.3-1.01A8.574,8.574,0,0,0,182.071,319.28Z" transform="translate(-160.141 -287.037)"/><path class="j" d="M153.209,392.612s-.647,4.775-1.756,5.453a4.448,4.448,0,0,1-2.434.986,6.852,6.852,0,0,1-4.18-1.478,6.122,6.122,0,0,0-3.994-1.663,5.922,5.922,0,0,0-3.459,1.262c-.755.536-2.449,2.033-4.683,1.878a3.707,3.707,0,0,1-3.506-2.69,31.663,31.663,0,0,1-.73-3.809,17.725,17.725,0,0,0,.031,3.142c.185,1.047.924,3.82,3.881,3.912a7.562,7.562,0,0,0,5.073-1.54,5.807,5.807,0,0,0,3.389.842,7,7,0,0,0,3.434-.862A7.349,7.349,0,0,0,149,399.635a4.148,4.148,0,0,0,4.056-3.316A15.708,15.708,0,0,0,153.209,392.612Zm-12.2,5.987a5.285,5.285,0,0,1-3.369-1.5,5.4,5.4,0,0,1,3.163-1.027,5.3,5.3,0,0,1,3.245,1.111,4.173,4.173,0,0,1-3.042,1.416Z" transform="translate(-115.44 -352.908)"/><path class="j" d="M224.34,454.32a3.232,3.232,0,0,0,2.793,1.263,3.882,3.882,0,0,0,2.972-1.187,4.775,4.775,0,0,1-2.942.786A3.966,3.966,0,0,1,224.34,454.32Z" transform="translate(-201.685 -408.44)"/><path class="j" d="M217.58,479.653a5.226,5.226,0,0,1,3.737-1.843,5.917,5.917,0,0,1,4.092,1.658,15.36,15.36,0,0,0-3.949-.427A9.848,9.848,0,0,0,217.58,479.653Z" transform="translate(-195.607 -429.557)"/><path class="j" d="M202.012,509.931c-.822.513-2.714,4.063-6.677,4.063s-6.634-3.9-7.045-3.984a2.8,2.8,0,0,1,1.931,1.01,7.749,7.749,0,0,0,5.093,2.156c2.013,0,4.19-1.828,4.909-2.424a3.108,3.108,0,0,1,1.361-.776A.924.924,0,0,1,202.012,509.931Z" transform="translate(-169.275 -458.428)"/><path class="j" d="M282.794,305.9a2.943,2.943,0,0,0,.349-2.157,2.614,2.614,0,0,0-.914-1.515,3.057,3.057,0,0,1,1.37.447c-.724-1.263-4.14-1.556-5.56-.478a2.729,2.729,0,0,0-.939,3.527,2.943,2.943,0,0,0,3.158,1.607,5.426,5.426,0,0,0,3.232-1.448,1.918,1.918,0,0,1,.944-.37A1.761,1.761,0,0,0,282.794,305.9Zm-.153-.524c-.2,1.027-1.889,1.971-3.409,1.643a2.611,2.611,0,0,1-1.992-3.286,2.912,2.912,0,0,1,4.252-1.375A2.624,2.624,0,0,1,282.641,305.377Z" transform="translate(-248.838 -271.084)"/><path class="j" d="M137.19,305.465a1.935,1.935,0,0,1,.944.37,5.453,5.453,0,0,0,3.232,1.448,2.943,2.943,0,0,0,3.158-1.607,2.733,2.733,0,0,0-.939-3.527c-1.417-1.079-4.837-.786-5.561.478a3.059,3.059,0,0,1,1.371-.447,2.615,2.615,0,0,0-.914,1.515,2.943,2.943,0,0,0,.349,2.157A1.783,1.783,0,0,0,137.19,305.465Zm2.947-3.152a2.913,2.913,0,0,1,4.252,1.375,2.611,2.611,0,0,1-1.992,3.286c-1.52.328-3.205-.616-3.407-1.643A2.626,2.626,0,0,1,140.137,302.313Z" transform="translate(-123.336 -271.04)"/><path class="j" d="M185.2,344.838a3.149,3.149,0,0,1,3.306-3.368c3.471,0,3.8,2.033,3.717,3.225,0,0,1.828-.616,2.525.226a1.7,1.7,0,0,1,.062,2.2l.288.185a1.757,1.757,0,0,0,.513-1.478c-.165-.841-.7-1.766-1.725-1.746a6.509,6.509,0,0,0-1.232.082s-.082-3.16-4.024-3.16-3.82,3.286-3.82,3.286a2.144,2.144,0,0,0-2.424,2.074s.144,1.253.576,1.273l.288-.1a2.033,2.033,0,0,1-.37-1.457A1.686,1.686,0,0,1,185.2,344.838Z" transform="translate(-163.971 -306.564)"/><path class="j" d="M188.5,395.861a4.269,4.269,0,0,1,3.388-.662,8.77,8.77,0,0,0,3.2.632c.983-.075,2.525-.739,3.619-.678a6.372,6.372,0,0,1,1.879.385s-.015.262-.062.293a5.072,5.072,0,0,0-1.741-.231,34.913,34.913,0,0,1-3.758.771c-1.17.031-2.7-.694-3.712-.847a6.308,6.308,0,0,0-2.711.661Z" transform="translate(-169.464 -355.156)"/><path class="k" d="M245.316,354a1.617,1.617,0,1,1-.734-1.759A1.38,1.38,0,0,1,245.316,354Z" transform="translate(-218.062 -316.409)"/><path class="j" d="M81.724,291.106c-.586-.339-2.557-.894-3.232.678s.277,3.511,1.079,4.436.986,1.2.986,1.2a3.206,3.206,0,0,0-.3,1.643,1.719,1.719,0,0,0,.965,1.468,2.29,2.29,0,0,1-.339-2.947s-.02,2.054.8,2l.421-.7.349.544-.934,1.828a1.748,1.748,0,0,1-1.695-1.119,6.056,6.056,0,0,1-.165-2.5,8.293,8.293,0,0,1-2.341-4.342c-.205-2.278,1.294-3.594,2.669-3.553a3.314,3.314,0,0,1,2.157.841,11.987,11.987,0,0,0-.606,2.02,2.444,2.444,0,0,0-1.387-.062c-.793.185-1.01,1.84-.5,2.98a2.894,2.894,0,0,1-.462-2.349,1.794,1.794,0,0,1,1.756-1.225l.393.085Z" transform="translate(-69.496 -260.49)"/><path class="j" d="M109.19,297.68a10.965,10.965,0,0,0-.534,5.647c.6,2.855,1.335,3.492,1.335,3.492l.473-.637a8.291,8.291,0,0,1-1.253-4.645,10.906,10.906,0,0,1,.657-3.676Z" transform="translate(-97.527 -267.618)"/><path class="j" d="M375.527,291.106c.586-.339,2.761-1.058,3.439.513s-.419,3.713-1.191,4.663c-.217.267-.862,1.129-.862,1.129a7.454,7.454,0,0,1,.084,1.653,1.717,1.717,0,0,1-.964,1.468,2.29,2.29,0,0,0,.338-2.947s.021,2.054-.8,2l-.421-.7-.348.544.934,1.828a1.748,1.748,0,0,0,1.695-1.119,6.046,6.046,0,0,0,.164-2.5,8.3,8.3,0,0,0,2.342-4.342c.206-2.278-1.295-3.594-2.67-3.553a3.309,3.309,0,0,0-2.156.841,12.089,12.089,0,0,1,.606,2.02,2.446,2.446,0,0,1,1.387-.062c.794.185,1.01,1.84.5,2.98a2.894,2.894,0,0,0,.462-2.349,1.793,1.793,0,0,0-1.755-1.225l-.393.085Z" transform="translate(-336.95 -260.49)"/><path class="j" d="M372.965,297.68a11.075,11.075,0,0,1,.409,5.524c-.6,2.855-1.581,3.677-1.581,3.677l-.473-.637a7.566,7.566,0,0,0,1.624-4.7,11.044,11.044,0,0,0-.656-3.676Z" transform="translate(-333.822 -267.618)"/><path class="j" d="M262.52,267.58c.493,1.232,1.684,3.018,3.535,2.9s3.512-1.129,4.908-1.375a5.926,5.926,0,0,1,2.177-.062l-.185-.678s-.924-.452-2.834.41a11.028,11.028,0,0,1-4.478,1.192,4.549,4.549,0,0,1-2.138-1.33C262.928,267.98,262.52,267.58,262.52,267.58Z" transform="translate(-236.009 -240.558)"/><path class="j" d="M141.34,267.58c-.493,1.232-1.684,3.018-3.535,2.9s-3.511-1.129-4.908-1.375a5.924,5.924,0,0,0-2.177-.062l.185-.678s.924-.452,2.834.41a11.028,11.028,0,0,0,4.478,1.192,4.507,4.507,0,0,0,2.136-1.335C140.928,267.97,141.34,267.58,141.34,267.58Z" transform="translate(-117.519 -240.558)"/><path class="j" d="M264.15,278.92a3.194,3.194,0,0,0,1.387,1.818,3.574,3.574,0,0,0,2.156.185,5.024,5.024,0,0,1-1.956-.493A3.965,3.965,0,0,1,264.15,278.92Z" transform="translate(-237.474 -250.753)"/><path class="j" d="M203.454,278.92a3.2,3.2,0,0,1-1.387,1.818,3.578,3.578,0,0,1-2.157.185,5.027,5.027,0,0,0,1.957-.493A3.957,3.957,0,0,0,203.454,278.92Z" transform="translate(-179.722 -250.753)"/><path class="l" d="M267.88,258.222s.432.215,2.323-.486,4.6-1.515,5.835-1.054a5.808,5.808,0,0,1,1.656,1.05,3.777,3.777,0,0,0-2.464.046,7.006,7.006,0,0,1,2.311.353c.817.37,1.247.571,1.247.571a2.708,2.708,0,0,0-1.414-1.941,4.655,4.655,0,0,0-3.666-.6c-1.678.354-4.039,1.17-4.683,1.294a6.936,6.936,0,0,1-1.925-.138Z" transform="translate(-240.126 -230.162)"/><path class="l" d="M126.072,258.222s-.431.215-2.323-.486-4.6-1.515-5.835-1.054a5.748,5.748,0,0,0-1.65,1.05,3.777,3.777,0,0,1,2.464.046,7,7,0,0,0-2.31.353c-.816.37-1.248.571-1.248.571a2.708,2.708,0,0,1,1.414-1.941,4.655,4.655,0,0,1,3.666-.6c1.678.354,4.039,1.17,4.683,1.294a6.945,6.945,0,0,0,1.926-.138Z" transform="translate(-103.539 -230.162)"/><path class="l" d="M276.092,275.82a2.583,2.583,0,0,1-2.156-.17,5.224,5.224,0,0,1-1.14-1l-.416.246s1.155,1.414,2.187,1.447A1.989,1.989,0,0,0,276.092,275.82Z" transform="translate(-244.873 -246.914)"/><path class="l" d="M189.19,275.82a2.585,2.585,0,0,0,2.157-.17,5.18,5.18,0,0,0,1.139-1l.416.246s-1.155,1.414-2.187,1.447A1.989,1.989,0,0,1,189.19,275.82Z" transform="translate(-170.084 -246.914)"/><path class="l" d="M156.48,402.7s-.678,3.779-2.67,4.458a5.126,5.126,0,0,1-4.948-1.13,6.856,6.856,0,0,0-4.272-1.6,8.394,8.394,0,0,0-4.746,1.868,4.9,4.9,0,0,1-4.783.928c-1.95-.572-2.567-4.581-2.567-4.581s-.268,3.406,2.012,4.985,5.607-.554,6.243-1.129a6.672,6.672,0,0,1,3.884-1.5c1.578,0,2.914,1.024,4.27,1.989s4.336,1.444,5.422.722a5.008,5.008,0,0,0,2.116-3.1A4.323,4.323,0,0,0,156.48,402.7Z" transform="translate(-119.105 -361.979)"/><path class="l" d="M163.33,402.392a7.787,7.787,0,0,0,3.636-.924,3.818,3.818,0,0,1,2.835.062,7.482,7.482,0,0,0,2.572.4,5.958,5.958,0,0,0,2.187-.4,3.553,3.553,0,0,1,3.333.078,5.047,5.047,0,0,0,3.018.778l-.3-.193a5.367,5.367,0,0,1-1.795-.707,4.225,4.225,0,0,0-3.481-.647,13.79,13.79,0,0,1-2.929.586c-1.08,0-3.389-.863-4.724-.74s-2.259,1.068-3,1.313S163.33,402.392,163.33,402.392Z" transform="translate(-146.836 -360.208)"/><path class="l" d="M272.41,401.553l.1-.022a2.981,2.981,0,0,1,.336-.048,3.31,3.31,0,0,1,1.159.116,6.129,6.129,0,0,1,1.429.627c.485.279.968.606,1.451.932.24.159.484.327.721.467a2.535,2.535,0,0,0,.744.263,3.731,3.731,0,0,0,1.445-.053,5.669,5.669,0,0,0,1-.319c.234-.1.362-.172.362-.172a3.967,3.967,0,0,1-.347.2,5.7,5.7,0,0,1-.981.4,3.891,3.891,0,0,1-1.508.174,2.76,2.76,0,0,1-.854-.229c-.269-.129-.516-.275-.773-.416-.5-.286-1.01-.573-1.493-.8a5.523,5.523,0,0,0-1.335-.468,2.6,2.6,0,0,0-.932-.022,1.85,1.85,0,0,0-.244.056l-.1.029Z" transform="translate(-244.9 -360.929)"/><path class="l" d="M152.217,402.27l-.1-.029a1.855,1.855,0,0,0-.244-.056,2.6,2.6,0,0,0-.932.022,5.525,5.525,0,0,0-1.335.468c-.482.228-.984.515-1.492.8-.258.141-.5.287-.773.416a2.766,2.766,0,0,1-.855.229,3.894,3.894,0,0,1-1.507-.172,5.706,5.706,0,0,1-.981-.4,3.97,3.97,0,0,1-.347-.2s.127.072.362.172a5.667,5.667,0,0,0,1,.319,3.736,3.736,0,0,0,1.445.052,2.535,2.535,0,0,0,.744-.263c.237-.139.481-.3.721-.467.483-.323.966-.653,1.451-.932a6.147,6.147,0,0,1,1.429-.627,3.31,3.31,0,0,1,1.159-.116,3.042,3.042,0,0,1,.337.048l.1.022Z" transform="translate(-129.143 -360.929)"/><path class="l" d="M141.015,418.778l.323.222c.1.051.214.116.36.18a3.162,3.162,0,0,0,.519.161,1.757,1.757,0,0,0,.31.052l.166.02h.172a2.544,2.544,0,0,0,.361-.007,3.067,3.067,0,0,0,.377-.042,3.108,3.108,0,0,0,.387-.075,3.712,3.712,0,0,0,.392-.108,5.827,5.827,0,0,0,.775-.3,7.375,7.375,0,0,0,.735-.4c.115-.078.23-.152.34-.232l.322-.245a7.014,7.014,0,0,1,.636-.446,6.126,6.126,0,0,1,.606-.335,5.258,5.258,0,0,1,.974-.359,2.593,2.593,0,0,1,.385-.075,2.655,2.655,0,0,0-.379.095,5.228,5.228,0,0,0-.944.4,5.989,5.989,0,0,0-.583.363,6.719,6.719,0,0,0-.606.472c-.1.088-.2.176-.312.266s-.222.172-.336.257a7.349,7.349,0,0,1-.736.455,6.172,6.172,0,0,1-.791.359,3.823,3.823,0,0,1-.4.135,3.714,3.714,0,0,1-.4.1,3.318,3.318,0,0,1-.4.067,2.738,2.738,0,0,1-.392.029l-.191.006-.185-.012a2.28,2.28,0,0,1-.35-.039,3.583,3.583,0,0,1-.606-.151c-.176-.066-.332-.144-.454-.2l-.335-.2Z" transform="translate(-126.527 -374.691)"/><path class="l" d="M286.417,419.281l-.334.2c-.123.058-.28.136-.455.2a3.561,3.561,0,0,1-.606.151,2.283,2.283,0,0,1-.35.039l-.185.012-.19-.006a2.739,2.739,0,0,1-.393-.029,3.323,3.323,0,0,1-.4-.067,3.714,3.714,0,0,1-.4-.1,3.823,3.823,0,0,1-.4-.135,6.171,6.171,0,0,1-.791-.359,7.468,7.468,0,0,1-.736-.455c-.113-.085-.227-.169-.336-.257s-.21-.178-.312-.266a6.724,6.724,0,0,0-.6-.472,5.994,5.994,0,0,0-.583-.363,5.251,5.251,0,0,0-.943-.4,2.682,2.682,0,0,0-.38-.095,2.594,2.594,0,0,1,.385.075,5.259,5.259,0,0,1,.974.359,6.018,6.018,0,0,1,.606.335,6.878,6.878,0,0,1,.636.446l.322.245c.111.08.226.155.34.232a7.377,7.377,0,0,0,.735.4,5.784,5.784,0,0,0,.776.3,3.68,3.68,0,0,0,.391.108,3.138,3.138,0,0,0,.387.075,3.073,3.073,0,0,0,.377.042,2.548,2.548,0,0,0,.361.007h.173l.165-.02a1.743,1.743,0,0,0,.31-.052,3.162,3.162,0,0,0,.519-.161c.145-.064.259-.128.361-.18l.323-.222Z" transform="translate(-249.935 -374.781)"/><path class="l" d="M321.861,425.612s-.07.043-.193.117a4.9,4.9,0,0,1-.564.278,4.727,4.727,0,0,1-1.818.373h-.252l-.249-.024c-.165-.012-.322-.056-.477-.08-.15-.044-.3-.078-.432-.126s-.262-.093-.374-.145l-.3-.146c-.09-.045-.163-.095-.225-.13l-.194-.115.2.1c.065.029.141.071.234.107l.313.116c.114.04.244.07.378.108s.281.054.428.082c.15.009.3.036.462.033h.237l.238-.018a4.4,4.4,0,0,0,1.652-.5,4.658,4.658,0,0,0,.479-.292c.114-.086.181-.134.181-.134Z" transform="translate(-284.789 -382.269)"/><path class="l" d="M135.906,425.15l.181.134a4.513,4.513,0,0,0,.478.292,4.407,4.407,0,0,0,1.652.5l.238.018h.242c.159,0,.312-.024.463-.033.148-.028.294-.047.429-.082s.263-.068.378-.108l.312-.116c.093-.036.17-.078.234-.107l.2-.1-.2.117c-.063.035-.135.085-.224.13l-.3.146c-.112.053-.24.094-.374.145s-.282.082-.432.126c-.154.024-.312.068-.477.08l-.248.024H138.2a4.728,4.728,0,0,1-1.818-.373,4.975,4.975,0,0,1-.564-.278c-.123-.074-.193-.117-.193-.117Z" transform="translate(-121.933 -382.215)"/><path class="m" d="M86.278,125.6l-.493-.092a3.681,3.681,0,0,1-.431,2.834,3.287,3.287,0,0,0-2.033-3.3,6.077,6.077,0,0,1,1.324,2.342c.308,1.263-.77,2.649-1.663,3.481s-4.56,1.032-4.847.954-.755-.754-1.079-1.093a8.011,8.011,0,0,0-2.02-1.8,19.479,19.479,0,0,0-5.188-2.146c-2.339-.616-5.094.37-6.038.616a7.939,7.939,0,0,1-3.491.165,14.506,14.506,0,0,0-6.942,1.56,14.322,14.322,0,0,0-3.04,2.96,6.888,6.888,0,0,1-2.835-.7,5.969,5.969,0,0,1-2.4-2.345,4.564,4.564,0,0,0,1.414,2.613s-1.786-.534-2.587-3.434a9.049,9.049,0,0,1,0-3.2s-.749.215-.565,2.742,1.139,4.621,3.727,5.36a8.93,8.93,0,0,0,3.881.462s-.185.123-.123,2.1a7.385,7.385,0,0,0,.987,3.419l.523-.493a11.2,11.2,0,0,1-.707-3.3l.585-.555a19.653,19.653,0,0,0,.771,3.667l.862-.123.739-.216a13.022,13.022,0,0,1-.894-4.467l.37-.246a15.68,15.68,0,0,0,1.171,4.9.779.779,0,0,0,.586-.083l.061.114.76-.011a33.245,33.245,0,0,1,7.473-1.232,22.517,22.517,0,0,1,5.655.411c.983.278,2.886.783,2.886.783s1.15.082,2.167.051a3.242,3.242,0,0,1,1.941.8,8.161,8.161,0,0,0,.646-2.157,22.5,22.5,0,0,0,.37-3.573,18.141,18.141,0,0,0,4.591-.771C87.973,130.895,86.278,125.6,86.278,125.6Zm-9.594,10.279-.411-.1.391-2.752-.74-.6-.5,3.059-.246-.083.468-3.224L74.308,130.9c-.143,1.684-.616,4.17-.616,4.17a14.935,14.935,0,0,0-5.976-.534,16.618,16.618,0,0,1,5.812,1.407l-.062.4a24.625,24.625,0,0,0-7.211-1.142,24.358,24.358,0,0,0-6.959,1.016c8.252-1.11,13.024,1.048,13.024,1.048a30.2,30.2,0,0,0-8.1-.986,23.973,23.973,0,0,0-8.014,1.4,21.9,21.9,0,0,1-1.135-5.525c3.361-2.28,7.889-1.7,7.889-1.7a10.283,10.283,0,0,0-8.041.894l-.185-.924a11.5,11.5,0,0,1,3.111-1.14,17.169,17.169,0,0,1,5.083-.195,7.276,7.276,0,0,0,2.054-.391,11.748,11.748,0,0,1,5.792.226,9.458,9.458,0,0,1,3.2,1.458l2.3,2.136.719.6a10.855,10.855,0,0,1-.308,2.753Z" transform="translate(-38.963 -112.386)"/><path class="m" d="M129.34,82.51a5.437,5.437,0,0,1,4.23,2.938,7.346,7.346,0,0,0-4.251-2.311Z" transform="translate(-116.26 -74.178)"/><path class="m" d="M300.721,51.108a6.506,6.506,0,0,0-.246-3.368l-.534.657A11.832,11.832,0,0,1,300.721,51.108Z" transform="translate(-269.65 -42.919)"/><path class="m" d="M377.47,104.355a4.124,4.124,0,0,0,3.543-1.34,8.543,8.543,0,0,1,4.39,1.14l.246-.062a7.765,7.765,0,0,0-3.03-1.51,5.178,5.178,0,0,0-2.511-.216A4.2,4.2,0,0,1,377.47,104.355Z" transform="translate(-339.35 -91.977)"/><path class="m" d="M367.66,50.18a3.545,3.545,0,0,1,2.146.707A3.311,3.311,0,0,1,370.022,55c-1.017,1.232-1.786,1.14-1.786,1.14a3.613,3.613,0,0,0,1.818-3.05,2.834,2.834,0,0,0-1.663-2.7Z" transform="translate(-330.531 -45.112)"/><path class="m" d="M148.345,24.688a5.927,5.927,0,0,1,2.013-4.58c2.279-2.2,6.362-1.911,7.886-1.273s3.163,1.991,3.512,3.471a8.431,8.431,0,0,0-7.722-2.626A7.3,7.3,0,0,0,148.345,24.688Z" transform="translate(-133.355 -16.519)"/><path class="m" d="M81.93,89.767s4.025-.493,6.387,1.438a4.409,4.409,0,0,0-1.684-1.5,6.6,6.6,0,0,1,4.333,1.541,7.318,7.318,0,0,0-4.354-2.259A10.02,10.02,0,0,0,81.93,89.767Z" transform="translate(-73.656 -79.971)"/><path class="m" d="M238.32,129.985s.248-.117.7-.277a16.115,16.115,0,0,1,1.919-.535c.4-.081.846-.166,1.318-.217a13.587,13.587,0,0,1,1.491-.1,13.271,13.271,0,0,1,1.6.064,12.228,12.228,0,0,1,1.636.287l.4.107.4.131c.267.08.52.195.776.3s.495.235.737.353c.232.137.465.268.685.41a6.9,6.9,0,0,1,.626.448c.195.16.387.314.56.478l.5.487.423.493c.139.155.246.324.36.475a4.44,4.44,0,0,1,.3.443c.169.291.333.532.437.749.215.43.33.678.33.678s-.155-.227-.413-.628c-.123-.2-.311-.426-.5-.693-.094-.135-.218-.263-.337-.4a5.005,5.005,0,0,0-.386-.434c-.147-.139-.29-.292-.443-.446l-.5-.443c-.176-.148-.372-.282-.562-.429s-.4-.268-.615-.4-.44-.245-.664-.37c-.236-.1-.468-.224-.707-.322a7.067,7.067,0,0,0-.743-.275l-.381-.121-.388-.1a11.669,11.669,0,0,0-1.568-.292,14.565,14.565,0,0,0-1.548-.1c-.5,0-.994,0-1.457.038s-.9.08-1.3.129c-.808.111-1.475.237-1.939.348l-.538.133Z" transform="translate(-214.253 -115.839)"/><path class="m" d="M118.9,135.789a19.035,19.035,0,0,0-1.949.122c-.29.033-.606.076-.932.127s-.673.119-1.026.2-.713.177-1.077.282a11.242,11.242,0,0,0-1.08.381c-.177.073-.355.142-.526.226s-.343.164-.5.253a10.065,10.065,0,0,0-.946.568c-.15.1-.285.212-.427.311s-.265.215-.393.319c-.244.22-.476.431-.671.645a4.014,4.014,0,0,0-.277.309c-.085.1-.169.2-.243.288-.137.192-.269.352-.365.494l-.3.449s.075-.182.215-.5c.074-.156.178-.339.295-.551a7.1,7.1,0,0,1,.458-.673,7,7,0,0,1,.635-.732c.125-.117.25-.244.386-.364s.281-.237.431-.349a8.342,8.342,0,0,1,.973-.633c.173-.1.349-.19.53-.274s.365-.167.549-.244a11.109,11.109,0,0,1,2.256-.631c.368-.067.726-.107,1.066-.135s.661-.04.958-.043A9.708,9.708,0,0,1,118.9,135.789Z" transform="translate(-97.255 -121.932)"/><path class="a" d="M147.986,346.235c-.224-.13-.463-.268-.733-.4a2.093,2.093,0,0,0,.107-2.323,2.361,2.361,0,0,0-2.688-1.057,3.37,3.37,0,0,0-.935-1.988,4.292,4.292,0,0,0-3.176-1.1,4.154,4.154,0,0,0-3.109,1.1,3.473,3.473,0,0,0-.93,2.13,2.209,2.209,0,0,0-2.2,1.233,2.251,2.251,0,0,0,.156,2.385l-.03.017a3.623,3.623,0,0,1-2.249.662,4.533,4.533,0,0,1-3.03-1.745l-.323-.443-.011.548c0,.137-.046,3.374,1.657,5.111a3.513,3.513,0,0,0,2.606,1.056,6.655,6.655,0,0,0,4.463-1.655l.225-.166a1.371,1.371,0,0,1,.8.448,3.527,3.527,0,0,0,2.541,1.028v.006h.258v-.006a3.527,3.527,0,0,0,2.541-1.028,1.389,1.389,0,0,1,.719-.447l.224.165a6.659,6.659,0,0,0,4.463,1.655,3.517,3.517,0,0,0,2.607-1.056c1.7-1.737,1.658-4.974,1.656-5.111l-.011-.548-.323.443a4.515,4.515,0,0,1-3.03,1.745A3.642,3.642,0,0,1,147.986,346.235ZM134.649,344a1.859,1.859,0,0,1,2.015-1.01l.229.046-.007-.233a3.141,3.141,0,0,1,.833-2.073,3.808,3.808,0,0,1,2.845-.988,3.953,3.953,0,0,1,2.906.987,3.045,3.045,0,0,1,.847,1.96v.251l.239-.074c.018-.006,1.8-.532,2.473.816a1.7,1.7,0,0,1-.122,2,5.451,5.451,0,0,0-.779-.246,3.875,3.875,0,0,0-.895-.106,5.93,5.93,0,0,0-1.818.361,6.076,6.076,0,0,1-4.409,0,5.882,5.882,0,0,0-1.818-.361,3.863,3.863,0,0,0-.894.106,5.656,5.656,0,0,0-1.509.6A1.91,1.91,0,0,1,134.649,344Zm8.947,5.69a3.127,3.127,0,0,1-2.339.909,3.09,3.09,0,0,1-2.34-.909,2.372,2.372,0,0,0-.616-.446,5.158,5.158,0,0,1,5.865.026A2.947,2.947,0,0,0,143.6,349.687Zm9.614-3.907a7.173,7.173,0,0,1-1.534,4.33,3.158,3.158,0,0,1-2.344.945,6.361,6.361,0,0,1-4.241-1.582,5.743,5.743,0,0,0-7.749,0,6.348,6.348,0,0,1-4.241,1.582,3.155,3.155,0,0,1-2.342-.944,7.2,7.2,0,0,1-1.539-4.331,4.524,4.524,0,0,0,2.96,1.488,3.977,3.977,0,0,0,2.451-.713,5.916,5.916,0,0,1,1.756-.756,3.478,3.478,0,0,1,.808-.1,5.583,5.583,0,0,1,1.7.343,6.43,6.43,0,0,0,4.63,0,5.571,5.571,0,0,1,1.7-.343,3.473,3.473,0,0,1,.808.1,5.916,5.916,0,0,1,1.756.756,3.98,3.98,0,0,0,2.452.713A4.515,4.515,0,0,0,153.21,345.78Z" transform="translate(-115.819 -305.098)"/><path class="a" d="M225.258,454.847a4.082,4.082,0,0,0,.95.312,4.67,4.67,0,0,0,.558.083c.193.02.384.022.584.027a4.384,4.384,0,0,0,.578-.03,4.644,4.644,0,0,0,.558-.082,4.353,4.353,0,0,0,.952-.3,3.213,3.213,0,0,0,.606-.353,1.429,1.429,0,0,0,.2-.174,2.27,2.27,0,0,1-.226.133,3.94,3.94,0,0,1-.634.263,5.933,5.933,0,0,1-.939.216c-.174.029-.357.044-.539.059s-.374.019-.566.022a4.626,4.626,0,0,1-.558-.019c-.183-.019-.366-.031-.539-.059a5.08,5.08,0,0,1-.934-.229,3.544,3.544,0,0,1-.622-.285,1.951,1.951,0,0,1-.218-.147,1.313,1.313,0,0,0,.19.186A3.046,3.046,0,0,0,225.258,454.847Z" transform="translate(-201.801 -408.404)"/><path class="a" d="M221.75,481.425a6.753,6.753,0,0,1,1.036-.414c.159-.049.331-.1.513-.143s.378-.081.578-.12l.3-.047c.1-.01.211-.021.317-.035.213-.019.43-.036.647-.035.113-.006.211-.009.326-.006s.227,0,.33.007.211.01.316.014l.311.024c.2.024.4.044.586.075s.361.066.522.1.3.079.435.119.24.081.331.117a2.707,2.707,0,0,1,.283.127,1.717,1.717,0,0,0-.234-.212,2.969,2.969,0,0,0-.3-.2,3.813,3.813,0,0,0-.423-.215,4.323,4.323,0,0,0-.528-.193,5.687,5.687,0,0,0-.606-.146,6.232,6.232,0,0,0-.669-.084c-.117-.011-.224-.01-.337-.016a3.353,3.353,0,0,0-.349,0c-.232.005-.465.03-.692.056a6.1,6.1,0,0,0-.658.128,5.124,5.124,0,0,0-1.111.427,3.946,3.946,0,0,0-.7.457A2.141,2.141,0,0,0,221.75,481.425Z" transform="translate(-199.356 -431.648)"/><path class="a" d="M201.27,510.09a3.259,3.259,0,0,0-.707.327,9.128,9.128,0,0,0-.83.567,15.366,15.366,0,0,1-2.034,1.368,6.172,6.172,0,0,1-1.255.49,5.245,5.245,0,0,1-.678.134,5.536,5.536,0,0,1-.7.048,5.466,5.466,0,0,1-1.376-.136,5.8,5.8,0,0,1-1.27-.448,8.486,8.486,0,0,1-1.1-.656c-.335-.236-.647-.475-.937-.7s-.564-.422-.818-.583a3.254,3.254,0,0,0-.7-.345,1.9,1.9,0,0,0-.494-.093H188.2l.174.024a2.039,2.039,0,0,1,.458.157,3.534,3.534,0,0,1,.629.4c.229.181.475.4.746.645a10.151,10.151,0,0,0,2.02,1.521,5.7,5.7,0,0,0,1.357.527,5.985,5.985,0,0,0,1.5.166,5.876,5.876,0,0,0,.751-.062,5.782,5.782,0,0,0,.727-.147,5.9,5.9,0,0,0,1.342-.566,8.249,8.249,0,0,0,1.1-.761c.332-.263.627-.529.9-.768s.523-.456.756-.63a3.676,3.676,0,0,1,.64-.392,2.157,2.157,0,0,1,.462-.15l.173-.023h-.176A1.918,1.918,0,0,0,201.27,510.09Z" transform="translate(-169.194 -458.506)"/><path class="a" d="M79.519,149l-.723.025a5.226,5.226,0,0,0-.722.062l-.72.1c-.24.035-.474.109-.707.163a5.294,5.294,0,0,0-.7.2l-.693.255-.667.3a2.688,2.688,0,0,0-.324.172l-.317.186a6.49,6.49,0,0,0-.614.4c-.1.072-.2.139-.3.214l-.283.235a6.65,6.65,0,0,0-.542.5c-.181.167-.337.357-.5.538a7.044,7.044,0,0,0-.449.587,5.392,5.392,0,0,0-.319.516l-.2-.008a3.038,3.038,0,0,1-.331-.02l-.329-.037a3.276,3.276,0,0,1-.328-.056c-.108-.024-.219-.038-.325-.07l-.321-.09c-.108-.026-.21-.072-.316-.1a3.319,3.319,0,0,1-.312-.12c-.1-.046-.2-.088-.3-.136l-.3-.154c-.1-.054-.195-.112-.293-.169s-.189-.122-.284-.183a6.628,6.628,0,0,1-.539-.413,5.454,5.454,0,0,1-.492-.475,4.942,4.942,0,0,0,.932,1.016c.091.073.177.15.272.218s.187.138.283.2a6.014,6.014,0,0,0,.606.352,3.505,3.505,0,0,0,.317.15c.108.044.212.1.324.135l.333.113c.111.038.227.061.34.092a3.337,3.337,0,0,0,.344.079l.348.059a3.416,3.416,0,0,0,.351.034l.352.025.124.008.075-.13a5.15,5.15,0,0,1,.374-.57c.134-.189.288-.364.435-.543a4.2,4.2,0,0,1,.482-.5,6.314,6.314,0,0,1,.519-.467l.269-.224c.091-.072.188-.136.282-.2a5.6,5.6,0,0,1,.581-.39c.2-.115.393-.252.606-.348l.626-.316.653-.259a6.172,6.172,0,0,1,.668-.225c.225-.064.447-.148.679-.195l.692-.148a5.146,5.146,0,0,1,.7-.114l.707-.1c.236-.028.475-.028.713-.043l.717-.046c-.238-.016-.478-.037-.717-.048S79.757,149,79.519,149Z" transform="translate(-59.56 -133.953)"/><path class="a" d="M394.318,127.3a3.076,3.076,0,0,0-.108-.48c-.053-.15-.111-.292-.171-.424a3.351,3.351,0,0,0-.428-.662,3.249,3.249,0,0,0-.416-.434,2.529,2.529,0,0,0-.419-.3,3.1,3.1,0,0,1,.349.373,4.068,4.068,0,0,1,.334.472,3.828,3.828,0,0,1,.321.663c.041.127.081.261.113.4a3.17,3.17,0,0,1,.061.436c0,.075.008.151.012.228a2.056,2.056,0,0,1-.015.234c-.005.079-.008.159-.021.238s-.031.159-.047.239a4.079,4.079,0,0,1-.341.958l-.054.12c-.008.016-.021.048-.024.05l-.034.061c-.047.076-.092.169-.14.231a3.5,3.5,0,0,1-.316.4,3.688,3.688,0,0,1-.8.667,5.427,5.427,0,0,1-.921.456,8.677,8.677,0,0,1-1.806.452,13.4,13.4,0,0,1-1.335.123c-.325.015-.513.012-.513.012a5.116,5.116,0,0,0,.5.086,8.247,8.247,0,0,0,1.365.061,7,7,0,0,0,1.925-.325,4.96,4.96,0,0,0,1.025-.461,4.151,4.151,0,0,0,.914-.741,3.988,3.988,0,0,0,.366-.485c.061-.087.095-.164.143-.246l.033-.06a.741.741,0,0,0,.035-.074l.058-.133a3.139,3.139,0,0,0,.2-.533,3.257,3.257,0,0,0,.13-.546c.014-.091.027-.182.04-.272a2.7,2.7,0,0,0,.008-.271c0-.089,0-.178-.005-.264S394.329,127.387,394.318,127.3Z" transform="translate(-348.458 -112.377)"/><path class="a" d="M367.888,50.261a4.486,4.486,0,0,1,.412.269l.211.177c.066.07.14.132.207.2a2.978,2.978,0,0,1,.361.5,2.9,2.9,0,0,1,.245.606,3.009,3.009,0,0,1,.075.327l.042.354.012.348c0,.116-.016.23-.022.344a3.492,3.492,0,0,1-.136.652,3.551,3.551,0,0,1-.247.578,4.4,4.4,0,0,1-.317.478c-.114.137-.224.262-.33.367a3.664,3.664,0,0,1-.288.259,3.019,3.019,0,0,1-.274.2,1.953,1.953,0,0,0,.325-.122,3.065,3.065,0,0,0,.353-.195l.2-.141c.07-.055.139-.116.214-.179a2.719,2.719,0,0,0,.215-.216,2.067,2.067,0,0,0,.2-.258,2.954,2.954,0,0,0,.345-.626,3.184,3.184,0,0,0,.2-.741c.011-.129.031-.261.034-.393V52.6l-.006-.046-.014-.092-.031-.175a3.443,3.443,0,0,0-.1-.391,2.715,2.715,0,0,0-.333-.707,2.6,2.6,0,0,0-.474-.544c-.086-.074-.177-.138-.262-.2l-.264-.156a2.938,2.938,0,0,0-.489-.2,2.822,2.822,0,0,0-.392-.094,1.9,1.9,0,0,0-.346-.031,2.962,2.962,0,0,1,.318.125C367.641,50.131,367.757,50.19,367.888,50.261Z" transform="translate(-330.136 -44.915)"/><path class="a" d="M159.788,23.6a6.873,6.873,0,0,1,1.471,1.292,4.941,4.941,0,0,1,.451.606,3.912,3.912,0,0,0-.376-.659,6.463,6.463,0,0,0-1.385-1.462,6.95,6.95,0,0,0-2.586-1.241,8.45,8.45,0,0,0-1.611-.235,9.475,9.475,0,0,0-1.678.068,7.759,7.759,0,0,0-1.638.414,6.643,6.643,0,0,0-3.389,2.881,6.261,6.261,0,0,0-.722,1.879,3.78,3.78,0,0,0-.071.557c0,.129-.005.2-.005.2a4.071,4.071,0,0,1,.17-.732,6.65,6.65,0,0,1,.872-1.752,7.441,7.441,0,0,1,.826-1,6.766,6.766,0,0,1,2.487-1.585,7.388,7.388,0,0,1,1.538-.374,8.959,8.959,0,0,1,1.594-.081,8.672,8.672,0,0,1,1.532.182,7.626,7.626,0,0,1,1.377.431A7.519,7.519,0,0,1,159.788,23.6Z" transform="translate(-133.279 -19.679)"/><path class="a" d="M77.855,14.9a5.867,5.867,0,0,0-.25-3.989,5.442,5.442,0,0,0-3.46-2.735c-4.461-1.436-6.579.774-7.223,1.667-.839-1.232-4.133-5.379-9.822-4.3-7.092,1.338-7.584,6.74-7.6,8.034A11.866,11.866,0,0,0,43.93,14.7h-.024v.007a6.311,6.311,0,0,0-1.315.933,5.574,5.574,0,0,0-1.731,4.275,5.905,5.905,0,0,0,1.781,4.531,8.7,8.7,0,0,0,5.829,1.888,12.214,12.214,0,0,0,.707,5.251,3.725,3.725,0,0,0-1.063,2.066.1.1,0,0,0,.136.112l.4-.148a3.806,3.806,0,0,0,.566-.268,5.763,5.763,0,0,1,.744-.361,9.3,9.3,0,0,0-.82,1.508A2.8,2.8,0,0,0,47,33.842a2.368,2.368,0,0,0-1.994,1.076,4.317,4.317,0,0,0-.455,3.691,14.562,14.562,0,0,0,2.1,3.506,3.9,3.9,0,0,0,.274,2.836,1.937,1.937,0,0,0,1.55.9,11.874,11.874,0,0,0-.569,3.636c0,5.339,6.541,11.788,14.663,11.788,8.292,0,14.294-7.286,14.294-12.2a7.616,7.616,0,0,0-.707-3.244,1.976,1.976,0,0,0,1.352-.886,3.891,3.891,0,0,0,.274-2.836,14.51,14.51,0,0,0,2.1-3.506,4.317,4.317,0,0,0-.455-3.691,2.354,2.354,0,0,0-1.994-1.076,2.8,2.8,0,0,0-2.129.647,9.742,9.742,0,0,0-.459-.979l.375.255a.329.329,0,0,0,.5-.378l-.159-.465a3.535,3.535,0,0,0-.74-1.139,15.143,15.143,0,0,0,.966-5.741c1.468.012,7.993-.242,8.633-5.439a4.432,4.432,0,0,0-1.026-3.7C81.774,15.14,78.857,14.924,77.855,14.9ZM48.925,27.364l.326-.281c.261-.224.631-.546,1.083-.923l.122-.1a23.819,23.819,0,0,0,.841,4.4,2.865,2.865,0,0,0-.707.192,5.072,5.072,0,0,0-1.016.591A11.605,11.605,0,0,1,48.925,27.364Zm.014-.636c.014-.27.032-.462.043-.554a10.86,10.86,0,0,1,1.365-1.454c.012.219.032.511.063.855-.117.088-.23.175-.337.259-.47.362-.853.67-1.123.884Zm23.395,2.887-.078-.033c.065-.293.134-.617.2-.958l.021.01c.286.145.555.288.808.422-.08.365-.151.667-.211.909-.227-.111-.477-.226-.742-.349Zm.345.882a4.011,4.011,0,0,0-.617-.076l.051-.219C72.312,30.305,72.5,30.4,72.679,30.5Zm-.054-2.168-.1-.04a32.194,32.194,0,0,0,.568-3.807l.266.289c.2.218.384.422.573.6-.064.487-.245,1.8-.512,3.075-.016.077-.032.15-.047.223-.231-.111-.484-.223-.745-.339Zm-.561-.235c-.318-.129-.645-.254-.979-.367-.268-.09-.538-.171-.808-.242s-.532-.135-.792-.183-.5-.095-.747-.132-.465-.061-.673-.088c-.417-.042-.765-.075-1.01-.087l-.384-.025.382.045c.243.026.589.078,1,.142.2.039.429.074.662.125s.481.1.732.171.51.143.771.224.52.178.778.281c.343.137.677.289,1,.444-.071.349-.142.681-.209.983l-.086-.036c-.217-.091-.448-.169-.682-.258s-.48-.166-.73-.243-.5-.162-.771-.223-.531-.141-.808-.2l-.833-.163c-.28-.055-.567-.082-.851-.124s-.572-.08-.86-.1l-.862-.07c-.287-.013-.573-.016-.856-.025-.568-.027-1.125,0-1.664.011s-1.058.064-1.551.094-.955.09-1.384.141-.82.089-1.164.151l-.893.147-.778.128.783-.1.9-.111c.345-.048.74-.065,1.167-.1s.891-.078,1.383-.086,1.01-.05,1.543-.03,1.089.005,1.648.056c.28.019.562.034.844.059l.846.1c.283.028.563.077.841.128s.556.091.828.157l.808.191c.265.065.521.151.776.223s.5.16.74.246.476.166.7.265.443.18.65.276l.185.088-.1.433c-.263.009-.537.033-.819.071-.346-.139-.707-.269-1.076-.378a27.663,27.663,0,0,0-7.328-.874c-.82,0-1.616.028-2.371.084A21.874,21.874,0,0,0,53.777,30.6l-.094-.019a23.3,23.3,0,0,1-1.343-5.961c.163-.111.328-.22.5-.323s.327-.2.5-.29.338-.192.516-.269.351-.169.531-.24l.54-.207a9.958,9.958,0,0,1,1.084-.3,10.347,10.347,0,0,1,1.04-.183c.333-.047.652-.056.945-.083s.564-.01.8-.015.447.014.619.018l.54.024-.538-.045c-.172-.01-.38-.041-.62-.042s-.511-.017-.808-.016a9.421,9.421,0,0,0-.954.046,9.929,9.929,0,0,0-1.059.143,10.216,10.216,0,0,0-1.111.265l-.567.191c-.187.066-.368.149-.551.224s-.362.167-.539.253-.354.177-.522.278c-.133.073-.262.15-.389.228-.043-.439-.068-.773-.08-.945a10.393,10.393,0,0,1,3.809-1.444,16.6,16.6,0,0,1,4.741-.118,2.756,2.756,0,0,0,1.345-.151,9.119,9.119,0,0,1,5.239-.227A10.345,10.345,0,0,1,72.629,24,28.141,28.141,0,0,1,72.064,28.094ZM53.4,30.54a8.935,8.935,0,0,0-1.4-.128,1.919,1.919,0,0,0-.2.007,24.157,24.157,0,0,1-.884-4.737c.05-.04.1-.08.149-.12.26-.213.545-.42.838-.64.067-.047.137-.095.2-.142A24.537,24.537,0,0,0,53.4,30.54Zm-1.687-5.9c-.291.2-.575.393-.834.588-.036-.459-.053-.785-.058-.909a12.852,12.852,0,0,1,1.166-.845c.015.21.041.533.083.94ZM48.7,33.08h0a3.717,3.717,0,0,1,2.084-1.973,3.045,3.045,0,0,1,1.212-.2,20.418,20.418,0,0,1,5.719,1.355,3.243,3.243,0,0,0,1.094.2,1.914,1.914,0,0,0,.919-.2h0c-.047.074-1.162,1.769-2.592,1.769a1.8,1.8,0,0,1-.416-.049c-.8-.195-1.694-.514-2.558-.823a26.613,26.613,0,0,0-2.694-.859,1.919,1.919,0,0,0-.446-.049,4.935,4.935,0,0,0-2.317.827ZM47.32,44.664a3.668,3.668,0,0,1-.169-2.543L47.186,42l-.082-.1a14.71,14.71,0,0,1-2.094-3.461,3.8,3.8,0,0,1,.4-3.239A1.9,1.9,0,0,1,47,34.331c1.493,0,1.836.518,1.912.7a11.036,11.036,0,0,0-.345,1.1l-.078-.018a2.833,2.833,0,0,0-.289-.031,2.383,2.383,0,0,0-.356.025,2.047,2.047,0,0,0-.4.113,1.03,1.03,0,0,0-.2.094,1.766,1.766,0,0,0-.2.12l-.19.148-.17.178a1.776,1.776,0,0,0-.144.2,1.055,1.055,0,0,0-.117.218,2.108,2.108,0,0,0-.148.465,2.4,2.4,0,0,0-.023.463c0,.075.01.147.015.219a1.488,1.488,0,0,0,.04.2c.013.064.027.13.04.192a1.386,1.386,0,0,0,.06.173c.04.11.071.213.11.3l.108.22.093.19-.074-.2-.085-.226c-.03-.089-.049-.193-.079-.3-.012-.056-.03-.113-.04-.174s-.013-.123-.02-.188-.018-.13-.019-.2A1.765,1.765,0,0,1,46.4,38.1a2.247,2.247,0,0,1,.063-.42,1.833,1.833,0,0,1,.172-.395.824.824,0,0,1,.118-.176,1.492,1.492,0,0,1,.139-.158l.155-.134.17-.1a1.231,1.231,0,0,1,.174-.082.738.738,0,0,1,.172-.06,1.616,1.616,0,0,1,.326-.059,2.069,2.069,0,0,1,.272.008c.075.017.129.017.192.037l.095.033a10.844,10.844,0,0,0-.258,2.336c0,2.915.9,4.31,1.252,4.746-.075.121-.184.309-.3.553a.909.909,0,0,1-.116,0,.606.606,0,0,1-.148-.01.917.917,0,0,1-.174-.041.808.808,0,0,1-.174-.094.757.757,0,0,1-.159-.153.955.955,0,0,1-.129-.2,2.469,2.469,0,0,1-.2-.938c0-.135-.006-.249,0-.328a.673.673,0,0,0,0-.125s-.009.044-.024.123-.035.19-.054.327A2.62,2.62,0,0,0,48,43.822a1.267,1.267,0,0,0,.114.278,1.1,1.1,0,0,0,.18.244,1.147,1.147,0,0,0,.23.182,1.237,1.237,0,0,0,.238.1,1.081,1.081,0,0,0,.158.038c-.092.2-.187.431-.28.682a1.384,1.384,0,0,1-1.321-.684ZM77.431,34.333a1.9,1.9,0,0,1,1.591.865,3.769,3.769,0,0,1,.4,3.239A14.711,14.711,0,0,1,77.323,41.9l-.082.1.035.124a3.687,3.687,0,0,1-.17,2.543,1.463,1.463,0,0,1-1.19.695,7.818,7.818,0,0,0-.451-.72.051.051,0,0,0,.033-.008,1.092,1.092,0,0,0,.47-.287,1.064,1.064,0,0,0,.179-.244,1.272,1.272,0,0,0,.115-.278,2.62,2.62,0,0,0,.045-1.029c-.018-.137-.037-.249-.054-.327s-.024-.123-.024-.123V42.8a2.469,2.469,0,0,1-.2.938.951.951,0,0,1-.128.2.783.783,0,0,1-.159.154.818.818,0,0,1-.175.094.883.883,0,0,1-.174.041.606.606,0,0,1-.148.01h-.094a6.434,6.434,0,0,0-.707-.743,9.508,9.508,0,0,0,1.6-5.257,9.8,9.8,0,0,0-.143-1.664l.018-.006c.063-.02.116-.02.192-.037a2.069,2.069,0,0,1,.272-.008,1.592,1.592,0,0,1,.325.059.729.729,0,0,1,.173.06,1.231,1.231,0,0,1,.174.082l.17.1c.05.044.1.09.155.134a1.377,1.377,0,0,1,.138.158.828.828,0,0,1,.119.176,1.884,1.884,0,0,1,.172.395,2.246,2.246,0,0,1,.063.42c0,.071.005.139.007.207a1.729,1.729,0,0,1-.019.2c-.006.069-.014.127-.021.188a1.749,1.749,0,0,1-.039.174c-.029.11-.048.214-.079.3s-.062.164-.085.226l-.074.2s.033-.07.093-.19l.108-.22c.039-.085.07-.188.11-.3.018-.055.042-.112.059-.173l.041-.192c.013-.066.031-.133.04-.2s.009-.144.014-.219A2.4,2.4,0,0,0,78,37.644a2.108,2.108,0,0,0-.148-.465,1.056,1.056,0,0,0-.116-.22,1.785,1.785,0,0,0-.145-.2l-.169-.178-.191-.145a1.692,1.692,0,0,0-.2-.12,1.049,1.049,0,0,0-.2-.094,2.057,2.057,0,0,0-.4-.113,2.365,2.365,0,0,0-.356-.025c-.1.009-.2.015-.266.027a10.231,10.231,0,0,0-.293-1.053C75.569,34.892,75.879,34.333,77.431,34.333Zm-1.884,3.9a8.988,8.988,0,0,1-1.5,4.967c-.052-.036-.111-.075-.183-.119a9.43,9.43,0,0,0-.92-.528,7.506,7.506,0,0,0-.968-.4,3.894,3.894,0,0,0-.457-.126,3.749,3.749,0,0,1,.427.2,7.372,7.372,0,0,1,.872.548,9.24,9.24,0,0,1,.792.645c.1.089.188.175.248.231l.094.089h0c.007.007.011.016.02.022a6.873,6.873,0,0,1,2.389,5.335c0,2.369-1.5,5.276-3.913,7.585A14.325,14.325,0,0,1,62.563,60.8c-7.85,0-14.17-6.179-14.17-11.3A10.831,10.831,0,0,1,49.95,43.81h0l.119-.173-.005-.033c.035-.064.077-.135.128-.216a7.992,7.992,0,0,1,.583-.831,8.423,8.423,0,0,1,.687-.764,4.5,4.5,0,0,1,.347-.317s-.165.094-.4.258a8.717,8.717,0,0,0-.817.654,8.5,8.5,0,0,0-.74.757c-.039.044-.072.083-.1.12a7.285,7.285,0,0,1-1.065-4.336A10.513,10.513,0,0,1,50.4,33.215a4.372,4.372,0,0,1,.5-.464c.043,0,.086-.009.128-.009a1.44,1.44,0,0,1,.333.036,26.519,26.519,0,0,1,2.64.848,27.1,27.1,0,0,0,2.606.837,2.244,2.244,0,0,0,.532.064c1.695,0,2.954-1.913,3.006-1.994l.371-.574a.327.327,0,0,0-.438-.462l-.592.34a1.534,1.534,0,0,1-.676.132,2.754,2.754,0,0,1-.927-.175,32.533,32.533,0,0,0-3.181-.988A22.235,22.235,0,0,1,60,29.813c.741-.056,1.527-.083,2.335-.083a27.177,27.177,0,0,1,7.188.853c.077.023.151.048.227.073A29.63,29.63,0,0,0,65.9,31.8a2.754,2.754,0,0,1-.927.175,1.57,1.57,0,0,1-.669-.127l-.612-.367a.327.327,0,0,0-.443.459l.388.6c.053.081,1.313,1.993,3.006,1.993a2.235,2.235,0,0,0,.531-.064c.827-.2,1.732-.524,2.606-.837a26.25,26.25,0,0,1,2.643-.844,1.446,1.446,0,0,1,.333-.036,3.223,3.223,0,0,1,1.219.3A9.527,9.527,0,0,1,75.547,38.234Zm-.456-5.15a4.912,4.912,0,0,0-2.323-.827,1.919,1.919,0,0,0-.446.049,26.651,26.651,0,0,0-2.7.859,26.706,26.706,0,0,1-2.557.823,1.8,1.8,0,0,1-.415.049c-1.429,0-2.546-1.7-2.593-1.769h0a1.948,1.948,0,0,0,.922.2,3.248,3.248,0,0,0,1.094-.2,20.409,20.409,0,0,1,5.718-1.355,3.05,3.05,0,0,1,1.212.2A3.7,3.7,0,0,1,75.09,33.08Zm-.472-2.3-.4-.219c-.223-.119-.492-.266-.808-.424l-.157-.08q.09-.361.211-.9l.284.152,1.116.606C74.782,30.206,74.7,30.5,74.619,30.779Zm.359-1.354-1.046-.492-.384-.18c.018-.086.037-.174.057-.266.247-1.183.423-2.4.5-2.964a1.982,1.982,0,0,0,1.182.512,10.88,10.88,0,0,1-.306,3.384Zm8.95-8.878c-.276,2.24-1.759,3.762-4.407,4.524a13.668,13.668,0,0,1-4,.477l-.3-.017h0c-.579-.08-.953-.5-1.493-1.091a10.594,10.594,0,0,0-6.261-3.535,9.629,9.629,0,0,0-5.523.245,2.251,2.251,0,0,1-1.1.124,17.149,17.149,0,0,0-4.885.119,12.368,12.368,0,0,0-7.337,4.443c-.606.023-3.705.048-5.645-1.751a5.427,5.427,0,0,1-1.624-4.17A5.1,5.1,0,0,1,42.917,16a5.717,5.717,0,0,1,1.206-.846l.21-.055c.1-.026.229-.062.37-.09s.3-.068.478-.1.369-.069.573-.091.421-.055.645-.067.456-.024.693-.029a5.5,5.5,0,0,1,.716.026c.239.026.478.048.713.084a4.97,4.97,0,0,1,.68.148c.217.065.425.127.621.2s.376.151.538.231a3.8,3.8,0,0,1,.435.237c.123.083.239.14.323.2l.272.2-.259-.213c-.08-.072-.191-.141-.311-.228s-.268-.171-.425-.267a5.622,5.622,0,0,0-.53-.27,5.346,5.346,0,0,0-.62-.24c-.216-.07-.45-.134-.686-.195a5.919,5.919,0,0,0-.725-.132c-.245-.031-.491-.055-.734-.075a6.312,6.312,0,0,0-.715-.015c-.1,0-.208,0-.309.007a13.128,13.128,0,0,1,3.652-.344l.287.021h0l.167.01.3.045a3.159,3.159,0,0,1,.354.075l.195.046.2.066a3.684,3.684,0,0,1,.415.151c.141.053.28.12.418.187s.272.144.4.216.259.156.381.234c.242.162.464.322.643.471a5.981,5.981,0,0,1,.58.524,5.837,5.837,0,0,0-.528-.581,7.659,7.659,0,0,0-.606-.54c-.116-.092-.237-.185-.365-.277a4.267,4.267,0,0,0-.4-.263c-.139-.079-.272-.168-.413-.237a4.174,4.174,0,0,0-.419-.2l-.2-.089-.2-.071a3.164,3.164,0,0,0-.37-.126l-.331-.083-.244-.04h0c-.018-1.082.263-6.288,7.2-7.6,6.276-1.184,9.485,4.342,9.516,4.4l.227.4.006-.013a9.27,9.27,0,0,1,.444.861,5.865,5.865,0,0,1,.333.924,2.6,2.6,0,0,1,.084.444,2.654,2.654,0,0,0-.007-.457,6.113,6.113,0,0,0-.181-1,9.822,9.822,0,0,0-.308-.971c-.046-.124-.087-.225-.115-.3.32-.543,2.147-3.169,6.8-1.668a5.008,5.008,0,0,1,3.167,2.476,5.591,5.591,0,0,1,.129,3.938l-.128.343c-.021.041-.041.082-.065.129a1.514,1.514,0,0,1-.125.211,1.716,1.716,0,0,1-.166.226,2.231,2.231,0,0,1-.2.226c-.069.078-.155.142-.233.215a4.091,4.091,0,0,1-.518.366,4.767,4.767,0,0,1-.5.26,4.032,4.032,0,0,1-.515.195,4.039,4.039,0,0,0,.541-.123,4.752,4.752,0,0,0,.54-.193,4.151,4.151,0,0,0,.591-.3c.095-.065.195-.121.282-.194a2.563,2.563,0,0,0,.257-.216,2.113,2.113,0,0,0,.221-.226,1.937,1.937,0,0,0,.181-.227l.142-.212c.028-.056.054-.1.075-.143.691,0,3.781.117,5.358,1.842a3.949,3.949,0,0,1,.9,3.3Z" transform="translate(-36.734 -4.825)"/><path class="a" d="M258.431,143.014a9.319,9.319,0,0,0-.7-.623c-.132-.109-.272-.221-.422-.33s-.3-.222-.471-.329-.334-.22-.513-.325-.363-.21-.554-.309-.387-.2-.591-.289l-.3-.14-.319-.122c-.215-.085-.43-.164-.644-.227l-.322-.1-.081-.026-.091-.024-.167-.045a11.964,11.964,0,0,0-1.354-.257,10.914,10.914,0,0,0-1.328-.089,11.6,11.6,0,0,0-2.339.217,10.555,10.555,0,0,0-1.6.437,5.763,5.763,0,0,0-.578.239,13.739,13.739,0,0,1,2.216-.4,15.174,15.174,0,0,1,2.284-.063c.417.018.845.067,1.277.126a11.4,11.4,0,0,1,1.295.264l.161.04.074.019.081.025.324.1c.107.033.217.064.321.1l.3.112q.3.107.606.235c.2.08.393.165.58.258s.373.18.55.275.352.184.517.283.326.192.479.289.3.19.439.285c.278.189.527.372.743.539s.4.32.55.448c.3.259.458.421.458.421a5.25,5.25,0,0,0-.389-.49C258.794,143.386,258.632,143.206,258.431,143.014Z" transform="translate(-221.211 -125.66)"/><path class="a" d="M100.507,325.685c-.026-.074-.044-.157-.07-.241s-.045-.177-.068-.271-.039-.192-.061-.291-.03-.2-.046-.3a2.193,2.193,0,0,1-.027-.3c0-.1-.011-.2-.008-.295a2.659,2.659,0,0,1,.047-.519,1.828,1.828,0,0,1,.052-.2.752.752,0,0,1,.069-.142.447.447,0,0,1,.093-.108l-.032.018a.25.25,0,0,0-.086.066.7.7,0,0,0-.1.137,1.1,1.1,0,0,0-.092.2,1.7,1.7,0,0,0-.07.252,2.3,2.3,0,0,0-.038.289,2.424,2.424,0,0,0-.007.31c0,.106.014.212.022.319a2.022,2.022,0,0,0,.055.314,2.94,2.94,0,0,0,.078.3,3.324,3.324,0,0,0,.2.5,3.062,3.062,0,0,0,.186.336c.049.079.079.122.079.122s-.015-.052-.046-.138S100.559,325.837,100.507,325.685Z" transform="translate(-89.955 -290.39)"/><path class="a" d="M397.506,323.676a1.7,1.7,0,0,0-.069-.252,1.258,1.258,0,0,0-.092-.2.736.736,0,0,0-.1-.137.25.25,0,0,0-.086-.066l-.032-.018a.46.46,0,0,1,.092.108.694.694,0,0,1,.069.142,1.616,1.616,0,0,1,.053.2,2.829,2.829,0,0,1,.047.519c0,.1,0,.195-.008.295s-.018.2-.028.3a2.617,2.617,0,0,1-.046.3c-.022.1-.033.2-.06.291s-.041.186-.068.271-.044.168-.07.241c-.047.148-.085.274-.12.359a.851.851,0,0,0-.046.138s.03-.043.079-.122a2.9,2.9,0,0,0,.186-.336,3.323,3.323,0,0,0,.2-.5,2.941,2.941,0,0,0,.078-.3c.024-.1.036-.209.055-.314a1.989,1.989,0,0,0,.022-.319,2.417,2.417,0,0,0-.008-.31A2.121,2.121,0,0,0,397.506,323.676Z" transform="translate(-356.854 -290.381)"/><path class="a" d="M284.97,307.126a1.752,1.752,0,0,0-.269.122c-.19.1-.4.247-.617.394-.112.072-.226.147-.346.215s-.245.131-.37.194l-.2.087a2.668,2.668,0,0,0,1.051-2.092,2.762,2.762,0,0,0-1.767-2.513h.331a5.427,5.427,0,0,1,.572.045,4.542,4.542,0,0,1,.492.095,2.989,2.989,0,0,1,.338.112l.126.049-.12-.065a2.851,2.851,0,0,0-.326-.151,4.445,4.445,0,0,0-.488-.156c-.182-.046-.379-.085-.577-.115a8.159,8.159,0,0,0-1.1-.078c-.251,0-.435.011-.49.014a2.77,2.77,0,1,0,.006,5.52h.013a3.2,3.2,0,0,0,.5-.042c.068-.009.139-.021.217-.031a2.873,2.873,0,0,0,.35-.068,3.562,3.562,0,0,0,.382-.1,3.251,3.251,0,0,0,.395-.15,4.218,4.218,0,0,0,.39-.192c.124-.076.25-.148.366-.232s.227-.165.333-.246c.211-.166.4-.323.579-.439a1.689,1.689,0,0,1,.251-.139,2.058,2.058,0,0,1,.209-.074l.194-.026-.2.011A1.766,1.766,0,0,0,284.97,307.126Zm-3.76-3.471a2.523,2.523,0,0,1,2.634,2.39,2.245,2.245,0,0,1-.606,1.521,2.525,2.525,0,0,0,.142-.831,2.874,2.874,0,0,0-2.988-2.741,3.268,3.268,0,0,0-.658.072A2.8,2.8,0,0,1,281.21,303.655Zm1.57,4.3a2.79,2.79,0,0,1-1.57.477,2.943,2.943,0,0,1-.554-.055,1.322,1.322,0,0,0,1.063-1.252,1.36,1.36,0,0,0-1.414-1.295,1.476,1.476,0,0,0-1.052.429.749.749,0,0,1,.082-.007.523.523,0,1,1,0,1.041.586.586,0,0,1-.444-.2v.07a2.208,2.208,0,0,1-.31-1.123,2.254,2.254,0,0,1,.639-1.556,2.971,2.971,0,0,1,1.179-.248,2.628,2.628,0,0,1,2.742,2.494A2.307,2.307,0,0,1,282.781,307.959Z" transform="translate(-250.114 -272.644)"/><path class="a" d="M328.206,309.453a2,2,0,0,0-.192-.272,2.74,2.74,0,0,0-.2-.22,2.57,2.57,0,0,0-.339-.283,1.5,1.5,0,0,0-.142-.089,3.068,3.068,0,0,1,.431.419,3,3,0,0,1,.348.5,2.059,2.059,0,0,1,.146.308,1.949,1.949,0,0,1,.1.336,3.217,3.217,0,0,1,.076.692,3.482,3.482,0,0,1-.044.606,2.6,2.6,0,0,1-.157.58,2,2,0,0,0,.224-.566,2.846,2.846,0,0,0,.084-.622,3.332,3.332,0,0,0-.063-.719,1.992,1.992,0,0,0-.113-.352A2.138,2.138,0,0,0,328.206,309.453Z" transform="translate(-294.274 -277.427)"/><path class="a" d="M142.083,307.947c.115.084.241.157.365.232a2.373,2.373,0,0,0,.391.192,3.258,3.258,0,0,0,.395.15,3.56,3.56,0,0,0,.382.1,2.878,2.878,0,0,0,.35.068c.078.01.149.022.216.031a3.21,3.21,0,0,0,.5.042h.014a2.77,2.77,0,1,0,.005-5.52c-.055,0-.238-.015-.489-.014a8.169,8.169,0,0,0-1.1.078,5.827,5.827,0,0,0-.577.115,4.374,4.374,0,0,0-.488.156,2.878,2.878,0,0,0-.327.151l-.119.065.126-.049a2.988,2.988,0,0,1,.338-.112,4.541,4.541,0,0,1,.492-.095,5.433,5.433,0,0,1,.571-.045h.332A2.762,2.762,0,0,0,141.687,306a2.67,2.67,0,0,0,1.05,2.092l-.2-.087c-.123-.063-.25-.122-.369-.194s-.234-.143-.346-.215c-.221-.146-.428-.29-.617-.394a1.753,1.753,0,0,0-.269-.122,1.819,1.819,0,0,0-.219-.057l-.2-.011.193.026a2.07,2.07,0,0,1,.21.074,1.69,1.69,0,0,1,.251.139c.176.116.368.274.578.439C141.857,307.782,141.966,307.867,142.083,307.947Zm5.242-1.938a2.2,2.2,0,0,1-.311,1.123v-.07a.587.587,0,0,1-.445.2.523.523,0,1,1,0-1.041.713.713,0,0,1,.082.007,1.473,1.473,0,0,0-1.052-.429,1.357,1.357,0,0,0-1.414,1.295,1.317,1.317,0,0,0,1.063,1.252,2.938,2.938,0,0,1-.554.055,2.793,2.793,0,0,1-1.571-.477,2.306,2.306,0,0,1-.354-1.224,2.63,2.63,0,0,1,2.742-2.494,2.954,2.954,0,0,1,1.179.248,2.254,2.254,0,0,1,.638,1.553Zm-4.665,1.521a2.251,2.251,0,0,1-.606-1.521,2.524,2.524,0,0,1,2.635-2.39,2.807,2.807,0,0,1,1.474.411,3.269,3.269,0,0,0-.658-.072,2.875,2.875,0,0,0-2.988,2.741,2.524,2.524,0,0,0,.144.831Z" transform="translate(-126.329 -272.607)"/><path class="a" d="M150.808,312.059a2.6,2.6,0,0,1-.157-.58,3.581,3.581,0,0,1-.045-.606,3.284,3.284,0,0,1,.077-.692,1.945,1.945,0,0,1,.1-.336,2.052,2.052,0,0,1,.145-.308,2.942,2.942,0,0,1,.349-.5,3.027,3.027,0,0,1,.43-.419,1.574,1.574,0,0,0-.141.089,2.616,2.616,0,0,0-.538.5,2,2,0,0,0-.192.272,2.142,2.142,0,0,0-.161.319,2.076,2.076,0,0,0-.112.352,3.268,3.268,0,0,0-.063.719,2.844,2.844,0,0,0,.084.622A2,2,0,0,0,150.808,312.059Z" transform="translate(-135.302 -277.453)"/><path class="a" d="M273.416,328.061l-.039-.261-.025-.23-.011.231a3.87,3.87,0,0,0,.048.614,3.469,3.469,0,0,0,.087.4,3.117,3.117,0,0,0,.147.439,3.064,3.064,0,0,0,.228.442,1.637,1.637,0,0,0,.144.212,1.947,1.947,0,0,0,.163.2l.182.186c.065.057.134.109.2.163a1.165,1.165,0,0,0,.21.142c.073.041.142.086.214.123a3.212,3.212,0,0,0,.838.259c.127.018.243.03.346.04h.268l.231-.005-.229-.03-.263-.031c-.1-.024-.21-.051-.332-.075a3.188,3.188,0,0,1-.382-.118c-.135-.041-.262-.124-.4-.183a3.38,3.38,0,0,1-.39-.263c-.061-.052-.125-.1-.186-.154l-.168-.177a1.715,1.715,0,0,1-.155-.188,1.556,1.556,0,0,1-.139-.2c-.04-.07-.087-.135-.124-.2s-.072-.139-.106-.208a4.434,4.434,0,0,1-.168-.413,3.6,3.6,0,0,1-.114-.385C273.458,328.274,273.44,328.161,273.416,328.061Z" transform="translate(-245.736 -294.49)"/><path class="a" d="M187.293,328.052c-.024.1-.041.213-.074.333a3.573,3.573,0,0,1-.113.385c-.042.136-.108.272-.168.413l-.106.208c-.037.07-.084.135-.124.2a1.557,1.557,0,0,1-.139.2,1.724,1.724,0,0,1-.156.188l-.168.177c-.061.053-.124.1-.186.153a3.292,3.292,0,0,1-.39.263c-.14.059-.268.141-.4.183a3.194,3.194,0,0,1-.382.118c-.121.024-.233.05-.332.075l-.262.031-.23.03.232.005h.267c.1-.01.219-.022.345-.04a3.178,3.178,0,0,0,.4-.093,3.1,3.1,0,0,0,.435-.166c.072-.037.141-.082.214-.123a1.194,1.194,0,0,0,.209-.142c.067-.054.135-.1.2-.163l.181-.186a1.824,1.824,0,0,0,.163-.2,1.645,1.645,0,0,0,.145-.212,3.171,3.171,0,0,0,.228-.442,3.255,3.255,0,0,0,.147-.439,3.687,3.687,0,0,0,.087-.4,3.85,3.85,0,0,0,.047-.614l-.011-.231s-.009.084-.024.23C187.322,327.864,187.308,327.952,187.293,328.052Z" transform="translate(-165.472 -294.481)"/><path class="a" d="M249.254,347.734c.083.029.175.054.268.089s.192.072.292.114.2.1.3.141a1.862,1.862,0,0,1,.29.176,2.057,2.057,0,0,1,.268.2l.124.109c.039.038.073.081.108.119l.1.117.085.123a1.357,1.357,0,0,1,.145.236c.037.077.082.145.111.211s.046.125.065.174c.037.1.063.152.063.152a1.2,1.2,0,0,0-.016-.164c-.006-.053-.014-.117-.024-.191a2.183,2.183,0,0,0-.068-.24c-.015-.043-.028-.091-.046-.136s-.047-.09-.072-.137l-.077-.145c-.031-.046-.068-.091-.1-.137a1.538,1.538,0,0,0-.24-.268,2.4,2.4,0,0,0-.29-.232,2.749,2.749,0,0,0-.65-.314,2.283,2.283,0,0,0-.318-.088,2.656,2.656,0,0,0-.29-.05,3.359,3.359,0,0,0-.437-.02,1.5,1.5,0,0,0-.166.012l.161.035C248.942,347.644,249.084,347.688,249.254,347.734Z" transform="translate(-223.567 -312.474)"/><path class="a" d="M200.206,280.834c.083.005.178,0,.281,0a1.556,1.556,0,0,0,.331-.035l.181-.031c.062-.014.121-.036.184-.055l.19-.06.186-.081a3.161,3.161,0,0,0,.367-.191c.121-.068.228-.157.341-.232a2.438,2.438,0,0,0,.3-.26,3.985,3.985,0,0,0,.466-.525,3.125,3.125,0,0,0,.348-.585l-.12.138c-.075.091-.193.21-.333.352a6.065,6.065,0,0,1-.5.454c-.093.081-.2.151-.3.231a2.124,2.124,0,0,1-.326.212,2.957,2.957,0,0,1-.341.187c-.058.026-.114.055-.171.084l-.174.067-.168.064-.167.047a2.028,2.028,0,0,1-.3.075l-.267.051-.21.018c-.117.011-.186.02-.186.02s.067.012.185.027Z" transform="translate(-179.632 -250.627)"/><path class="a" d="M264.818,279.852c.094.089.2.175.3.26a2.505,2.505,0,0,0,.341.232,3.08,3.08,0,0,0,.367.191l.186.081.189.06c.063.018.123.04.184.055l.181.031a1.565,1.565,0,0,0,.332.035c.1,0,.2.007.28,0l.215-.026c.118-.015.184-.027.184-.027s-.068-.009-.185-.02l-.21-.018-.267-.051a2.071,2.071,0,0,1-.309-.075l-.166-.047-.169-.064-.174-.067c-.056-.029-.113-.058-.171-.084a2.944,2.944,0,0,1-.34-.187c-.116-.061-.218-.142-.327-.212a3.534,3.534,0,0,1-.3-.231c-.19-.157-.36-.314-.5-.454a4.644,4.644,0,0,1-.333-.352c-.076-.091-.121-.14-.121-.14a3.126,3.126,0,0,0,.348.585A4.04,4.04,0,0,0,264.818,279.852Z" transform="translate(-237.34 -250.591)"/></svg>