<svg xmlns="http://www.w3.org/2000/svg" width="20" height="12.456" viewBox="0 0 20 12.456"><defs><style>.a{fill:#bffb32;}.b{fill:#8cdc52;}.c{fill:#5dc378;}</style></defs><g transform="translate(-278 -460)"><g transform="translate(278 363.433)"><path class="a" d="M19.973,100.834a.61.61,0,0,0-.549-.549c-.163-.016-4.018-.356-6.262,1.889a5.72,5.72,0,0,0-1.125,1.633,9.386,9.386,0,0,0-2.35-4.471A10.123,10.123,0,0,0,3.88,96.729,15.248,15.248,0,0,0,.586,96.6a.61.61,0,0,0-.549.549,15.255,15.255,0,0,0,.125,3.294,10.123,10.123,0,0,0,2.606,5.807,10.123,10.123,0,0,0,5.807,2.606,16.3,16.3,0,0,0,2.288.162c.532,0,.888-.027.982-.035.081.007.326.025.683.025a8.063,8.063,0,0,0,5.556-1.916C20.328,104.852,19.988,101,19.973,100.834Z" transform="translate(0 0)"/><g transform="translate(5.808 100.258)"><path class="b" d="M159.114,242.411a.61.61,0,0,0-.862,0l-3.346,3.346-5.186-5.187a.61.61,0,0,0-.862.862l5.583,5.583a.608.608,0,0,0,.431.179l.034,0,.034,0a.608.608,0,0,0,.431-.179l3.743-3.743A.61.61,0,0,0,159.114,242.411Z" transform="translate(-148.678 -238.465)"/><path class="b" d="M315.079,191.085c-.163-.016-4.018-.356-6.262,1.889a5.72,5.72,0,0,0-1.125,1.633l-.018-.073V199.8c.122.007.3.013.51.013a8.063,8.063,0,0,0,5.556-1.916c2.245-2.245,1.9-6.1,1.889-6.262A.61.61,0,0,0,315.079,191.085Z" transform="translate(-301.463 -191.058)"/></g><path class="c" d="M311.038,287.681l-3.346,3.346-.017-.017v1.453h.017l.034,0a.608.608,0,0,0,.431-.179l3.743-3.743a.61.61,0,1,0-.862-.862Z" transform="translate(-295.657 -183.476)"/></g></g></svg>