<?xml version="1.0" encoding="utf-8"?>
<!-- Generator: Adobe Illustrator 23.0.1, SVG Export Plug-In . SVG Version: 6.00 Build 0)  -->
<svg version="1.1" id="Layer_1" xmlns="http://www.w3.org/2000/svg" xmlns:xlink="http://www.w3.org/1999/xlink" x="0px" y="0px"
	 viewBox="0 0 20 12.5" style="enable-background:new 0 0 20 12.5;" xml:space="preserve">
<style type="text/css">
	.st0{fill:#FFFFFF;}
	.st1{fill:#7EDABF;}
</style>
<g transform="translate(-278 -460)">
	<g transform="translate(278 363.433)">
		<path class="st0" d="M20,100.8c0-0.3-0.3-0.5-0.5-0.5c-0.2,0-4-0.4-6.3,1.9c-0.5,0.5-0.8,1-1.1,1.6c-0.4-1.7-1.2-3.2-2.3-4.5
			C8.1,97.9,6,97,3.9,96.7c-1.1-0.2-2.2-0.2-3.3-0.1c-0.3,0-0.5,0.3-0.5,0.5c-0.1,1.1,0,2.2,0.1,3.3c0.2,2.2,1.1,4.2,2.6,5.8
			c1.6,1.5,3.6,2.4,5.8,2.6c0.8,0.1,1.5,0.2,2.3,0.2c0.5,0,0.9,0,1,0c0.1,0,0.3,0,0.7,0c2,0.1,4-0.6,5.6-1.9
			C20.3,104.9,20,101,20,100.8z"/>
		<g transform="translate(5.808 100.258)">
			<path class="st1" d="M10.4,3.9c-0.2-0.2-0.6-0.2-0.9,0L6.2,7.3L1,2.1c-0.2-0.2-0.6-0.2-0.9,0C0,2.4,0,2.7,0.2,3l5.6,5.6
				C5.9,8.7,6,8.7,6.2,8.7h0h0c0.2,0,0.3-0.1,0.4-0.2l3.7-3.7C10.7,4.6,10.7,4.2,10.4,3.9z"/>
			<path class="st0" d="M13.6,0c-0.2,0-4-0.4-6.3,1.9c-0.5,0.5-0.8,1-1.1,1.6l0-0.1v5.3c0.1,0,0.3,0,0.5,0c2,0.1,4-0.6,5.6-1.9
				c2.2-2.2,1.9-6.1,1.9-6.3C14.1,0.3,13.9,0.1,13.6,0z"/>
		</g>
		<path class="st1" d="M15.4,104.2l-3.3,3.3l0,0v1.5h0h0c0.2,0,0.3-0.1,0.4-0.2l3.7-3.7c0.2-0.2,0.3-0.6,0-0.9
			C16,104,15.7,103.9,15.4,104.2C15.4,104.2,15.4,104.2,15.4,104.2L15.4,104.2z"/>
	</g>
</g>
</svg>
