<svg xmlns="http://www.w3.org/2000/svg" width="17.855" height="18.667" viewBox="0 0 17.855 18.667"><defs><style>.a{fill:#fff;}</style></defs><g transform="translate(-0.332 18.667) rotate(-90)"><path class="a" d="M161.709,220.217H149.941a.609.609,0,1,1,0-1.217h11.768a.609.609,0,1,1,0,1.217Zm0,0" transform="translate(-143.651 -210.349)"/><path class="a" d="M8.928,18.187A8.928,8.928,0,1,1,17.237,5.994a.609.609,0,1,1-1.133.446,7.71,7.71,0,1,0,0,5.641.609.609,0,1,1,1.133.446,8.882,8.882,0,0,1-8.309,5.661Zm0,0"/></g></svg>