<svg xmlns="http://www.w3.org/2000/svg" width="16.135" height="15.9" viewBox="0 0 16.135 15.9"><defs><style>.a{fill:#a7a8bc;}</style></defs><path class="a" d="M93.751,107.837c-.879,0-1.51,1.247-1.51,2.441a2.044,2.044,0,0,0,1.095,2.014v4.964a.423.423,0,1,0,.832,0v-4.964a2.044,2.044,0,0,0,1.095-2.014C95.262,109.075,94.624,107.837,93.751,107.837Zm0,3.526c-.4,0-.679-.446-.679-1.084,0-.76.38-1.437.679-1.437s.679.677.679,1.437C94.43,110.917,94.151,111.363,93.751,111.363Z" transform="translate(-89.419 -104.848)"/><path class="a" d="M22.976,15.9h15.1a.494.494,0,0,0,.518-.466V.466A.494.494,0,0,0,38.075,0H32.954a3.05,3.05,0,0,0-2.429,1.151A3.05,3.05,0,0,0,28.1,0H22.976a.494.494,0,0,0-.518.466V15.434A.494.494,0,0,0,22.976,15.9ZM32.954.932h4.6V14.968H31.044V2.649A1.824,1.824,0,0,1,32.954.932Zm-9.46,0h4.6a1.824,1.824,0,0,1,1.911,1.718V14.968H23.494Z" transform="translate(-22.458)"/><path class="a" d="M301.416,105.292h2.731a.416.416,0,0,0,.416-.416v-2.731a.416.416,0,0,0-.416-.416h-2.731a.416.416,0,0,0-.416.416v2.731A.416.416,0,0,0,301.416,105.292Zm.416-2.731h1.9v1.9h-1.9Z" transform="translate(-290.091 -98.456)"/><path class="a" d="M301.416,261.1h2.731a.416.416,0,1,0,0-.832h-2.731a.416.416,0,1,0,0,.832Z" transform="translate(-290.091 -252.134)"/><path class="a" d="M301.416,321.1h2.731a.416.416,0,0,0,0-.832h-2.731a.416.416,0,0,0,0,.832Z" transform="translate(-290.091 -310.259)"/><path class="a" d="M301.416,381.1h2.731a.416.416,0,0,0,0-.832h-2.731a.416.416,0,0,0,0,.832Z" transform="translate(-290.091 -368.383)"/></svg>