<svg xmlns="http://www.w3.org/2000/svg" width="16.329" height="17.9" viewBox="0 0 16.329 17.9"><defs><style>.a{fill:#fff;}</style></defs><g transform="translate(-22.458)"><path class="a" d="M93.941,107.837c-.989,0-1.7,1.4-1.7,2.749a2.3,2.3,0,0,0,1.232,2.268v5.588a.476.476,0,1,0,.936,0v-5.588a2.3,2.3,0,0,0,1.232-2.268C95.641,109.231,94.924,107.837,93.941,107.837Zm0,3.969c-.45,0-.764-.5-.764-1.221,0-.856.427-1.618.764-1.618s.764.762.764,1.618C94.705,111.3,94.391,111.806,93.941,111.806Z" transform="translate(-67.605 -104.472)"/><path class="a" d="M22.982,17.9H38.263a.524.524,0,0,0,.524-.524V.524A.524.524,0,0,0,38.263,0H33.081a2.981,2.981,0,0,0-2.458,1.3A2.981,2.981,0,0,0,28.165,0H22.982a.524.524,0,0,0-.524.524V17.375A.524.524,0,0,0,22.982,17.9Zm10.1-16.851h4.658v15.8H31.147V2.982A1.936,1.936,0,0,1,33.081,1.049Zm-9.574,0h4.658A1.936,1.936,0,0,1,30.1,2.982V16.851H23.507Z" transform="translate(0)"/><path class="a" d="M301.468,105.74h3.075a.468.468,0,0,0,.468-.468V102.2a.468.468,0,0,0-.468-.468h-3.075a.468.468,0,0,0-.468.468v3.075A.468.468,0,0,0,301.468,105.74Zm.468-3.075h2.139V104.8h-2.139Z" transform="translate(-268.096 -98.044)"/><path class="a" d="M301.468,261.207h3.075a.468.468,0,1,0,0-.936h-3.075a.468.468,0,1,0,0,.936Z" transform="translate(-268.096 -251.111)"/><path class="a" d="M301.468,321.207h3.075a.468.468,0,0,0,0-.936h-3.075a.468.468,0,1,0,0,.936Z" transform="translate(-268.096 -308.999)"/><path class="a" d="M301.468,381.207h3.075a.468.468,0,0,0,0-.936h-3.075a.468.468,0,1,0,0,.936Z" transform="translate(-268.096 -366.888)"/></g></svg>