<svg xmlns="http://www.w3.org/2000/svg" xmlns:xlink="http://www.w3.org/1999/xlink" width="210" height="77.87" viewBox="0 0 210 77.87"><defs><style>.a{opacity:0.72;}.b,.bk,.bl{fill:#fff;}.b{opacity:0;}.c{fill:#fefeff;opacity:0.01;}.d{fill:#fdfefe;opacity:0.02;}.e{fill:#fcfdfe;}.e,.f{opacity:0.03;}.f{fill:#fbfdfd;}.g{fill:#fafcfd;opacity:0.04;}.h{fill:#f9fbfd;opacity:0.05;}.i{fill:#f8fbfc;opacity:0.06;}.j{fill:#f7fafc;opacity:0.07;}.k{fill:#f6fafb;}.k,.l{opacity:0.08;}.l{fill:#f5f9fb;}.m{fill:#f4f9fb;opacity:0.09;}.n{fill:#f3f8fa;}.bl,.n{opacity:0.1;}.o{fill:#f2f7fa;opacity:0.11;}.p{fill:#f1f7f9;opacity:0.12;}.q{fill:#f0f6f9;}.q,.r{opacity:0.13;}.r{fill:#eff6f9;}.s{fill:#eef5f8;opacity:0.14;}.t{fill:#edf4f8;opacity:0.15;}.u{fill:#ecf4f7;opacity:0.16;}.v{fill:#ebf3f7;opacity:0.17;}.w{fill:#eaf3f7;}.w,.x{opacity:0.18;}.x{fill:#e9f2f6;}.y{fill:#e8f1f6;opacity:0.19;}.z{fill:#e7f1f5;opacity:0.2;}.aa{fill:#e6f0f5;opacity:0.21;}.ab{fill:#e5f0f5;opacity:0.22;}.ac{fill:#e4eff4;opacity:0.23;}.ad{fill:#e3eff4;}.ad,.ae{opacity:0.24;}.ae{fill:#e2eef3;}.af{fill:#e1edf3;opacity:0.25;}.ag{fill:#e0edf2;opacity:0.26;}.ah{fill:#dfecf2;opacity:0.27;}.ai{fill:#deecf2;opacity:0.28;}.aj{fill:#ddebf1;}.aj,.ak{opacity:0.29;}.ak{fill:#dceaf1;}.al{fill:#dbeaf0;opacity:0.3;}.am{fill:#dae9f0;opacity:0.31;}.an{fill:#d9e9f0;opacity:0.32;}.ao{fill:#d8e8ef;opacity:0.33;}.ap{fill:#d7e7ef;}.ap,.aq{opacity:0.34;}.aq{fill:#d6e7ee;}.ar{fill:#d5e6ee;opacity:0.35;}.as{fill:#d4e6ee;opacity:0.36;}.at{fill:#d3e5ed;opacity:0.37;}.au{fill:#d2e5ed;opacity:0.38;}.av{fill:#d1e4ec;}.av,.aw{opacity:0.39;}.aw{fill:#d0e3ec;}.ax{fill:#cfe3ec;opacity:0.4;}.ay{fill:#cee2eb;opacity:0.41;}.az{fill:#cde2eb;}.az,.ce{opacity:0.42;}.ba{fill:#cce1ea;opacity:0.43;}.bb{fill:#cbe0ea;opacity:0.44;}.bc{fill:#cae0ea;}.bc,.bd{opacity:0.45;}.bd{fill:#c9dfe9;}.be{fill:#c8dfe9;opacity:0.46;}.bf{fill:#c7dee8;opacity:0.47;}.bg{fill:#c6dde8;opacity:0.48;}.bh{fill:#c5dde8;opacity:0.49;}.bi{fill:#c4dce7;}.bi,.bt,.bx,.cb,.ch{opacity:0.5;}.bj{fill:#c3dbe6;opacity:0.51;}.bk{opacity:0.56;}.bm,.bn,.bo,.bp,.bq,.br,.bs,.bt,.bu,.bv,.bw,.bx,.by,.bz,.ca,.cc,.cd,.ce,.cf,.cg,.ch{fill-rule:evenodd;}.bm{fill:url(#a);}.bn{fill:url(#b);}.bo{fill:url(#c);}.bp{fill:#9c3b58;}.bq{fill:url(#d);}.br{fill:#a74561;}.bs{fill:#e2705b;}.bt{fill:#791b40;}.bu{fill:url(#e);}.bv{fill:#df7668;}.bw{fill:url(#f);}.bx{fill:url(#g);}.by{fill:url(#h);}.bz{fill:#a23b58;}.ca{fill:#7c2f4e;}.cc{fill:#e3d9d2;}.cd{fill:url(#i);}.ce,.cf{fill:#833960;}.cg{fill:#ffa451;}.ch{fill:#9c6888;}</style><radialGradient id="a" cx="0.503" cy="0.057" r="1.029" gradientTransform="translate(0.346) scale(0.308 1)" gradientUnits="objectBoundingBox"><stop offset="0.02" stop-color="#ffa874"/><stop offset="1" stop-color="#f49372"/></radialGradient><radialGradient id="b" cx="0.503" cy="0.057" r="1.034" gradientTransform="translate(0.347) scale(0.307 1)" xlink:href="#a"/><radialGradient id="c" cx="0.503" cy="0.057" r="0.835" gradientTransform="translate(0.291) scale(0.419 1)" gradientUnits="objectBoundingBox"><stop offset="0.02" stop-color="#d4634d"/><stop offset="1" stop-color="#a94d61"/></radialGradient><radialGradient id="d" cx="0.503" cy="0.057" r="3.185" gradientTransform="translate(0.456) scale(0.087 1)" xlink:href="#a"/><radialGradient id="e" cx="0.5" cy="0.5" r="19.745" gradientTransform="translate(0.491) scale(0.018 1)" gradientUnits="objectBoundingBox"><stop offset="0" stop-color="#ffcf84"/><stop offset="0.98" stop-color="#ffb88b"/></radialGradient><radialGradient id="f" cx="0.503" cy="0.057" r="5.616" gradientTransform="translate(0.475) scale(0.049 1)" xlink:href="#e"/><linearGradient id="g" y1="0.5" x2="1" y2="0.5" gradientUnits="objectBoundingBox"><stop offset="0" stop-color="#d3b8d6"/><stop offset="1" stop-color="#fff"/></linearGradient><radialGradient id="h" cx="0.5" cy="0.501" r="4.925" gradientTransform="translate(0.464) scale(0.072 1)" xlink:href="#a"/><linearGradient id="i" x1="0.5" y1="1.001" x2="0.5" gradientUnits="objectBoundingBox"><stop offset="0.03" stop-color="#dcc3cc"/><stop offset="1" stop-color="#f1e8f0"/></linearGradient></defs><g transform="translate(-83 -271.63)"><g transform="translate(76.976 255.508)"><g transform="translate(6.025 34.166)"><g transform="translate(0)"><g class="a" transform="translate(0 18.435)"><path class="b" d="M213.77,53.611c0,11.422-47.006,20.69-105.011,20.69S3.77,65.033,3.77,53.611s46.984-20.7,104.989-20.7S213.77,42.179,213.77,53.611Z" transform="translate(-3.77 -32.91)"/><path class="c" d="M212.935,53.519c0,11.291-46.734,20.437-104.4,20.437S4.15,64.81,4.15,53.519,50.884,33.06,108.532,33.06,212.935,42.217,212.935,53.519Z" transform="translate(-3.543 -32.82)"/><path class="d" d="M212.079,53.426c0,11.15-46.443,20.2-103.781,20.2S4.54,64.576,4.54,53.426,50.983,33.22,108.3,33.22,212.079,42.265,212.079,53.426Z" transform="translate(-3.309 -32.725)"/><path class="e" d="M211.244,53.336c0,11.02-46.172,19.955-103.173,19.955S4.92,64.357,4.92,53.336,51.092,33.37,108.071,33.37,211.244,42.305,211.244,53.336Z" transform="translate(-3.082 -32.635)"/><path class="f" d="M210.41,53.244c0,10.879-45.922,19.7-102.566,19.7S5.3,64.166,5.3,53.244,51.222,33.52,107.844,33.52,210.41,42.354,210.41,53.244Z" transform="translate(-2.855 -32.545)"/><path class="g" d="M209.559,53.151c0,10.716-45.63,19.46-101.939,19.46S5.68,63.9,5.68,53.151,51.332,33.68,107.62,33.68,209.559,42.392,209.559,53.151Z" transform="translate(-2.627 -32.449)"/><path class="h" d="M208.718,53.052c0,10.6-45.36,19.2-101.335,19.2S6.07,63.645,6.07,53.052s45.36-19.2,101.313-19.2S208.718,42.437,208.718,53.052Z" transform="translate(-2.394 -32.348)"/><path class="i" d="M207.9,52.965c0,10.476-45,18.975-100.728,18.975S6.47,63.44,6.47,52.965,51.513,34,107.131,34,207.9,42.5,207.9,52.965Z" transform="translate(-2.155 -32.258)"/><path class="j" d="M207.049,52.879c0,10.337-44.816,18.728-100.121,18.728S6.83,63.216,6.83,52.879,51.646,34.13,106.928,34.13,207.049,42.52,207.049,52.879Z" transform="translate(-1.94 -32.18)"/><path class="k" d="M206.2,52.786c0,10.206-44.524,18.485-99.494,18.485S7.21,62.992,7.21,52.786s44.524-18.5,99.494-18.5S206.2,42.569,206.2,52.786Z" transform="translate(-1.712 -32.085)"/><path class="l" d="M205.358,52.7c0,10.077-44.276,18.246-98.89,18.246S7.6,62.773,7.6,52.7,51.854,34.44,106.468,34.44,205.358,42.609,205.358,52.7Z" transform="translate(-1.479 -31.995)"/><path class="m" d="M204.511,52.6c0,9.936-44.008,17.993-98.29,17.993S8,62.539,8,52.6,51.962,34.59,106.222,34.59,204.511,42.657,204.511,52.6Z" transform="translate(-1.24 -31.905)"/><path class="n" d="M203.667,52.511c0,9.8-43.713,17.75-97.66,17.75S8.37,62.315,8.37,52.511,52.083,34.75,106.007,34.75,203.667,42.7,203.667,52.511Z" transform="translate(-1.018 -31.809)"/><path class="o" d="M202.832,52.437c0,9.673-43.419,17.525-97.053,17.525S8.75,62.109,8.75,52.437,52.169,34.85,105.78,34.85,202.832,42.754,202.832,52.437Z" transform="translate(-0.791 -31.75)"/><path class="p" d="M202,52.331c0,9.535-43.17,17.271-96.445,17.271S9.13,61.866,9.13,52.331,52.369,35.05,105.552,35.05,202,42.785,202,52.331Z" transform="translate(-0.564 -31.63)"/><path class="q" d="M201.141,52.238c0,9.394-42.879,17.018-95.822,17.018S9.52,61.6,9.52,52.238,52.4,35.2,105.319,35.2,201.141,42.834,201.141,52.238Z" transform="translate(-0.331 -31.54)"/><path class="r" d="M200.306,52.146c0,9.263-42.63,16.775-95.215,16.775S9.9,61.46,9.9,52.146,52.507,35.36,105.092,35.36,200.306,42.872,200.306,52.146Z" transform="translate(-0.103 -31.444)"/><path class="s" d="M199.472,52.056c0,9.113-42.358,16.536-94.607,16.536S10.28,61.179,10.28,52.056,52.638,35.51,104.864,35.51,199.472,42.912,199.472,52.056Z" transform="translate(0.124 -31.355)"/><path class="t" d="M198.615,51.957c0,8.989-42.067,16.257-93.984,16.257S10.67,60.946,10.67,51.957s42.067-16.3,93.961-16.3S198.615,42.958,198.615,51.957Z" transform="translate(0.357 -31.265)"/><path class="u" d="M197.781,51.855c0,8.853-41.842,16.005-93.377,16.005S11.05,60.688,11.05,51.855,52.892,35.85,104.4,35.85,197.781,43,197.781,51.855Z" transform="translate(0.585 -31.151)"/><path class="v" d="M196.946,51.772c0,8.717-41.524,15.792-92.77,15.792S11.43,60.488,11.43,51.772,52.954,36,104.176,36,196.946,43.045,196.946,51.772Z" transform="translate(0.812 -31.062)"/><path class="w" d="M196.089,51.688c0,8.59-41.232,15.548-92.146,15.548S11.82,60.308,11.82,51.688,53.052,36.12,103.943,36.12,196.089,43.087,196.089,51.688Z" transform="translate(1.045 -30.99)"/><path class="x" d="M195.237,51.6c0,8.451-40.989,15.308-91.5,15.308S12.23,60.019,12.23,51.6,53.2,36.27,103.733,36.27,195.237,43.137,195.237,51.6Z" transform="translate(1.291 -30.9)"/><path class="y" d="M194.42,51.505c0,8.32-40.712,15.066-90.932,15.066S12.58,59.825,12.58,51.505,53.292,36.43,103.488,36.43,194.42,43.176,194.42,51.505Z" transform="translate(1.5 -30.804)"/><path class="z" d="M193.546,51.416c0,8.18-40.426,14.826-90.32,14.826S13,59.6,13,51.416,53.355,36.58,103.226,36.58,193.546,43.225,193.546,51.416Z" transform="translate(1.751 -30.715)"/><path class="aa" d="M192.729,51.323c0,8.049-40.267,14.573-89.7,14.573S13.35,59.372,13.35,51.323,53.617,36.73,103.028,36.73,192.729,43.264,192.729,51.323Z" transform="translate(1.96 -30.625)"/><path class="ab" d="M191.894,51.241c0,7.915-39.877,14.343-89.094,14.343S13.73,59.156,13.73,51.241,53.607,36.85,102.8,36.85,191.894,43.307,191.894,51.241Z" transform="translate(2.188 -30.553)"/><path class="ac" d="M191.038,51.151c0,7.786-39.585,14.1-88.471,14.1S14.12,58.918,14.12,51.151,53.705,37,102.567,37,191.038,43.356,191.038,51.151Z" transform="translate(2.421 -30.463)"/><path class="ad" d="M190.2,51.047c0,7.647-39.338,13.838-87.864,13.838S14.5,58.694,14.5,51.047,53.814,37.19,102.34,37.19,190.2,43.391,190.2,51.047Z" transform="translate(2.648 -30.35)"/><path class="ae" d="M189.369,50.955c0,7.506-39.066,13.6-87.256,13.6S14.88,58.461,14.88,50.955s39.066-13.6,87.232-13.6S189.369,43.439,189.369,50.955Z" transform="translate(2.876 -30.254)"/><path class="af" d="M188.512,50.865c0,7.376-38.774,13.356-86.633,13.356S15.27,58.241,15.27,50.865,54.044,37.5,101.879,37.5,188.512,43.479,188.512,50.865Z" transform="translate(3.109 -30.164)"/><path class="ag" d="M187.677,50.762c0,7.23-38.5,13.066-86.026,13.066s-86-5.836-86-13.066,38.5-13.112,86-13.112S187.677,43.513,187.677,50.762Z" transform="translate(3.336 -30.075)"/><path class="ah" d="M186.861,50.672c0,7.1-38.225,12.826-85.406,12.826S16,57.772,16,50.672,54.3,37.8,101.455,37.8,186.861,43.563,186.861,50.672Z" transform="translate(3.546 -29.985)"/><path class="ai" d="M185.988,50.58c0,6.957-37.959,12.607-84.811,12.607S16.39,57.537,16.39,50.58,54.422,38,101.226,38,185.988,43.613,185.988,50.58Z" transform="translate(3.779 -29.865)"/><path class="aj" d="M185.152,50.5c0,6.835-37.691,12.381-84.188,12.381S16.8,57.335,16.8,50.5s37.667-12.39,84.164-12.39S185.152,43.656,185.152,50.5Z" transform="translate(4.024 -29.8)"/><path class="ak" d="M184.275,50.407c0,6.695-37.433,12.129-83.513,12.129S17.25,57.1,17.25,50.407,54.683,38.26,100.763,38.26,184.275,43.694,184.275,50.407Z" transform="translate(4.293 -29.71)"/><path class="al" d="M183.482,50.314c0,6.563-37.148,11.886-82.974,11.886S17.56,56.886,17.56,50.314,54.708,38.42,100.509,38.42,183.482,43.743,183.482,50.314Z" transform="translate(4.479 -29.614)"/><path class="am" d="M182.6,50.225c0,6.433-36.866,11.646-82.372,11.646S18,56.658,18,50.225,54.742,38.57,100.224,38.57,182.6,43.783,182.6,50.225Z" transform="translate(4.742 -29.524)"/><path class="an" d="M181.791,50.146c0,6.3-36.584,11.443-81.743,11.443S18.33,56.446,18.33,50.146,54.914,38.72,100.048,38.72,181.791,43.837,181.791,50.146Z" transform="translate(4.939 -29.435)"/><path class="ao" d="M180.957,50.061c0,6.175-36.313,11.211-81.136,11.211s-81.111-5-81.111-11.211S55.023,38.85,99.821,38.85,180.957,43.878,180.957,50.061Z" transform="translate(5.167 -29.357)"/><path class="ap" d="M180.1,49.956c0,6.028-36.045,10.922-80.513,10.922S19.1,55.984,19.1,49.956,55.12,39,99.588,39,180.1,43.92,180.1,49.956Z" transform="translate(5.4 -29.267)"/><path class="aq" d="M179.345,49.86c0,5.9-35.763,10.671-79.882,10.671S19.48,55.752,19.48,49.86,55.243,39.18,99.337,39.18,179.345,43.959,179.345,49.86Z" transform="translate(5.627 -29.159)"/><path class="ar" d="M178.431,49.766c0,5.751-35.4,10.419-79.3,10.419S19.86,55.518,19.86,49.766,55.261,39.33,99.133,39.33,178.431,44.006,178.431,49.766Z" transform="translate(5.855 -29.07)"/><path class="as" d="M177.616,49.674c0,5.619-35.195,10.176-78.718,10.176S20.18,55.293,20.18,49.674,55.375,39.49,98.9,39.49,177.616,44.03,177.616,49.674Z" transform="translate(6.046 -28.974)"/><path class="at" d="M176.74,49.584c0,5.481-34.938,9.936-78.068,9.936S20.63,55.066,20.63,49.584,55.568,39.64,98.672,39.64,176.74,44.087,176.74,49.584Z" transform="translate(6.315 -28.884)"/><path class="au" d="M175.911,49.475c0,5.34-34.664,9.636-77.456,9.636S21,54.815,21,49.475,55.664,39.79,98.43,39.79,175.911,44.126,175.911,49.475Z" transform="translate(6.536 -28.795)"/><path class="av" d="M175,49.4c0,5.219-34.405,9.445-76.852,9.445S21.4,54.62,21.4,49.4,55.78,39.94,98.226,39.94,175,44.174,175,49.4Z" transform="translate(6.776 -28.705)"/><path class="aw" d="M174.214,49.309c0,5.079-34.127,9.2-76.23,9.2s-76.2-4.122-76.2-9.2S56.011,40.1,97.984,40.1,174.214,44.223,174.214,49.309Z" transform="translate(7.003 -28.609)"/><path class="ax" d="M173.349,49.219c0,4.949-33.841,8.962-75.648,8.962S22.21,54.168,22.21,49.219,56.051,40.25,97.832,40.25,173.349,44.263,173.349,49.219Z" transform="translate(7.26 -28.519)"/><path class="ay" d="M172.523,49.125c0,4.808-33.563,8.71-75,8.71s-74.973-3.9-74.973-8.71S56.113,40.4,97.523,40.4,172.523,44.309,172.523,49.125Z" transform="translate(7.464 -28.43)"/><path class="az" d="M171.688,49.034c0,4.676-33.291,8.466-74.392,8.466S22.93,53.71,22.93,49.034,56.221,40.56,97.3,40.56,171.688,44.35,171.688,49.034Z" transform="translate(7.691 -28.334)"/><path class="ba" d="M170.853,48.953c0,4.55-33.019,8.25-73.785,8.25S23.31,53.5,23.31,48.967,56.329,40.71,97.069,40.71,170.853,44.4,170.853,48.953Z" transform="translate(7.918 -28.244)"/><path class="bb" d="M170,48.864c0,4.415-32.753,8.014-73.162,8.014S23.7,53.3,23.7,48.864,56.426,40.85,96.835,40.85,170,44.442,170,48.864Z" transform="translate(8.152 -28.161)"/><path class="bc" d="M169.162,48.762c0,4.292-32.481,7.74-72.554,7.74S24.08,53.032,24.08,48.762,56.561,41,96.608,41,169.162,44.477,169.162,48.762Z" transform="translate(8.379 -28.071)"/><path class="bd" d="M168.376,48.669c0,4.135-32.256,7.492-71.931,7.492S24.46,52.8,24.46,48.669s32.256-7.5,71.9-7.5S168.376,44.561,168.376,48.669Z" transform="translate(8.606 -27.969)"/><path class="be" d="M167.471,48.579c0,4.005-31.916,7.252-71.324,7.252s-71.3-3.247-71.3-7.252,31.916-7.259,71.3-7.259S167.471,44.546,167.471,48.579Z" transform="translate(8.839 -27.879)"/><path class="bf" d="M166.654,48.484c0,3.865-31.637,7-70.727,7S25.2,52.35,25.2,48.484,56.837,41.47,95.927,41.47,166.654,44.612,166.654,48.484Z" transform="translate(9.049 -27.79)"/><path class="bg" d="M165.8,48.393c0,3.732-31.373,6.757-70.11,6.757S25.61,52.126,25.61,48.393,56.983,41.63,95.692,41.63,165.8,44.654,165.8,48.393Z" transform="translate(9.294 -27.694)"/><path class="bh" d="M164.945,48.3c0,3.6-31.106,6.517-69.486,6.517S26,51.9,26,48.3,57.079,41.78,95.459,41.78,164.945,44.7,164.945,48.3Z" transform="translate(9.527 -27.604)"/><path class="bi" d="M164.111,48.209c0,3.462-30.835,6.266-68.879,6.266s-68.852-2.8-68.852-6.266S57.215,41.93,95.232,41.93,164.111,44.74,164.111,48.209Z" transform="translate(9.755 -27.515)"/><path class="bi" d="M163.276,48.118c0,3.323-30.7,6.022-68.272,6.022s-68.244-2.7-68.244-6.022S57.463,42.09,95,42.09,163.276,44.789,163.276,48.118Z" transform="translate(9.982 -27.419)"/><path class="bj" d="M162.441,48.028c0,3.192-30.292,5.782-67.665,5.782S27.14,51.22,27.14,48.028,57.432,42.24,94.777,42.24,162.441,44.83,162.441,48.028Z" transform="translate(10.209 -27.329)"/></g><path class="bk" d="M84.574,22.853c-1.966-.208-2.094,4.395-2.158,5.833a31.66,31.66,0,0,1-2.205,9.861,70.316,70.316,0,0,1-3.6,8.358c-1.342,2.477-3.2,4.475-4.715,6.792a16.349,16.349,0,0,0,4.235-3.836,32.234,32.234,0,0,0,4.155-4.938,44.142,44.142,0,0,0,4.635-9.957,37.286,37.286,0,0,0,1.6-8.183c0-.863.272-7.416-1.6-4.795Z" transform="translate(83.353 -21.375)"/><path class="bl" d="M71.734,28c-3.58,1.374-8.279,2.909-11.027,5.9-3.963,4.331,1.183,6.185,4.7,4.235,1.6-.911,11.411-7.991,5.514-9.589Z" transform="translate(66.899 -17.412)"/></g></g></g><g transform="translate(88 271.63)"><path class="bm" d="M88.47,59.87,84.75,33.32l103.14-5.25-7.62,25.34Z"/><path class="bn" d="M186.58,26.76,178.49,1.24,91.05.82l-6.3,31.22Z"/><path class="bo" d="M91.05.82,25.49,3.56,10.18,34.7l74.57-2.66Z"/><path class="bp" d="M88.47,59.87,16.6,56.18,9.46,35.06l75.29-1.74Z"/><path class="bq" d="M186.58,26.76l12.74,1.12v1.85L78.28,37.31V32.69l6.47-.65Z"/><path class="br" d="M78.28,32.69,0,34.16l.81,2.75,77.47.4Z"/><path class="bs" d="M85.14,30.4l-72.95.82L0,34.16l78.28-1.47Z"/><path class="bt" d="M186.86,31.48,85.26,36.94l.9,6.42,99.39-7.52Z"/><path class="bu" d="M178.49,1.24,90.35,2.59l-64.86.97L91.05.82Z"/><path class="bv" d="M89.06,2.59l-.33,9.73,3.19-9.73Z"/><path class="bv" d="M76.02,32.79l2.26,1.73,1.61-2.48Z"/><path class="bw" d="M78.28,32.69s69.62-3.92,121-4.81l-12.74-1.12L85.14,30.4Z"/><path class="bx" d="M180.27,53.41s-45.86-5.21-91.8,6.46Z"/><path class="by" d="M199.32,31.48l-.55,1.21L79.01,40.19l-.73-2.88Z"/><path class="bz" d="M199.32,31.48l-4.06-1.5L78.28,37.31Z"/><path class="br" d="M79.01,40.19.96,38.67.81,36.91l77.47.4Z"/><path class="ca" d="M78.28,37.31.81,36.91l77.47-.36,10.94.12Z"/><g class="cb"><path class="cc" d="M129.59,12.78a.83.83,0,0,0,1.11.78.79.79,0,0,0,.62-1,1,1,0,0,0-1-.81.89.89,0,0,0-.73,1.03Z"/><path class="cc" d="M146.38,19.48c.06-.66.75-1,1.33-1.09a2.09,2.09,0,0,1,1.37.36,1,1,0,0,1,.53,1.23,2.18,2.18,0,0,1-.41.64c-.21.17-.65.06-.89,0a1.49,1.49,0,0,1-.93-.51C147.1,19.86,146.36,20.07,146.38,19.48Z"/><path class="cc" d="M130,10.23c-.39.15-.94.75-.38,1a2.32,2.32,0,0,0,1.51-.24c1.05-.8-.61-1.49-1.29-.64Z"/><path class="cc" d="M130.53,15.35c.38-.67,1.08.1.63.48a.43.43,0,0,1-.7-.33Z"/><path class="cc" d="M131.57,12.81c.25-.45.71.06.41.32a.29.29,0,0,1-.47-.22Z"/><path class="cc" d="M120.62,7.92c-.87,1.18.73,2.55,1.36,1.13.34-.75-.31-1.68-1-1.13Z"/><path class="cc" d="M123.26,11.32c-.11-.23-.22-.17-.34,0s-.07.29.07.47c.33.41.61.4,1.06.11s1-.86.31-1.17a1.1,1.1,0,0,0-1,.27Z"/><path class="cc" d="M121.83,11.77c-.06-.58.8.17.42.48s-.52-.29-.42-.52Z"/><path class="cc" d="M123.57,9.77c.24.38.73-.15.55-.41s-.51.19-.59.34Z"/><path class="cc" d="M114.36,16.64c.15-.48.74,0,.81.27a.91.91,0,0,1-.73,1c-.7.06-.88-1-.27-1.27Z"/><path class="cc" d="M120.89,17.5c-.42.61,1,.74,1,.05s-.82-.54-1-.08Z"/><path class="cc" d="M115,5.66a.57.57,0,0,1,.54-.86c.57.08.58.87.39,1.26a.63.63,0,1,1-1.12-.55Z"/><path class="cc" d="M123.41,3.81c-.5,1.19,1.45.77,1.55-.18C125.09,2.47,123.56,2.77,123.41,3.81Z"/><path class="cc" d="M149.51,17.88c-.55.76.89,1.12,1,.18a.76.76,0,0,0-1.17-.1Z"/><path class="cc" d="M142,27a4,4,0,0,1,5.22-1c.44.29,1.06.83.54,1.32s-2.62,0-3.23,0A6,6,0,0,1,142,27Z"/><path class="cc" d="M137.75,26.2c.09.69,1.32.45,1.14-.12-.12-.38-.79-.48-.91-.12Z"/><path class="cc" d="M93.24,4.83c-.23,1.08,1.14.86,1.14,0,0-.71-.94-1-1.14-.22Z"/><path class="cc" d="M122,21.92a.78.78,0,0,1,.45-.35c.7.94-.87,1.57-.45.46Z"/><path class="cc" d="M92.08,22.88c-1.09,2.78,3.5.85,4.16-.44s-1.06-1.55-2-1.37a2.43,2.43,0,0,0-2.16,1.81Z"/><path class="cc" d="M96.38,23.55c.11-.62,1.27-1.15,1.13-.21-.09.52-.83.87-1,.31Z"/><path class="cc" d="M163.2,11.05c-1.15,1.61,3.66,1.63,3.89,0s-3.46-1.08-4-.13Z"/><path class="cc" d="M166.58,9.17c.1-1,1.47-.56,1.18,0s-.94.14-1.18-.14Z"/><path class="cc" d="M170.25,10.36a3,3,0,0,0,1.28-.31c-.11-.89-1.22-.69-1.49,0,0,.14.13.12.21.2Z"/><path class="cc" d="M157.64,12.24c0-.37.1-.56.48-.58.46.39.35,1.13-.28,1Z"/><path class="cc" d="M139.89,18.22c-1.72,1.45,2,1,.31.21Z"/><path class="cc" d="M132.57,22.12c-.42.43-.26,1.33.49,1,.58-.25.45-1.26-.26-.93Z"/><path class="cc" d="M136,24.47c.14-.47.74-.48.71,0s-.43.36-.55.08Z"/><path class="cc" d="M167.67,43.78c.11.6.41.92,1.11.78a.79.79,0,0,0,.63-1,1,1,0,0,0-1.06-.81.9.9,0,0,0-.68,1.03Z"/><path class="cc" d="M132.83,42a1.38,1.38,0,0,1,1.33-1.09,2,2,0,0,1,1.37.35,1,1,0,0,1,.54,1.23,2.29,2.29,0,0,1-.42.64c-.21.17-.65.06-.89,0a1.58,1.58,0,0,1-.93-.52C133.55,42.34,132.81,42.55,132.83,42Z"/><path class="cc" d="M168.11,41.23c-.39.15-.94.75-.37,1a2.3,2.3,0,0,0,1.5-.24c1-.8-.61-1.49-1.29-.64Z"/><path class="cc" d="M168.62,46.35c.38-.67,1.07.1.62.48a.43.43,0,0,1-.7-.33Z"/><path class="cc" d="M169.65,43.81c.25-.45.72.06.41.32s-.43,0-.46-.22Z"/><path class="cc" d="M156.73,45.73c-.87,1.17.73,2.55,1.36,1.13.34-.76-.31-1.69-1.06-1.13Z"/><path class="cc" d="M159.37,49.12c-.11-.23-.22-.17-.35,0s-.07.29.08.48c.32.4.61.39,1.06.11s1-.86.31-1.18a1.13,1.13,0,0,0-1,.27Z"/><path class="cc" d="M157.94,49.57c-.07-.58.8.17.42.49s-.52-.29-.42-.52Z"/><path class="cc" d="M159.67,47.57c.25.39.74-.15.56-.4s-.51.19-.59.33Z"/><path class="cc" d="M104.73,44.39c-.41.6,1,.73,1,0s-.82-.55-1-.09Z"/><path class="cc" d="M159.52,41.62c-.5,1.19,1.45.77,1.55-.19C161.2,40.27,159.67,40.58,159.52,41.62Z"/><path class="cc" d="M136,40.37c-.55.75.89,1.12,1,.17a.76.76,0,0,0-1.17-.09Z"/><path class="cc" d="M128.43,49.47a4,4,0,0,1,5.22-1c.44.3,1.06.84.54,1.32s-2.62,0-3.23,0A6.21,6.21,0,0,1,128.43,49.47Z"/><path class="cc" d="M121.59,53.09c.1.69,1.32.45,1.14-.13-.12-.38-.79-.47-.91-.11Z"/><path class="cc" d="M105.82,48.8a.76.76,0,0,1,.45-.34c.7.93-.87,1.56-.45.46Z"/><path class="cc" d="M178.36,38.79c-1.72,1.45,2,1,.32.21Z"/><path class="cc" d="M116.41,49c-.42.43-.26,1.33.49,1,.58-.24.45-1.25-.25-.92Z"/><path class="cc" d="M119.86,51.36c.14-.48.74-.48.71,0s-.42.36-.55.08Z"/><path class="cc" d="M102.41,4.26a1.72,1.72,0,0,0,.61-.59c-.41-.36-.43-.08-.61.26Z"/><path class="cc" d="M60.78,21.13c.11.59.41.91,1.1.77a.78.78,0,0,0,.63-.95,1,1,0,0,0-1.06-.8.88.88,0,0,0-.67.98Z"/><path class="cc" d="M77.57,27.83a1.39,1.39,0,0,1,1.33-1.09,2.1,2.1,0,0,1,1.37.35,1,1,0,0,1,.53,1.23,2.13,2.13,0,0,1-.41.64c-.22.18-.65.06-.9,0a1.53,1.53,0,0,1-.92-.52C78.29,28.2,77.55,28.41,77.57,27.83Z"/><path class="cc" d="M61.22,18.57c-.39.16-.94.76-.38,1a2.4,2.4,0,0,0,1.51-.24c1-.8-.61-1.49-1.29-.65Z"/><path class="cc" d="M61.72,23.7c.38-.67,1.08.09.62.48a.44.44,0,0,1-.7-.33Z"/><path class="cc" d="M62.75,21.16c.26-.45.72.06.42.31a.29.29,0,0,1-.47-.22Z"/><path class="cc" d="M51.81,16.27c-.87,1.17.73,2.55,1.36,1.13.34-.76-.32-1.69-1.06-1.13Z"/><path class="cc" d="M54.45,19.66c-.11-.22-.22-.16-.35,0s-.07.29.08.48c.32.41.61.39,1,.11s1-.86.32-1.18a1.13,1.13,0,0,0-1,.27Z"/><path class="cc" d="M53,20.12c-.07-.58.79.16.42.48s-.52-.29-.42-.52Z"/><path class="cc" d="M54.75,18.12c.24.38.74-.16.56-.41s-.51.19-.6.33Z"/><path class="cc" d="M45.55,25c.14-.48.73,0,.8.27a.91.91,0,0,1-.72,1c-.7.07-.89-1-.27-1.26Z"/><path class="cc" d="M52.07,25.85c-.41.6,1,.73,1,0s-.83-.55-1-.09Z"/><path class="cc" d="M46.23,14a.57.57,0,0,1,.53-.87c.57.09.59.87.39,1.27A.635.635,0,1,1,46,13.86Z"/><path class="cc" d="M54.6,12.16c-.5,1.19,1.44.77,1.55-.19C56.28,10.82,54.75,11.12,54.6,12.16Z"/><path class="cc" d="M80.7,26.23c-.56.75.89,1.12,1,.17a.76.76,0,0,0-1.17-.09Z"/><path class="cc" d="M24.43,13.18c-.23,1.07,1.14.85,1.14,0s-.94-1-1.14-.22Z"/><path class="cc" d="M94.39,19.4c-1.15,1.6,3.66,1.62,3.88,0s-3.45-1.08-4-.12Z"/><path class="cc" d="M88.83,20.59c0-.38.09-.56.47-.58.47.38.35,1.13-.27,1Z"/><path class="cc" d="M71.08,26.57c-1.72,1.45,2,1,.31.21Z"/><path class="cc" d="M33.59,12.61a1.7,1.7,0,0,0,.62-.6c-.41-.35-.43-.07-.62.26Z"/><path class="cc" d="M63.07,49.51c.09.49.34.76.92.64a.65.65,0,0,0,.52-.79.84.84,0,0,0-.88-.67A.74.74,0,0,0,63.07,49.51Z"/><path class="cc" d="M63.43,47.38c-.32.13-.78.63-.31.84a2,2,0,0,0,1.25-.2c.88-.67-.5-1.24-1.07-.54Z"/><path class="cc" d="M63.85,51.65c.32-.56.9.08.52.4a.36.36,0,0,1-.58-.28Z"/><path class="cc" d="M64.71,49.53c.21-.37.6,0,.35.27a.24.24,0,0,1-.39-.19Z"/><path class="cc" d="M55.6,45.46c-.72,1,.61,2.13,1.13.94.28-.63-.26-1.4-.88-.94Z"/><path class="cc" d="M57.8,48.29c-.1-.19-.19-.14-.29,0s-.06.24.06.4c.27.34.51.33.88.09s.8-.72.26-1a.91.91,0,0,0-.85.23Z"/><path class="cc" d="M56.61,48.67c-.06-.49.66.14.34.4s-.43-.24-.34-.44Z"/><path class="cc" d="M58.05,47c.2.32.61-.13.47-.34s-.43.16-.5.28Z"/><path class="cc" d="M50.39,52.72c.12-.4.61,0,.67.22a.77.77,0,0,1-.61.86.523.523,0,0,1-.22-1Z"/><path class="cc" d="M55.82,53.44c-.34.5.83.61.82,0s-.69-.45-.82-.07Z"/><path class="cc" d="M51,43.58a.47.47,0,0,1,.45-.72c.47.07.48.73.32,1a.52.52,0,1,1-.92-.46Z"/><path class="cc" d="M57.93,42c-.42,1,1.2.64,1.28-.16C59.32,40.92,58,41.18,57.93,42Z"/><path class="cc" d="M32.8,42.89c-.19.89,1,.71,1,0a.508.508,0,0,0-1-.18Z"/><path class="cc" d="M40.43,42.42a1.36,1.36,0,0,0,.51-.5c-.34-.29-.35-.07-.51.21Z"/></g><path class="bt" d="M125.95,1.99l-.98,26.99,9.51.98L134,36.74l-9.03.57-.86,19.93.53.16,11.74-20.81,1.94-3.27L128.43,2.01Z"/><path class="cd" d="M124.64,57.4s11.23-19.71,11.74-20.81.79-6.18.7-6.86S128.43,2,128.43,2L72.84,1.58V.82L96.25,0l64.83.87s12.34,26.77,12.51,27.64-.72,5.7-1.26,6.19S153.4,56.06,153.4,56.06l-30.18,2-1.35-.59Z"/><path class="ce" d="M172.33,34.7,137,36.26s.43-5.77.31-6.8S128.93,1,128.93,1L72.84.82v.76L128.43,2s8.64,26.78,8.65,27.72-.25,6-.7,6.86S124.64,57.4,124.64,57.4l-2.77.12,1.35.59,30.18-2Z"/><path class="cf" d="M139.42,22.1l27.68-1.39L160.64,6.48H134.37Z"/><path class="cg" d="M141.61,9.09l1.24,1.89,14.9-.13-.48-1.76Z"/><path class="ce" d="M138.36,43.87l21.16-.83-5.06,6.25-19.92.65Z"/><path class="ch" d="M144.02,15.09l1.07,3.53,15.51-.24-1.16-4.09Z"/></g></g></svg>