<svg xmlns="http://www.w3.org/2000/svg" width="17.125" height="19.296" viewBox="0 0 17.125 19.296"><defs><style>.a{fill:#e1e6e9;}.b,.e{fill:#d5d6db;}.c{fill:#a45211;}.d,.f{fill:#ebf0f3;}.d,.e{opacity:0.1;}.f{opacity:0.25;}</style></defs><g transform="translate(-19.693 0.001)"><path class="a" d="M225.94,3.727a1.5,1.5,0,0,0-.182-1.58,1.52,1.52,0,0,0-.935-.554,1.05,1.05,0,0,1-.79-.639,1.52,1.52,0,0,0-.736-.8,1.511,1.511,0,0,0-2.149,1.66,2.538,2.538,0,0,1-.528,2.1L220,4.685l2.02,1.634.621-.768a2.539,2.539,0,0,1,1.944-.956,1.51,1.51,0,0,0,1.355-.868Z" transform="translate(-189.268 0)"/><path class="b" d="M225.957,34.167a1.514,1.514,0,0,1-1.356.867,2.542,2.542,0,0,0-1.946.956l-.619.768-2.02-1.635,0,0,1.635,1.322.621-.766a2.533,2.533,0,0,1,1.943-.956,1.513,1.513,0,0,0,1.175-2.449c-.017-.019-.031-.039-.051-.058a1.568,1.568,0,0,1,.431.373A1.51,1.51,0,0,1,225.957,34.167Z" transform="translate(-189.283 -30.439)"/><path class="c" d="M33.683,66.806a10.463,10.463,0,0,0-2.232,6.213,7.588,7.588,0,0,1-1.743,4.426c-2.312,2.861-6.037,3.684-8.32,1.84a4.459,4.459,0,0,1-1.442-2.15,7.029,7.029,0,0,1,1.5-6.372,7.621,7.621,0,0,1,3.964-2.63,11.749,11.749,0,0,0,1.539-.508A11.07,11.07,0,0,0,28.5,66.84a9.823,9.823,0,0,0,2.514-2.191.321.321,0,0,1,.45-.048l.06.048,2.047,1.657.063.051a.321.321,0,0,1,.048.45Z" transform="translate(0 -60.974)"/><path class="d" d="M30.851,70.256a11.017,11.017,0,0,1-5.444,3.288,7.621,7.621,0,0,0-3.964,2.63,7.029,7.029,0,0,0-1.5,6.372,5.667,5.667,0,0,0,4.313,2.025,5.963,5.963,0,0,0,5.8-6.114C30.057,76.1,32.7,71.277,30.851,70.256Z" transform="translate(0 -66.385)"/><ellipse class="e" cx="3.542" cy="3.736" rx="3.542" ry="3.736" transform="translate(21.15 8.77)"/><ellipse class="e" cx="1.586" cy="1.673" rx="1.586" ry="1.673" transform="translate(22.753 9.931)"/><path class="f" d="M249.138,7.171a.978.978,0,1,0,.928.976A.953.953,0,0,0,249.138,7.171Z" transform="translate(-215.923 -6.776)"/></g></svg>