<?xml version="1.0" encoding="utf-8"?>
<!-- Generator: Adobe Illustrator 23.0.1, SVG Export Plug-In . SVG Version: 6.00 Build 0)  -->
<svg version="1.1" id="Layer_1" xmlns="http://www.w3.org/2000/svg" xmlns:xlink="http://www.w3.org/1999/xlink" x="0px" y="0px"
	 viewBox="0 0 17.1 19.3" style="enable-background:new 0 0 17.1 19.3;" xml:space="preserve">
<style type="text/css">
	.st0{fill:#FFFFFF;}
	.st1{opacity:0.1;fill:#FFFFFF;enable-background:new    ;}
	.st2{opacity:0.25;fill:#FFFFFF;enable-background:new    ;}
</style>
<g transform="translate(-19.693 0.001)">
	<path class="st0" d="M36.7,3.7c0.2-0.5,0.2-1.1-0.2-1.6c-0.2-0.3-0.6-0.5-0.9-0.6c-0.4-0.1-0.7-0.3-0.8-0.6
		c-0.1-0.3-0.4-0.6-0.7-0.8c-0.7-0.4-1.7-0.1-2,0.7c-0.1,0.3-0.2,0.6-0.1,1c0.1,0.7,0,1.5-0.5,2.1l-0.6,0.8l2,1.6l0.6-0.8
		c0.5-0.6,1.2-0.9,1.9-1C35.9,4.6,36.4,4.3,36.7,3.7z"/>
	<path class="st0" d="M36.7,3.7c-0.2,0.5-0.8,0.9-1.4,0.9c-0.8,0-1.5,0.4-1.9,1l-0.6,0.8l-2-1.6l0,0L32.4,6L33,5.2
		c0.5-0.6,1.2-0.9,1.9-1c0.8,0,1.5-0.7,1.5-1.5c0-0.3-0.1-0.7-0.3-0.9c0,0,0,0-0.1-0.1c0.2,0.1,0.3,0.2,0.4,0.4
		C36.8,2.6,36.9,3.2,36.7,3.7z"/>
	<path class="st0" d="M33.7,5.8c-1.4,1.8-2.2,4-2.2,6.2c-0.1,1.6-0.7,3.2-1.7,4.4c-2.3,2.9-6,3.7-8.3,1.8c-0.7-0.6-1.2-1.3-1.4-2.2
		c-0.6-2.2,0-4.6,1.5-6.4c1-1.3,2.4-2.2,4-2.6c0.5-0.1,1-0.3,1.5-0.5c0.5-0.2,1.1-0.5,1.6-0.8c1-0.6,1.8-1.3,2.5-2.2
		c0.1-0.1,0.3-0.2,0.5,0l0.1,0l2,1.7l0.1,0.1C33.8,5.5,33.8,5.7,33.7,5.8L33.7,5.8z"/>
	<path class="st1" d="M30.9,3.9c-1.5,1.6-3.3,2.8-5.4,3.3c-1.6,0.4-3,1.4-4,2.6c-1.5,1.7-2.1,4.1-1.5,6.4c1.1,1.3,2.6,2,4.3,2
		c3.3-0.1,5.9-2.8,5.8-6.1C30.1,9.7,32.7,4.9,30.9,3.9z"/>
	<ellipse class="st1" cx="24.7" cy="12.5" rx="3.5" ry="3.7"/>
	<ellipse class="st1" cx="24.3" cy="11.6" rx="1.6" ry="1.7"/>
	<path class="st2" d="M33.2,0.4c-0.5,0-1,0.4-1,0.9c0,0.5,0.4,1,0.9,1s1-0.4,1-0.9c0,0,0,0,0-0.1C34.2,0.8,33.7,0.4,33.2,0.4z"/>
</g>
</svg>
