<svg xmlns="http://www.w3.org/2000/svg" width="18" height="18.759" viewBox="0 0 18 18.759"><defs><style>.a{fill:#a7a8bc;}</style></defs><g transform="translate(0)"><g transform="translate(0)"><g transform="translate(0 0)"><path class="a" d="M27.491,9.621a.55.55,0,0,1,0-.486l.7-1.431a1.628,1.628,0,0,0-.7-2.163l-1.407-.747A.55.55,0,0,1,25.8,4.4L25.52,2.832A1.629,1.629,0,0,0,23.68,1.5L22.1,1.719a.55.55,0,0,1-.462-.15L20.5.461a1.628,1.628,0,0,0-2.274,0L17.077,1.568a.55.55,0,0,1-.462.15L15.038,1.5A1.628,1.628,0,0,0,13.2,2.832L12.923,4.4a.55.55,0,0,1-.286.393l-1.407.747a1.628,1.628,0,0,0-.7,2.163l.7,1.431a.55.55,0,0,1,0,.486l-.7,1.431a1.628,1.628,0,0,0,.7,2.163l1.407.747a.55.55,0,0,1,.286.393l.275,1.569A1.627,1.627,0,0,0,14.8,17.276a1.673,1.673,0,0,0,.234-.017l1.577-.223a.55.55,0,0,1,.462.15l1.145,1.108a1.628,1.628,0,0,0,2.274,0l1.145-1.108a.55.55,0,0,1,.462-.15l1.577.223a1.628,1.628,0,0,0,1.84-1.337l.275-1.569a.55.55,0,0,1,.286-.393l1.407-.747a1.628,1.628,0,0,0,.7-2.163Zm-.51,2.638-1.407.747a1.625,1.625,0,0,0-.844,1.162l-.275,1.569a.551.551,0,0,1-.622.452l-1.577-.223a1.624,1.624,0,0,0-1.366.444l-1.145,1.108a.551.551,0,0,1-.769,0l-1.145-1.108a1.623,1.623,0,0,0-1.133-.46,1.661,1.661,0,0,0-.233.016l-1.577.223a.551.551,0,0,1-.622-.452l-.275-1.569a1.625,1.625,0,0,0-.844-1.162l-1.407-.747a.551.551,0,0,1-.238-.732l.7-1.431a1.625,1.625,0,0,0,0-1.436l-.7-1.431a.551.551,0,0,1,.238-.732l1.407-.747a1.625,1.625,0,0,0,.844-1.162l.275-1.569a.551.551,0,0,1,.622-.452l1.577.223a1.625,1.625,0,0,0,1.366-.444l1.145-1.108a.551.551,0,0,1,.769,0l1.145,1.108a1.625,1.625,0,0,0,1.366.444l1.577-.223a.551.551,0,0,1,.622.452l.275,1.569a1.625,1.625,0,0,0,.844,1.162l1.407.747a.551.551,0,0,1,.238.732l-.7,1.431a1.625,1.625,0,0,0,0,1.436l.7,1.431A.551.551,0,0,1,26.981,12.259Z" transform="translate(-10.359 0.002)"/></g></g><g transform="translate(4.889 5.268)"><g transform="translate(0)"><path class="a" d="M151.855,143.95a.541.541,0,0,0-.765,0l-7.14,7.14a.541.541,0,1,0,.765.765l7.14-7.14A.541.541,0,0,0,151.855,143.95Z" transform="translate(-143.791 -143.791)"/></g></g><g transform="translate(4.852 4.511)"><path class="a" d="M144.786,123.116a1.984,1.984,0,1,0,1.984,1.984A1.986,1.986,0,0,0,144.786,123.116Zm0,2.885a.9.9,0,1,1,.9-.9A.9.9,0,0,1,144.786,126Z" transform="translate(-142.802 -123.116)"/></g><g transform="translate(9.18 10.281)"><g transform="translate(0)"><path class="a" d="M262.906,280.61a1.984,1.984,0,1,0,1.984,1.984A1.986,1.986,0,0,0,262.906,280.61Zm0,2.885a.9.9,0,1,1,.9-.9A.9.9,0,0,1,262.906,283.5Z" transform="translate(-260.922 -280.61)"/></g></g></g></svg>