<svg xmlns="http://www.w3.org/2000/svg" width="25.519" height="17.707" viewBox="0 0 25.519 17.707"><defs><style>.a{fill:#fff;stroke:#fff;stroke-width:0.25px;}</style></defs><g transform="translate(0.125 -79.019)"><g transform="translate(0 79.144)"><path class="a" d="M106.328,244.535a.395.395,0,1,0,.65.448l.008-.011a7.412,7.412,0,0,1,6.186-3.326.395.395,0,1,0,0-.79A8.2,8.2,0,0,0,106.328,244.535Z" transform="translate(-100.014 -231.668)"/><path class="a" d="M24.874,196.306H22.505v-.477a9.315,9.315,0,0,0-2.885-6.773.395.395,0,0,0-.562.555l.014.014a8.534,8.534,0,0,1,2.642,6.2v.477H3.553v-.477a8.614,8.614,0,0,1,8.6-8.6h.954a8.642,8.642,0,0,1,2.174.276.395.395,0,0,0,.226-.757l-.029-.007a9.391,9.391,0,0,0-1.664-.273v-1.214a.4.4,0,0,0-.395-.395H11.845a.4.4,0,0,0-.395.395v1.214a9.4,9.4,0,0,0-8.686,9.365v.477H.395a.395.395,0,0,0,0,.79H24.874a.395.395,0,0,0,0-.79ZM12.24,185.646h.79v.79h-.79Z" transform="translate(0 -179.639)"/><path class="a" d="M320.922,84.062a1.277,1.277,0,0,1,0,2.234A2.16,2.16,0,0,0,320,88a.395.395,0,1,0,.79,0,1.415,1.415,0,0,1,.658-1.116,2.038,2.038,0,0,0,0-3.41,1.274,1.274,0,0,1,0-2.23,2.159,2.159,0,0,0,.922-1.7.395.395,0,1,0-.79,0,1.414,1.414,0,0,1-.658,1.115,2.037,2.037,0,0,0,0,3.409Z" transform="translate(-304.207 -79.144)"/><path class="a" d="M368.922,84.062a1.276,1.276,0,0,1,0,2.232A2.16,2.16,0,0,0,368,88a.395.395,0,0,0,.79,0,1.414,1.414,0,0,1,.658-1.116,2.038,2.038,0,0,0,0-3.41,1.274,1.274,0,0,1,0-2.23,2.159,2.159,0,0,0,.922-1.7.395.395,0,1,0-.79,0,1.414,1.414,0,0,1-.658,1.115,2.037,2.037,0,0,0,0,3.409Z" transform="translate(-349.838 -79.144)"/><path class="a" d="M416.922,84.062a1.276,1.276,0,0,1,0,2.232A2.16,2.16,0,0,0,416,88a.395.395,0,1,0,.79,0,1.415,1.415,0,0,1,.658-1.116,2.038,2.038,0,0,0,0-3.41,1.274,1.274,0,0,1,0-2.23,2.159,2.159,0,0,0,.922-1.7.395.395,0,1,0-.79,0,1.414,1.414,0,0,1-.658,1.115,2.037,2.037,0,0,0,0,3.409Z" transform="translate(-395.469 -79.144)"/></g></g></svg>