<svg xmlns="http://www.w3.org/2000/svg" width="18.25" height="15.285" viewBox="0 0 18.25 15.285"><defs><style>.a{fill:#a7a8bc;stroke:#a7a8bc;stroke-width:0.25px;}</style></defs><g transform="translate(0.125 0.125)"><g transform="translate(0)"><path class="a" d="M106.318,244.025a.34.34,0,1,0,.56.386l.007-.01a6.384,6.384,0,0,1,5.328-2.865.34.34,0,1,0,0-.68A7.062,7.062,0,0,0,106.318,244.025Z" transform="translate(-102.541 -232.943)"/><path class="a" d="M18.684,194.717H17.91v-.411a8.323,8.323,0,0,0-2.312-5.833.3.3,0,0,0-.447,0,.358.358,0,0,0,0,.481l.011.012a7.625,7.625,0,0,1,2.117,5.343v.411H2.723v-.411a7.175,7.175,0,0,1,6.9-7.41h.764a6.472,6.472,0,0,1,1.742.238.313.313,0,0,0,.394-.228.345.345,0,0,0-.212-.423l-.023-.006a7.046,7.046,0,0,0-1.333-.235V185.2a.329.329,0,0,0-.316-.34H9.367a.329.329,0,0,0-.316.34v1.045a7.886,7.886,0,0,0-6.961,8.065v.411H1.316a.341.341,0,0,0,0,.68H18.684a.341.341,0,0,0,0-.68Zm-9-9.181h.633v.68H9.684Z" transform="translate(-1 -180.363)"/><path class="a" d="M320.794,83.38a1.1,1.1,0,0,1,0,1.924A1.86,1.86,0,0,0,320,86.771a.34.34,0,0,0,.68,0,1.218,1.218,0,0,1,.567-.961,1.755,1.755,0,0,0,0-2.937,1.1,1.1,0,0,1,0-1.921,1.859,1.859,0,0,0,.794-1.468.34.34,0,0,0-.68,0,1.217,1.217,0,0,1-.567.96,1.754,1.754,0,0,0,0,2.936Z" transform="translate(-308.564 -79.144)"/><path class="a" d="M368.794,83.38a1.1,1.1,0,0,1,0,1.922A1.86,1.86,0,0,0,368,86.771a.34.34,0,0,0,.68,0,1.218,1.218,0,0,1,.567-.961,1.755,1.755,0,0,0,0-2.937,1.1,1.1,0,0,1,0-1.921,1.859,1.859,0,0,0,.794-1.468.34.34,0,0,0-.68,0,1.217,1.217,0,0,1-.567.96,1.754,1.754,0,0,0,0,2.936Z" transform="translate(-354.679 -79.144)"/><path class="a" d="M416.794,83.38a1.1,1.1,0,0,1,0,1.922A1.86,1.86,0,0,0,416,86.771a.34.34,0,1,0,.68,0,1.218,1.218,0,0,1,.567-.961,1.755,1.755,0,0,0,0-2.937,1.1,1.1,0,0,1,0-1.921,1.859,1.859,0,0,0,.794-1.468.34.34,0,1,0-.68,0,1.217,1.217,0,0,1-.567.96,1.754,1.754,0,0,0,0,2.936Z" transform="translate(-401.01 -79.144)"/></g></g></svg>