<svg xmlns="http://www.w3.org/2000/svg" xmlns:xlink="http://www.w3.org/1999/xlink" width="214.913" height="233.712" viewBox="0 0 214.913 233.712"><defs><style>.a{fill:#f4f7fa;}.b{fill:#ccc;}.c,.d,.i{fill:#bbccd5;}.c{opacity:0.3;}.ak,.al,.an,.e,.f,.g,.m{opacity:0.4;}.e{fill:url(#a);}.f{fill:url(#b);}.g{fill:url(#c);}.h{fill:#e4e4e4;}.ae,.af,.ah,.ai,.aj,.aw,.ba,.be,.bk,.i,.k,.o,.p,.r{opacity:0.5;}.j{fill:#f29b6e;}.ao,.k{fill:#ce543d;}.an,.l{fill:#233863;}.m{fill:#bee8ff;}.n,.p{fill:#fedf7c;}.o{fill:#f5c631;}.q{fill:#fefefe;}.r{fill:#dfe5f8;}.s{fill:#002949;}.t{fill:#f9d256;}.u{fill:#f1c742;}.v{fill:#b8c9ff;}.w{fill:#f29e70;}.x{fill:#10207f;}.y{fill:#afbcc4;}.z{fill:#fff;}.aa{fill:#0f3351;}.ab{fill:#e48c5e;}.ac{fill:#ed8a80;}.ad{fill:#f29079;}.ae{fill:url(#d);}.af{fill:#d4845f;}.ag{fill:#cc6c39;}.ah{fill:#d1713e;}.ai,.ak{fill:#d2daff;}.aj{fill:url(#e);}.al{fill:#c9d3ef;}.am{fill:#617fa2;}.ap,.aq,.ar,.as,.at,.au,.av,.aw,.ax,.ay,.az,.ba,.bb,.bc,.bd,.bf,.bg,.bh,.bi,.bj,.bk{fill-rule:evenodd;}.ap{fill:url(#g);}.aq{fill:url(#h);}.ar{fill:url(#i);}.as{fill:#9c3b58;}.at{fill:url(#j);}.au{fill:#a74561;}.av{fill:#e2705b;}.aw{fill:#791b40;}.ax{fill:url(#k);}.ay{fill:#df7668;}.az{fill:url(#l);}.ba{fill:url(#m);}.bb{fill:url(#n);}.bc{fill:#a23b58;}.bd{fill:#7c2f4e;}.bf{fill:#e3d9d2;}.bg{fill:url(#o);}.bh,.bi{fill:#833960;}.bh{opacity:0.42;}.bj{fill:#ffa451;}.bk{fill:#9c6888;}</style><linearGradient id="a" x1="0.473" y1="-0.153" x2="0.522" y2="1.106" gradientUnits="objectBoundingBox"><stop offset="0.02" stop-color="#4e77f7"/><stop offset="0.98" stop-color="#4e77f7"/></linearGradient><linearGradient id="b" x1="0.437" y1="0.07" x2="0.586" y2="1.115" xlink:href="#a"/><linearGradient id="c" x1="0.514" y1="-0.043" x2="0.492" y2="0.827" xlink:href="#a"/><linearGradient id="d" x1="1" y1="0.5" x2="0" y2="0.5" gradientUnits="objectBoundingBox"><stop offset="0" stop-color="#fec8c0"/><stop offset="0.98" stop-color="#fdaea3"/></linearGradient><linearGradient id="e" x1="1.002" y1="0.499" x2="0" y2="0.499" xlink:href="#d"/><radialGradient id="g" cx="0.503" cy="0.057" r="1.029" gradientTransform="translate(0.346) scale(0.308 1)" gradientUnits="objectBoundingBox"><stop offset="0.02" stop-color="#ffa874"/><stop offset="1" stop-color="#f49372"/></radialGradient><radialGradient id="h" cx="0.503" cy="0.057" r="1.034" gradientTransform="translate(0.347) scale(0.307 1)" xlink:href="#g"/><radialGradient id="i" cx="0.503" cy="0.057" r="0.835" gradientTransform="translate(0.291) scale(0.419 1)" gradientUnits="objectBoundingBox"><stop offset="0.02" stop-color="#d4634d"/><stop offset="1" stop-color="#a94d61"/></radialGradient><radialGradient id="j" cx="0.503" cy="0.057" r="3.185" gradientTransform="translate(0.456) scale(0.087 1)" xlink:href="#g"/><radialGradient id="k" cx="0.5" cy="0.5" r="19.745" gradientTransform="translate(0.491) scale(0.018 1)" gradientUnits="objectBoundingBox"><stop offset="0" stop-color="#ffcf84"/><stop offset="0.98" stop-color="#ffb88b"/></radialGradient><radialGradient id="l" cx="0.503" cy="0.057" r="5.616" gradientTransform="translate(0.475) scale(0.049 1)" xlink:href="#k"/><linearGradient id="m" y1="0.5" x2="1" y2="0.5" gradientUnits="objectBoundingBox"><stop offset="0" stop-color="#d3b8d6"/><stop offset="1" stop-color="#fff"/></linearGradient><radialGradient id="n" cx="0.5" cy="0.501" r="4.925" gradientTransform="translate(0.464) scale(0.072 1)" xlink:href="#g"/><linearGradient id="o" x1="0.5" y1="1.001" x2="0.5" gradientUnits="objectBoundingBox"><stop offset="0.03" stop-color="#dcc3cc"/><stop offset="1" stop-color="#f1e8f0"/></linearGradient></defs><g transform="translate(-58.004 -71.788)"><path class="a" d="M352.251,91.285c-5.825-38.128-29.708-84.971-76.892-89.873,0,0-35.823-4.358-71.138,2.246-20.959,3.919-39.338,15.587-50.966,32.356a70.183,70.183,0,0,0-10.8,56.712c3.062,12.662,5.131,25.766,4.564,38.778-.989,22.644-.42,43.781,21.555,57.285,19.622,12.058,44.316,22.692,67.875,24.555,16.011,1.262,33.965-.783,49.4-4.951C364.484,187.15,358.077,129.413,352.251,91.285Z" transform="translate(-82.494 71.787)"/><g transform="translate(102.78 95.158)"><g transform="translate(0 -6.491)"><path class="b" d="M0,68.33,1.04,82.44l20.912.978,46.5,2.171c.092-.229,1.7-12.474,1.7-12.474L17.7,69.538Z" transform="translate(55.212 40.471)"/><path class="c" d="M0,69.12,4.25,83l46.5,2.171c.092-.229,1.7-12.474,1.7-12.474Z" transform="translate(85.105 40.889)"/><path class="d" d="M1.1,160.937H5.61l5.916-61.01.367-3.654-6.13-.183-.336,4.6Z" transform="translate(123.98 55.148)"/><path class="d" d="M10.16,161.1h5.549s2-43.4,2.721-59.282c.168-3.577.26-5.778.26-5.809L11.2,95.78l-.107,6.94Z" transform="translate(100.321 54.984)"/><path class="d" d="M37.58,94.93l.581,6.115,5.687,60.505H49l-3.592-60.505-.352-5.885Z" transform="translate(18.916 54.534)"/><g transform="translate(129.406 151.238)"><path class="e" d="M1.436,96.09l-.336,4.6,6.1-.764.367-3.654Z" transform="translate(-1.1 -96.09)"/></g><g transform="translate(111.457 150.764)"><path class="f" d="M10.16,102.72l7.338-.9c.168-3.577.26-5.778.26-5.809l-7.491-.229Z" transform="translate(-10.16 -95.78)"/></g><g transform="translate(56.496 149.464)"><path class="g" d="M39.93,94.93l.581,6.115h7.246l-.352-5.885Z" transform="translate(-39.93 -94.93)"/></g><path class="d" d="M71.822,127.51H4.63l.659,4.4H71.053Z" transform="translate(57.584 71.759)"/><path class="h" d="M0,82.72l2.971,19.552,43.739,1.116,34.916.887,1.969-18.986-10.988-.336Z" transform="translate(53.958 48.079)"/><path class="i" d="M0,102.616l29.809.887,1.7-18.986L22.12,84.18C17.993,88.246,9.784,96.409,9.784,96.409Z" transform="translate(106.048 48.851)"/><path class="j" d="M62.732,138.6c1.33,3.057,8.759,6.94,8.82,7s0-.076,0-.245h0c-.229-.749-1.055-3.057-1.682-4.815a90.7,90.7,0,0,1-2.828-10.7l-1.3-2.583-1.238-2.492C61.525,128.179,61.4,135.593,62.732,138.6Z" transform="translate(-40.876 70.31)"/><g transform="translate(21.046 195.034)"><path class="k" d="M62.732,138.62c1.33,3.057,8.759,6.94,8.82,7s0-.076,0-.245h0c-1.85-2.278-5.947-7.506-6.329-9.646a26.8,26.8,0,0,1,.52-8.5l-1.238-2.492C61.525,128.195,61.4,135.609,62.732,138.62Z" transform="translate(-61.922 -124.74)"/></g><path class="l" d="M67.566,78.637a290.56,290.56,0,0,0,3.18,33.891c.229,1.315.474,2.385.688,3.164a26.4,26.4,0,0,1,.933,13.269c-.138.6-.321,1.315-.5,2.11a30.757,30.757,0,0,0,0,15.623c1.391,4.8,4.922,14.813,7.261,21.4l2.048,5.656a5.411,5.411,0,0,1,2.629.611s-.352-23.649,0-30.405c.229-4.036.183-9.386.107-13.055a69.008,69.008,0,0,1-7.17-3.684A186.348,186.348,0,0,1,72.6,100.085c-.229-3.363-.336-6.787-.245-10.1a137.961,137.961,0,0,1,3.424-28.388c-2.782-2.69-2.813-4.4-2.813-4.4S67.337,67.784,67.566,78.637Z" transform="translate(-61.883 34.582)"/><g transform="translate(8.817 134.667)"><path class="m" d="M68.343,100.858a26.4,26.4,0,0,1,.933,13.269c-.138.6-.321,1.315-.5,2.11a114.658,114.658,0,0,1,3.057,13.758c1.024,6.573,2.8,16.235,4.127,23.251L78,158.9a5.411,5.411,0,0,1,2.629.611s-.352-23.649,0-30.405c.229-4.036.183-9.386.107-13.055a69,69,0,0,1-7.093-3.669A186.347,186.347,0,0,1,69.5,85.25c-.581,4.586-1.376,8.622-1.9,12.443C67.884,99.008,68.129,100.155,68.343,100.858Z" transform="translate(-67.609 -85.25)"/></g><path class="n" d="M49.552,125.717a69,69,0,0,0,7.108,3.608,86.51,86.51,0,0,0,9.065,3.333,105.478,105.478,0,0,0,16.494,3.608c1.789.245,2.813.321,2.813.321.611-.963,5.075-10.38,5.794-14.843a24.719,24.719,0,0,0-.306-6.527h0a112.664,112.664,0,0,0-4.158-17.84c-.489-1.422-1.07-3.409-1.7-5.656-2.186-7.8-5-18.956-6.91-22.7a37.514,37.514,0,0,1-21.554-3.7,28.517,28.517,0,0,1-2.6-1.529c-.78-.52-1.208-.764-1.727-1.131a24.246,24.246,0,0,1-3.241-2.629,135.654,135.654,0,0,0-3.363,26.63h0V88.4C44.737,105.738,49.552,125.717,49.552,125.717Z" transform="translate(-34.697 36.083)"/><g transform="translate(18.906 99.935)"><path class="o" d="M49.32,62.53C53.692,71.7,65.142,86.3,80.383,90.428c-2.186-7.8-5-18.956-6.91-22.7a37.514,37.514,0,0,1-21.554-3.7C50.956,63.524,50.1,63.019,49.32,62.53Z" transform="translate(-49.32 -62.53)"/></g><g transform="translate(10.533 122.774)"><path class="p" d="M49.552,116.5a69.006,69.006,0,0,0,7.108,3.608,86.51,86.51,0,0,0,9.065,3.333,105.478,105.478,0,0,0,16.494,3.608c1.789.245,2.813.321,2.813.321.611-.963,5.075-10.38,5.794-14.843A24.719,24.719,0,0,0,90.521,106c-8.591,2.935-25.391,3.577-29.534,1.666,0,0-11.159-15.562-12.352-18.558-.566-1.406-2-6.558-3.363-11.633v1.743C44.737,96.517,49.552,116.5,49.552,116.5Z" transform="translate(-45.231 -77.47)"/></g><path class="q" d="M32.6,70.45s0,1.712,2.813,4.4a24.245,24.245,0,0,0,3.241,2.629c.52.367,1.1.749,1.727,1.131h0c.78.489,1.636.994,2.6,1.529a28.8,28.8,0,0,0,4.785,2.064A37.9,37.9,0,0,0,60.33,84.132h.183a28.908,28.908,0,0,0,4.02-.29L69.472,76.2l2.706-4.127a62.074,62.074,0,0,0,4.082-7.8h0C78.2,60.025,79.7,56.1,79.7,56.1l.229.4a86.142,86.142,0,0,0,7.445,10.945A36.688,36.688,0,0,0,97,75.755a8.255,8.255,0,0,1-2.247-5.7c-.037-2.966,1.3-5.147,2.247-7.958,0,0-4.265-8.063-7.108-13.123s-5.9-9.753-5.9-9.753A33.539,33.539,0,0,0,76.519,35.6c-3.562-1.33-7.17-2.415-8.423-2.767a23.771,23.771,0,0,0-8.392-.581A51.975,51.975,0,0,0,45.12,36.024a5,5,0,0,0-2.69,2.935v.122c-.443.978-.887,2.155-1.62,3.547A32.575,32.575,0,0,0,39.28,46.74h0C36.773,54.7,32.6,70.45,32.6,70.45Z" transform="translate(-21.475 21.322)"/><g transform="translate(38.229 53.43)"><path class="r" d="M46,32.249c1.254,1.743,5,3.378,8.469,3.776a19.873,19.873,0,0,0,8.347-.428c-3.562-1.33-7.17-2.415-8.423-2.767A23.771,23.771,0,0,0,46,32.249Z" transform="translate(-46 -32.108)"/></g><g transform="translate(16.841 60.403)"><path class="r" d="M66.875,76.2h0c.78.489,1.636.994,2.6,1.529a28.8,28.8,0,0,0,4.785,2.064l-1.177-5.778s-2.171-10.854-4.127-17.962a44.057,44.057,0,0,1,0-19.384c-.443.978-.887,2.155-1.62,3.547A32.575,32.575,0,0,0,65.8,44.329h0c-.474,3.9-.459,9.463-.9,17.763S65.683,74,66.875,76.2Z" transform="translate(-64.81 -36.67)"/></g><path class="d" d="M81.626,80.709l1.969,7.307L0,85.448,2.667,77.56Z" transform="translate(53.958 45.351)"/><path class="h" d="M82.341,74.68,0,69.91l1.507-4.54,78.86,5.075Z" transform="translate(55.212 38.906)"/><path class="j" d="M2.445,10.517a7.246,7.246,0,0,0,.367,7.215,8.652,8.652,0,0,0,4.4,3.654c.26.107.535.2.825.29s.6.183.932.26c7.888,1.85,11.266-1.773,12.229-3.868a13.376,13.376,0,0,0,.535-4.739c0-1.33,0-2.752.122-4.112a14.812,14.812,0,0,1,.29-2.079,11.067,11.067,0,0,0,.245-2.752s-.459-1.529-.917-2.706A3.5,3.5,0,0,0,19.948,0a27,27,0,0,1-6.313,1.8,6.741,6.741,0,0,1-4.311-.367A1.712,1.712,0,0,1,8.8,1.07c-.841.5-1.391,2.446-2.018,4.189A13.391,13.391,0,0,1,6.1,6.925a4.585,4.585,0,0,1-.275.489C5,8.713,4.462,8.209,4.4,6.634A2.461,2.461,0,0,0,2.766,4.387a2.476,2.476,0,0,1,0-.321C1.375,3.592.243,5.748.014,7.781S2.445,10.517,2.445,10.517Z" transform="matrix(0.951, -0.309, 0.309, 0.951, 32.698, 35.898)"/><path class="s" d="M.006,9.362a12.688,12.688,0,0,1,5.32-7.643,10.044,10.044,0,0,1,.948-.611c4.586-2.736,10.854.153,12.948,2.675A3.7,3.7,0,0,1,19.8,4.7a6.405,6.405,0,0,1-.168,5h0s-.459-1.529-.917-2.706a3.5,3.5,0,0,0-1.529-1.682,27.914,27.914,0,0,1-6.313,1.8c-3.684.6-4.831-.718-4.831-.718C4.9,7.054,4.3,10.371,3.338,12.236s-1.636,1.452-1.7-.29A2.461,2.461,0,0,0,.006,9.7,2.478,2.478,0,0,1,.006,9.362Z" transform="matrix(0.951, -0.309, 0.309, 0.951, 33.701, 30.004)"/><path class="s" d="M4.131,2.9C4.544,2.547,3.9.544,2.113.131S-.226.361.08.911,1.609,1.63,2.617,2.18A15.563,15.563,0,0,0,4.131,2.9Z" transform="matrix(0.951, -0.309, 0.309, 0.951, 50.663, 33.475)"/><path class="s" d="M5.916.682c.122.718-1.529.489-3.057.718A9.34,9.34,0,0,1,0,1.4,3.791,3.791,0,0,1,3.226.024C5.61-.037,5.794-.037,5.916.682Z" transform="matrix(0.951, -0.309, 0.309, 0.951, 41.03, 35.576)"/><path class="s" d="M8.815,2.584c.245.352,1.529,2.125,2.11,1.789,0,0,.367-1.192,1.085-.6s-1.8,3.44-5.671,1.1c0,0-6.115-1.7-6.3-3.057S.331-.106.82.016.82,1.1.82,1.1a6.008,6.008,0,0,0,3.592,0A4.586,4.586,0,0,0,6.522,2.63a3.562,3.562,0,0,0,2.293-.046Z" transform="matrix(0.951, -0.309, 0.309, 0.951, 43.309, 45.34)"/><path class="t" d="M81.848,59.952c.2-.749-2.9-8.255-7.124-7.949,0,0,3.317,8.469,6.482,9.814Z" transform="translate(-70.723 31.835)"/><path class="u" d="M75.162,55.559c-.321,0,6.115,5.091,10.471,4.387C85.633,59.947,83.371,55.131,75.162,55.559Z" transform="translate(-75.15 33.706)"/><path class="v" d="M70.339,134.032a13.758,13.758,0,0,0-2.415,0l-.214-.611a5.412,5.412,0,0,1,2.629.611Z" transform="translate(-48.483 74.883)"/><path class="w" d="M2.018.562c.718,1.3.306,4.586-2.018,4.754C0,3.986,0,2.564.122,1.2.673.5,1.3-.722,2.018.562Z" transform="matrix(0.951, -0.309, 0.309, 0.951, 55.861, 36.798)"/><path class="q" d="M0,23.732a8.394,8.394,0,0,1,.948-.611,7.17,7.17,0,0,1,1.88-.81A11.924,11.924,0,0,1,13.835,25.8a5.075,5.075,0,0,1,.581.917c1.147-2.339,7.46-16.005,9.371-18.635A12.994,12.994,0,0,0,14.614.266,10.7,10.7,0,0,0,11.557.022,13.177,13.177,0,0,0,3.042,4.379Z" transform="matrix(0.951, -0.309, 0.309, 0.951, 31.988, 7.35)"/><path class="x" d="M.917,0s.183.336.489.856A45.677,45.677,0,0,0,4.464,5.442L4.8,5.9A5.029,5.029,0,0,1,5.885,8.958,8.163,8.163,0,0,1,0,4.372Z" transform="matrix(0.951, -0.309, 0.309, 0.951, 39.618, 52.673)"/><path class="t" d="M73.853,57.2c.214,2.018,2.8,4.387,2.8,4.387l-.367,1.529a6.329,6.329,0,0,1-3.394-3.975Z" transform="translate(-62.713 34.587)"/><path class="n" d="M68.446,68.754h0a.26.26,0,0,0,.229-.26,174.984,174.984,0,0,0-2.2-19.781A33.631,33.631,0,0,0,61.414,36.7a.245.245,0,1,0-.382.29A33.631,33.631,0,0,1,66,48.8a172.009,172.009,0,0,1,2.186,19.72.245.245,0,0,0,.26.229Z" transform="translate(-36.485 23.675)"/><path class="n" d="M71.478,71.86h0a.245.245,0,0,0,.153-.306A84.169,84.169,0,0,1,67.962,42.28a.245.245,0,0,0-.229-.26.26.26,0,0,0-.26.229,84.8,84.8,0,0,0,3.7,29.458.229.229,0,0,0,.306.153Z" transform="translate(-49.255 26.562)"/><path class="n" d="M41.592,53.356a.29.29,0,0,0,.245-.168c.764-2.446,3.623-13.942,3.654-14.064a.243.243,0,1,0-.474-.107c0,.107-2.874,11.587-3.654,14.018a.26.26,0,0,0,.168.306Z" transform="translate(16.647 24.872)"/><path class="n" d="M58.265,81.579a.229.229,0,0,0,.214-.138c.076-.153,7.4-15.562,10.089-22.93a99.515,99.515,0,0,0,3.99-18.451.229.229,0,0,0-.183-.26c-.168,0-16.51-3.333-21.126-5.534a.26.26,0,0,0-.321.107c-.168.306-4.112,7.506-4.219,10.364a.245.245,0,0,0,.489.015c.092-2.492,3.409-8.759,4.051-9.952,4.662,2.125,18.787,5.06,20.867,5.473A97.636,97.636,0,0,1,68.11,58.328c-2.675,7.307-10,22.686-10.074,22.854a.26.26,0,0,0,.122.321Z" transform="translate(-18.6 22.453)"/><path class="n" d="M49.3,43.159c-.092.887.153,1.62.535,1.666s.749-.657.841-1.529-.168-1.62-.55-1.666S49.374,42.288,49.3,43.159Z" transform="translate(-0.658 26.355)"/><path class="n" d="M50.539,50.379c-.183.78,0,1.529.352,1.529s.825-.489.994-1.269,0-1.529-.336-1.529S50.723,49.6,50.539,50.379Z" transform="translate(-3.735 30.31)"/><path class="n" d="M53.945,58.269c-.183.78,0,1.529.352,1.529s.81-.489.994-1.269S55.29,57,54.939,57,54.128,57.489,53.945,58.269Z" transform="translate(-12.353 34.481)"/><path class="n" d="M60.255,38.434c-.183.795,0,1.529.336,1.529s.825-.474,1.009-1.254,0-1.529-.352-1.529S60.423,37.593,60.255,38.434Z" transform="translate(-28.31 24.003)"/><path class="n" d="M61.579,44.619c-.183.78,0,1.529.352,1.529s.825-.489.994-1.269,0-1.529-.336-1.529S61.763,43.839,61.579,44.619Z" transform="translate(-31.651 27.265)"/><path class="x" d="M68.9,57.2c-.245,0-7.9,2.66-10.166,6.39,0,0,2.2,5.809,4.3,7.032a10.578,10.578,0,0,1,9.493-7.475Z" transform="translate(-36.935 34.587)"/><path class="y" d="M78.843,81.117l1.321,3.776L1.69,83.013l2.28-4.4Z" transform="translate(54.806 45.906)"/><path class="z" d="M0,1.179A3.44,3.44,0,0,0,3.394,2.845a2.308,2.308,0,0,0,1.391-.7c.229-.26,0-1.727-1.529-2.094a3.363,3.363,0,0,0-.52-.031A3.057,3.057,0,0,0,0,1.179Z" transform="matrix(0.951, -0.309, 0.309, 0.951, 41.992, 37.843)"/><path class="z" d="M0,1.142A3.149,3.149,0,0,0,1.941,2.579a3.057,3.057,0,0,0,1.743.138,2.446,2.446,0,0,0,.81-.443c.29-.214,0-1.9-1.529-2.262a.963.963,0,0,0-.29,0A4.02,4.02,0,0,0,0,1.142Z" transform="matrix(0.951, -0.309, 0.309, 0.951, 50.585, 37.083)"/><path class="aa" d="M0,1.188A1.529,1.529,0,0,0,1.529,2.717a2.446,2.446,0,0,0,.81-.443c.29-.214,0-1.9-1.529-2.262a.963.963,0,0,0-.29,0A1.529,1.529,0,0,0,0,1.188Z" transform="matrix(0.951, -0.309, 0.309, 0.951, 52.621, 36.373)"/><path class="aa" d="M0,1.376A1.529,1.529,0,0,0,.994,2.8a2.308,2.308,0,0,0,1.391-.7C2.614,1.834,2.385.367.856,0A1.529,1.529,0,0,0,0,1.376Z" transform="matrix(0.951, -0.309, 0.309, 0.951, 44.289, 37.147)"/><path class="ab" d="M.005,7.094a.245.245,0,0,1,.26-.2.245.245,0,0,1,.214.26h0a1.315,1.315,0,0,0,0,.229,1.758,1.758,0,0,0,.092.26.749.749,0,0,0,.153.229,1.238,1.238,0,0,0,.183.214l.214.183a.856.856,0,0,0,.26.168l.275.168.275.107a1.942,1.942,0,0,0,.275.092l.29.076H3.965V8.041A8.082,8.082,0,0,0,3.8,6.864L3.628,5.687V3.914a1.49,1.49,0,0,1,.092-.627,4.356,4.356,0,0,1,.168-.6,3.713,3.713,0,0,1,.2-.581c.092-.183.153-.382.26-.566l.306-.535L5.035.49,5.463.062a.26.26,0,0,1,.336,0,.275.275,0,0,1,0,.352h0L5.4.857,5.1,1.3l-.275.5c-.092.168-.138.352-.214.52a3.057,3.057,0,0,0-.168.535,2.339,2.339,0,0,0-.122.566,3.41,3.41,0,0,0,0,.55v.566a1.266,1.266,0,0,0,.076.535v.566l.046,1.07a8.035,8.035,0,0,0,.2,1.162L4.79,9.081a.367.367,0,0,1-.229.4h0a1.743,1.743,0,0,1-.382.092H3.827a2.951,2.951,0,0,1-.367,0H2.742a1.529,1.529,0,0,1-.352-.076L2.038,9.4a2.89,2.89,0,0,1-.321-.138L1.366,9.1l-.275-.183a1.529,1.529,0,0,1-.275-.2l-.29-.26L.3,8.148a2.308,2.308,0,0,1-.168-.336,1.666,1.666,0,0,1-.107-.367A1.33,1.33,0,0,1,.005,7.094Z" transform="matrix(0.951, -0.309, 0.309, 0.951, 45.464, 37.713)"/><path class="ac" d="M.241,3.173A.183.183,0,0,0,.394,3.1a5.87,5.87,0,0,0,0-2.966.183.183,0,0,0-.352,0,5.855,5.855,0,0,1,0,2.721.2.2,0,0,0,0,.245Z" transform="matrix(0.951, -0.309, 0.309, 0.951, 37.152, 40.743)"/><path class="ab" d="M50.133,31.037a3.76,3.76,0,0,0,.917-.092.18.18,0,1,0-.076-.352,3.913,3.913,0,0,1-3.057-.657.178.178,0,0,0-.245.26A3.715,3.715,0,0,0,50.133,31.037Z" transform="translate(1.38 20.149)"/><path class="ad" d="M0,1.949S1.666.573,3.057.971A2.538,2.538,0,0,1,4.586,2.912S5.121.787,3.348.115,0,1.949,0,1.949Z" transform="matrix(0.951, -0.309, 0.309, 0.951, 50.336, 36.315)"/><path class="ad" d="M4.876,2.819A2.446,2.446,0,0,0,3.348.786C1.987.373,0,1.795,0,1.795A3.638,3.638,0,0,1,3.348.006C5.595.22,4.876,2.819,4.876,2.819Z" transform="matrix(0.951, -0.309, 0.309, 0.951, 41.754, 37.16)"/><g transform="matrix(0.951, -0.309, 0.309, 0.951, 39.482, 34.819)"><path class="ae" d="M0,4.189A17.32,17.32,0,0,1,2.538.367,1.712,1.712,0,0,1,2.018,0C1.131.5.627,2.446,0,4.189Z"/></g><g transform="matrix(0.951, -0.309, 0.309, 0.951, 33.919, 39.756)"><path class="af" d="M2.475,6.471a7.246,7.246,0,0,0,.367,7.215,8.652,8.652,0,0,0,4.4,3.654c.26.107.535.2.825.29-2.125-2.186-3.9-5.931-3.776-8.1A22.028,22.028,0,0,1,5.823,3.414C5,4.713,4.462,4.209,4.4,2.634A2.461,2.461,0,0,0,2.765.387a2.477,2.477,0,0,1,0-.321C1.374-.408.243,1.748.014,3.781S2.475,6.471,2.475,6.471Z"/></g><path class="ag" d="M0,1.636C.336,2.2.81,3,1.345,3.822s1.116,1.7,1.666,2.4l.336.459c.4-.168.7-1.223.887-2.11.092-.367.138-.688.2-.917A8.652,8.652,0,0,1,.031,0C.031.443.031.994,0,1.636Z" transform="matrix(0.951, -0.309, 0.309, 0.951, 40.822, 51.904)"/><g transform="matrix(0.951, -0.309, 0.309, 0.951, 40.822, 51.904)"><path class="ah" d="M0,1.636C.336,2.2.81,3,1.345,3.822a17.243,17.243,0,0,0,2.889.749c.092-.367.138-.688.2-.917A8.652,8.652,0,0,1,.031,0C.031.443.031.994,0,1.636Z"/></g><g transform="translate(58.468 72.419)"><path class="r" d="M32.59,49.835A86.142,86.142,0,0,0,40.035,60.78,36.688,36.688,0,0,0,49.665,69.1a8.255,8.255,0,0,1-2.247-5.7C41.3,58.945,33.507,48.459,34.119,44.53Z" transform="translate(-32.59 -44.53)"/></g><g transform="translate(37.831 85.596)"><path class="ai" d="M46.17,71.586s.459.642,1.024,1.391a28.741,28.741,0,0,0,4.2-.29s4.265-6.6,7.643-11.74a62.078,62.078,0,0,0,4.082-7.8,83.023,83.023,0,0,1-8.591,10.013C49.992,67.688,46.17,71.586,46.17,71.586Z" transform="translate(-46.17 -53.15)"/></g><g transform="translate(30.585 75.782)"><path class="r" d="M51.986,62.735s-.734,4.265-.092,5.931c.352.932,4.036,4.586,7.17,7.643a28.906,28.906,0,0,0,4.02-.29l4.938-7.643C53.392,63.026,50.61,46.929,50.61,46.73Z" transform="translate(-50.61 -46.73)"/></g><path class="j" d="M40.575,68.623c5.549,9.463,24.367,17.748,24.367,17.748a8.423,8.423,0,0,0,6.115,3.057.124.124,0,0,0,.122-.107c.122-.367-.948-1.529-1.07-1.636.183.153,2.446,2.064,3.455,1.7.443-.168.382-.459.153-.734.642.474,1.529.948,1.926.627s-.4-1.529-1.024-2.11c.795.7,2.339,1.911,3.057,1.391.963-.734-3.057-4.678-6.038-6.772s-4.265.581-4.662.336S63.918,78.9,60.05,74.478,50.878,63.135,50.007,61.041a8.76,8.76,0,0,0-5.075,1.452A7.934,7.934,0,0,0,42.5,64.588,12.122,12.122,0,0,0,40.575,68.623Z" transform="translate(-14.484 36.616)"/><g transform="translate(26.091 101.357)"><path class="aj" d="M44.92,67.343c5.549,9.463,24.367,17.748,24.367,17.748A8.423,8.423,0,0,0,75.4,88.148a.124.124,0,0,0,.122-.107,49.27,49.27,0,0,1-5.992-3.5c-2.171-1.7-9.738-5.564-13.987-8.851-3.913-3.057-7.139-8.805-8.713-12.229a12.122,12.122,0,0,0-1.911,3.883Z" transform="translate(-44.92 -63.46)"/></g><g transform="translate(67.04 81.824) rotate(7)"><path class="x" d="M8.624.378A18.024,18.024,0,0,0,3.635,3.509,19.45,19.45,0,0,0,.328,8.03S2.2,12.2,4.3,13.422a10.579,10.579,0,0,1,9.493-7.475Z" transform="translate(0 0)"/><path class="j" d="M0,7.586C5.834,14.98,24.367,25.334,24.367,25.334a8.423,8.423,0,0,0,6.115,3.057.124.124,0,0,0,.122-.107c.122-.367-.948-1.529-1.07-1.636.183.153,2.446,2.064,3.455,1.7.443-.168.382-.459.153-.734.642.474,1.529.948,1.926.627s-.4-1.529-1.024-2.11c.795.7,2.339,1.911,3.057,1.391.963-.734-3.057-4.678-6.038-6.772s-4.265.581-4.662.336-2.758-1.555-6.925-7.643S10.3,2.1,9.432,0A8.759,8.759,0,0,0,4.357,1.456,7.934,7.934,0,0,0,1.926,3.55,12.122,12.122,0,0,0,0,7.586Z" transform="translate(4.295 5.867)"/><g transform="translate(4.295 9.57)"><path class="aj" d="M0,3.883c4.865,6.338,24.367,17.748,24.367,17.748a8.423,8.423,0,0,0,6.115,3.057.124.124,0,0,0,.122-.107,49.271,49.271,0,0,1-5.992-3.5c-2.171-1.7-9.738-5.564-13.987-8.851C6.711,9.172,3.485,3.424,1.911,0A12.122,12.122,0,0,0,0,3.883Z" transform="translate(0 0)"/></g></g><g transform="matrix(0.951, -0.309, 0.309, 0.951, 31.99, 7.357)"><path class="ak" d="M0,23.725a8.393,8.393,0,0,1,.948-.611,7.17,7.17,0,0,1,1.88-.81C4.357,14.9,7.964,4.4,11.633,0A13.177,13.177,0,0,0,3.119,4.357Z"/></g><g transform="matrix(0.951, -0.309, 0.309, 0.951, 46.159, 4.762)"><path class="al" d="M7.857,6.833C8.79,6.283,5.564.489,0,0A18.054,18.054,0,0,1,4.8,3.424C5.855,4.907,7.063,7.261,7.857,6.833Z"/></g><path class="am" d="M50.93,133.817a5.6,5.6,0,0,0,.994,3.057,13.376,13.376,0,0,0,1.529,2.018,93.25,93.25,0,0,1,6.757-10.135c2.874-3.745,9.264-11.266,12.581-15.149l2.094-2.431A105.48,105.48,0,0,1,58.39,107.57C55.042,113.96,51.022,131.815,50.93,133.817Z" transform="translate(-27.377 61.217)"/><g transform="translate(23.553 168.848)"><path class="an" d="M50.89,133.8a5.6,5.6,0,0,0,.994,3.057c.443-1.651,1.024-3.654,1.743-5.824,1.819-5.473,5.58-15.287,5.58-15.287s1.131-1.941,5.962-2.094h7.643l2.094-2.431a105.478,105.478,0,0,1-16.494-3.608C55,113.939,50.982,131.794,50.89,133.8Z" transform="translate(-50.89 -107.61)"/></g><path class="ao" d="M61.39,133.42l.7,5.809c3.623,1.8,11.587,2.721,11.587,2.721l-.183-.2c-2.278-2.339-7.292-6.7-9.478-7.643a10,10,0,0,0-1.223-.428h0a3.593,3.593,0,0,0-1.406-.26Z" transform="translate(-42.163 74.883)"/><g transform="translate(19.227 208.299)"><path class="p" d="M61.39,133.421l.7,5.809c3.623,1.8,11.587,2.721,11.587,2.721l-.183-.2a51.132,51.132,0,0,1-7.307-2.859,30.694,30.694,0,0,1-3.394-5.259h0a3.592,3.592,0,0,0-1.406-.214Z" transform="translate(-61.39 -133.417)"/></g></g></g><g transform="translate(70.5 -62.451)"><g transform="translate(83.663 271.63)"><path class="ap" d="M85.243,32.285l-.493-3.519,13.67-.7-1.01,3.359Z" transform="translate(-73.517 -24.35)"/><path class="aq" d="M98.247,4.258,97.174.876,85.585.82,84.75,4.958Z" transform="translate(-73.517 -0.711)"/><path class="ar" d="M20.9.82l-8.689.363L10.18,5.31l9.884-.353Z" transform="translate(-8.831 -0.711)"/><path class="as" d="M19.932,36.839l-9.526-.489-.946-2.8,9.979-.231Z" transform="translate(-8.206 -28.904)"/><path class="at" d="M92.634,26.76l1.689.148v.245l-16.043,1v-.612l.858-.086Z" transform="translate(-67.905 -23.213)"/><path class="au" d="M10.375,32.69,0,32.885l.107.364,10.268.053Z" transform="translate(0 -28.357)"/><path class="av" d="M11.284,30.4l-9.669.109L0,30.9,10.375,30.7Z" transform="translate(0 -26.371)"/><path class="aw" d="M98.726,31.48,85.26,32.2l.119.851,13.173-1Z" transform="translate(-73.96 -27.308)"/><path class="ax" d="M45.769.876l-11.682.179-8.6.129L34.179.82Z" transform="translate(-22.112 -0.711)"/><path class="ay" d="M88.774,2.59,88.73,3.88l.423-1.29Z" transform="translate(-76.97 -2.247)"/><path class="ay" d="M76.02,32.139l.3.229.213-.329Z" transform="translate(-65.944 -27.793)"/><path class="az" d="M78.28,27.546s9.227-.52,16.037-.638l-1.689-.148-13.44.482Z" transform="translate(-67.905 -23.213)"/><path class="ba" d="M100.637,52.4a38.311,38.311,0,0,0-12.167.856Z" transform="translate(-76.744 -45.325)"/><path class="bb" d="M94.323,31.48l-.073.16-15.873.994-.1-.382Z" transform="translate(-67.905 -27.308)"/><path class="bc" d="M94.323,30.179l-.538-.2-15.5.972Z" transform="translate(-67.905 -26.006)"/><path class="au" d="M11.175,37.345.83,37.143.81,36.91l10.268.053Z" transform="translate(-0.703 -32.018)"/><path class="bd" d="M11.078,36.651.81,36.6l10.268-.048,1.45.016Z" transform="translate(-0.703 -31.706)"/><g class="be" transform="translate(3.235 0.382)"><path class="bf" d="M129.579,11.886a.11.11,0,0,0,.147.1.1.1,0,0,0,.082-.133.133.133,0,0,0-.133-.107.118.118,0,0,0-.1.137Z" transform="translate(-115.637 -10.575)"/><path class="bf" d="M146.38,18.527c.008-.087.1-.133.176-.144a.277.277,0,0,1,.182.048.133.133,0,0,1,.07.163.289.289,0,0,1-.054.085c-.028.023-.086.008-.118,0a.2.2,0,0,1-.123-.068C146.475,18.578,146.377,18.606,146.38,18.527Z" transform="translate(-130.213 -16.328)"/><path class="bf" d="M129.463,10c-.052.02-.125.1-.05.133a.307.307,0,0,0,.2-.032c.139-.106-.081-.2-.171-.085Z" transform="translate(-115.468 -9.022)"/><path class="bf" d="M130.469,15.121c.05-.089.143.013.083.064a.057.057,0,0,1-.093-.044Z" transform="translate(-116.403 -13.469)"/><path class="bf" d="M131.518,12.655c.033-.06.094.008.054.042a.038.038,0,0,1-.062-.029Z" transform="translate(-117.314 -11.339)"/><path class="bf" d="M120.4,7.776c-.115.156.1.338.18.15.045-.1-.041-.223-.133-.15Z" transform="translate(-107.648 -7.109)"/><path class="bf" d="M122.906,10.784c-.015-.03-.029-.023-.045,0s-.009.038.009.062c.044.054.081.053.141.015s.133-.114.041-.155a.146.146,0,0,0-.133.036Z" transform="translate(-109.804 -9.666)"/><path class="bf" d="M121.8,11.585c-.008-.077.106.023.056.064s-.069-.038-.056-.069Z" transform="translate(-108.89 -10.407)"/><path class="bf" d="M123.535,9.346c.032.05.1-.02.073-.054s-.068.025-.078.045Z" transform="translate(-110.392 -8.433)"/><path class="bf" d="M113.874,16.463c.02-.064.1,0,.107.036a.121.121,0,0,1-.1.133c-.093.008-.117-.133-.036-.168Z" transform="translate(-101.951 -14.64)"/><path class="bf" d="M120.823,17.134c-.056.081.133.1.133.007s-.109-.072-.133-.011Z" transform="translate(-108.034 -15.197)"/><path class="bf" d="M114.741,4.912a.076.076,0,0,1,.072-.114c.076.011.077.115.052.167a.083.083,0,1,1-.148-.073Z" transform="translate(-102.733 -4.544)"/><path class="bf" d="M123.339,3.008c-.066.158.192.1.205-.024C123.562,2.83,123.359,2.87,123.339,3.008Z" transform="translate(-110.217 -2.885)"/><path class="bf" d="M149.363,17.751c-.073.1.118.148.133.024a.1.1,0,0,0-.155-.013Z" transform="translate(-132.781 -15.763)"/><path class="bf" d="M142,25.643a.53.53,0,0,1,.692-.133c.058.038.14.11.072.175s-.347,0-.428,0a.8.8,0,0,1-.335-.042Z" transform="translate(-126.414 -22.447)"/><path class="bf" d="M137.75,25.8c.012.091.175.06.151-.016-.016-.05-.1-.064-.121-.016Z" transform="translate(-122.727 -22.708)"/><path class="bf" d="M93.217,4.236c-.03.143.151.114.151,0,0-.094-.125-.133-.151-.029Z" transform="translate(-84.094 -3.978)"/><path class="bf" d="M121.937,21.616a.1.1,0,0,1,.06-.046c.093.125-.115.208-.06.061Z" transform="translate(-109.002 -19.094)"/><path class="bf" d="M91.935,21.266c-.144.368.464.113.551-.058s-.14-.205-.265-.182A.322.322,0,0,0,91.935,21.266Z" transform="translate(-82.966 -18.616)"/><path class="bf" d="M96.38,22.925c.015-.082.168-.152.15-.028-.012.069-.11.115-.133.041Z" transform="translate(-86.84 -20.186)"/><path class="bf" d="M163.046,10.149c-.152.213.485.216.516,0s-.459-.143-.53-.017Z" transform="translate(-144.65 -9.067)"/><path class="bf" d="M166.58,8.653c.013-.133.195-.074.156,0s-.125.019-.156-.019Z" transform="translate(-147.736 -7.82)"/><path class="bf" d="M170.068,9.575a.4.4,0,0,0,.17-.041c-.015-.118-.162-.091-.2,0,0,.019.017.016.028.027Z" transform="translate(-150.737 -8.584)"/><path class="bf" d="M157.64,11.737c0-.049.013-.074.064-.077.061.052.046.15-.037.133Z" transform="translate(-139.981 -10.497)"/><path class="bf" d="M139.486,18.22c-.228.192.265.133.041.028Z" transform="translate(-124.179 -16.188)"/><path class="bf" d="M132.373,22.12c-.056.057-.034.176.065.133.077-.033.06-.167-.034-.123Z" transform="translate(-118.036 -19.571)"/><path class="bf" d="M136,24.161c.019-.062.1-.064.094,0s-.057.048-.073.011Z" transform="translate(-121.209 -21.3)"/><path class="bf" d="M167.658,42.884c.015.08.054.122.147.1a.1.1,0,0,0,.083-.133.133.133,0,0,0-.14-.107A.119.119,0,0,0,167.658,42.884Z" transform="translate(-148.67 -37.464)"/><path class="bf" d="M132.83,41.044a.183.183,0,0,1,.176-.144.265.265,0,0,1,.182.046.133.133,0,0,1,.072.163.3.3,0,0,1-.056.085c-.028.023-.086.008-.118,0a.209.209,0,0,1-.123-.069C132.925,41.089,132.827,41.117,132.83,41.044Z" transform="translate(-118.459 -35.859)"/><path class="bf" d="M167.576,41c-.052.02-.125.1-.049.133a.3.3,0,0,0,.2-.032c.133-.106-.081-.2-.171-.085Z" transform="translate(-148.529 -35.914)"/><path class="bf" d="M168.551,46.121c.05-.089.142.013.082.064a.057.057,0,0,1-.093-.044Z" transform="translate(-149.436 -40.36)"/><path class="bf" d="M169.607,43.655c.033-.06.1.008.054.042s-.057,0-.061-.029Z" transform="translate(-150.356 -38.231)"/><path class="bf" d="M156.51,45.582c-.115.155.1.338.18.15.045-.1-.041-.224-.14-.15Z" transform="translate(-138.972 -39.903)"/><path class="bf" d="M159,48.586c-.015-.03-.029-.023-.046,0s-.009.038.011.064c.042.053.081.052.141.015s.133-.114.041-.156a.15.15,0,0,0-.133.036Z" transform="translate(-141.116 -42.458)"/><path class="bf" d="M157.913,49.385c-.009-.077.106.023.056.065s-.069-.038-.056-.069Z" transform="translate(-140.214 -43.197)"/><path class="bf" d="M159.644,47.158c.033.052.1-.02.074-.053s-.068.025-.078.044Z" transform="translate(-141.716 -41.235)"/><path class="bf" d="M104.665,43.963c-.054.08.133.1.133,0s-.109-.073-.133-.012Z" transform="translate(-94.019 -38.462)"/><path class="bf" d="M159.449,40.813c-.066.158.192.1.205-.025C159.672,40.634,159.469,40.675,159.449,40.813Z" transform="translate(-141.541 -35.679)"/><path class="bf" d="M135.853,40.237c-.073.1.118.148.133.023a.1.1,0,0,0-.155-.012Z" transform="translate(-121.062 -35.269)"/><path class="bf" d="M128.43,48.113a.53.53,0,0,1,.692-.133c.058.04.14.111.072.175s-.347,0-.428,0A.823.823,0,0,1,128.43,48.113Z" transform="translate(-114.642 -41.939)"/><path class="bf" d="M121.59,52.684c.013.091.175.06.151-.017-.016-.05-.1-.062-.121-.015Z" transform="translate(-108.709 -46.03)"/><path class="bf" d="M105.757,48.505a.1.1,0,0,1,.06-.045c.093.123-.115.207-.06.061Z" transform="translate(-94.966 -42.42)"/><path class="bf" d="M177.956,38.79c-.228.192.265.133.042.028Z" transform="translate(-157.55 -34.031)"/><path class="bf" d="M116.213,49c-.056.057-.034.176.065.133.077-.032.06-.166-.033-.122Z" transform="translate(-104.018 -42.888)"/><path class="bf" d="M119.86,51.048c.019-.064.1-.064.094,0s-.056.048-.073.011Z" transform="translate(-107.208 -44.623)"/><path class="bf" d="M102.41,3.6a.228.228,0,0,0,.081-.078c-.054-.048-.057-.011-.081.034Z" transform="translate(-92.071 -3.42)"/><path class="bf" d="M60.772,20.277c.015.078.054.121.146.1A.1.1,0,0,0,61,20.253a.133.133,0,0,0-.14-.106A.117.117,0,0,0,60.772,20.277Z" transform="translate(-55.951 -17.859)"/><path class="bf" d="M77.57,26.877a.184.184,0,0,1,.176-.144.278.278,0,0,1,.182.046.133.133,0,0,1,.07.163.282.282,0,0,1-.054.085c-.029.024-.086.008-.119,0a.2.2,0,0,1-.122-.069C77.665,26.926,77.567,26.953,77.57,26.877Z" transform="translate(-70.523 -23.57)"/><path class="bf" d="M60.683,18.333c-.052.021-.125.1-.05.133a.318.318,0,0,0,.2-.032c.133-.106-.081-.2-.171-.086Z" transform="translate(-55.804 -16.254)"/><path class="bf" d="M61.651,23.469c.05-.089.143.012.082.064a.058.058,0,0,1-.093-.044Z" transform="translate(-56.705 -20.71)"/><path class="bf" d="M62.707,21c.034-.06.1.008.056.041a.038.038,0,0,1-.062-.029Z" transform="translate(-57.624 -18.583)"/><path class="bf" d="M51.59,16.122c-.115.155.1.338.18.15.045-.1-.042-.224-.14-.15Z" transform="translate(-47.958 -14.348)"/><path class="bf" d="M54.084,19.126c-.015-.029-.029-.021-.046,0s-.009.038.011.064c.042.054.081.052.133.015s.133-.114.042-.156a.15.15,0,0,0-.133.036Z" transform="translate(-50.102 -16.903)"/><path class="bf" d="M52.974,19.933c-.009-.077.1.021.056.064s-.069-.038-.056-.069Z" transform="translate(-49.184 -17.649)"/><path class="bf" d="M54.715,17.7c.032.05.1-.021.074-.054s-.068.025-.08.044Z" transform="translate(-50.693 -15.68)"/><path class="bf" d="M45.06,24.823c.019-.064.1,0,.106.036a.121.121,0,0,1-.1.133c-.093.009-.118-.133-.036-.167Z" transform="translate(-42.257 -21.892)"/><path class="bf" d="M52.005,25.423c-.054.08.133.1.133,0s-.11-.073-.133-.012Z" transform="translate(-48.338 -22.38)"/><path class="bf" d="M45.978,13.244a.076.076,0,0,1,.07-.115c.076.012.078.115.052.168a.084.084,0,1,1-.152-.072Z" transform="translate(-43.085 -11.771)"/><path class="bf" d="M54.529,11.356c-.066.158.191.1.205-.025C54.751,11.179,54.549,11.219,54.529,11.356Z" transform="translate(-50.527 -10.127)"/><path class="bf" d="M80.553,26.1c-.074.1.118.148.133.023a.1.1,0,0,0-.155-.012Z" transform="translate(-73.091 -23.003)"/><path class="bf" d="M24.407,12.548c-.03.142.151.113.151,0s-.125-.133-.151-.029Z" transform="translate(-24.404 -11.183)"/><path class="bf" d="M94.236,18.5c-.152.212.485.215.514,0s-.457-.143-.53-.016Z" transform="translate(-84.96 -16.314)"/><path class="bf" d="M88.83,20.087c0-.05.012-.074.062-.077.062.05.046.15-.036.133Z" transform="translate(-80.291 -17.74)"/><path class="bf" d="M70.676,26.57c-.228.192.265.133.041.028Z" transform="translate(-64.489 -23.431)"/><path class="bf" d="M33.59,11.949a.225.225,0,0,0,.082-.08c-.054-.046-.057-.009-.082.034Z" transform="translate(-32.372 -10.66)"/><path class="bf" d="M63.064,48.8c.012.065.045.1.122.085a.086.086,0,0,0,.069-.1.111.111,0,0,0-.117-.089A.1.1,0,0,0,63.064,48.8Z" transform="translate(-57.939 -42.617)"/><path class="bf" d="M62.987,47.189c-.042.017-.1.083-.041.111a.265.265,0,0,0,.166-.027c.117-.089-.066-.164-.142-.072Z" transform="translate(-57.814 -41.292)"/><path class="bf" d="M63.8,51.458c.042-.074.119.011.069.053a.048.048,0,0,1-.077-.037Z" transform="translate(-58.57 -44.995)"/><path class="bf" d="M64.675,49.395c.028-.049.08,0,.046.036a.032.032,0,0,1-.052-.025Z" transform="translate(-59.333 -43.212)"/><path class="bf" d="M55.419,45.339c-.1.133.081.282.15.125.037-.083-.034-.186-.117-.125Z" transform="translate(-51.284 -39.696)"/><path class="bf" d="M57.5,47.825c-.013-.025-.025-.019-.038,0s-.008.032.008.053c.036.045.068.044.117.012s.106-.1.034-.133a.121.121,0,0,0-.113.03Z" transform="translate(-53.073 -41.807)"/><path class="bf" d="M56.584,48.513c-.008-.065.087.019.045.053s-.057-.032-.045-.058Z" transform="translate(-52.315 -42.444)"/><path class="bf" d="M58.024,46.65c.027.042.081-.017.062-.045s-.057.021-.066.037Z" transform="translate(-53.565 -40.803)"/><path class="bf" d="M49.982,52.572c.016-.053.081,0,.089.029a.1.1,0,0,1-.081.114.069.069,0,0,1-.029-.133Z" transform="translate(-46.538 -45.967)"/><path class="bf" d="M55.766,53.087c-.045.066.11.081.109,0s-.091-.06-.109-.009Z" transform="translate(-51.602 -46.386)"/><path class="bf" d="M50.788,42.953a.062.062,0,0,1,.06-.1c.062.009.064.1.042.133a.069.069,0,1,1-.122-.061Z" transform="translate(-47.263 -37.559)"/><path class="bf" d="M57.87,41.356c-.056.133.159.085.17-.021C58.054,41.213,57.879,41.248,57.87,41.356Z" transform="translate(-53.426 -36.172)"/><path class="bf" d="M32.782,42.375c-.025.118.133.094.133,0a.067.067,0,0,0-.133-.024Z" transform="translate(-31.669 -37.073)"/><path class="bf" d="M40.43,41.868A.18.18,0,0,0,40.5,41.8c-.045-.038-.046-.009-.068.028Z" transform="translate(-38.306 -36.628)"/></g><path class="aw" d="M124.354,1.99l-.13,3.577,1.26.13-.064.9-1.2.076-.114,2.642.07.021,1.556-2.758.257-.433-1.311-4.15Z" transform="translate(-107.66 -1.726)"/><path class="bg" d="M79.706,7.608S81.194,5,81.262,4.85a3.8,3.8,0,0,0,.093-.909C81.342,3.85,80.208.265,80.208.265L72.84.209v-.1L75.943,0l8.593.115s1.636,3.548,1.658,3.663a2.3,2.3,0,0,1-.167.82c-.072.065-2.509,2.831-2.509,2.831l-4,.265-.179-.078Z" transform="translate(-63.186)"/><path class="bh" d="M86.026,5.31l-4.683.207s.057-.765.041-.9S80.274.844,80.274.844L72.84.82v.1l7.368.056s1.145,3.549,1.146,3.674a4.523,4.523,0,0,1-.093.909c-.06.114-1.556,2.759-1.556,2.759l-.367.016.179.078,4-.265Z" transform="translate(-63.186 -0.711)"/><path class="bi" d="M135.039,8.55l3.669-.184-.856-1.886H134.37Z" transform="translate(-116.561 -5.621)"/><path class="bj" d="M141.61,9.09l.164.25,1.975-.017-.064-.233Z" transform="translate(-122.841 -7.885)"/><path class="bh" d="M135.046,43.15l2.8-.11-.671.828-2.64.086Z" transform="translate(-116.708 -37.335)"/><path class="bk" d="M144.02,14.4l.142.468,2.056-.032-.154-.542Z" transform="translate(-124.932 -12.396)"/></g></g><g transform="translate(87.5 -62.451)"><g transform="translate(83.663 271.63)"><path class="ap" d="M85.243,32.285l-.493-3.519,13.67-.7-1.01,3.359Z" transform="translate(-73.517 -24.35)"/><path class="aq" d="M98.247,4.258,97.174.876,85.585.82,84.75,4.958Z" transform="translate(-73.517 -0.711)"/><path class="ar" d="M20.9.82l-8.689.363L10.18,5.31l9.884-.353Z" transform="translate(-8.831 -0.711)"/><path class="as" d="M19.932,36.839l-9.526-.489-.946-2.8,9.979-.231Z" transform="translate(-8.206 -28.904)"/><path class="at" d="M92.634,26.76l1.689.148v.245l-16.043,1v-.612l.858-.086Z" transform="translate(-67.905 -23.213)"/><path class="au" d="M10.375,32.69,0,32.885l.107.364,10.268.053Z" transform="translate(0 -28.357)"/><path class="av" d="M11.284,30.4l-9.669.109L0,30.9,10.375,30.7Z" transform="translate(0 -26.371)"/><path class="aw" d="M98.726,31.48,85.26,32.2l.119.851,13.173-1Z" transform="translate(-73.96 -27.308)"/><path class="ax" d="M45.769.876l-11.682.179-8.6.129L34.179.82Z" transform="translate(-22.112 -0.711)"/><path class="ay" d="M88.774,2.59,88.73,3.88l.423-1.29Z" transform="translate(-76.97 -2.247)"/><path class="ay" d="M76.02,32.139l.3.229.213-.329Z" transform="translate(-65.944 -27.793)"/><path class="az" d="M78.28,27.546s9.227-.52,16.037-.638l-1.689-.148-13.44.482Z" transform="translate(-67.905 -23.213)"/><path class="ba" d="M100.637,52.4a38.311,38.311,0,0,0-12.167.856Z" transform="translate(-76.744 -45.325)"/><path class="bb" d="M94.323,31.48l-.073.16-15.873.994-.1-.382Z" transform="translate(-67.905 -27.308)"/><path class="bc" d="M94.323,30.179l-.538-.2-15.5.972Z" transform="translate(-67.905 -26.006)"/><path class="au" d="M11.175,37.345.83,37.143.81,36.91l10.268.053Z" transform="translate(-0.703 -32.018)"/><path class="bd" d="M11.078,36.651.81,36.6l10.268-.048,1.45.016Z" transform="translate(-0.703 -31.706)"/><g class="be" transform="translate(3.235 0.382)"><path class="bf" d="M129.579,11.886a.11.11,0,0,0,.147.1.1.1,0,0,0,.082-.133.133.133,0,0,0-.133-.107.118.118,0,0,0-.1.137Z" transform="translate(-115.637 -10.575)"/><path class="bf" d="M146.38,18.527c.008-.087.1-.133.176-.144a.277.277,0,0,1,.182.048.133.133,0,0,1,.07.163.289.289,0,0,1-.054.085c-.028.023-.086.008-.118,0a.2.2,0,0,1-.123-.068C146.475,18.578,146.377,18.606,146.38,18.527Z" transform="translate(-130.213 -16.328)"/><path class="bf" d="M129.463,10c-.052.02-.125.1-.05.133a.307.307,0,0,0,.2-.032c.139-.106-.081-.2-.171-.085Z" transform="translate(-115.468 -9.022)"/><path class="bf" d="M130.469,15.121c.05-.089.143.013.083.064a.057.057,0,0,1-.093-.044Z" transform="translate(-116.403 -13.469)"/><path class="bf" d="M131.518,12.655c.033-.06.094.008.054.042a.038.038,0,0,1-.062-.029Z" transform="translate(-117.314 -11.339)"/><path class="bf" d="M120.4,7.776c-.115.156.1.338.18.15.045-.1-.041-.223-.133-.15Z" transform="translate(-107.648 -7.109)"/><path class="bf" d="M122.906,10.784c-.015-.03-.029-.023-.045,0s-.009.038.009.062c.044.054.081.053.141.015s.133-.114.041-.155a.146.146,0,0,0-.133.036Z" transform="translate(-109.804 -9.666)"/><path class="bf" d="M121.8,11.585c-.008-.077.106.023.056.064s-.069-.038-.056-.069Z" transform="translate(-108.89 -10.407)"/><path class="bf" d="M123.535,9.346c.032.05.1-.02.073-.054s-.068.025-.078.045Z" transform="translate(-110.392 -8.433)"/><path class="bf" d="M113.874,16.463c.02-.064.1,0,.107.036a.121.121,0,0,1-.1.133c-.093.008-.117-.133-.036-.168Z" transform="translate(-101.951 -14.64)"/><path class="bf" d="M120.823,17.134c-.056.081.133.1.133.007s-.109-.072-.133-.011Z" transform="translate(-108.034 -15.197)"/><path class="bf" d="M114.741,4.912a.076.076,0,0,1,.072-.114c.076.011.077.115.052.167a.083.083,0,1,1-.148-.073Z" transform="translate(-102.733 -4.544)"/><path class="bf" d="M123.339,3.008c-.066.158.192.1.205-.024C123.562,2.83,123.359,2.87,123.339,3.008Z" transform="translate(-110.217 -2.885)"/><path class="bf" d="M149.363,17.751c-.073.1.118.148.133.024a.1.1,0,0,0-.155-.013Z" transform="translate(-132.781 -15.763)"/><path class="bf" d="M142,25.643a.53.53,0,0,1,.692-.133c.058.038.14.11.072.175s-.347,0-.428,0a.8.8,0,0,1-.335-.042Z" transform="translate(-126.414 -22.447)"/><path class="bf" d="M137.75,25.8c.012.091.175.06.151-.016-.016-.05-.1-.064-.121-.016Z" transform="translate(-122.727 -22.708)"/><path class="bf" d="M93.217,4.236c-.03.143.151.114.151,0,0-.094-.125-.133-.151-.029Z" transform="translate(-84.094 -3.978)"/><path class="bf" d="M121.937,21.616a.1.1,0,0,1,.06-.046c.093.125-.115.208-.06.061Z" transform="translate(-109.002 -19.094)"/><path class="bf" d="M91.935,21.266c-.144.368.464.113.551-.058s-.14-.205-.265-.182A.322.322,0,0,0,91.935,21.266Z" transform="translate(-82.966 -18.616)"/><path class="bf" d="M96.38,22.925c.015-.082.168-.152.15-.028-.012.069-.11.115-.133.041Z" transform="translate(-86.84 -20.186)"/><path class="bf" d="M163.046,10.149c-.152.213.485.216.516,0s-.459-.143-.53-.017Z" transform="translate(-144.65 -9.067)"/><path class="bf" d="M166.58,8.653c.013-.133.195-.074.156,0s-.125.019-.156-.019Z" transform="translate(-147.736 -7.82)"/><path class="bf" d="M170.068,9.575a.4.4,0,0,0,.17-.041c-.015-.118-.162-.091-.2,0,0,.019.017.016.028.027Z" transform="translate(-150.737 -8.584)"/><path class="bf" d="M157.64,11.737c0-.049.013-.074.064-.077.061.052.046.15-.037.133Z" transform="translate(-139.981 -10.497)"/><path class="bf" d="M139.486,18.22c-.228.192.265.133.041.028Z" transform="translate(-124.179 -16.188)"/><path class="bf" d="M132.373,22.12c-.056.057-.034.176.065.133.077-.033.06-.167-.034-.123Z" transform="translate(-118.036 -19.571)"/><path class="bf" d="M136,24.161c.019-.062.1-.064.094,0s-.057.048-.073.011Z" transform="translate(-121.209 -21.3)"/><path class="bf" d="M167.658,42.884c.015.08.054.122.147.1a.1.1,0,0,0,.083-.133.133.133,0,0,0-.14-.107A.119.119,0,0,0,167.658,42.884Z" transform="translate(-148.67 -37.464)"/><path class="bf" d="M132.83,41.044a.183.183,0,0,1,.176-.144.265.265,0,0,1,.182.046.133.133,0,0,1,.072.163.3.3,0,0,1-.056.085c-.028.023-.086.008-.118,0a.209.209,0,0,1-.123-.069C132.925,41.089,132.827,41.117,132.83,41.044Z" transform="translate(-118.459 -35.859)"/><path class="bf" d="M167.576,41c-.052.02-.125.1-.049.133a.3.3,0,0,0,.2-.032c.133-.106-.081-.2-.171-.085Z" transform="translate(-148.529 -35.914)"/><path class="bf" d="M168.551,46.121c.05-.089.142.013.082.064a.057.057,0,0,1-.093-.044Z" transform="translate(-149.436 -40.36)"/><path class="bf" d="M169.607,43.655c.033-.06.1.008.054.042s-.057,0-.061-.029Z" transform="translate(-150.356 -38.231)"/><path class="bf" d="M156.51,45.582c-.115.155.1.338.18.15.045-.1-.041-.224-.14-.15Z" transform="translate(-138.972 -39.903)"/><path class="bf" d="M159,48.586c-.015-.03-.029-.023-.046,0s-.009.038.011.064c.042.053.081.052.141.015s.133-.114.041-.156a.15.15,0,0,0-.133.036Z" transform="translate(-141.116 -42.458)"/><path class="bf" d="M157.913,49.385c-.009-.077.106.023.056.065s-.069-.038-.056-.069Z" transform="translate(-140.214 -43.197)"/><path class="bf" d="M159.644,47.158c.033.052.1-.02.074-.053s-.068.025-.078.044Z" transform="translate(-141.716 -41.235)"/><path class="bf" d="M104.665,43.963c-.054.08.133.1.133,0s-.109-.073-.133-.012Z" transform="translate(-94.019 -38.462)"/><path class="bf" d="M159.449,40.813c-.066.158.192.1.205-.025C159.672,40.634,159.469,40.675,159.449,40.813Z" transform="translate(-141.541 -35.679)"/><path class="bf" d="M135.853,40.237c-.073.1.118.148.133.023a.1.1,0,0,0-.155-.012Z" transform="translate(-121.062 -35.269)"/><path class="bf" d="M128.43,48.113a.53.53,0,0,1,.692-.133c.058.04.14.111.072.175s-.347,0-.428,0A.823.823,0,0,1,128.43,48.113Z" transform="translate(-114.642 -41.939)"/><path class="bf" d="M121.59,52.684c.013.091.175.06.151-.017-.016-.05-.1-.062-.121-.015Z" transform="translate(-108.709 -46.03)"/><path class="bf" d="M105.757,48.505a.1.1,0,0,1,.06-.045c.093.123-.115.207-.06.061Z" transform="translate(-94.966 -42.42)"/><path class="bf" d="M177.956,38.79c-.228.192.265.133.042.028Z" transform="translate(-157.55 -34.031)"/><path class="bf" d="M116.213,49c-.056.057-.034.176.065.133.077-.032.06-.166-.033-.122Z" transform="translate(-104.018 -42.888)"/><path class="bf" d="M119.86,51.048c.019-.064.1-.064.094,0s-.056.048-.073.011Z" transform="translate(-107.208 -44.623)"/><path class="bf" d="M102.41,3.6a.228.228,0,0,0,.081-.078c-.054-.048-.057-.011-.081.034Z" transform="translate(-92.071 -3.42)"/><path class="bf" d="M60.772,20.277c.015.078.054.121.146.1A.1.1,0,0,0,61,20.253a.133.133,0,0,0-.14-.106A.117.117,0,0,0,60.772,20.277Z" transform="translate(-55.951 -17.859)"/><path class="bf" d="M77.57,26.877a.184.184,0,0,1,.176-.144.278.278,0,0,1,.182.046.133.133,0,0,1,.07.163.282.282,0,0,1-.054.085c-.029.024-.086.008-.119,0a.2.2,0,0,1-.122-.069C77.665,26.926,77.567,26.953,77.57,26.877Z" transform="translate(-70.523 -23.57)"/><path class="bf" d="M60.683,18.333c-.052.021-.125.1-.05.133a.318.318,0,0,0,.2-.032c.133-.106-.081-.2-.171-.086Z" transform="translate(-55.804 -16.254)"/><path class="bf" d="M61.651,23.469c.05-.089.143.012.082.064a.058.058,0,0,1-.093-.044Z" transform="translate(-56.705 -20.71)"/><path class="bf" d="M62.707,21c.034-.06.1.008.056.041a.038.038,0,0,1-.062-.029Z" transform="translate(-57.624 -18.583)"/><path class="bf" d="M51.59,16.122c-.115.155.1.338.18.15.045-.1-.042-.224-.14-.15Z" transform="translate(-47.958 -14.348)"/><path class="bf" d="M54.084,19.126c-.015-.029-.029-.021-.046,0s-.009.038.011.064c.042.054.081.052.133.015s.133-.114.042-.156a.15.15,0,0,0-.133.036Z" transform="translate(-50.102 -16.903)"/><path class="bf" d="M52.974,19.933c-.009-.077.1.021.056.064s-.069-.038-.056-.069Z" transform="translate(-49.184 -17.649)"/><path class="bf" d="M54.715,17.7c.032.05.1-.021.074-.054s-.068.025-.08.044Z" transform="translate(-50.693 -15.68)"/><path class="bf" d="M45.06,24.823c.019-.064.1,0,.106.036a.121.121,0,0,1-.1.133c-.093.009-.118-.133-.036-.167Z" transform="translate(-42.257 -21.892)"/><path class="bf" d="M52.005,25.423c-.054.08.133.1.133,0s-.11-.073-.133-.012Z" transform="translate(-48.338 -22.38)"/><path class="bf" d="M45.978,13.244a.076.076,0,0,1,.07-.115c.076.012.078.115.052.168a.084.084,0,1,1-.152-.072Z" transform="translate(-43.085 -11.771)"/><path class="bf" d="M54.529,11.356c-.066.158.191.1.205-.025C54.751,11.179,54.549,11.219,54.529,11.356Z" transform="translate(-50.527 -10.127)"/><path class="bf" d="M80.553,26.1c-.074.1.118.148.133.023a.1.1,0,0,0-.155-.012Z" transform="translate(-73.091 -23.003)"/><path class="bf" d="M24.407,12.548c-.03.142.151.113.151,0s-.125-.133-.151-.029Z" transform="translate(-24.404 -11.183)"/><path class="bf" d="M94.236,18.5c-.152.212.485.215.514,0s-.457-.143-.53-.016Z" transform="translate(-84.96 -16.314)"/><path class="bf" d="M88.83,20.087c0-.05.012-.074.062-.077.062.05.046.15-.036.133Z" transform="translate(-80.291 -17.74)"/><path class="bf" d="M70.676,26.57c-.228.192.265.133.041.028Z" transform="translate(-64.489 -23.431)"/><path class="bf" d="M33.59,11.949a.225.225,0,0,0,.082-.08c-.054-.046-.057-.009-.082.034Z" transform="translate(-32.372 -10.66)"/><path class="bf" d="M63.064,48.8c.012.065.045.1.122.085a.086.086,0,0,0,.069-.1.111.111,0,0,0-.117-.089A.1.1,0,0,0,63.064,48.8Z" transform="translate(-57.939 -42.617)"/><path class="bf" d="M62.987,47.189c-.042.017-.1.083-.041.111a.265.265,0,0,0,.166-.027c.117-.089-.066-.164-.142-.072Z" transform="translate(-57.814 -41.292)"/><path class="bf" d="M63.8,51.458c.042-.074.119.011.069.053a.048.048,0,0,1-.077-.037Z" transform="translate(-58.57 -44.995)"/><path class="bf" d="M64.675,49.395c.028-.049.08,0,.046.036a.032.032,0,0,1-.052-.025Z" transform="translate(-59.333 -43.212)"/><path class="bf" d="M55.419,45.339c-.1.133.081.282.15.125.037-.083-.034-.186-.117-.125Z" transform="translate(-51.284 -39.696)"/><path class="bf" d="M57.5,47.825c-.013-.025-.025-.019-.038,0s-.008.032.008.053c.036.045.068.044.117.012s.106-.1.034-.133a.121.121,0,0,0-.113.03Z" transform="translate(-53.073 -41.807)"/><path class="bf" d="M56.584,48.513c-.008-.065.087.019.045.053s-.057-.032-.045-.058Z" transform="translate(-52.315 -42.444)"/><path class="bf" d="M58.024,46.65c.027.042.081-.017.062-.045s-.057.021-.066.037Z" transform="translate(-53.565 -40.803)"/><path class="bf" d="M49.982,52.572c.016-.053.081,0,.089.029a.1.1,0,0,1-.081.114.069.069,0,0,1-.029-.133Z" transform="translate(-46.538 -45.967)"/><path class="bf" d="M55.766,53.087c-.045.066.11.081.109,0s-.091-.06-.109-.009Z" transform="translate(-51.602 -46.386)"/><path class="bf" d="M50.788,42.953a.062.062,0,0,1,.06-.1c.062.009.064.1.042.133a.069.069,0,1,1-.122-.061Z" transform="translate(-47.263 -37.559)"/><path class="bf" d="M57.87,41.356c-.056.133.159.085.17-.021C58.054,41.213,57.879,41.248,57.87,41.356Z" transform="translate(-53.426 -36.172)"/><path class="bf" d="M32.782,42.375c-.025.118.133.094.133,0a.067.067,0,0,0-.133-.024Z" transform="translate(-31.669 -37.073)"/><path class="bf" d="M40.43,41.868A.18.18,0,0,0,40.5,41.8c-.045-.038-.046-.009-.068.028Z" transform="translate(-38.306 -36.628)"/></g><path class="aw" d="M124.354,1.99l-.13,3.577,1.26.13-.064.9-1.2.076-.114,2.642.07.021,1.556-2.758.257-.433-1.311-4.15Z" transform="translate(-107.66 -1.726)"/><path class="bg" d="M79.706,7.608S81.194,5,81.262,4.85a3.8,3.8,0,0,0,.093-.909C81.342,3.85,80.208.265,80.208.265L72.84.209v-.1L75.943,0l8.593.115s1.636,3.548,1.658,3.663a2.3,2.3,0,0,1-.167.82c-.072.065-2.509,2.831-2.509,2.831l-4,.265-.179-.078Z" transform="translate(-63.186)"/><path class="bh" d="M86.026,5.31l-4.683.207s.057-.765.041-.9S80.274.844,80.274.844L72.84.82v.1l7.368.056s1.145,3.549,1.146,3.674a4.523,4.523,0,0,1-.093.909c-.06.114-1.556,2.759-1.556,2.759l-.367.016.179.078,4-.265Z" transform="translate(-63.186 -0.711)"/><path class="bi" d="M135.039,8.55l3.669-.184-.856-1.886H134.37Z" transform="translate(-116.561 -5.621)"/><path class="bj" d="M141.61,9.09l.164.25,1.975-.017-.064-.233Z" transform="translate(-122.841 -7.885)"/><path class="bh" d="M135.046,43.15l2.8-.11-.671.828-2.64.086Z" transform="translate(-116.708 -37.335)"/><path class="bk" d="M144.02,14.4l.142.468,2.056-.032-.154-.542Z" transform="translate(-124.932 -12.396)"/></g></g><g transform="translate(107.5 -62.451)"><g transform="translate(83.663 271.63)"><path class="ap" d="M85.243,32.285l-.493-3.519,13.67-.7-1.01,3.359Z" transform="translate(-73.517 -24.35)"/><path class="aq" d="M98.247,4.258,97.174.876,85.585.82,84.75,4.958Z" transform="translate(-73.517 -0.711)"/><path class="ar" d="M20.9.82l-8.689.363L10.18,5.31l9.884-.353Z" transform="translate(-8.831 -0.711)"/><path class="as" d="M19.932,36.839l-9.526-.489-.946-2.8,9.979-.231Z" transform="translate(-8.206 -28.904)"/><path class="at" d="M92.634,26.76l1.689.148v.245l-16.043,1v-.612l.858-.086Z" transform="translate(-67.905 -23.213)"/><path class="au" d="M10.375,32.69,0,32.885l.107.364,10.268.053Z" transform="translate(0 -28.357)"/><path class="av" d="M11.284,30.4l-9.669.109L0,30.9,10.375,30.7Z" transform="translate(0 -26.371)"/><path class="aw" d="M98.726,31.48,85.26,32.2l.119.851,13.173-1Z" transform="translate(-73.96 -27.308)"/><path class="ax" d="M45.769.876l-11.682.179-8.6.129L34.179.82Z" transform="translate(-22.112 -0.711)"/><path class="ay" d="M88.774,2.59,88.73,3.88l.423-1.29Z" transform="translate(-76.97 -2.247)"/><path class="ay" d="M76.02,32.139l.3.229.213-.329Z" transform="translate(-65.944 -27.793)"/><path class="az" d="M78.28,27.546s9.227-.52,16.037-.638l-1.689-.148-13.44.482Z" transform="translate(-67.905 -23.213)"/><path class="ba" d="M100.637,52.4a38.311,38.311,0,0,0-12.167.856Z" transform="translate(-76.744 -45.325)"/><path class="bb" d="M94.323,31.48l-.073.16-15.873.994-.1-.382Z" transform="translate(-67.905 -27.308)"/><path class="bc" d="M94.323,30.179l-.538-.2-15.5.972Z" transform="translate(-67.905 -26.006)"/><path class="au" d="M11.175,37.345.83,37.143.81,36.91l10.268.053Z" transform="translate(-0.703 -32.018)"/><path class="bd" d="M11.078,36.651.81,36.6l10.268-.048,1.45.016Z" transform="translate(-0.703 -31.706)"/><g class="be" transform="translate(3.235 0.382)"><path class="bf" d="M129.579,11.886a.11.11,0,0,0,.147.1.1.1,0,0,0,.082-.133.133.133,0,0,0-.133-.107.118.118,0,0,0-.1.137Z" transform="translate(-115.637 -10.575)"/><path class="bf" d="M146.38,18.527c.008-.087.1-.133.176-.144a.277.277,0,0,1,.182.048.133.133,0,0,1,.07.163.289.289,0,0,1-.054.085c-.028.023-.086.008-.118,0a.2.2,0,0,1-.123-.068C146.475,18.578,146.377,18.606,146.38,18.527Z" transform="translate(-130.213 -16.328)"/><path class="bf" d="M129.463,10c-.052.02-.125.1-.05.133a.307.307,0,0,0,.2-.032c.139-.106-.081-.2-.171-.085Z" transform="translate(-115.468 -9.022)"/><path class="bf" d="M130.469,15.121c.05-.089.143.013.083.064a.057.057,0,0,1-.093-.044Z" transform="translate(-116.403 -13.469)"/><path class="bf" d="M131.518,12.655c.033-.06.094.008.054.042a.038.038,0,0,1-.062-.029Z" transform="translate(-117.314 -11.339)"/><path class="bf" d="M120.4,7.776c-.115.156.1.338.18.15.045-.1-.041-.223-.133-.15Z" transform="translate(-107.648 -7.109)"/><path class="bf" d="M122.906,10.784c-.015-.03-.029-.023-.045,0s-.009.038.009.062c.044.054.081.053.141.015s.133-.114.041-.155a.146.146,0,0,0-.133.036Z" transform="translate(-109.804 -9.666)"/><path class="bf" d="M121.8,11.585c-.008-.077.106.023.056.064s-.069-.038-.056-.069Z" transform="translate(-108.89 -10.407)"/><path class="bf" d="M123.535,9.346c.032.05.1-.02.073-.054s-.068.025-.078.045Z" transform="translate(-110.392 -8.433)"/><path class="bf" d="M113.874,16.463c.02-.064.1,0,.107.036a.121.121,0,0,1-.1.133c-.093.008-.117-.133-.036-.168Z" transform="translate(-101.951 -14.64)"/><path class="bf" d="M120.823,17.134c-.056.081.133.1.133.007s-.109-.072-.133-.011Z" transform="translate(-108.034 -15.197)"/><path class="bf" d="M114.741,4.912a.076.076,0,0,1,.072-.114c.076.011.077.115.052.167a.083.083,0,1,1-.148-.073Z" transform="translate(-102.733 -4.544)"/><path class="bf" d="M123.339,3.008c-.066.158.192.1.205-.024C123.562,2.83,123.359,2.87,123.339,3.008Z" transform="translate(-110.217 -2.885)"/><path class="bf" d="M149.363,17.751c-.073.1.118.148.133.024a.1.1,0,0,0-.155-.013Z" transform="translate(-132.781 -15.763)"/><path class="bf" d="M142,25.643a.53.53,0,0,1,.692-.133c.058.038.14.11.072.175s-.347,0-.428,0a.8.8,0,0,1-.335-.042Z" transform="translate(-126.414 -22.447)"/><path class="bf" d="M137.75,25.8c.012.091.175.06.151-.016-.016-.05-.1-.064-.121-.016Z" transform="translate(-122.727 -22.708)"/><path class="bf" d="M93.217,4.236c-.03.143.151.114.151,0,0-.094-.125-.133-.151-.029Z" transform="translate(-84.094 -3.978)"/><path class="bf" d="M121.937,21.616a.1.1,0,0,1,.06-.046c.093.125-.115.208-.06.061Z" transform="translate(-109.002 -19.094)"/><path class="bf" d="M91.935,21.266c-.144.368.464.113.551-.058s-.14-.205-.265-.182A.322.322,0,0,0,91.935,21.266Z" transform="translate(-82.966 -18.616)"/><path class="bf" d="M96.38,22.925c.015-.082.168-.152.15-.028-.012.069-.11.115-.133.041Z" transform="translate(-86.84 -20.186)"/><path class="bf" d="M163.046,10.149c-.152.213.485.216.516,0s-.459-.143-.53-.017Z" transform="translate(-144.65 -9.067)"/><path class="bf" d="M166.58,8.653c.013-.133.195-.074.156,0s-.125.019-.156-.019Z" transform="translate(-147.736 -7.82)"/><path class="bf" d="M170.068,9.575a.4.4,0,0,0,.17-.041c-.015-.118-.162-.091-.2,0,0,.019.017.016.028.027Z" transform="translate(-150.737 -8.584)"/><path class="bf" d="M157.64,11.737c0-.049.013-.074.064-.077.061.052.046.15-.037.133Z" transform="translate(-139.981 -10.497)"/><path class="bf" d="M139.486,18.22c-.228.192.265.133.041.028Z" transform="translate(-124.179 -16.188)"/><path class="bf" d="M132.373,22.12c-.056.057-.034.176.065.133.077-.033.06-.167-.034-.123Z" transform="translate(-118.036 -19.571)"/><path class="bf" d="M136,24.161c.019-.062.1-.064.094,0s-.057.048-.073.011Z" transform="translate(-121.209 -21.3)"/><path class="bf" d="M167.658,42.884c.015.08.054.122.147.1a.1.1,0,0,0,.083-.133.133.133,0,0,0-.14-.107A.119.119,0,0,0,167.658,42.884Z" transform="translate(-148.67 -37.464)"/><path class="bf" d="M132.83,41.044a.183.183,0,0,1,.176-.144.265.265,0,0,1,.182.046.133.133,0,0,1,.072.163.3.3,0,0,1-.056.085c-.028.023-.086.008-.118,0a.209.209,0,0,1-.123-.069C132.925,41.089,132.827,41.117,132.83,41.044Z" transform="translate(-118.459 -35.859)"/><path class="bf" d="M167.576,41c-.052.02-.125.1-.049.133a.3.3,0,0,0,.2-.032c.133-.106-.081-.2-.171-.085Z" transform="translate(-148.529 -35.914)"/><path class="bf" d="M168.551,46.121c.05-.089.142.013.082.064a.057.057,0,0,1-.093-.044Z" transform="translate(-149.436 -40.36)"/><path class="bf" d="M169.607,43.655c.033-.06.1.008.054.042s-.057,0-.061-.029Z" transform="translate(-150.356 -38.231)"/><path class="bf" d="M156.51,45.582c-.115.155.1.338.18.15.045-.1-.041-.224-.14-.15Z" transform="translate(-138.972 -39.903)"/><path class="bf" d="M159,48.586c-.015-.03-.029-.023-.046,0s-.009.038.011.064c.042.053.081.052.141.015s.133-.114.041-.156a.15.15,0,0,0-.133.036Z" transform="translate(-141.116 -42.458)"/><path class="bf" d="M157.913,49.385c-.009-.077.106.023.056.065s-.069-.038-.056-.069Z" transform="translate(-140.214 -43.197)"/><path class="bf" d="M159.644,47.158c.033.052.1-.02.074-.053s-.068.025-.078.044Z" transform="translate(-141.716 -41.235)"/><path class="bf" d="M104.665,43.963c-.054.08.133.1.133,0s-.109-.073-.133-.012Z" transform="translate(-94.019 -38.462)"/><path class="bf" d="M159.449,40.813c-.066.158.192.1.205-.025C159.672,40.634,159.469,40.675,159.449,40.813Z" transform="translate(-141.541 -35.679)"/><path class="bf" d="M135.853,40.237c-.073.1.118.148.133.023a.1.1,0,0,0-.155-.012Z" transform="translate(-121.062 -35.269)"/><path class="bf" d="M128.43,48.113a.53.53,0,0,1,.692-.133c.058.04.14.111.072.175s-.347,0-.428,0A.823.823,0,0,1,128.43,48.113Z" transform="translate(-114.642 -41.939)"/><path class="bf" d="M121.59,52.684c.013.091.175.06.151-.017-.016-.05-.1-.062-.121-.015Z" transform="translate(-108.709 -46.03)"/><path class="bf" d="M105.757,48.505a.1.1,0,0,1,.06-.045c.093.123-.115.207-.06.061Z" transform="translate(-94.966 -42.42)"/><path class="bf" d="M177.956,38.79c-.228.192.265.133.042.028Z" transform="translate(-157.55 -34.031)"/><path class="bf" d="M116.213,49c-.056.057-.034.176.065.133.077-.032.06-.166-.033-.122Z" transform="translate(-104.018 -42.888)"/><path class="bf" d="M119.86,51.048c.019-.064.1-.064.094,0s-.056.048-.073.011Z" transform="translate(-107.208 -44.623)"/><path class="bf" d="M102.41,3.6a.228.228,0,0,0,.081-.078c-.054-.048-.057-.011-.081.034Z" transform="translate(-92.071 -3.42)"/><path class="bf" d="M60.772,20.277c.015.078.054.121.146.1A.1.1,0,0,0,61,20.253a.133.133,0,0,0-.14-.106A.117.117,0,0,0,60.772,20.277Z" transform="translate(-55.951 -17.859)"/><path class="bf" d="M77.57,26.877a.184.184,0,0,1,.176-.144.278.278,0,0,1,.182.046.133.133,0,0,1,.07.163.282.282,0,0,1-.054.085c-.029.024-.086.008-.119,0a.2.2,0,0,1-.122-.069C77.665,26.926,77.567,26.953,77.57,26.877Z" transform="translate(-70.523 -23.57)"/><path class="bf" d="M60.683,18.333c-.052.021-.125.1-.05.133a.318.318,0,0,0,.2-.032c.133-.106-.081-.2-.171-.086Z" transform="translate(-55.804 -16.254)"/><path class="bf" d="M61.651,23.469c.05-.089.143.012.082.064a.058.058,0,0,1-.093-.044Z" transform="translate(-56.705 -20.71)"/><path class="bf" d="M62.707,21c.034-.06.1.008.056.041a.038.038,0,0,1-.062-.029Z" transform="translate(-57.624 -18.583)"/><path class="bf" d="M51.59,16.122c-.115.155.1.338.18.15.045-.1-.042-.224-.14-.15Z" transform="translate(-47.958 -14.348)"/><path class="bf" d="M54.084,19.126c-.015-.029-.029-.021-.046,0s-.009.038.011.064c.042.054.081.052.133.015s.133-.114.042-.156a.15.15,0,0,0-.133.036Z" transform="translate(-50.102 -16.903)"/><path class="bf" d="M52.974,19.933c-.009-.077.1.021.056.064s-.069-.038-.056-.069Z" transform="translate(-49.184 -17.649)"/><path class="bf" d="M54.715,17.7c.032.05.1-.021.074-.054s-.068.025-.08.044Z" transform="translate(-50.693 -15.68)"/><path class="bf" d="M45.06,24.823c.019-.064.1,0,.106.036a.121.121,0,0,1-.1.133c-.093.009-.118-.133-.036-.167Z" transform="translate(-42.257 -21.892)"/><path class="bf" d="M52.005,25.423c-.054.08.133.1.133,0s-.11-.073-.133-.012Z" transform="translate(-48.338 -22.38)"/><path class="bf" d="M45.978,13.244a.076.076,0,0,1,.07-.115c.076.012.078.115.052.168a.084.084,0,1,1-.152-.072Z" transform="translate(-43.085 -11.771)"/><path class="bf" d="M54.529,11.356c-.066.158.191.1.205-.025C54.751,11.179,54.549,11.219,54.529,11.356Z" transform="translate(-50.527 -10.127)"/><path class="bf" d="M80.553,26.1c-.074.1.118.148.133.023a.1.1,0,0,0-.155-.012Z" transform="translate(-73.091 -23.003)"/><path class="bf" d="M24.407,12.548c-.03.142.151.113.151,0s-.125-.133-.151-.029Z" transform="translate(-24.404 -11.183)"/><path class="bf" d="M94.236,18.5c-.152.212.485.215.514,0s-.457-.143-.53-.016Z" transform="translate(-84.96 -16.314)"/><path class="bf" d="M88.83,20.087c0-.05.012-.074.062-.077.062.05.046.15-.036.133Z" transform="translate(-80.291 -17.74)"/><path class="bf" d="M70.676,26.57c-.228.192.265.133.041.028Z" transform="translate(-64.489 -23.431)"/><path class="bf" d="M33.59,11.949a.225.225,0,0,0,.082-.08c-.054-.046-.057-.009-.082.034Z" transform="translate(-32.372 -10.66)"/><path class="bf" d="M63.064,48.8c.012.065.045.1.122.085a.086.086,0,0,0,.069-.1.111.111,0,0,0-.117-.089A.1.1,0,0,0,63.064,48.8Z" transform="translate(-57.939 -42.617)"/><path class="bf" d="M62.987,47.189c-.042.017-.1.083-.041.111a.265.265,0,0,0,.166-.027c.117-.089-.066-.164-.142-.072Z" transform="translate(-57.814 -41.292)"/><path class="bf" d="M63.8,51.458c.042-.074.119.011.069.053a.048.048,0,0,1-.077-.037Z" transform="translate(-58.57 -44.995)"/><path class="bf" d="M64.675,49.395c.028-.049.08,0,.046.036a.032.032,0,0,1-.052-.025Z" transform="translate(-59.333 -43.212)"/><path class="bf" d="M55.419,45.339c-.1.133.081.282.15.125.037-.083-.034-.186-.117-.125Z" transform="translate(-51.284 -39.696)"/><path class="bf" d="M57.5,47.825c-.013-.025-.025-.019-.038,0s-.008.032.008.053c.036.045.068.044.117.012s.106-.1.034-.133a.121.121,0,0,0-.113.03Z" transform="translate(-53.073 -41.807)"/><path class="bf" d="M56.584,48.513c-.008-.065.087.019.045.053s-.057-.032-.045-.058Z" transform="translate(-52.315 -42.444)"/><path class="bf" d="M58.024,46.65c.027.042.081-.017.062-.045s-.057.021-.066.037Z" transform="translate(-53.565 -40.803)"/><path class="bf" d="M49.982,52.572c.016-.053.081,0,.089.029a.1.1,0,0,1-.081.114.069.069,0,0,1-.029-.133Z" transform="translate(-46.538 -45.967)"/><path class="bf" d="M55.766,53.087c-.045.066.11.081.109,0s-.091-.06-.109-.009Z" transform="translate(-51.602 -46.386)"/><path class="bf" d="M50.788,42.953a.062.062,0,0,1,.06-.1c.062.009.064.1.042.133a.069.069,0,1,1-.122-.061Z" transform="translate(-47.263 -37.559)"/><path class="bf" d="M57.87,41.356c-.056.133.159.085.17-.021C58.054,41.213,57.879,41.248,57.87,41.356Z" transform="translate(-53.426 -36.172)"/><path class="bf" d="M32.782,42.375c-.025.118.133.094.133,0a.067.067,0,0,0-.133-.024Z" transform="translate(-31.669 -37.073)"/><path class="bf" d="M40.43,41.868A.18.18,0,0,0,40.5,41.8c-.045-.038-.046-.009-.068.028Z" transform="translate(-38.306 -36.628)"/></g><path class="aw" d="M124.354,1.99l-.13,3.577,1.26.13-.064.9-1.2.076-.114,2.642.07.021,1.556-2.758.257-.433-1.311-4.15Z" transform="translate(-107.66 -1.726)"/><path class="bg" d="M79.706,7.608S81.194,5,81.262,4.85a3.8,3.8,0,0,0,.093-.909C81.342,3.85,80.208.265,80.208.265L72.84.209v-.1L75.943,0l8.593.115s1.636,3.548,1.658,3.663a2.3,2.3,0,0,1-.167.82c-.072.065-2.509,2.831-2.509,2.831l-4,.265-.179-.078Z" transform="translate(-63.186)"/><path class="bh" d="M86.026,5.31l-4.683.207s.057-.765.041-.9S80.274.844,80.274.844L72.84.82v.1l7.368.056s1.145,3.549,1.146,3.674a4.523,4.523,0,0,1-.093.909c-.06.114-1.556,2.759-1.556,2.759l-.367.016.179.078,4-.265Z" transform="translate(-63.186 -0.711)"/><path class="bi" d="M135.039,8.55l3.669-.184-.856-1.886H134.37Z" transform="translate(-116.561 -5.621)"/><path class="bj" d="M141.61,9.09l.164.25,1.975-.017-.064-.233Z" transform="translate(-122.841 -7.885)"/><path class="bh" d="M135.046,43.15l2.8-.11-.671.828-2.64.086Z" transform="translate(-116.708 -37.335)"/><path class="bk" d="M144.02,14.4l.142.468,2.056-.032-.154-.542Z" transform="translate(-124.932 -12.396)"/></g></g><g transform="translate(116.69 -63.747)"><g transform="translate(83.808 271.63)"><path class="ap" d="M85.493,34.425l-.743-5.306,20.613-1.049-1.523,5.064Z" transform="translate(-67.812 -22.46)"/><path class="aq" d="M105.1,6,103.485.9,86.009.82,84.75,7.06Z" transform="translate(-67.812 -0.656)"/><path class="ar" d="M26.342.82l-13.1.548L10.18,7.591l14.9-.532Z" transform="translate(-8.145 -0.656)"/><path class="as" d="M25.251,38.626l-14.364-.737L9.46,33.668l15.047-.348Z" transform="translate(-7.569 -26.661)"/><path class="at" d="M99.925,26.76l2.546.224v.37L78.28,28.868v-.923l1.293-.13Z" transform="translate(-62.635 -21.412)"/><path class="au" d="M15.645,32.69,0,32.984l.162.55,15.483.08Z" transform="translate(0 -26.157)"/><path class="av" d="M17.016,30.4l-14.58.164L0,31.151l15.645-.294Z" transform="translate(0 -24.324)"/><path class="aw" d="M105.565,31.48,85.26,32.571l.18,1.283,19.864-1.5Z" transform="translate(-68.22 -25.188)"/><path class="ax" d="M56.068.9l-17.615.27L25.49,1.368,38.593.82Z" transform="translate(-20.396 -0.656)"/><path class="ay" d="M88.8,2.59,88.73,4.535l.638-1.945Z" transform="translate(-70.997 -2.072)"/><path class="ay" d="M76.02,32.19l.452.346.322-.5Z" transform="translate(-60.827 -25.637)"/><path class="az" d="M78.28,27.945s13.914-.783,24.183-.961l-2.546-.224-20.266.727Z" transform="translate(-62.635 -21.412)"/><path class="ba" d="M106.817,52.482A57.769,57.769,0,0,0,88.47,53.774Z" transform="translate(-70.789 -41.808)"/><path class="bb" d="M102.471,31.48l-.11.242-23.935,1.5-.146-.576Z" transform="translate(-62.635 -25.188)"/><path class="bc" d="M102.471,30.28l-.811-.3L78.28,31.445Z" transform="translate(-62.635 -23.988)"/><path class="au" d="M16.439,37.566l-15.6-.3L.81,36.91l15.483.08Z" transform="translate(-0.648 -29.533)"/><path class="bd" d="M16.293,36.7.81,36.622l15.483-.072,2.186.024Z" transform="translate(-0.648 -29.245)"/><g class="be" transform="translate(4.877 0.577)"><path class="bf" d="M129.579,11.956a.166.166,0,0,0,.222.156.158.158,0,0,0,.124-.2.2.2,0,0,0-.2-.162.178.178,0,0,0-.146.206Z" transform="translate(-108.557 -9.978)"/><path class="bf" d="M146.38,18.6c.012-.132.15-.2.266-.218a.418.418,0,0,1,.274.072.2.2,0,0,1,.106.246.436.436,0,0,1-.082.128c-.042.034-.13.012-.178,0a.3.3,0,0,1-.186-.1C146.524,18.677,146.376,18.719,146.38,18.6Z" transform="translate(-122.002 -15.285)"/><path class="bf" d="M129.5,10.014c-.078.03-.188.15-.076.2a.464.464,0,0,0,.3-.048c.21-.16-.122-.3-.258-.128Z" transform="translate(-108.401 -8.546)"/><path class="bf" d="M130.474,15.139c.076-.134.216.02.126.1a.086.086,0,0,1-.14-.066Z" transform="translate(-109.264 -12.647)"/><path class="bf" d="M131.522,12.667c.05-.09.142.012.082.064a.058.058,0,0,1-.094-.044Z" transform="translate(-110.104 -10.683)"/><path class="bf" d="M120.417,7.787c-.174.236.146.51.272.226.068-.15-.062-.336-.2-.226Z" transform="translate(-101.188 -6.781)"/><path class="bf" d="M122.934,10.825c-.022-.046-.044-.034-.068,0s-.014.058.014.094c.066.082.122.08.212.022s.2-.172.062-.234a.22.22,0,0,0-.2.054Z" transform="translate(-103.177 -9.14)"/><path class="bf" d="M121.8,11.6c-.012-.116.16.034.084.1s-.1-.058-.084-.1Z" transform="translate(-102.334 -9.823)"/><path class="bf" d="M123.538,9.379c.048.076.146-.03.11-.082s-.1.038-.118.068Z" transform="translate(-103.719 -8.003)"/><path class="bf" d="M113.911,16.476c.03-.1.148,0,.162.054a.182.182,0,0,1-.146.2c-.14.012-.176-.2-.054-.254Z" transform="translate(-95.933 -13.727)"/><path class="bf" d="M120.828,17.163c-.084.122.2.148.2.01s-.164-.108-.2-.016Z" transform="translate(-101.544 -14.242)"/><path class="bf" d="M114.761,4.97a.114.114,0,0,1,.108-.172c.114.016.116.174.078.252a.126.126,0,1,1-.224-.11Z" transform="translate(-96.655 -4.416)"/><path class="bf" d="M123.344,3.07c-.1.238.29.154.31-.036C123.68,2.8,123.374,2.862,123.344,3.07Z" transform="translate(-103.557 -2.885)"/><path class="bf" d="M149.374,17.761c-.11.152.178.224.2.036a.152.152,0,0,0-.234-.02Z" transform="translate(-124.371 -14.764)"/><path class="bf" d="M142,25.749a.8.8,0,0,1,1.043-.2c.088.058.212.166.108.264s-.524,0-.646,0a1.2,1.2,0,0,1-.506-.064Z" transform="translate(-118.498 -20.929)"/><path class="bf" d="M137.75,25.829c.018.138.264.09.228-.024-.024-.076-.158-.1-.182-.024Z" transform="translate(-115.097 -21.169)"/><path class="bf" d="M93.219,4.282c-.046.216.228.172.228,0,0-.142-.188-.2-.228-.044Z" transform="translate(-79.462 -3.893)"/><path class="bf" d="M121.942,21.64a.156.156,0,0,1,.09-.07c.14.188-.174.314-.09.092Z" transform="translate(-102.437 -17.836)"/><path class="bf" d="M91.947,21.391c-.218.556.7.17.831-.088s-.212-.31-.4-.274A.486.486,0,0,0,91.947,21.391Z" transform="translate(-78.421 -17.395)"/><path class="bf" d="M96.38,22.973c.022-.124.254-.23.226-.042-.018.1-.166.174-.2.062Z" transform="translate(-81.995 -18.843)"/><path class="bf" d="M163.058,10.219c-.23.322.731.326.777,0s-.692-.216-.8-.026Z" transform="translate(-135.319 -8.587)"/><path class="bf" d="M166.58,8.693c.02-.2.294-.112.236,0s-.188.028-.236-.028Z" transform="translate(-138.165 -7.437)"/><path class="bf" d="M170.082,9.636a.6.6,0,0,0,.256-.062c-.022-.178-.244-.138-.3,0,0,.028.026.024.042.04Z" transform="translate(-140.934 -8.142)"/><path class="bf" d="M157.64,11.776c0-.074.02-.112.1-.116.092.078.07.226-.056.2Z" transform="translate(-131.012 -9.906)"/><path class="bf" d="M139.517,18.22c-.344.29.4.2.062.042Z" transform="translate(-116.436 -15.155)"/><path class="bf" d="M132.388,22.12c-.084.086-.052.266.1.2.116-.05.09-.252-.052-.186Z" transform="translate(-110.77 -18.276)"/><path class="bf" d="M136,24.185c.028-.094.148-.1.142,0s-.086.072-.11.016Z" transform="translate(-113.697 -19.871)"/><path class="bf" d="M167.659,42.953c.022.12.082.184.222.156a.158.158,0,0,0,.126-.2.2.2,0,0,0-.212-.162A.18.18,0,0,0,167.659,42.953Z" transform="translate(-139.026 -34.78)"/><path class="bf" d="M132.83,41.118a.276.276,0,0,1,.266-.218.4.4,0,0,1,.274.07.2.2,0,0,1,.108.246.458.458,0,0,1-.084.128c-.042.034-.13.012-.178,0a.316.316,0,0,1-.186-.1C132.974,41.186,132.826,41.228,132.83,41.118Z" transform="translate(-111.16 -33.301)"/><path class="bf" d="M167.618,41.014c-.078.03-.188.15-.074.2a.46.46,0,0,0,.3-.048c.2-.16-.122-.3-.258-.128Z" transform="translate(-138.897 -33.351)"/><path class="bf" d="M168.556,46.139c.076-.134.214.02.124.1a.086.086,0,0,1-.14-.066Z" transform="translate(-139.733 -37.452)"/><path class="bf" d="M169.61,43.667c.05-.09.144.012.082.064s-.086,0-.092-.044Z" transform="translate(-140.581 -35.488)"/><path class="bf" d="M156.527,45.593c-.174.234.146.51.272.226.068-.152-.062-.338-.212-.226Z" transform="translate(-130.081 -37.03)"/><path class="bf" d="M159.033,48.628c-.022-.046-.044-.034-.07,0s-.014.058.016.1c.064.08.122.078.212.022s.2-.172.062-.236a.226.226,0,0,0-.2.054Z" transform="translate(-132.059 -39.387)"/><path class="bf" d="M157.915,49.4c-.014-.116.16.034.084.1s-.1-.058-.084-.1Z" transform="translate(-131.227 -40.069)"/><path class="bf" d="M159.646,47.19c.05.078.148-.03.112-.08s-.1.038-.118.066Z" transform="translate(-132.612 -38.259)"/><path class="bf" d="M104.67,44c-.082.12.2.146.2,0s-.164-.11-.2-.018Z" transform="translate(-88.616 -35.701)"/><path class="bf" d="M159.454,40.875c-.1.238.29.154.31-.038C159.79,40.606,159.484,40.668,159.454,40.875Z" transform="translate(-132.451 -33.134)"/><path class="bf" d="M135.864,40.247c-.11.15.178.224.2.034a.152.152,0,0,0-.234-.018Z" transform="translate(-113.561 -32.756)"/><path class="bf" d="M128.43,48.219a.8.8,0,0,1,1.043-.2c.088.06.212.168.108.264s-.524,0-.646,0A1.241,1.241,0,0,1,128.43,48.219Z" transform="translate(-107.64 -38.908)"/><path class="bf" d="M121.59,52.716c.02.138.264.09.228-.026-.024-.076-.158-.094-.182-.022Z" transform="translate(-102.167 -42.682)"/><path class="bf" d="M105.762,48.528a.152.152,0,0,1,.09-.068c.14.186-.174.312-.09.092Z" transform="translate(-89.49 -39.352)"/><path class="bf" d="M177.987,38.79c-.344.29.4.2.064.042Z" transform="translate(-147.218 -31.614)"/><path class="bf" d="M116.228,49c-.084.086-.052.266.1.2.116-.048.09-.25-.05-.184Z" transform="translate(-97.84 -39.784)"/><path class="bf" d="M119.86,51.072c.028-.1.148-.1.142,0s-.084.072-.11.016Z" transform="translate(-100.782 -41.384)"/><path class="bf" d="M102.41,3.653a.344.344,0,0,0,.122-.118c-.082-.072-.086-.016-.122.052Z" transform="translate(-86.82 -3.379)"/><path class="bf" d="M60.773,20.343c.022.118.082.182.22.154a.156.156,0,0,0,.126-.19.2.2,0,0,0-.212-.16A.176.176,0,0,0,60.773,20.343Z" transform="translate(-53.503 -16.697)"/><path class="bf" d="M77.57,26.951a.278.278,0,0,1,.266-.218.42.42,0,0,1,.274.07.2.2,0,0,1,.106.246.426.426,0,0,1-.082.128c-.044.036-.13.012-.18,0a.306.306,0,0,1-.184-.1C77.714,27.024,77.566,27.066,77.57,26.951Z" transform="translate(-66.944 -21.965)"/><path class="bf" d="M60.725,18.352c-.078.032-.188.152-.076.2a.48.48,0,0,0,.3-.048c.2-.16-.122-.3-.258-.13Z" transform="translate(-53.367 -15.217)"/><path class="bf" d="M61.656,23.487c.076-.134.216.018.124.1a.088.088,0,0,1-.14-.066Z" transform="translate(-54.198 -19.327)"/><path class="bf" d="M62.71,21.017c.052-.09.144.012.084.062a.058.058,0,0,1-.094-.044Z" transform="translate(-55.046 -17.364)"/><path class="bf" d="M51.607,16.133c-.174.234.146.51.272.226.068-.152-.064-.338-.212-.226Z" transform="translate(-46.13 -13.458)"/><path class="bf" d="M54.113,19.168c-.022-.044-.044-.032-.07,0s-.014.058.016.1c.064.082.122.078.2.022s.2-.172.064-.236a.226.226,0,0,0-.2.054Z" transform="translate(-48.108 -15.815)"/><path class="bf" d="M52.976,19.948c-.014-.116.158.032.084.1s-.1-.058-.084-.1Z" transform="translate(-47.261 -16.503)"/><path class="bf" d="M54.718,17.732c.048.076.148-.032.112-.082s-.1.038-.12.066Z" transform="translate(-48.653 -14.687)"/><path class="bf" d="M45.1,24.836c.028-.1.146,0,.16.054a.182.182,0,0,1-.144.2c-.14.014-.178-.2-.054-.252Z" transform="translate(-40.872 -20.417)"/><path class="bf" d="M52.01,25.456c-.082.12.2.146.2,0s-.166-.11-.2-.018Z" transform="translate(-46.481 -20.867)"/><path class="bf" d="M46,13.3a.114.114,0,0,1,.106-.174c.114.018.118.174.078.254a.127.127,0,1,1-.23-.108Z" transform="translate(-41.636 -11.081)"/><path class="bf" d="M54.534,11.419c-.1.238.288.154.31-.038C54.87,11.151,54.564,11.211,54.534,11.419Z" transform="translate(-48.499 -9.565)"/><path class="bf" d="M80.564,26.107c-.112.15.178.224.2.034a.152.152,0,0,0-.234-.018Z" transform="translate(-69.313 -21.442)"/><path class="bf" d="M24.409,12.6c-.046.214.228.17.228,0s-.188-.2-.228-.044Z" transform="translate(-24.404 -10.539)"/><path class="bf" d="M94.248,18.573c-.23.32.731.324.775,0s-.69-.216-.8-.024Z" transform="translate(-80.261 -15.272)"/><path class="bf" d="M88.83,20.126c0-.076.018-.112.094-.116.094.076.07.226-.054.2Z" transform="translate(-75.954 -16.588)"/><path class="bf" d="M70.707,26.57c-.344.29.4.2.062.042Z" transform="translate(-61.378 -21.836)"/><path class="bf" d="M33.59,12a.34.34,0,0,0,.124-.12c-.082-.07-.086-.014-.124.052Z" transform="translate(-31.754 -10.057)"/><path class="bf" d="M63.064,48.852c.018.1.068.152.184.128a.13.13,0,0,0,.1-.158.168.168,0,0,0-.176-.134A.148.148,0,0,0,63.064,48.852Z" transform="translate(-55.337 -39.534)"/><path class="bf" d="M63.021,47.2c-.064.026-.156.126-.062.168a.4.4,0,0,0,.25-.04c.176-.134-.1-.248-.214-.108Z" transform="translate(-55.222 -38.311)"/><path class="bf" d="M63.8,51.473c.064-.112.18.016.1.08a.072.072,0,0,1-.116-.056Z" transform="translate(-55.918 -41.727)"/><path class="bf" d="M64.678,49.405c.042-.074.12,0,.07.054a.048.048,0,0,1-.078-.038Z" transform="translate(-56.623 -40.083)"/><path class="bf" d="M55.433,45.348c-.144.2.122.426.226.188.056-.126-.052-.28-.176-.188Z" transform="translate(-49.198 -36.839)"/><path class="bf" d="M57.523,47.861c-.02-.038-.038-.028-.058,0s-.012.048.012.08c.054.068.1.066.176.018s.16-.144.052-.2a.182.182,0,0,0-.17.046Z" transform="translate(-50.848 -38.786)"/><path class="bf" d="M56.586,48.525c-.012-.1.132.028.068.08s-.086-.048-.068-.088Z" transform="translate(-50.149 -39.375)"/><path class="bf" d="M58.026,46.677c.04.064.122-.026.094-.068s-.086.032-.1.056Z" transform="translate(-51.302 -37.861)"/><path class="bf" d="M50.014,52.584c.024-.08.122,0,.134.044a.154.154,0,0,1-.122.172.1.1,0,0,1-.044-.2Z" transform="translate(-44.82 -42.624)"/><path class="bf" d="M55.77,53.114c-.068.1.166.122.164,0s-.138-.09-.164-.014Z" transform="translate(-49.492 -43.011)"/><path class="bf" d="M50.8,43a.094.094,0,0,1,.09-.144c.094.014.1.146.064.2a.1.1,0,1,1-.184-.092Z" transform="translate(-45.489 -34.868)"/><path class="bf" d="M57.874,41.406c-.084.2.24.128.256-.032C58.152,41.191,57.888,41.243,57.874,41.406Z" transform="translate(-51.174 -33.589)"/><path class="bf" d="M32.784,42.415c-.038.178.2.142.2,0a.1.1,0,0,0-.2-.036Z" transform="translate(-31.106 -34.42)"/><path class="bf" d="M40.43,41.911a.272.272,0,0,0,.1-.1c-.068-.058-.07-.014-.1.042Z" transform="translate(-37.227 -34.009)"/></g><path class="aw" d="M124.478,1.99l-.2,5.394,1.9.2-.1,1.355-1.8.114-.172,3.983.106.032,2.346-4.159.388-.654-1.977-6.258Z" transform="translate(-99.306 -1.592)"/><path class="bg" d="M83.193,11.472s2.244-3.939,2.346-4.159a5.723,5.723,0,0,0,.14-1.371C85.661,5.806,83.95.4,83.95.4L72.84.316V.164L77.519,0,90.475.174s2.466,5.35,2.5,5.524a3.471,3.471,0,0,1-.252,1.237c-.108.1-3.783,4.269-3.783,4.269l-6.032.4-.27-.118Z" transform="translate(-58.282)"/><path class="bh" d="M92.724,7.591,85.663,7.9s.086-1.153.062-1.359S84.05.856,84.05.856L72.84.82V.972l11.11.084s1.727,5.352,1.729,5.54a6.819,6.819,0,0,1-.14,1.371c-.09.172-2.346,4.161-2.346,4.161l-.554.024.27.118,6.032-.4Z" transform="translate(-58.282 -0.656)"/><path class="bi" d="M135.379,9.6l5.532-.278L139.62,6.48h-5.25Z" transform="translate(-107.515 -5.185)"/><path class="bj" d="M141.61,9.09l.248.378,2.978-.026-.1-.352Z" transform="translate(-113.308 -7.273)"/><path class="bh" d="M135.3,43.206l4.229-.166-1.011,1.249-3.981.13Z" transform="translate(-107.651 -34.438)"/><path class="bk" d="M144.02,14.45l.214.705,3.1-.048-.232-.817Z" transform="translate(-115.237 -11.434)"/></g></g></g></svg>