<svg xmlns="http://www.w3.org/2000/svg" width="16" height="19.361" viewBox="0 0 16 19.361"><defs><style>.a{fill:#a7a8bc;}</style></defs><g transform="translate(0)"><path class="a" d="M58.645,112.942H51.433a2.182,2.182,0,1,0-3.292,0H46.419a1.889,1.889,0,0,0-1.887,1.887v2.226a.377.377,0,0,0,.755,0v-2.226a1.133,1.133,0,0,1,1.132-1.132H56.985a1.133,1.133,0,0,1,1.132,1.132v2.038H54.192a1.887,1.887,0,1,0,0,3.774h3.925v2.038a1.133,1.133,0,0,1-1.132,1.132H46.419a1.133,1.133,0,0,1-1.132-1.132v-2.229a.377.377,0,0,0-.755,0v2.229a1.889,1.889,0,0,0,1.887,1.887H58.645a1.889,1.889,0,0,0,1.887-1.887v-7.849A1.889,1.889,0,0,0,58.645,112.942Zm-8.858-2.858a1.428,1.428,0,1,1-1.428,1.428A1.429,1.429,0,0,1,49.787,110.084Zm8.707,3.613h.152a1.133,1.133,0,0,1,1.132,1.132v2.038h-.906v-2.038A1.877,1.877,0,0,0,58.493,113.7Zm-5.433,5.057a1.133,1.133,0,0,1,1.132-1.132h5.585v2.264H54.192A1.133,1.133,0,0,1,53.06,118.753Zm5.585,5.057h-.152a1.877,1.877,0,0,0,.378-1.132V120.64h.906v2.038A1.133,1.133,0,0,1,58.645,123.81Z" transform="translate(-44.532 -105.203)"/><path class="a" d="M288.349,349.062a.378.378,0,1,0,.267.111A.38.38,0,0,0,288.349,349.062Z" transform="translate(-278.786 -335.89)"/><path class="a" d="M273.633,26.361a2.182,2.182,0,1,0-2.182-2.182A2.185,2.185,0,0,0,273.633,26.361Zm0-3.61a1.428,1.428,0,1,1-1.428,1.428A1.429,1.429,0,0,1,273.633,22.751Z" transform="translate(-262.888 -21.166)"/><path class="a" d="M221.99,3.72a.377.377,0,0,0,.377-.377V.377a.377.377,0,1,0-.755,0V3.343A.377.377,0,0,0,221.99,3.72Z" transform="translate(-214.931)"/><path class="a" d="M173.99,2.415a.377.377,0,0,0,.377-.377V.377a.377.377,0,0,0-.755,0v1.66A.377.377,0,0,0,173.99,2.415Z" transform="translate(-168.742)"/><path class="a" d="M44.909,349.817a.378.378,0,1,0-.267-.111A.38.38,0,0,0,44.909,349.817Z" transform="translate(-44.532 -335.89)"/></g></svg>