<svg xmlns="http://www.w3.org/2000/svg" width="18.25" height="18.25" viewBox="0 0 18.25 18.25"><defs><style>.a{fill:#a7a8bc;stroke:#a7a8bc;stroke-width:0.25px;}</style></defs><g transform="translate(0.125 0.125)"><path class="a" d="M3.165,13.92a1.468,1.468,0,0,0-.709.181A8.3,8.3,0,0,1,10.652.867a.352.352,0,0,0,.139-.689A9.067,9.067,0,0,0,9,0,9,9,0,0,0,1.936,14.577a1.477,1.477,0,1,0,1.229-.658Zm.547,2.023a.773.773,0,1,1,.227-.547A.768.768,0,0,1,3.712,15.943Zm0,0" transform="translate(0 0.001)"/><path class="a" d="M206.6,34.346a1.474,1.474,0,1,0-.52.477,8.3,8.3,0,0,1-8.18,13.237.352.352,0,1,0-.138.69,9.073,9.073,0,0,0,1.775.175A9,9,0,0,0,206.6,34.346Zm-1.776-.272a.774.774,0,1,1,.547.226A.768.768,0,0,1,204.828,34.074Zm0,0" transform="translate(-190.541 -30.924)"/><path class="a" d="M78.932,86.445a.352.352,0,0,0,.352.352h2.2a.352.352,0,0,0,.352-.352v-.682a5.505,5.505,0,0,0,1.319-.547l.481.481a.351.351,0,0,0,.5,0l1.554-1.555a.352.352,0,0,0,0-.5l-.481-.481a5.506,5.506,0,0,0,.547-1.319h.679a.352.352,0,0,0,.352-.352V79.3a.352.352,0,0,0-.352-.352h-.679a5.506,5.506,0,0,0-.547-1.319l.478-.478a.352.352,0,0,0,0-.5L84.128,75.1a.352.352,0,0,0-.5,0l-.477.477a5.505,5.505,0,0,0-1.319-.547v-.675A.352.352,0,0,0,81.482,74h-2.2a.352.352,0,0,0-.352.352v.675a5.5,5.5,0,0,0-1.319.547l-.477-.477a.352.352,0,0,0-.5,0L75.084,76.65a.351.351,0,0,0,0,.5l.478.478a5.5,5.5,0,0,0-.547,1.319h-.678a.352.352,0,0,0-.352.351v2.2a.351.351,0,0,0,.352.352h.679a5.505,5.505,0,0,0,.547,1.319l-.481.481a.352.352,0,0,0,0,.5L76.635,85.7a.352.352,0,0,0,.249.1h0a.352.352,0,0,0,.249-.1l.481-.481a5.51,5.51,0,0,0,1.319.547Zm-1.182-1.968a.352.352,0,0,0-.439.047l-.428.428-1.057-1.058.428-.428a.351.351,0,0,0,.047-.439,4.813,4.813,0,0,1-.666-1.607.352.352,0,0,0-.344-.278h-.6v-1.5h.6a.352.352,0,0,0,.344-.278,4.813,4.813,0,0,1,.666-1.607.351.351,0,0,0-.047-.439l-.425-.425,1.058-1.057.424.425a.352.352,0,0,0,.439.047,4.81,4.81,0,0,1,1.607-.666.352.352,0,0,0,.278-.344v-.6h1.5v.6a.351.351,0,0,0,.278.344,4.814,4.814,0,0,1,1.607.666.351.351,0,0,0,.439-.047l.425-.424L84.937,76.9l-.425.425a.351.351,0,0,0-.047.439,4.815,4.815,0,0,1,.666,1.607.351.351,0,0,0,.344.278h.6v1.5h-.6a.352.352,0,0,0-.344.278,4.811,4.811,0,0,1-.666,1.607.352.352,0,0,0,.047.439l.428.428-1.057,1.058-.428-.428a.351.351,0,0,0-.439-.047,4.815,4.815,0,0,1-1.607.666.352.352,0,0,0-.278.344v.607h-1.5v-.607a.352.352,0,0,0-.278-.344A4.812,4.812,0,0,1,77.751,84.478Zm0,0" transform="translate(-71.383 -71.398)"/><path class="a" d="M179.181,176.276a2.9,2.9,0,1,0-2.9,2.9A2.908,2.908,0,0,0,179.181,176.276Zm-5.107,0a2.2,2.2,0,1,1,2.2,2.2A2.2,2.2,0,0,1,174.074,176.276Zm0,0" transform="translate(-167.276 -167.276)"/><path class="a" d="M338.43,18.512a.352.352,0,1,0-.248-.1A.354.354,0,0,0,338.43,18.512Zm0,0" transform="translate(-326.192 -17.182)"/><path class="a" d="M154.711,474.359a.352.352,0,1,0,.249.1A.354.354,0,0,0,154.711,474.359Zm0,0" transform="translate(-148.932 -457.682)"/></g></svg>