<svg xmlns="http://www.w3.org/2000/svg" width="18.25" height="19.942" viewBox="0 0 18.25 19.942"><defs><style>.a{fill:#a7a8bc;stroke:#a7a8bc;stroke-width:0.25px;}</style></defs><g transform="translate(0.125 0.125)"><g transform="translate(0)"><path class="a" d="M38.077,10.308H36.684a7.608,7.608,0,0,0-.616-6.681.385.385,0,0,0-.656.4,6.834,6.834,0,0,1,.441,6.278H32.538a1.923,1.923,0,0,0-.374.037,3.756,3.756,0,1,0-1.176.749,1.913,1.913,0,0,0-.374,1.138v5.141l-1.023,1.311L24.316,11.92,24.3,11.9A6.824,6.824,0,0,1,33.1,1.741a.385.385,0,1,0,.4-.659,7.593,7.593,0,0,0-9.808,11.289l.006.007,5.59,7.165a.385.385,0,0,0,.606,0l.848-1.086a1.926,1.926,0,0,0,1.8,1.234h5.538A1.925,1.925,0,0,0,40,17.769V12.231a1.925,1.925,0,0,0-1.923-1.923ZM26.592,7.592a3,3,0,1,1,3,3A3,3,0,0,1,26.592,7.592Zm9.87,3.485v1.868l-.93-.666a.385.385,0,0,0-.448,0l-.93.666V11.077Zm2.769,6.692a1.155,1.155,0,0,1-1.154,1.154H32.538a1.155,1.155,0,0,1-1.154-1.154V12.231a1.155,1.155,0,0,1,1.154-1.154h.847v2.617a.385.385,0,0,0,.609.313l1.314-.942,1.314.942a.385.385,0,0,0,.609-.313V11.077h.846a1.155,1.155,0,0,1,1.154,1.154Z" transform="translate(-22 0)"/><path class="a" d="M396.577,443.672h-1.192a.385.385,0,1,0,0,.769h1.192a.385.385,0,1,0,0-.769Z" transform="translate(-380.654 -426.608)"/><path class="a" d="M342.025,54.769a.384.384,0,1,0-.272-.113A.388.388,0,0,0,342.025,54.769Z" transform="translate(-329.346 -51.923)"/></g></g></svg>