<?xml version="1.0" encoding="utf-8"?>
<!-- Generator: Adobe Illustrator 23.0.1, SVG Export Plug-In . SVG Version: 6.00 Build 0)  -->
<svg version="1.1" id="Layer_1" xmlns="http://www.w3.org/2000/svg" xmlns:xlink="http://www.w3.org/1999/xlink" x="0px" y="0px"
	 viewBox="0 0 28.9 14" style="enable-background:new 0 0 28.9 14;" xml:space="preserve">
<style type="text/css">
	.st0{fill:#FFFFFF;}
</style>
<path class="st0" d="M28.6,6.2L28.6,6.2l-5.9-5.9c-0.4-0.4-1.2-0.4-1.6,0c-0.4,0.4-0.4,1.1,0,1.6l4,3.9H1.1C0.5,5.9,0,6.4,0,7
	c0,0.6,0.5,1.1,1.1,1.1c0,0,0,0,0,0H25l-4,3.9c-0.4,0.4-0.4,1.2,0,1.6c0.4,0.4,1.1,0.4,1.6,0l5.9-5.9l0,0C29,7.4,29,6.6,28.6,6.2
	C28.6,6.2,28.6,6.2,28.6,6.2z"/>
</svg>
