<svg xmlns="http://www.w3.org/2000/svg" width="114" height="32.578" viewBox="0 0 114 32.578"><defs><style>.a{fill:#5e310e;}.b{fill:#fff;}</style></defs><g transform="translate(-3960 -2611)"><g transform="translate(3960 2611)"><g transform="translate(0 0)"><path class="a" d="M3824.065,2573.777l3.714-27.692a1.951,1.951,0,0,1,1.889-1.694h7.1a1.935,1.935,0,0,1,1.955,1.824l.457,3,.391-3.128a1.967,1.967,0,0,1,1.955-1.694h6.125a1.919,1.919,0,0,1,1.955,1.955h0a9.1,9.1,0,0,1,3.128-1.694,12.943,12.943,0,0,1,4.3-.651,12.058,12.058,0,0,1,4.235.651,7.512,7.512,0,0,1,3,1.955l.065-.521a1.967,1.967,0,0,1,1.955-1.694h6.32a1.9,1.9,0,0,1,1.824,1.3,1.96,1.96,0,0,1,1.824-1.3h6.32a2.011,2.011,0,0,1,.651.065,1.813,1.813,0,0,1,.587-.065h6.255a1.975,1.975,0,0,1,1.955,1.5,1.888,1.888,0,0,1,1.889-1.5h6.255a2.011,2.011,0,0,1,.651.065,1.81,1.81,0,0,1,.586-.065h7.037a1.936,1.936,0,0,1,1.955,1.824l.521,3,.391-3.128a1.966,1.966,0,0,1,1.955-1.694h6.125a1.96,1.96,0,0,1,1.955,1.955h0a9.1,9.1,0,0,1,3.127-1.694,12.949,12.949,0,0,1,4.3-.651,12.306,12.306,0,0,1,4.236.651,6.609,6.609,0,0,1,3.192,2.216h0a7.043,7.043,0,0,1,1.629,3.518,14.343,14.343,0,0,1,0,4.431l-.13,1.3a2.079,2.079,0,0,1-.913,1.368,1.818,1.818,0,0,1,.521,1.3.829.829,0,0,1-.065.391l-2.02,15.312a1.967,1.967,0,0,1-1.955,1.695h-5.8a2.069,2.069,0,0,1-1.3-.521l-.065.065a10.191,10.191,0,0,1-1.825.651,9.931,9.931,0,0,1-1.954.2,6.6,6.6,0,0,1-3.323-.782,4.95,4.95,0,0,1-1.434-1.107,1.955,1.955,0,0,1-1.889,1.5h-6.841a1.976,1.976,0,0,1-1.955-1.76l-.651-3.779-.456,3.844a1.968,1.968,0,0,1-1.955,1.695h-6.125a1.96,1.96,0,0,1-1.955-1.955v-.13a9.38,9.38,0,0,1-3.257,1.824,12.7,12.7,0,0,1-4.3.651,11.931,11.931,0,0,1-4.17-.651,7.64,7.64,0,0,1-3.128-2.215l-.065.781a1.967,1.967,0,0,1-1.954,1.695h-6.255a2.008,2.008,0,0,1-1.89-1.3,1.984,1.984,0,0,1-1.824,1.3h-6.32a1.993,1.993,0,0,1-1.955-1.89,9.857,9.857,0,0,1-3.062,1.629,12.952,12.952,0,0,1-4.3.651,12.061,12.061,0,0,1-4.235-.651,7.332,7.332,0,0,1-3.062-2.085l-.065.651a1.967,1.967,0,0,1-1.955,1.695H3837.1a2.025,2.025,0,0,1-1.955-1.76l-.586-3.779-.521,3.844a1.968,1.968,0,0,1-1.955,1.695h-6.125a2,2,0,0,1-1.955-1.955C3824,2574.1,3824.065,2573.906,3824.065,2573.777Z" transform="translate(-3824 -2544)"/><path class="b" d="M3854,2602.278l3.714-27.887h7.1l1.759,11.272c.2,1.238.391,2.541.521,3.91.195,1.3.326,2.671.456,4.17,0-1.368,0-2.8.13-4.17.065-1.434.261-3,.521-4.887l1.369-10.294h6.124l-3.713,27.887h-6.842l-2.02-11.989c-.2-1.3-.392-2.606-.521-3.909-.13-1.368-.261-2.737-.326-4.235-.13,2.085-.2,4.105-.391,5.929-.13,1.825-.326,3.584-.521,5.147l-1.238,9.057Zm28.148-20.719-1.825,13.552a2.978,2.978,0,0,0,.2,1.955,1.574,1.574,0,0,0,1.434.586,2.115,2.115,0,0,0,1.564-.586,4.24,4.24,0,0,0,.716-1.955l1.759-13.552a2.911,2.911,0,0,0-.195-1.955,1.422,1.422,0,0,0-1.368-.652,1.849,1.849,0,0,0-1.564.652A3.417,3.417,0,0,0,3882.148,2581.558Zm-6.516,1.042a10.318,10.318,0,0,1,2.932-6.45,9.469,9.469,0,0,1,6.516-2.15c2.8,0,4.756.717,5.929,2.15,1.238,1.433,1.629,3.584,1.238,6.45l-1.5,11.468a10.318,10.318,0,0,1-2.932,6.45,9.469,9.469,0,0,1-6.516,2.15c-2.737,0-4.756-.717-5.929-2.15-1.238-1.433-1.629-3.649-1.238-6.45Zm14.986,19.677,3.713-27.887h6.32l-1.368,10.294h3.649l1.368-10.294h6.32l-3.714,27.887h-6.255l1.564-12.184h-3.649l-1.629,12.184Zm27.5-27.887-2.737,20.72a2.913,2.913,0,0,0,.2,1.955,1.522,1.522,0,0,0,1.369.586,1.87,1.87,0,0,0,1.5-.586,3.342,3.342,0,0,0,.716-1.955l2.8-20.72h6.255l-2.606,19.677c-.391,2.867-1.3,5.017-2.867,6.45a9.465,9.465,0,0,1-6.515,2.15c-2.671,0-4.626-.717-5.8-2.15s-1.564-3.649-1.173-6.45l2.605-19.677Zm7.624,27.887,3.713-27.887h7.037l1.76,11.272c.26,1.238.391,2.541.586,3.91.13,1.3.26,2.671.391,4.17,0-1.368.065-2.8.2-4.17.065-1.434.261-3,.521-4.887l1.369-10.294h6.125l-3.714,27.887h-6.841l-2.02-11.989c-.2-1.3-.391-2.606-.521-3.909-.2-1.368-.26-2.737-.391-4.235-.065,2.085-.2,4.105-.326,5.929s-.326,3.584-.521,5.147l-1.239,9.057Zm29.776,0,.261-2.15a8.649,8.649,0,0,1-2.476,1.89,6.441,6.441,0,0,1-2.932.651,4.134,4.134,0,0,1-3.975-2.15q-1.075-2.248-.586-6.45l1.563-11.468a10.318,10.318,0,0,1,2.932-6.45,9.355,9.355,0,0,1,6.516-2.15c2.737,0,4.756.717,5.929,2.15s1.564,3.584,1.238,6.45l-.2,1.3H3957.4l.326-2.346a2.907,2.907,0,0,0-.2-1.955,1.467,1.467,0,0,0-1.433-.652,1.723,1.723,0,0,0-1.5.652,3.014,3.014,0,0,0-.716,1.955l-1.825,13.552a2.972,2.972,0,0,0,.2,1.955,1.574,1.574,0,0,0,1.434.586,1.868,1.868,0,0,0,1.5-.586,3.62,3.62,0,0,0,.717-1.955l.457-3.127h-2.151l.652-5.147h8.536l-2.085,15.442Z" transform="translate(-3852.045 -2572.045)"/></g></g></g></svg>